%TF.GenerationSoftware,KiCad,Pcbnew,(5.1.7-0-10_14)*%
%TF.CreationDate,2021-05-28T11:23:36-04:00*%
%TF.ProjectId,SlewLimiter,536c6577-4c69-46d6-9974-65722e6b6963,rev?*%
%TF.SameCoordinates,Original*%
%TF.FileFunction,Soldermask,Top*%
%TF.FilePolarity,Negative*%
%FSLAX46Y46*%
G04 Gerber Fmt 4.6, Leading zero omitted, Abs format (unit mm)*
G04 Created by KiCad (PCBNEW (5.1.7-0-10_14)) date 2021-05-28 11:23:36*
%MOMM*%
%LPD*%
G01*
G04 APERTURE LIST*
%ADD10C,1.800000*%
%ADD11R,1.800000X1.800000*%
%ADD12O,2.800000X2.200000*%
%ADD13R,0.800000X0.900000*%
%ADD14C,3.600000*%
%ADD15O,2.300000X1.500000*%
%ADD16O,1.700000X1.700000*%
%ADD17R,1.700000X1.700000*%
%ADD18O,1.600000X1.600000*%
%ADD19R,1.600000X1.600000*%
%ADD20R,0.900000X1.200000*%
%ADD21R,0.500000X0.500000*%
G04 APERTURE END LIST*
D10*
%TO.C,D303*%
X51270000Y-63400000D03*
D11*
X48730000Y-63400000D03*
%TD*%
%TO.C,U202*%
G36*
G01*
X80600000Y-79645000D02*
X80600000Y-79345000D01*
G75*
G02*
X80750000Y-79195000I150000J0D01*
G01*
X82400000Y-79195000D01*
G75*
G02*
X82550000Y-79345000I0J-150000D01*
G01*
X82550000Y-79645000D01*
G75*
G02*
X82400000Y-79795000I-150000J0D01*
G01*
X80750000Y-79795000D01*
G75*
G02*
X80600000Y-79645000I0J150000D01*
G01*
G37*
G36*
G01*
X80600000Y-80915000D02*
X80600000Y-80615000D01*
G75*
G02*
X80750000Y-80465000I150000J0D01*
G01*
X82400000Y-80465000D01*
G75*
G02*
X82550000Y-80615000I0J-150000D01*
G01*
X82550000Y-80915000D01*
G75*
G02*
X82400000Y-81065000I-150000J0D01*
G01*
X80750000Y-81065000D01*
G75*
G02*
X80600000Y-80915000I0J150000D01*
G01*
G37*
G36*
G01*
X80600000Y-82185000D02*
X80600000Y-81885000D01*
G75*
G02*
X80750000Y-81735000I150000J0D01*
G01*
X82400000Y-81735000D01*
G75*
G02*
X82550000Y-81885000I0J-150000D01*
G01*
X82550000Y-82185000D01*
G75*
G02*
X82400000Y-82335000I-150000J0D01*
G01*
X80750000Y-82335000D01*
G75*
G02*
X80600000Y-82185000I0J150000D01*
G01*
G37*
G36*
G01*
X80600000Y-83455000D02*
X80600000Y-83155000D01*
G75*
G02*
X80750000Y-83005000I150000J0D01*
G01*
X82400000Y-83005000D01*
G75*
G02*
X82550000Y-83155000I0J-150000D01*
G01*
X82550000Y-83455000D01*
G75*
G02*
X82400000Y-83605000I-150000J0D01*
G01*
X80750000Y-83605000D01*
G75*
G02*
X80600000Y-83455000I0J150000D01*
G01*
G37*
G36*
G01*
X75650000Y-83455000D02*
X75650000Y-83155000D01*
G75*
G02*
X75800000Y-83005000I150000J0D01*
G01*
X77450000Y-83005000D01*
G75*
G02*
X77600000Y-83155000I0J-150000D01*
G01*
X77600000Y-83455000D01*
G75*
G02*
X77450000Y-83605000I-150000J0D01*
G01*
X75800000Y-83605000D01*
G75*
G02*
X75650000Y-83455000I0J150000D01*
G01*
G37*
G36*
G01*
X75650000Y-82185000D02*
X75650000Y-81885000D01*
G75*
G02*
X75800000Y-81735000I150000J0D01*
G01*
X77450000Y-81735000D01*
G75*
G02*
X77600000Y-81885000I0J-150000D01*
G01*
X77600000Y-82185000D01*
G75*
G02*
X77450000Y-82335000I-150000J0D01*
G01*
X75800000Y-82335000D01*
G75*
G02*
X75650000Y-82185000I0J150000D01*
G01*
G37*
G36*
G01*
X75650000Y-80915000D02*
X75650000Y-80615000D01*
G75*
G02*
X75800000Y-80465000I150000J0D01*
G01*
X77450000Y-80465000D01*
G75*
G02*
X77600000Y-80615000I0J-150000D01*
G01*
X77600000Y-80915000D01*
G75*
G02*
X77450000Y-81065000I-150000J0D01*
G01*
X75800000Y-81065000D01*
G75*
G02*
X75650000Y-80915000I0J150000D01*
G01*
G37*
G36*
G01*
X75650000Y-79645000D02*
X75650000Y-79345000D01*
G75*
G02*
X75800000Y-79195000I150000J0D01*
G01*
X77450000Y-79195000D01*
G75*
G02*
X77600000Y-79345000I0J-150000D01*
G01*
X77600000Y-79645000D01*
G75*
G02*
X77450000Y-79795000I-150000J0D01*
G01*
X75800000Y-79795000D01*
G75*
G02*
X75650000Y-79645000I0J150000D01*
G01*
G37*
%TD*%
%TO.C,U201*%
G36*
G01*
X101800000Y-79945000D02*
X101800000Y-79645000D01*
G75*
G02*
X101950000Y-79495000I150000J0D01*
G01*
X103600000Y-79495000D01*
G75*
G02*
X103750000Y-79645000I0J-150000D01*
G01*
X103750000Y-79945000D01*
G75*
G02*
X103600000Y-80095000I-150000J0D01*
G01*
X101950000Y-80095000D01*
G75*
G02*
X101800000Y-79945000I0J150000D01*
G01*
G37*
G36*
G01*
X101800000Y-81215000D02*
X101800000Y-80915000D01*
G75*
G02*
X101950000Y-80765000I150000J0D01*
G01*
X103600000Y-80765000D01*
G75*
G02*
X103750000Y-80915000I0J-150000D01*
G01*
X103750000Y-81215000D01*
G75*
G02*
X103600000Y-81365000I-150000J0D01*
G01*
X101950000Y-81365000D01*
G75*
G02*
X101800000Y-81215000I0J150000D01*
G01*
G37*
G36*
G01*
X101800000Y-82485000D02*
X101800000Y-82185000D01*
G75*
G02*
X101950000Y-82035000I150000J0D01*
G01*
X103600000Y-82035000D01*
G75*
G02*
X103750000Y-82185000I0J-150000D01*
G01*
X103750000Y-82485000D01*
G75*
G02*
X103600000Y-82635000I-150000J0D01*
G01*
X101950000Y-82635000D01*
G75*
G02*
X101800000Y-82485000I0J150000D01*
G01*
G37*
G36*
G01*
X101800000Y-83755000D02*
X101800000Y-83455000D01*
G75*
G02*
X101950000Y-83305000I150000J0D01*
G01*
X103600000Y-83305000D01*
G75*
G02*
X103750000Y-83455000I0J-150000D01*
G01*
X103750000Y-83755000D01*
G75*
G02*
X103600000Y-83905000I-150000J0D01*
G01*
X101950000Y-83905000D01*
G75*
G02*
X101800000Y-83755000I0J150000D01*
G01*
G37*
G36*
G01*
X96850000Y-83755000D02*
X96850000Y-83455000D01*
G75*
G02*
X97000000Y-83305000I150000J0D01*
G01*
X98650000Y-83305000D01*
G75*
G02*
X98800000Y-83455000I0J-150000D01*
G01*
X98800000Y-83755000D01*
G75*
G02*
X98650000Y-83905000I-150000J0D01*
G01*
X97000000Y-83905000D01*
G75*
G02*
X96850000Y-83755000I0J150000D01*
G01*
G37*
G36*
G01*
X96850000Y-82485000D02*
X96850000Y-82185000D01*
G75*
G02*
X97000000Y-82035000I150000J0D01*
G01*
X98650000Y-82035000D01*
G75*
G02*
X98800000Y-82185000I0J-150000D01*
G01*
X98800000Y-82485000D01*
G75*
G02*
X98650000Y-82635000I-150000J0D01*
G01*
X97000000Y-82635000D01*
G75*
G02*
X96850000Y-82485000I0J150000D01*
G01*
G37*
G36*
G01*
X96850000Y-81215000D02*
X96850000Y-80915000D01*
G75*
G02*
X97000000Y-80765000I150000J0D01*
G01*
X98650000Y-80765000D01*
G75*
G02*
X98800000Y-80915000I0J-150000D01*
G01*
X98800000Y-81215000D01*
G75*
G02*
X98650000Y-81365000I-150000J0D01*
G01*
X97000000Y-81365000D01*
G75*
G02*
X96850000Y-81215000I0J150000D01*
G01*
G37*
G36*
G01*
X96850000Y-79945000D02*
X96850000Y-79645000D01*
G75*
G02*
X97000000Y-79495000I150000J0D01*
G01*
X98650000Y-79495000D01*
G75*
G02*
X98800000Y-79645000I0J-150000D01*
G01*
X98800000Y-79945000D01*
G75*
G02*
X98650000Y-80095000I-150000J0D01*
G01*
X97000000Y-80095000D01*
G75*
G02*
X96850000Y-79945000I0J150000D01*
G01*
G37*
%TD*%
%TO.C,U105*%
G36*
G01*
X89425000Y-111250000D02*
X89425000Y-110950000D01*
G75*
G02*
X89575000Y-110800000I150000J0D01*
G01*
X91225000Y-110800000D01*
G75*
G02*
X91375000Y-110950000I0J-150000D01*
G01*
X91375000Y-111250000D01*
G75*
G02*
X91225000Y-111400000I-150000J0D01*
G01*
X89575000Y-111400000D01*
G75*
G02*
X89425000Y-111250000I0J150000D01*
G01*
G37*
G36*
G01*
X89425000Y-112520000D02*
X89425000Y-112220000D01*
G75*
G02*
X89575000Y-112070000I150000J0D01*
G01*
X91225000Y-112070000D01*
G75*
G02*
X91375000Y-112220000I0J-150000D01*
G01*
X91375000Y-112520000D01*
G75*
G02*
X91225000Y-112670000I-150000J0D01*
G01*
X89575000Y-112670000D01*
G75*
G02*
X89425000Y-112520000I0J150000D01*
G01*
G37*
G36*
G01*
X89425000Y-113790000D02*
X89425000Y-113490000D01*
G75*
G02*
X89575000Y-113340000I150000J0D01*
G01*
X91225000Y-113340000D01*
G75*
G02*
X91375000Y-113490000I0J-150000D01*
G01*
X91375000Y-113790000D01*
G75*
G02*
X91225000Y-113940000I-150000J0D01*
G01*
X89575000Y-113940000D01*
G75*
G02*
X89425000Y-113790000I0J150000D01*
G01*
G37*
G36*
G01*
X89425000Y-115060000D02*
X89425000Y-114760000D01*
G75*
G02*
X89575000Y-114610000I150000J0D01*
G01*
X91225000Y-114610000D01*
G75*
G02*
X91375000Y-114760000I0J-150000D01*
G01*
X91375000Y-115060000D01*
G75*
G02*
X91225000Y-115210000I-150000J0D01*
G01*
X89575000Y-115210000D01*
G75*
G02*
X89425000Y-115060000I0J150000D01*
G01*
G37*
G36*
G01*
X84475000Y-115060000D02*
X84475000Y-114760000D01*
G75*
G02*
X84625000Y-114610000I150000J0D01*
G01*
X86275000Y-114610000D01*
G75*
G02*
X86425000Y-114760000I0J-150000D01*
G01*
X86425000Y-115060000D01*
G75*
G02*
X86275000Y-115210000I-150000J0D01*
G01*
X84625000Y-115210000D01*
G75*
G02*
X84475000Y-115060000I0J150000D01*
G01*
G37*
G36*
G01*
X84475000Y-113790000D02*
X84475000Y-113490000D01*
G75*
G02*
X84625000Y-113340000I150000J0D01*
G01*
X86275000Y-113340000D01*
G75*
G02*
X86425000Y-113490000I0J-150000D01*
G01*
X86425000Y-113790000D01*
G75*
G02*
X86275000Y-113940000I-150000J0D01*
G01*
X84625000Y-113940000D01*
G75*
G02*
X84475000Y-113790000I0J150000D01*
G01*
G37*
G36*
G01*
X84475000Y-112520000D02*
X84475000Y-112220000D01*
G75*
G02*
X84625000Y-112070000I150000J0D01*
G01*
X86275000Y-112070000D01*
G75*
G02*
X86425000Y-112220000I0J-150000D01*
G01*
X86425000Y-112520000D01*
G75*
G02*
X86275000Y-112670000I-150000J0D01*
G01*
X84625000Y-112670000D01*
G75*
G02*
X84475000Y-112520000I0J150000D01*
G01*
G37*
G36*
G01*
X84475000Y-111250000D02*
X84475000Y-110950000D01*
G75*
G02*
X84625000Y-110800000I150000J0D01*
G01*
X86275000Y-110800000D01*
G75*
G02*
X86425000Y-110950000I0J-150000D01*
G01*
X86425000Y-111250000D01*
G75*
G02*
X86275000Y-111400000I-150000J0D01*
G01*
X84625000Y-111400000D01*
G75*
G02*
X84475000Y-111250000I0J150000D01*
G01*
G37*
%TD*%
%TO.C,U104*%
G36*
G01*
X77025000Y-53250000D02*
X77025000Y-52950000D01*
G75*
G02*
X77175000Y-52800000I150000J0D01*
G01*
X78825000Y-52800000D01*
G75*
G02*
X78975000Y-52950000I0J-150000D01*
G01*
X78975000Y-53250000D01*
G75*
G02*
X78825000Y-53400000I-150000J0D01*
G01*
X77175000Y-53400000D01*
G75*
G02*
X77025000Y-53250000I0J150000D01*
G01*
G37*
G36*
G01*
X77025000Y-54520000D02*
X77025000Y-54220000D01*
G75*
G02*
X77175000Y-54070000I150000J0D01*
G01*
X78825000Y-54070000D01*
G75*
G02*
X78975000Y-54220000I0J-150000D01*
G01*
X78975000Y-54520000D01*
G75*
G02*
X78825000Y-54670000I-150000J0D01*
G01*
X77175000Y-54670000D01*
G75*
G02*
X77025000Y-54520000I0J150000D01*
G01*
G37*
G36*
G01*
X77025000Y-55790000D02*
X77025000Y-55490000D01*
G75*
G02*
X77175000Y-55340000I150000J0D01*
G01*
X78825000Y-55340000D01*
G75*
G02*
X78975000Y-55490000I0J-150000D01*
G01*
X78975000Y-55790000D01*
G75*
G02*
X78825000Y-55940000I-150000J0D01*
G01*
X77175000Y-55940000D01*
G75*
G02*
X77025000Y-55790000I0J150000D01*
G01*
G37*
G36*
G01*
X77025000Y-57060000D02*
X77025000Y-56760000D01*
G75*
G02*
X77175000Y-56610000I150000J0D01*
G01*
X78825000Y-56610000D01*
G75*
G02*
X78975000Y-56760000I0J-150000D01*
G01*
X78975000Y-57060000D01*
G75*
G02*
X78825000Y-57210000I-150000J0D01*
G01*
X77175000Y-57210000D01*
G75*
G02*
X77025000Y-57060000I0J150000D01*
G01*
G37*
G36*
G01*
X72075000Y-57060000D02*
X72075000Y-56760000D01*
G75*
G02*
X72225000Y-56610000I150000J0D01*
G01*
X73875000Y-56610000D01*
G75*
G02*
X74025000Y-56760000I0J-150000D01*
G01*
X74025000Y-57060000D01*
G75*
G02*
X73875000Y-57210000I-150000J0D01*
G01*
X72225000Y-57210000D01*
G75*
G02*
X72075000Y-57060000I0J150000D01*
G01*
G37*
G36*
G01*
X72075000Y-55790000D02*
X72075000Y-55490000D01*
G75*
G02*
X72225000Y-55340000I150000J0D01*
G01*
X73875000Y-55340000D01*
G75*
G02*
X74025000Y-55490000I0J-150000D01*
G01*
X74025000Y-55790000D01*
G75*
G02*
X73875000Y-55940000I-150000J0D01*
G01*
X72225000Y-55940000D01*
G75*
G02*
X72075000Y-55790000I0J150000D01*
G01*
G37*
G36*
G01*
X72075000Y-54520000D02*
X72075000Y-54220000D01*
G75*
G02*
X72225000Y-54070000I150000J0D01*
G01*
X73875000Y-54070000D01*
G75*
G02*
X74025000Y-54220000I0J-150000D01*
G01*
X74025000Y-54520000D01*
G75*
G02*
X73875000Y-54670000I-150000J0D01*
G01*
X72225000Y-54670000D01*
G75*
G02*
X72075000Y-54520000I0J150000D01*
G01*
G37*
G36*
G01*
X72075000Y-53250000D02*
X72075000Y-52950000D01*
G75*
G02*
X72225000Y-52800000I150000J0D01*
G01*
X73875000Y-52800000D01*
G75*
G02*
X74025000Y-52950000I0J-150000D01*
G01*
X74025000Y-53250000D01*
G75*
G02*
X73875000Y-53400000I-150000J0D01*
G01*
X72225000Y-53400000D01*
G75*
G02*
X72075000Y-53250000I0J150000D01*
G01*
G37*
%TD*%
%TO.C,U103*%
G36*
G01*
X91600000Y-124645000D02*
X91600000Y-124345000D01*
G75*
G02*
X91750000Y-124195000I150000J0D01*
G01*
X93400000Y-124195000D01*
G75*
G02*
X93550000Y-124345000I0J-150000D01*
G01*
X93550000Y-124645000D01*
G75*
G02*
X93400000Y-124795000I-150000J0D01*
G01*
X91750000Y-124795000D01*
G75*
G02*
X91600000Y-124645000I0J150000D01*
G01*
G37*
G36*
G01*
X91600000Y-125915000D02*
X91600000Y-125615000D01*
G75*
G02*
X91750000Y-125465000I150000J0D01*
G01*
X93400000Y-125465000D01*
G75*
G02*
X93550000Y-125615000I0J-150000D01*
G01*
X93550000Y-125915000D01*
G75*
G02*
X93400000Y-126065000I-150000J0D01*
G01*
X91750000Y-126065000D01*
G75*
G02*
X91600000Y-125915000I0J150000D01*
G01*
G37*
G36*
G01*
X91600000Y-127185000D02*
X91600000Y-126885000D01*
G75*
G02*
X91750000Y-126735000I150000J0D01*
G01*
X93400000Y-126735000D01*
G75*
G02*
X93550000Y-126885000I0J-150000D01*
G01*
X93550000Y-127185000D01*
G75*
G02*
X93400000Y-127335000I-150000J0D01*
G01*
X91750000Y-127335000D01*
G75*
G02*
X91600000Y-127185000I0J150000D01*
G01*
G37*
G36*
G01*
X91600000Y-128455000D02*
X91600000Y-128155000D01*
G75*
G02*
X91750000Y-128005000I150000J0D01*
G01*
X93400000Y-128005000D01*
G75*
G02*
X93550000Y-128155000I0J-150000D01*
G01*
X93550000Y-128455000D01*
G75*
G02*
X93400000Y-128605000I-150000J0D01*
G01*
X91750000Y-128605000D01*
G75*
G02*
X91600000Y-128455000I0J150000D01*
G01*
G37*
G36*
G01*
X86650000Y-128455000D02*
X86650000Y-128155000D01*
G75*
G02*
X86800000Y-128005000I150000J0D01*
G01*
X88450000Y-128005000D01*
G75*
G02*
X88600000Y-128155000I0J-150000D01*
G01*
X88600000Y-128455000D01*
G75*
G02*
X88450000Y-128605000I-150000J0D01*
G01*
X86800000Y-128605000D01*
G75*
G02*
X86650000Y-128455000I0J150000D01*
G01*
G37*
G36*
G01*
X86650000Y-127185000D02*
X86650000Y-126885000D01*
G75*
G02*
X86800000Y-126735000I150000J0D01*
G01*
X88450000Y-126735000D01*
G75*
G02*
X88600000Y-126885000I0J-150000D01*
G01*
X88600000Y-127185000D01*
G75*
G02*
X88450000Y-127335000I-150000J0D01*
G01*
X86800000Y-127335000D01*
G75*
G02*
X86650000Y-127185000I0J150000D01*
G01*
G37*
G36*
G01*
X86650000Y-125915000D02*
X86650000Y-125615000D01*
G75*
G02*
X86800000Y-125465000I150000J0D01*
G01*
X88450000Y-125465000D01*
G75*
G02*
X88600000Y-125615000I0J-150000D01*
G01*
X88600000Y-125915000D01*
G75*
G02*
X88450000Y-126065000I-150000J0D01*
G01*
X86800000Y-126065000D01*
G75*
G02*
X86650000Y-125915000I0J150000D01*
G01*
G37*
G36*
G01*
X86650000Y-124645000D02*
X86650000Y-124345000D01*
G75*
G02*
X86800000Y-124195000I150000J0D01*
G01*
X88450000Y-124195000D01*
G75*
G02*
X88600000Y-124345000I0J-150000D01*
G01*
X88600000Y-124645000D01*
G75*
G02*
X88450000Y-124795000I-150000J0D01*
G01*
X86800000Y-124795000D01*
G75*
G02*
X86650000Y-124645000I0J150000D01*
G01*
G37*
%TD*%
%TO.C,U102*%
G36*
G01*
X89125000Y-97280000D02*
X89125000Y-96980000D01*
G75*
G02*
X89275000Y-96830000I150000J0D01*
G01*
X90925000Y-96830000D01*
G75*
G02*
X91075000Y-96980000I0J-150000D01*
G01*
X91075000Y-97280000D01*
G75*
G02*
X90925000Y-97430000I-150000J0D01*
G01*
X89275000Y-97430000D01*
G75*
G02*
X89125000Y-97280000I0J150000D01*
G01*
G37*
G36*
G01*
X89125000Y-98550000D02*
X89125000Y-98250000D01*
G75*
G02*
X89275000Y-98100000I150000J0D01*
G01*
X90925000Y-98100000D01*
G75*
G02*
X91075000Y-98250000I0J-150000D01*
G01*
X91075000Y-98550000D01*
G75*
G02*
X90925000Y-98700000I-150000J0D01*
G01*
X89275000Y-98700000D01*
G75*
G02*
X89125000Y-98550000I0J150000D01*
G01*
G37*
G36*
G01*
X89125000Y-99820000D02*
X89125000Y-99520000D01*
G75*
G02*
X89275000Y-99370000I150000J0D01*
G01*
X90925000Y-99370000D01*
G75*
G02*
X91075000Y-99520000I0J-150000D01*
G01*
X91075000Y-99820000D01*
G75*
G02*
X90925000Y-99970000I-150000J0D01*
G01*
X89275000Y-99970000D01*
G75*
G02*
X89125000Y-99820000I0J150000D01*
G01*
G37*
G36*
G01*
X89125000Y-101090000D02*
X89125000Y-100790000D01*
G75*
G02*
X89275000Y-100640000I150000J0D01*
G01*
X90925000Y-100640000D01*
G75*
G02*
X91075000Y-100790000I0J-150000D01*
G01*
X91075000Y-101090000D01*
G75*
G02*
X90925000Y-101240000I-150000J0D01*
G01*
X89275000Y-101240000D01*
G75*
G02*
X89125000Y-101090000I0J150000D01*
G01*
G37*
G36*
G01*
X84175000Y-101090000D02*
X84175000Y-100790000D01*
G75*
G02*
X84325000Y-100640000I150000J0D01*
G01*
X85975000Y-100640000D01*
G75*
G02*
X86125000Y-100790000I0J-150000D01*
G01*
X86125000Y-101090000D01*
G75*
G02*
X85975000Y-101240000I-150000J0D01*
G01*
X84325000Y-101240000D01*
G75*
G02*
X84175000Y-101090000I0J150000D01*
G01*
G37*
G36*
G01*
X84175000Y-99820000D02*
X84175000Y-99520000D01*
G75*
G02*
X84325000Y-99370000I150000J0D01*
G01*
X85975000Y-99370000D01*
G75*
G02*
X86125000Y-99520000I0J-150000D01*
G01*
X86125000Y-99820000D01*
G75*
G02*
X85975000Y-99970000I-150000J0D01*
G01*
X84325000Y-99970000D01*
G75*
G02*
X84175000Y-99820000I0J150000D01*
G01*
G37*
G36*
G01*
X84175000Y-98550000D02*
X84175000Y-98250000D01*
G75*
G02*
X84325000Y-98100000I150000J0D01*
G01*
X85975000Y-98100000D01*
G75*
G02*
X86125000Y-98250000I0J-150000D01*
G01*
X86125000Y-98550000D01*
G75*
G02*
X85975000Y-98700000I-150000J0D01*
G01*
X84325000Y-98700000D01*
G75*
G02*
X84175000Y-98550000I0J150000D01*
G01*
G37*
G36*
G01*
X84175000Y-97280000D02*
X84175000Y-96980000D01*
G75*
G02*
X84325000Y-96830000I150000J0D01*
G01*
X85975000Y-96830000D01*
G75*
G02*
X86125000Y-96980000I0J-150000D01*
G01*
X86125000Y-97280000D01*
G75*
G02*
X85975000Y-97430000I-150000J0D01*
G01*
X84325000Y-97430000D01*
G75*
G02*
X84175000Y-97280000I0J150000D01*
G01*
G37*
%TD*%
%TO.C,U101*%
G36*
G01*
X91225000Y-53250000D02*
X91225000Y-52950000D01*
G75*
G02*
X91375000Y-52800000I150000J0D01*
G01*
X93025000Y-52800000D01*
G75*
G02*
X93175000Y-52950000I0J-150000D01*
G01*
X93175000Y-53250000D01*
G75*
G02*
X93025000Y-53400000I-150000J0D01*
G01*
X91375000Y-53400000D01*
G75*
G02*
X91225000Y-53250000I0J150000D01*
G01*
G37*
G36*
G01*
X91225000Y-54520000D02*
X91225000Y-54220000D01*
G75*
G02*
X91375000Y-54070000I150000J0D01*
G01*
X93025000Y-54070000D01*
G75*
G02*
X93175000Y-54220000I0J-150000D01*
G01*
X93175000Y-54520000D01*
G75*
G02*
X93025000Y-54670000I-150000J0D01*
G01*
X91375000Y-54670000D01*
G75*
G02*
X91225000Y-54520000I0J150000D01*
G01*
G37*
G36*
G01*
X91225000Y-55790000D02*
X91225000Y-55490000D01*
G75*
G02*
X91375000Y-55340000I150000J0D01*
G01*
X93025000Y-55340000D01*
G75*
G02*
X93175000Y-55490000I0J-150000D01*
G01*
X93175000Y-55790000D01*
G75*
G02*
X93025000Y-55940000I-150000J0D01*
G01*
X91375000Y-55940000D01*
G75*
G02*
X91225000Y-55790000I0J150000D01*
G01*
G37*
G36*
G01*
X91225000Y-57060000D02*
X91225000Y-56760000D01*
G75*
G02*
X91375000Y-56610000I150000J0D01*
G01*
X93025000Y-56610000D01*
G75*
G02*
X93175000Y-56760000I0J-150000D01*
G01*
X93175000Y-57060000D01*
G75*
G02*
X93025000Y-57210000I-150000J0D01*
G01*
X91375000Y-57210000D01*
G75*
G02*
X91225000Y-57060000I0J150000D01*
G01*
G37*
G36*
G01*
X86275000Y-57060000D02*
X86275000Y-56760000D01*
G75*
G02*
X86425000Y-56610000I150000J0D01*
G01*
X88075000Y-56610000D01*
G75*
G02*
X88225000Y-56760000I0J-150000D01*
G01*
X88225000Y-57060000D01*
G75*
G02*
X88075000Y-57210000I-150000J0D01*
G01*
X86425000Y-57210000D01*
G75*
G02*
X86275000Y-57060000I0J150000D01*
G01*
G37*
G36*
G01*
X86275000Y-55790000D02*
X86275000Y-55490000D01*
G75*
G02*
X86425000Y-55340000I150000J0D01*
G01*
X88075000Y-55340000D01*
G75*
G02*
X88225000Y-55490000I0J-150000D01*
G01*
X88225000Y-55790000D01*
G75*
G02*
X88075000Y-55940000I-150000J0D01*
G01*
X86425000Y-55940000D01*
G75*
G02*
X86275000Y-55790000I0J150000D01*
G01*
G37*
G36*
G01*
X86275000Y-54520000D02*
X86275000Y-54220000D01*
G75*
G02*
X86425000Y-54070000I150000J0D01*
G01*
X88075000Y-54070000D01*
G75*
G02*
X88225000Y-54220000I0J-150000D01*
G01*
X88225000Y-54520000D01*
G75*
G02*
X88075000Y-54670000I-150000J0D01*
G01*
X86425000Y-54670000D01*
G75*
G02*
X86275000Y-54520000I0J150000D01*
G01*
G37*
G36*
G01*
X86275000Y-53250000D02*
X86275000Y-52950000D01*
G75*
G02*
X86425000Y-52800000I150000J0D01*
G01*
X88075000Y-52800000D01*
G75*
G02*
X88225000Y-52950000I0J-150000D01*
G01*
X88225000Y-53250000D01*
G75*
G02*
X88075000Y-53400000I-150000J0D01*
G01*
X86425000Y-53400000D01*
G75*
G02*
X86275000Y-53250000I0J150000D01*
G01*
G37*
%TD*%
D12*
%TO.C,RV307*%
X65650000Y-120000000D03*
X54350000Y-120000000D03*
D10*
X62500000Y-127500000D03*
X60000000Y-127500000D03*
X57500000Y-127500000D03*
%TD*%
D12*
%TO.C,RV306*%
X65650000Y-79500000D03*
X54350000Y-79500000D03*
D10*
X62500000Y-87000000D03*
X60000000Y-87000000D03*
X57500000Y-87000000D03*
%TD*%
D12*
%TO.C,RV305*%
X67900000Y-55200000D03*
X56600000Y-55200000D03*
D10*
X64750000Y-62700000D03*
X62250000Y-62700000D03*
X59750000Y-62700000D03*
%TD*%
D12*
%TO.C,RV304*%
X55650000Y-99900000D03*
X44350000Y-99900000D03*
D10*
X52500000Y-107400000D03*
X50000000Y-107400000D03*
X47500000Y-107400000D03*
%TD*%
D12*
%TO.C,RV303*%
X45650000Y-120000000D03*
X34350000Y-120000000D03*
D10*
X42500000Y-127500000D03*
X40000000Y-127500000D03*
X37500000Y-127500000D03*
%TD*%
D12*
%TO.C,RV302*%
X45650000Y-79500000D03*
X34350000Y-79500000D03*
D10*
X42500000Y-87000000D03*
X40000000Y-87000000D03*
X37500000Y-87000000D03*
%TD*%
D12*
%TO.C,RV301*%
X43400000Y-55200000D03*
X32100000Y-55200000D03*
D10*
X40250000Y-62700000D03*
X37750000Y-62700000D03*
X35250000Y-62700000D03*
%TD*%
%TO.C,R302*%
G36*
G01*
X48785000Y-134970000D02*
X48415000Y-134970000D01*
G75*
G02*
X48280000Y-134835000I0J135000D01*
G01*
X48280000Y-134565000D01*
G75*
G02*
X48415000Y-134430000I135000J0D01*
G01*
X48785000Y-134430000D01*
G75*
G02*
X48920000Y-134565000I0J-135000D01*
G01*
X48920000Y-134835000D01*
G75*
G02*
X48785000Y-134970000I-135000J0D01*
G01*
G37*
G36*
G01*
X48785000Y-135990000D02*
X48415000Y-135990000D01*
G75*
G02*
X48280000Y-135855000I0J135000D01*
G01*
X48280000Y-135585000D01*
G75*
G02*
X48415000Y-135450000I135000J0D01*
G01*
X48785000Y-135450000D01*
G75*
G02*
X48920000Y-135585000I0J-135000D01*
G01*
X48920000Y-135855000D01*
G75*
G02*
X48785000Y-135990000I-135000J0D01*
G01*
G37*
%TD*%
%TO.C,R301*%
G36*
G01*
X52585000Y-134960000D02*
X52215000Y-134960000D01*
G75*
G02*
X52080000Y-134825000I0J135000D01*
G01*
X52080000Y-134555000D01*
G75*
G02*
X52215000Y-134420000I135000J0D01*
G01*
X52585000Y-134420000D01*
G75*
G02*
X52720000Y-134555000I0J-135000D01*
G01*
X52720000Y-134825000D01*
G75*
G02*
X52585000Y-134960000I-135000J0D01*
G01*
G37*
G36*
G01*
X52585000Y-135980000D02*
X52215000Y-135980000D01*
G75*
G02*
X52080000Y-135845000I0J135000D01*
G01*
X52080000Y-135575000D01*
G75*
G02*
X52215000Y-135440000I135000J0D01*
G01*
X52585000Y-135440000D01*
G75*
G02*
X52720000Y-135575000I0J-135000D01*
G01*
X52720000Y-135845000D01*
G75*
G02*
X52585000Y-135980000I-135000J0D01*
G01*
G37*
%TD*%
%TO.C,R219*%
G36*
G01*
X86030000Y-75985000D02*
X86030000Y-75615000D01*
G75*
G02*
X86165000Y-75480000I135000J0D01*
G01*
X86435000Y-75480000D01*
G75*
G02*
X86570000Y-75615000I0J-135000D01*
G01*
X86570000Y-75985000D01*
G75*
G02*
X86435000Y-76120000I-135000J0D01*
G01*
X86165000Y-76120000D01*
G75*
G02*
X86030000Y-75985000I0J135000D01*
G01*
G37*
G36*
G01*
X85010000Y-75985000D02*
X85010000Y-75615000D01*
G75*
G02*
X85145000Y-75480000I135000J0D01*
G01*
X85415000Y-75480000D01*
G75*
G02*
X85550000Y-75615000I0J-135000D01*
G01*
X85550000Y-75985000D01*
G75*
G02*
X85415000Y-76120000I-135000J0D01*
G01*
X85145000Y-76120000D01*
G75*
G02*
X85010000Y-75985000I0J135000D01*
G01*
G37*
%TD*%
%TO.C,R218*%
G36*
G01*
X106250000Y-78915000D02*
X106250000Y-79285000D01*
G75*
G02*
X106115000Y-79420000I-135000J0D01*
G01*
X105845000Y-79420000D01*
G75*
G02*
X105710000Y-79285000I0J135000D01*
G01*
X105710000Y-78915000D01*
G75*
G02*
X105845000Y-78780000I135000J0D01*
G01*
X106115000Y-78780000D01*
G75*
G02*
X106250000Y-78915000I0J-135000D01*
G01*
G37*
G36*
G01*
X107270000Y-78915000D02*
X107270000Y-79285000D01*
G75*
G02*
X107135000Y-79420000I-135000J0D01*
G01*
X106865000Y-79420000D01*
G75*
G02*
X106730000Y-79285000I0J135000D01*
G01*
X106730000Y-78915000D01*
G75*
G02*
X106865000Y-78780000I135000J0D01*
G01*
X107135000Y-78780000D01*
G75*
G02*
X107270000Y-78915000I0J-135000D01*
G01*
G37*
%TD*%
%TO.C,R217*%
G36*
G01*
X86115000Y-77630000D02*
X86485000Y-77630000D01*
G75*
G02*
X86620000Y-77765000I0J-135000D01*
G01*
X86620000Y-78035000D01*
G75*
G02*
X86485000Y-78170000I-135000J0D01*
G01*
X86115000Y-78170000D01*
G75*
G02*
X85980000Y-78035000I0J135000D01*
G01*
X85980000Y-77765000D01*
G75*
G02*
X86115000Y-77630000I135000J0D01*
G01*
G37*
G36*
G01*
X86115000Y-76610000D02*
X86485000Y-76610000D01*
G75*
G02*
X86620000Y-76745000I0J-135000D01*
G01*
X86620000Y-77015000D01*
G75*
G02*
X86485000Y-77150000I-135000J0D01*
G01*
X86115000Y-77150000D01*
G75*
G02*
X85980000Y-77015000I0J135000D01*
G01*
X85980000Y-76745000D01*
G75*
G02*
X86115000Y-76610000I135000J0D01*
G01*
G37*
%TD*%
%TO.C,R216*%
G36*
G01*
X86385000Y-72770000D02*
X86015000Y-72770000D01*
G75*
G02*
X85880000Y-72635000I0J135000D01*
G01*
X85880000Y-72365000D01*
G75*
G02*
X86015000Y-72230000I135000J0D01*
G01*
X86385000Y-72230000D01*
G75*
G02*
X86520000Y-72365000I0J-135000D01*
G01*
X86520000Y-72635000D01*
G75*
G02*
X86385000Y-72770000I-135000J0D01*
G01*
G37*
G36*
G01*
X86385000Y-73790000D02*
X86015000Y-73790000D01*
G75*
G02*
X85880000Y-73655000I0J135000D01*
G01*
X85880000Y-73385000D01*
G75*
G02*
X86015000Y-73250000I135000J0D01*
G01*
X86385000Y-73250000D01*
G75*
G02*
X86520000Y-73385000I0J-135000D01*
G01*
X86520000Y-73655000D01*
G75*
G02*
X86385000Y-73790000I-135000J0D01*
G01*
G37*
%TD*%
%TO.C,R215*%
G36*
G01*
X104615000Y-79830000D02*
X104985000Y-79830000D01*
G75*
G02*
X105120000Y-79965000I0J-135000D01*
G01*
X105120000Y-80235000D01*
G75*
G02*
X104985000Y-80370000I-135000J0D01*
G01*
X104615000Y-80370000D01*
G75*
G02*
X104480000Y-80235000I0J135000D01*
G01*
X104480000Y-79965000D01*
G75*
G02*
X104615000Y-79830000I135000J0D01*
G01*
G37*
G36*
G01*
X104615000Y-78810000D02*
X104985000Y-78810000D01*
G75*
G02*
X105120000Y-78945000I0J-135000D01*
G01*
X105120000Y-79215000D01*
G75*
G02*
X104985000Y-79350000I-135000J0D01*
G01*
X104615000Y-79350000D01*
G75*
G02*
X104480000Y-79215000I0J135000D01*
G01*
X104480000Y-78945000D01*
G75*
G02*
X104615000Y-78810000I135000J0D01*
G01*
G37*
%TD*%
%TO.C,R214*%
G36*
G01*
X96485000Y-73070000D02*
X96115000Y-73070000D01*
G75*
G02*
X95980000Y-72935000I0J135000D01*
G01*
X95980000Y-72665000D01*
G75*
G02*
X96115000Y-72530000I135000J0D01*
G01*
X96485000Y-72530000D01*
G75*
G02*
X96620000Y-72665000I0J-135000D01*
G01*
X96620000Y-72935000D01*
G75*
G02*
X96485000Y-73070000I-135000J0D01*
G01*
G37*
G36*
G01*
X96485000Y-74090000D02*
X96115000Y-74090000D01*
G75*
G02*
X95980000Y-73955000I0J135000D01*
G01*
X95980000Y-73685000D01*
G75*
G02*
X96115000Y-73550000I135000J0D01*
G01*
X96485000Y-73550000D01*
G75*
G02*
X96620000Y-73685000I0J-135000D01*
G01*
X96620000Y-73955000D01*
G75*
G02*
X96485000Y-74090000I-135000J0D01*
G01*
G37*
%TD*%
%TO.C,R213*%
G36*
G01*
X83415000Y-81630000D02*
X83785000Y-81630000D01*
G75*
G02*
X83920000Y-81765000I0J-135000D01*
G01*
X83920000Y-82035000D01*
G75*
G02*
X83785000Y-82170000I-135000J0D01*
G01*
X83415000Y-82170000D01*
G75*
G02*
X83280000Y-82035000I0J135000D01*
G01*
X83280000Y-81765000D01*
G75*
G02*
X83415000Y-81630000I135000J0D01*
G01*
G37*
G36*
G01*
X83415000Y-80610000D02*
X83785000Y-80610000D01*
G75*
G02*
X83920000Y-80745000I0J-135000D01*
G01*
X83920000Y-81015000D01*
G75*
G02*
X83785000Y-81150000I-135000J0D01*
G01*
X83415000Y-81150000D01*
G75*
G02*
X83280000Y-81015000I0J135000D01*
G01*
X83280000Y-80745000D01*
G75*
G02*
X83415000Y-80610000I135000J0D01*
G01*
G37*
%TD*%
%TO.C,R212*%
G36*
G01*
X104615000Y-81930000D02*
X104985000Y-81930000D01*
G75*
G02*
X105120000Y-82065000I0J-135000D01*
G01*
X105120000Y-82335000D01*
G75*
G02*
X104985000Y-82470000I-135000J0D01*
G01*
X104615000Y-82470000D01*
G75*
G02*
X104480000Y-82335000I0J135000D01*
G01*
X104480000Y-82065000D01*
G75*
G02*
X104615000Y-81930000I135000J0D01*
G01*
G37*
G36*
G01*
X104615000Y-80910000D02*
X104985000Y-80910000D01*
G75*
G02*
X105120000Y-81045000I0J-135000D01*
G01*
X105120000Y-81315000D01*
G75*
G02*
X104985000Y-81450000I-135000J0D01*
G01*
X104615000Y-81450000D01*
G75*
G02*
X104480000Y-81315000I0J135000D01*
G01*
X104480000Y-81045000D01*
G75*
G02*
X104615000Y-80910000I135000J0D01*
G01*
G37*
%TD*%
%TO.C,R211*%
G36*
G01*
X85285000Y-77170000D02*
X84915000Y-77170000D01*
G75*
G02*
X84780000Y-77035000I0J135000D01*
G01*
X84780000Y-76765000D01*
G75*
G02*
X84915000Y-76630000I135000J0D01*
G01*
X85285000Y-76630000D01*
G75*
G02*
X85420000Y-76765000I0J-135000D01*
G01*
X85420000Y-77035000D01*
G75*
G02*
X85285000Y-77170000I-135000J0D01*
G01*
G37*
G36*
G01*
X85285000Y-78190000D02*
X84915000Y-78190000D01*
G75*
G02*
X84780000Y-78055000I0J135000D01*
G01*
X84780000Y-77785000D01*
G75*
G02*
X84915000Y-77650000I135000J0D01*
G01*
X85285000Y-77650000D01*
G75*
G02*
X85420000Y-77785000I0J-135000D01*
G01*
X85420000Y-78055000D01*
G75*
G02*
X85285000Y-78190000I-135000J0D01*
G01*
G37*
%TD*%
%TO.C,R210*%
G36*
G01*
X104615000Y-84230000D02*
X104985000Y-84230000D01*
G75*
G02*
X105120000Y-84365000I0J-135000D01*
G01*
X105120000Y-84635000D01*
G75*
G02*
X104985000Y-84770000I-135000J0D01*
G01*
X104615000Y-84770000D01*
G75*
G02*
X104480000Y-84635000I0J135000D01*
G01*
X104480000Y-84365000D01*
G75*
G02*
X104615000Y-84230000I135000J0D01*
G01*
G37*
G36*
G01*
X104615000Y-83210000D02*
X104985000Y-83210000D01*
G75*
G02*
X105120000Y-83345000I0J-135000D01*
G01*
X105120000Y-83615000D01*
G75*
G02*
X104985000Y-83750000I-135000J0D01*
G01*
X104615000Y-83750000D01*
G75*
G02*
X104480000Y-83615000I0J135000D01*
G01*
X104480000Y-83345000D01*
G75*
G02*
X104615000Y-83210000I135000J0D01*
G01*
G37*
%TD*%
%TO.C,R209*%
G36*
G01*
X74870000Y-76815000D02*
X74870000Y-77185000D01*
G75*
G02*
X74735000Y-77320000I-135000J0D01*
G01*
X74465000Y-77320000D01*
G75*
G02*
X74330000Y-77185000I0J135000D01*
G01*
X74330000Y-76815000D01*
G75*
G02*
X74465000Y-76680000I135000J0D01*
G01*
X74735000Y-76680000D01*
G75*
G02*
X74870000Y-76815000I0J-135000D01*
G01*
G37*
G36*
G01*
X75890000Y-76815000D02*
X75890000Y-77185000D01*
G75*
G02*
X75755000Y-77320000I-135000J0D01*
G01*
X75485000Y-77320000D01*
G75*
G02*
X75350000Y-77185000I0J135000D01*
G01*
X75350000Y-76815000D01*
G75*
G02*
X75485000Y-76680000I135000J0D01*
G01*
X75755000Y-76680000D01*
G75*
G02*
X75890000Y-76815000I0J-135000D01*
G01*
G37*
%TD*%
%TO.C,R208*%
G36*
G01*
X93830000Y-81285000D02*
X93830000Y-80915000D01*
G75*
G02*
X93965000Y-80780000I135000J0D01*
G01*
X94235000Y-80780000D01*
G75*
G02*
X94370000Y-80915000I0J-135000D01*
G01*
X94370000Y-81285000D01*
G75*
G02*
X94235000Y-81420000I-135000J0D01*
G01*
X93965000Y-81420000D01*
G75*
G02*
X93830000Y-81285000I0J135000D01*
G01*
G37*
G36*
G01*
X92810000Y-81285000D02*
X92810000Y-80915000D01*
G75*
G02*
X92945000Y-80780000I135000J0D01*
G01*
X93215000Y-80780000D01*
G75*
G02*
X93350000Y-80915000I0J-135000D01*
G01*
X93350000Y-81285000D01*
G75*
G02*
X93215000Y-81420000I-135000J0D01*
G01*
X92945000Y-81420000D01*
G75*
G02*
X92810000Y-81285000I0J135000D01*
G01*
G37*
%TD*%
%TO.C,R207*%
G36*
G01*
X100570000Y-67415000D02*
X100570000Y-67785000D01*
G75*
G02*
X100435000Y-67920000I-135000J0D01*
G01*
X100165000Y-67920000D01*
G75*
G02*
X100030000Y-67785000I0J135000D01*
G01*
X100030000Y-67415000D01*
G75*
G02*
X100165000Y-67280000I135000J0D01*
G01*
X100435000Y-67280000D01*
G75*
G02*
X100570000Y-67415000I0J-135000D01*
G01*
G37*
G36*
G01*
X101590000Y-67415000D02*
X101590000Y-67785000D01*
G75*
G02*
X101455000Y-67920000I-135000J0D01*
G01*
X101185000Y-67920000D01*
G75*
G02*
X101050000Y-67785000I0J135000D01*
G01*
X101050000Y-67415000D01*
G75*
G02*
X101185000Y-67280000I135000J0D01*
G01*
X101455000Y-67280000D01*
G75*
G02*
X101590000Y-67415000I0J-135000D01*
G01*
G37*
%TD*%
%TO.C,R206*%
G36*
G01*
X74870000Y-77915000D02*
X74870000Y-78285000D01*
G75*
G02*
X74735000Y-78420000I-135000J0D01*
G01*
X74465000Y-78420000D01*
G75*
G02*
X74330000Y-78285000I0J135000D01*
G01*
X74330000Y-77915000D01*
G75*
G02*
X74465000Y-77780000I135000J0D01*
G01*
X74735000Y-77780000D01*
G75*
G02*
X74870000Y-77915000I0J-135000D01*
G01*
G37*
G36*
G01*
X75890000Y-77915000D02*
X75890000Y-78285000D01*
G75*
G02*
X75755000Y-78420000I-135000J0D01*
G01*
X75485000Y-78420000D01*
G75*
G02*
X75350000Y-78285000I0J135000D01*
G01*
X75350000Y-77915000D01*
G75*
G02*
X75485000Y-77780000I135000J0D01*
G01*
X75755000Y-77780000D01*
G75*
G02*
X75890000Y-77915000I0J-135000D01*
G01*
G37*
%TD*%
%TO.C,R205*%
G36*
G01*
X93830000Y-80085000D02*
X93830000Y-79715000D01*
G75*
G02*
X93965000Y-79580000I135000J0D01*
G01*
X94235000Y-79580000D01*
G75*
G02*
X94370000Y-79715000I0J-135000D01*
G01*
X94370000Y-80085000D01*
G75*
G02*
X94235000Y-80220000I-135000J0D01*
G01*
X93965000Y-80220000D01*
G75*
G02*
X93830000Y-80085000I0J135000D01*
G01*
G37*
G36*
G01*
X92810000Y-80085000D02*
X92810000Y-79715000D01*
G75*
G02*
X92945000Y-79580000I135000J0D01*
G01*
X93215000Y-79580000D01*
G75*
G02*
X93350000Y-79715000I0J-135000D01*
G01*
X93350000Y-80085000D01*
G75*
G02*
X93215000Y-80220000I-135000J0D01*
G01*
X92945000Y-80220000D01*
G75*
G02*
X92810000Y-80085000I0J135000D01*
G01*
G37*
%TD*%
%TO.C,R204*%
G36*
G01*
X74415000Y-80250000D02*
X74785000Y-80250000D01*
G75*
G02*
X74920000Y-80385000I0J-135000D01*
G01*
X74920000Y-80655000D01*
G75*
G02*
X74785000Y-80790000I-135000J0D01*
G01*
X74415000Y-80790000D01*
G75*
G02*
X74280000Y-80655000I0J135000D01*
G01*
X74280000Y-80385000D01*
G75*
G02*
X74415000Y-80250000I135000J0D01*
G01*
G37*
G36*
G01*
X74415000Y-79230000D02*
X74785000Y-79230000D01*
G75*
G02*
X74920000Y-79365000I0J-135000D01*
G01*
X74920000Y-79635000D01*
G75*
G02*
X74785000Y-79770000I-135000J0D01*
G01*
X74415000Y-79770000D01*
G75*
G02*
X74280000Y-79635000I0J135000D01*
G01*
X74280000Y-79365000D01*
G75*
G02*
X74415000Y-79230000I135000J0D01*
G01*
G37*
%TD*%
%TO.C,R203*%
G36*
G01*
X95315000Y-80630000D02*
X95685000Y-80630000D01*
G75*
G02*
X95820000Y-80765000I0J-135000D01*
G01*
X95820000Y-81035000D01*
G75*
G02*
X95685000Y-81170000I-135000J0D01*
G01*
X95315000Y-81170000D01*
G75*
G02*
X95180000Y-81035000I0J135000D01*
G01*
X95180000Y-80765000D01*
G75*
G02*
X95315000Y-80630000I135000J0D01*
G01*
G37*
G36*
G01*
X95315000Y-79610000D02*
X95685000Y-79610000D01*
G75*
G02*
X95820000Y-79745000I0J-135000D01*
G01*
X95820000Y-80015000D01*
G75*
G02*
X95685000Y-80150000I-135000J0D01*
G01*
X95315000Y-80150000D01*
G75*
G02*
X95180000Y-80015000I0J135000D01*
G01*
X95180000Y-79745000D01*
G75*
G02*
X95315000Y-79610000I135000J0D01*
G01*
G37*
%TD*%
%TO.C,R202*%
G36*
G01*
X78885000Y-72850000D02*
X78515000Y-72850000D01*
G75*
G02*
X78380000Y-72715000I0J135000D01*
G01*
X78380000Y-72445000D01*
G75*
G02*
X78515000Y-72310000I135000J0D01*
G01*
X78885000Y-72310000D01*
G75*
G02*
X79020000Y-72445000I0J-135000D01*
G01*
X79020000Y-72715000D01*
G75*
G02*
X78885000Y-72850000I-135000J0D01*
G01*
G37*
G36*
G01*
X78885000Y-73870000D02*
X78515000Y-73870000D01*
G75*
G02*
X78380000Y-73735000I0J135000D01*
G01*
X78380000Y-73465000D01*
G75*
G02*
X78515000Y-73330000I135000J0D01*
G01*
X78885000Y-73330000D01*
G75*
G02*
X79020000Y-73465000I0J-135000D01*
G01*
X79020000Y-73735000D01*
G75*
G02*
X78885000Y-73870000I-135000J0D01*
G01*
G37*
%TD*%
%TO.C,R201*%
G36*
G01*
X88885000Y-72870000D02*
X88515000Y-72870000D01*
G75*
G02*
X88380000Y-72735000I0J135000D01*
G01*
X88380000Y-72465000D01*
G75*
G02*
X88515000Y-72330000I135000J0D01*
G01*
X88885000Y-72330000D01*
G75*
G02*
X89020000Y-72465000I0J-135000D01*
G01*
X89020000Y-72735000D01*
G75*
G02*
X88885000Y-72870000I-135000J0D01*
G01*
G37*
G36*
G01*
X88885000Y-73890000D02*
X88515000Y-73890000D01*
G75*
G02*
X88380000Y-73755000I0J135000D01*
G01*
X88380000Y-73485000D01*
G75*
G02*
X88515000Y-73350000I135000J0D01*
G01*
X88885000Y-73350000D01*
G75*
G02*
X89020000Y-73485000I0J-135000D01*
G01*
X89020000Y-73755000D01*
G75*
G02*
X88885000Y-73890000I-135000J0D01*
G01*
G37*
%TD*%
%TO.C,R124*%
G36*
G01*
X92750000Y-112215000D02*
X92750000Y-112585000D01*
G75*
G02*
X92615000Y-112720000I-135000J0D01*
G01*
X92345000Y-112720000D01*
G75*
G02*
X92210000Y-112585000I0J135000D01*
G01*
X92210000Y-112215000D01*
G75*
G02*
X92345000Y-112080000I135000J0D01*
G01*
X92615000Y-112080000D01*
G75*
G02*
X92750000Y-112215000I0J-135000D01*
G01*
G37*
G36*
G01*
X93770000Y-112215000D02*
X93770000Y-112585000D01*
G75*
G02*
X93635000Y-112720000I-135000J0D01*
G01*
X93365000Y-112720000D01*
G75*
G02*
X93230000Y-112585000I0J135000D01*
G01*
X93230000Y-112215000D01*
G75*
G02*
X93365000Y-112080000I135000J0D01*
G01*
X93635000Y-112080000D01*
G75*
G02*
X93770000Y-112215000I0J-135000D01*
G01*
G37*
%TD*%
%TO.C,R123*%
G36*
G01*
X85730000Y-118085000D02*
X85730000Y-117715000D01*
G75*
G02*
X85865000Y-117580000I135000J0D01*
G01*
X86135000Y-117580000D01*
G75*
G02*
X86270000Y-117715000I0J-135000D01*
G01*
X86270000Y-118085000D01*
G75*
G02*
X86135000Y-118220000I-135000J0D01*
G01*
X85865000Y-118220000D01*
G75*
G02*
X85730000Y-118085000I0J135000D01*
G01*
G37*
G36*
G01*
X84710000Y-118085000D02*
X84710000Y-117715000D01*
G75*
G02*
X84845000Y-117580000I135000J0D01*
G01*
X85115000Y-117580000D01*
G75*
G02*
X85250000Y-117715000I0J-135000D01*
G01*
X85250000Y-118085000D01*
G75*
G02*
X85115000Y-118220000I-135000J0D01*
G01*
X84845000Y-118220000D01*
G75*
G02*
X84710000Y-118085000I0J135000D01*
G01*
G37*
%TD*%
%TO.C,R122*%
G36*
G01*
X82750000Y-113515000D02*
X82750000Y-113885000D01*
G75*
G02*
X82615000Y-114020000I-135000J0D01*
G01*
X82345000Y-114020000D01*
G75*
G02*
X82210000Y-113885000I0J135000D01*
G01*
X82210000Y-113515000D01*
G75*
G02*
X82345000Y-113380000I135000J0D01*
G01*
X82615000Y-113380000D01*
G75*
G02*
X82750000Y-113515000I0J-135000D01*
G01*
G37*
G36*
G01*
X83770000Y-113515000D02*
X83770000Y-113885000D01*
G75*
G02*
X83635000Y-114020000I-135000J0D01*
G01*
X83365000Y-114020000D01*
G75*
G02*
X83230000Y-113885000I0J135000D01*
G01*
X83230000Y-113515000D01*
G75*
G02*
X83365000Y-113380000I135000J0D01*
G01*
X83635000Y-113380000D01*
G75*
G02*
X83770000Y-113515000I0J-135000D01*
G01*
G37*
%TD*%
%TO.C,R121*%
G36*
G01*
X83130000Y-111185000D02*
X83130000Y-110815000D01*
G75*
G02*
X83265000Y-110680000I135000J0D01*
G01*
X83535000Y-110680000D01*
G75*
G02*
X83670000Y-110815000I0J-135000D01*
G01*
X83670000Y-111185000D01*
G75*
G02*
X83535000Y-111320000I-135000J0D01*
G01*
X83265000Y-111320000D01*
G75*
G02*
X83130000Y-111185000I0J135000D01*
G01*
G37*
G36*
G01*
X82110000Y-111185000D02*
X82110000Y-110815000D01*
G75*
G02*
X82245000Y-110680000I135000J0D01*
G01*
X82515000Y-110680000D01*
G75*
G02*
X82650000Y-110815000I0J-135000D01*
G01*
X82650000Y-111185000D01*
G75*
G02*
X82515000Y-111320000I-135000J0D01*
G01*
X82245000Y-111320000D01*
G75*
G02*
X82110000Y-111185000I0J135000D01*
G01*
G37*
%TD*%
%TO.C,R120*%
G36*
G01*
X75550000Y-58415000D02*
X75550000Y-58785000D01*
G75*
G02*
X75415000Y-58920000I-135000J0D01*
G01*
X75145000Y-58920000D01*
G75*
G02*
X75010000Y-58785000I0J135000D01*
G01*
X75010000Y-58415000D01*
G75*
G02*
X75145000Y-58280000I135000J0D01*
G01*
X75415000Y-58280000D01*
G75*
G02*
X75550000Y-58415000I0J-135000D01*
G01*
G37*
G36*
G01*
X76570000Y-58415000D02*
X76570000Y-58785000D01*
G75*
G02*
X76435000Y-58920000I-135000J0D01*
G01*
X76165000Y-58920000D01*
G75*
G02*
X76030000Y-58785000I0J135000D01*
G01*
X76030000Y-58415000D01*
G75*
G02*
X76165000Y-58280000I135000J0D01*
G01*
X76435000Y-58280000D01*
G75*
G02*
X76570000Y-58415000I0J-135000D01*
G01*
G37*
%TD*%
%TO.C,R119*%
G36*
G01*
X82750000Y-112215000D02*
X82750000Y-112585000D01*
G75*
G02*
X82615000Y-112720000I-135000J0D01*
G01*
X82345000Y-112720000D01*
G75*
G02*
X82210000Y-112585000I0J135000D01*
G01*
X82210000Y-112215000D01*
G75*
G02*
X82345000Y-112080000I135000J0D01*
G01*
X82615000Y-112080000D01*
G75*
G02*
X82750000Y-112215000I0J-135000D01*
G01*
G37*
G36*
G01*
X83770000Y-112215000D02*
X83770000Y-112585000D01*
G75*
G02*
X83635000Y-112720000I-135000J0D01*
G01*
X83365000Y-112720000D01*
G75*
G02*
X83230000Y-112585000I0J135000D01*
G01*
X83230000Y-112215000D01*
G75*
G02*
X83365000Y-112080000I135000J0D01*
G01*
X83635000Y-112080000D01*
G75*
G02*
X83770000Y-112215000I0J-135000D01*
G01*
G37*
%TD*%
%TO.C,R118*%
G36*
G01*
X93230000Y-113785000D02*
X93230000Y-113415000D01*
G75*
G02*
X93365000Y-113280000I135000J0D01*
G01*
X93635000Y-113280000D01*
G75*
G02*
X93770000Y-113415000I0J-135000D01*
G01*
X93770000Y-113785000D01*
G75*
G02*
X93635000Y-113920000I-135000J0D01*
G01*
X93365000Y-113920000D01*
G75*
G02*
X93230000Y-113785000I0J135000D01*
G01*
G37*
G36*
G01*
X92210000Y-113785000D02*
X92210000Y-113415000D01*
G75*
G02*
X92345000Y-113280000I135000J0D01*
G01*
X92615000Y-113280000D01*
G75*
G02*
X92750000Y-113415000I0J-135000D01*
G01*
X92750000Y-113785000D01*
G75*
G02*
X92615000Y-113920000I-135000J0D01*
G01*
X92345000Y-113920000D01*
G75*
G02*
X92210000Y-113785000I0J135000D01*
G01*
G37*
%TD*%
%TO.C,R117*%
G36*
G01*
X93450000Y-116985000D02*
X93450000Y-116615000D01*
G75*
G02*
X93585000Y-116480000I135000J0D01*
G01*
X93855000Y-116480000D01*
G75*
G02*
X93990000Y-116615000I0J-135000D01*
G01*
X93990000Y-116985000D01*
G75*
G02*
X93855000Y-117120000I-135000J0D01*
G01*
X93585000Y-117120000D01*
G75*
G02*
X93450000Y-116985000I0J135000D01*
G01*
G37*
G36*
G01*
X92430000Y-116985000D02*
X92430000Y-116615000D01*
G75*
G02*
X92565000Y-116480000I135000J0D01*
G01*
X92835000Y-116480000D01*
G75*
G02*
X92970000Y-116615000I0J-135000D01*
G01*
X92970000Y-116985000D01*
G75*
G02*
X92835000Y-117120000I-135000J0D01*
G01*
X92565000Y-117120000D01*
G75*
G02*
X92430000Y-116985000I0J135000D01*
G01*
G37*
%TD*%
%TO.C,R116*%
G36*
G01*
X92950000Y-115115000D02*
X92950000Y-115485000D01*
G75*
G02*
X92815000Y-115620000I-135000J0D01*
G01*
X92545000Y-115620000D01*
G75*
G02*
X92410000Y-115485000I0J135000D01*
G01*
X92410000Y-115115000D01*
G75*
G02*
X92545000Y-114980000I135000J0D01*
G01*
X92815000Y-114980000D01*
G75*
G02*
X92950000Y-115115000I0J-135000D01*
G01*
G37*
G36*
G01*
X93970000Y-115115000D02*
X93970000Y-115485000D01*
G75*
G02*
X93835000Y-115620000I-135000J0D01*
G01*
X93565000Y-115620000D01*
G75*
G02*
X93430000Y-115485000I0J135000D01*
G01*
X93430000Y-115115000D01*
G75*
G02*
X93565000Y-114980000I135000J0D01*
G01*
X93835000Y-114980000D01*
G75*
G02*
X93970000Y-115115000I0J-135000D01*
G01*
G37*
%TD*%
%TO.C,R115*%
G36*
G01*
X93115000Y-100530000D02*
X93485000Y-100530000D01*
G75*
G02*
X93620000Y-100665000I0J-135000D01*
G01*
X93620000Y-100935000D01*
G75*
G02*
X93485000Y-101070000I-135000J0D01*
G01*
X93115000Y-101070000D01*
G75*
G02*
X92980000Y-100935000I0J135000D01*
G01*
X92980000Y-100665000D01*
G75*
G02*
X93115000Y-100530000I135000J0D01*
G01*
G37*
G36*
G01*
X93115000Y-99510000D02*
X93485000Y-99510000D01*
G75*
G02*
X93620000Y-99645000I0J-135000D01*
G01*
X93620000Y-99915000D01*
G75*
G02*
X93485000Y-100050000I-135000J0D01*
G01*
X93115000Y-100050000D01*
G75*
G02*
X92980000Y-99915000I0J135000D01*
G01*
X92980000Y-99645000D01*
G75*
G02*
X93115000Y-99510000I135000J0D01*
G01*
G37*
%TD*%
%TO.C,R114*%
G36*
G01*
X108630000Y-54485000D02*
X108630000Y-54115000D01*
G75*
G02*
X108765000Y-53980000I135000J0D01*
G01*
X109035000Y-53980000D01*
G75*
G02*
X109170000Y-54115000I0J-135000D01*
G01*
X109170000Y-54485000D01*
G75*
G02*
X109035000Y-54620000I-135000J0D01*
G01*
X108765000Y-54620000D01*
G75*
G02*
X108630000Y-54485000I0J135000D01*
G01*
G37*
G36*
G01*
X107610000Y-54485000D02*
X107610000Y-54115000D01*
G75*
G02*
X107745000Y-53980000I135000J0D01*
G01*
X108015000Y-53980000D01*
G75*
G02*
X108150000Y-54115000I0J-135000D01*
G01*
X108150000Y-54485000D01*
G75*
G02*
X108015000Y-54620000I-135000J0D01*
G01*
X107745000Y-54620000D01*
G75*
G02*
X107610000Y-54485000I0J135000D01*
G01*
G37*
%TD*%
%TO.C,R113*%
G36*
G01*
X94030000Y-98785000D02*
X94030000Y-98415000D01*
G75*
G02*
X94165000Y-98280000I135000J0D01*
G01*
X94435000Y-98280000D01*
G75*
G02*
X94570000Y-98415000I0J-135000D01*
G01*
X94570000Y-98785000D01*
G75*
G02*
X94435000Y-98920000I-135000J0D01*
G01*
X94165000Y-98920000D01*
G75*
G02*
X94030000Y-98785000I0J135000D01*
G01*
G37*
G36*
G01*
X93010000Y-98785000D02*
X93010000Y-98415000D01*
G75*
G02*
X93145000Y-98280000I135000J0D01*
G01*
X93415000Y-98280000D01*
G75*
G02*
X93550000Y-98415000I0J-135000D01*
G01*
X93550000Y-98785000D01*
G75*
G02*
X93415000Y-98920000I-135000J0D01*
G01*
X93145000Y-98920000D01*
G75*
G02*
X93010000Y-98785000I0J135000D01*
G01*
G37*
%TD*%
%TO.C,R112*%
G36*
G01*
X96130000Y-93285000D02*
X96130000Y-92915000D01*
G75*
G02*
X96265000Y-92780000I135000J0D01*
G01*
X96535000Y-92780000D01*
G75*
G02*
X96670000Y-92915000I0J-135000D01*
G01*
X96670000Y-93285000D01*
G75*
G02*
X96535000Y-93420000I-135000J0D01*
G01*
X96265000Y-93420000D01*
G75*
G02*
X96130000Y-93285000I0J135000D01*
G01*
G37*
G36*
G01*
X95110000Y-93285000D02*
X95110000Y-92915000D01*
G75*
G02*
X95245000Y-92780000I135000J0D01*
G01*
X95515000Y-92780000D01*
G75*
G02*
X95650000Y-92915000I0J-135000D01*
G01*
X95650000Y-93285000D01*
G75*
G02*
X95515000Y-93420000I-135000J0D01*
G01*
X95245000Y-93420000D01*
G75*
G02*
X95110000Y-93285000I0J135000D01*
G01*
G37*
%TD*%
%TO.C,R111*%
G36*
G01*
X94570000Y-54215000D02*
X94570000Y-54585000D01*
G75*
G02*
X94435000Y-54720000I-135000J0D01*
G01*
X94165000Y-54720000D01*
G75*
G02*
X94030000Y-54585000I0J135000D01*
G01*
X94030000Y-54215000D01*
G75*
G02*
X94165000Y-54080000I135000J0D01*
G01*
X94435000Y-54080000D01*
G75*
G02*
X94570000Y-54215000I0J-135000D01*
G01*
G37*
G36*
G01*
X95590000Y-54215000D02*
X95590000Y-54585000D01*
G75*
G02*
X95455000Y-54720000I-135000J0D01*
G01*
X95185000Y-54720000D01*
G75*
G02*
X95050000Y-54585000I0J135000D01*
G01*
X95050000Y-54215000D01*
G75*
G02*
X95185000Y-54080000I135000J0D01*
G01*
X95455000Y-54080000D01*
G75*
G02*
X95590000Y-54215000I0J-135000D01*
G01*
G37*
%TD*%
%TO.C,R110*%
G36*
G01*
X87630000Y-92985000D02*
X87630000Y-92615000D01*
G75*
G02*
X87765000Y-92480000I135000J0D01*
G01*
X88035000Y-92480000D01*
G75*
G02*
X88170000Y-92615000I0J-135000D01*
G01*
X88170000Y-92985000D01*
G75*
G02*
X88035000Y-93120000I-135000J0D01*
G01*
X87765000Y-93120000D01*
G75*
G02*
X87630000Y-92985000I0J135000D01*
G01*
G37*
G36*
G01*
X86610000Y-92985000D02*
X86610000Y-92615000D01*
G75*
G02*
X86745000Y-92480000I135000J0D01*
G01*
X87015000Y-92480000D01*
G75*
G02*
X87150000Y-92615000I0J-135000D01*
G01*
X87150000Y-92985000D01*
G75*
G02*
X87015000Y-93120000I-135000J0D01*
G01*
X86745000Y-93120000D01*
G75*
G02*
X86610000Y-92985000I0J135000D01*
G01*
G37*
%TD*%
%TO.C,R109*%
G36*
G01*
X89570000Y-58315000D02*
X89570000Y-58685000D01*
G75*
G02*
X89435000Y-58820000I-135000J0D01*
G01*
X89165000Y-58820000D01*
G75*
G02*
X89030000Y-58685000I0J135000D01*
G01*
X89030000Y-58315000D01*
G75*
G02*
X89165000Y-58180000I135000J0D01*
G01*
X89435000Y-58180000D01*
G75*
G02*
X89570000Y-58315000I0J-135000D01*
G01*
G37*
G36*
G01*
X90590000Y-58315000D02*
X90590000Y-58685000D01*
G75*
G02*
X90455000Y-58820000I-135000J0D01*
G01*
X90185000Y-58820000D01*
G75*
G02*
X90050000Y-58685000I0J135000D01*
G01*
X90050000Y-58315000D01*
G75*
G02*
X90185000Y-58180000I135000J0D01*
G01*
X90455000Y-58180000D01*
G75*
G02*
X90590000Y-58315000I0J-135000D01*
G01*
G37*
%TD*%
%TO.C,R108*%
G36*
G01*
X82815000Y-97930000D02*
X83185000Y-97930000D01*
G75*
G02*
X83320000Y-98065000I0J-135000D01*
G01*
X83320000Y-98335000D01*
G75*
G02*
X83185000Y-98470000I-135000J0D01*
G01*
X82815000Y-98470000D01*
G75*
G02*
X82680000Y-98335000I0J135000D01*
G01*
X82680000Y-98065000D01*
G75*
G02*
X82815000Y-97930000I135000J0D01*
G01*
G37*
G36*
G01*
X82815000Y-96910000D02*
X83185000Y-96910000D01*
G75*
G02*
X83320000Y-97045000I0J-135000D01*
G01*
X83320000Y-97315000D01*
G75*
G02*
X83185000Y-97450000I-135000J0D01*
G01*
X82815000Y-97450000D01*
G75*
G02*
X82680000Y-97315000I0J135000D01*
G01*
X82680000Y-97045000D01*
G75*
G02*
X82815000Y-96910000I135000J0D01*
G01*
G37*
%TD*%
%TO.C,R107*%
G36*
G01*
X95330000Y-127185000D02*
X95330000Y-126815000D01*
G75*
G02*
X95465000Y-126680000I135000J0D01*
G01*
X95735000Y-126680000D01*
G75*
G02*
X95870000Y-126815000I0J-135000D01*
G01*
X95870000Y-127185000D01*
G75*
G02*
X95735000Y-127320000I-135000J0D01*
G01*
X95465000Y-127320000D01*
G75*
G02*
X95330000Y-127185000I0J135000D01*
G01*
G37*
G36*
G01*
X94310000Y-127185000D02*
X94310000Y-126815000D01*
G75*
G02*
X94445000Y-126680000I135000J0D01*
G01*
X94715000Y-126680000D01*
G75*
G02*
X94850000Y-126815000I0J-135000D01*
G01*
X94850000Y-127185000D01*
G75*
G02*
X94715000Y-127320000I-135000J0D01*
G01*
X94445000Y-127320000D01*
G75*
G02*
X94310000Y-127185000I0J135000D01*
G01*
G37*
%TD*%
%TO.C,R106*%
G36*
G01*
X82915000Y-100550000D02*
X83285000Y-100550000D01*
G75*
G02*
X83420000Y-100685000I0J-135000D01*
G01*
X83420000Y-100955000D01*
G75*
G02*
X83285000Y-101090000I-135000J0D01*
G01*
X82915000Y-101090000D01*
G75*
G02*
X82780000Y-100955000I0J135000D01*
G01*
X82780000Y-100685000D01*
G75*
G02*
X82915000Y-100550000I135000J0D01*
G01*
G37*
G36*
G01*
X82915000Y-99530000D02*
X83285000Y-99530000D01*
G75*
G02*
X83420000Y-99665000I0J-135000D01*
G01*
X83420000Y-99935000D01*
G75*
G02*
X83285000Y-100070000I-135000J0D01*
G01*
X82915000Y-100070000D01*
G75*
G02*
X82780000Y-99935000I0J135000D01*
G01*
X82780000Y-99665000D01*
G75*
G02*
X82915000Y-99530000I135000J0D01*
G01*
G37*
%TD*%
%TO.C,R105*%
G36*
G01*
X84930000Y-55785000D02*
X84930000Y-55415000D01*
G75*
G02*
X85065000Y-55280000I135000J0D01*
G01*
X85335000Y-55280000D01*
G75*
G02*
X85470000Y-55415000I0J-135000D01*
G01*
X85470000Y-55785000D01*
G75*
G02*
X85335000Y-55920000I-135000J0D01*
G01*
X85065000Y-55920000D01*
G75*
G02*
X84930000Y-55785000I0J135000D01*
G01*
G37*
G36*
G01*
X83910000Y-55785000D02*
X83910000Y-55415000D01*
G75*
G02*
X84045000Y-55280000I135000J0D01*
G01*
X84315000Y-55280000D01*
G75*
G02*
X84450000Y-55415000I0J-135000D01*
G01*
X84450000Y-55785000D01*
G75*
G02*
X84315000Y-55920000I-135000J0D01*
G01*
X84045000Y-55920000D01*
G75*
G02*
X83910000Y-55785000I0J135000D01*
G01*
G37*
%TD*%
%TO.C,R104*%
G36*
G01*
X80415000Y-100550000D02*
X80785000Y-100550000D01*
G75*
G02*
X80920000Y-100685000I0J-135000D01*
G01*
X80920000Y-100955000D01*
G75*
G02*
X80785000Y-101090000I-135000J0D01*
G01*
X80415000Y-101090000D01*
G75*
G02*
X80280000Y-100955000I0J135000D01*
G01*
X80280000Y-100685000D01*
G75*
G02*
X80415000Y-100550000I135000J0D01*
G01*
G37*
G36*
G01*
X80415000Y-99530000D02*
X80785000Y-99530000D01*
G75*
G02*
X80920000Y-99665000I0J-135000D01*
G01*
X80920000Y-99935000D01*
G75*
G02*
X80785000Y-100070000I-135000J0D01*
G01*
X80415000Y-100070000D01*
G75*
G02*
X80280000Y-99935000I0J135000D01*
G01*
X80280000Y-99665000D01*
G75*
G02*
X80415000Y-99530000I135000J0D01*
G01*
G37*
%TD*%
%TO.C,R103*%
G36*
G01*
X81615000Y-100550000D02*
X81985000Y-100550000D01*
G75*
G02*
X82120000Y-100685000I0J-135000D01*
G01*
X82120000Y-100955000D01*
G75*
G02*
X81985000Y-101090000I-135000J0D01*
G01*
X81615000Y-101090000D01*
G75*
G02*
X81480000Y-100955000I0J135000D01*
G01*
X81480000Y-100685000D01*
G75*
G02*
X81615000Y-100550000I135000J0D01*
G01*
G37*
G36*
G01*
X81615000Y-99530000D02*
X81985000Y-99530000D01*
G75*
G02*
X82120000Y-99665000I0J-135000D01*
G01*
X82120000Y-99935000D01*
G75*
G02*
X81985000Y-100070000I-135000J0D01*
G01*
X81615000Y-100070000D01*
G75*
G02*
X81480000Y-99935000I0J135000D01*
G01*
X81480000Y-99665000D01*
G75*
G02*
X81615000Y-99530000I135000J0D01*
G01*
G37*
%TD*%
%TO.C,R102*%
G36*
G01*
X84950000Y-57085000D02*
X84950000Y-56715000D01*
G75*
G02*
X85085000Y-56580000I135000J0D01*
G01*
X85355000Y-56580000D01*
G75*
G02*
X85490000Y-56715000I0J-135000D01*
G01*
X85490000Y-57085000D01*
G75*
G02*
X85355000Y-57220000I-135000J0D01*
G01*
X85085000Y-57220000D01*
G75*
G02*
X84950000Y-57085000I0J135000D01*
G01*
G37*
G36*
G01*
X83930000Y-57085000D02*
X83930000Y-56715000D01*
G75*
G02*
X84065000Y-56580000I135000J0D01*
G01*
X84335000Y-56580000D01*
G75*
G02*
X84470000Y-56715000I0J-135000D01*
G01*
X84470000Y-57085000D01*
G75*
G02*
X84335000Y-57220000I-135000J0D01*
G01*
X84065000Y-57220000D01*
G75*
G02*
X83930000Y-57085000I0J135000D01*
G01*
G37*
%TD*%
%TO.C,R101*%
G36*
G01*
X84815000Y-129530000D02*
X85185000Y-129530000D01*
G75*
G02*
X85320000Y-129665000I0J-135000D01*
G01*
X85320000Y-129935000D01*
G75*
G02*
X85185000Y-130070000I-135000J0D01*
G01*
X84815000Y-130070000D01*
G75*
G02*
X84680000Y-129935000I0J135000D01*
G01*
X84680000Y-129665000D01*
G75*
G02*
X84815000Y-129530000I135000J0D01*
G01*
G37*
G36*
G01*
X84815000Y-128510000D02*
X85185000Y-128510000D01*
G75*
G02*
X85320000Y-128645000I0J-135000D01*
G01*
X85320000Y-128915000D01*
G75*
G02*
X85185000Y-129050000I-135000J0D01*
G01*
X84815000Y-129050000D01*
G75*
G02*
X84680000Y-128915000I0J135000D01*
G01*
X84680000Y-128645000D01*
G75*
G02*
X84815000Y-128510000I135000J0D01*
G01*
G37*
%TD*%
D13*
%TO.C,Q104*%
X105800000Y-61000000D03*
X106750000Y-63000000D03*
X104850000Y-63000000D03*
%TD*%
%TO.C,Q103*%
X105800000Y-59500000D03*
X104850000Y-57500000D03*
X106750000Y-57500000D03*
%TD*%
%TO.C,Q102*%
X102100000Y-61000000D03*
X103050000Y-63000000D03*
X101150000Y-63000000D03*
%TD*%
%TO.C,Q101*%
X102100000Y-59500000D03*
X101150000Y-57500000D03*
X103050000Y-57500000D03*
%TD*%
D14*
%TO.C,J310*%
X45100000Y-145400000D03*
D15*
X45100000Y-140600000D03*
X45100000Y-148800000D03*
X45100000Y-151000000D03*
%TD*%
D14*
%TO.C,J309*%
X64700000Y-145400000D03*
D15*
X64700000Y-140600000D03*
X64700000Y-148800000D03*
X64700000Y-151000000D03*
%TD*%
D14*
%TO.C,J308*%
X35300000Y-145400000D03*
D15*
X35300000Y-140600000D03*
X35300000Y-148800000D03*
X35300000Y-151000000D03*
%TD*%
D14*
%TO.C,J307*%
X64700000Y-163100000D03*
D15*
X64700000Y-158300000D03*
X64700000Y-166500000D03*
X64700000Y-168700000D03*
%TD*%
D14*
%TO.C,J306*%
X54900000Y-145400000D03*
D15*
X54900000Y-140600000D03*
X54900000Y-148800000D03*
X54900000Y-151000000D03*
%TD*%
D14*
%TO.C,J305*%
X54900000Y-163100000D03*
D15*
X54900000Y-158300000D03*
X54900000Y-166500000D03*
X54900000Y-168700000D03*
%TD*%
D14*
%TO.C,J304*%
X45100000Y-163100000D03*
D15*
X45100000Y-158300000D03*
X45100000Y-166500000D03*
X45100000Y-168700000D03*
%TD*%
D14*
%TO.C,J303*%
X35300000Y-163100000D03*
D15*
X35300000Y-158300000D03*
X35300000Y-166500000D03*
X35300000Y-168700000D03*
%TD*%
D16*
%TO.C,J302*%
X61460000Y-70000000D03*
X58920000Y-70000000D03*
X56380000Y-70000000D03*
X53840000Y-70000000D03*
X51300000Y-70000000D03*
X48760000Y-70000000D03*
X46220000Y-70000000D03*
X43680000Y-70000000D03*
X41140000Y-70000000D03*
D17*
X38600000Y-70000000D03*
%TD*%
D16*
%TO.C,J301*%
X60120000Y-154400000D03*
X57580000Y-154400000D03*
X55040000Y-154400000D03*
X52500000Y-154400000D03*
X49960000Y-154400000D03*
X47420000Y-154400000D03*
X44880000Y-154400000D03*
X42340000Y-154400000D03*
D17*
X39800000Y-154400000D03*
%TD*%
D16*
%TO.C,J203*%
X101460000Y-70000000D03*
X98920000Y-70000000D03*
X96380000Y-70000000D03*
X93840000Y-70000000D03*
X91300000Y-70000000D03*
X88760000Y-70000000D03*
X86220000Y-70000000D03*
X83680000Y-70000000D03*
X81140000Y-70000000D03*
D17*
X78600000Y-70000000D03*
%TD*%
D16*
%TO.C,J202*%
X100120000Y-154400000D03*
X97580000Y-154400000D03*
X95040000Y-154400000D03*
X92500000Y-154400000D03*
X89960000Y-154400000D03*
X87420000Y-154400000D03*
X84880000Y-154400000D03*
X82340000Y-154400000D03*
D17*
X79800000Y-154400000D03*
%TD*%
D16*
%TO.C,J201*%
X104260000Y-144860000D03*
X106800000Y-144860000D03*
X104260000Y-142320000D03*
X106800000Y-142320000D03*
X104260000Y-139780000D03*
X106800000Y-139780000D03*
X104260000Y-137240000D03*
X106800000Y-137240000D03*
X104260000Y-134700000D03*
D17*
X106800000Y-134700000D03*
%TD*%
D10*
%TO.C,D304*%
X44600000Y-133300000D03*
D11*
X42060000Y-133300000D03*
%TD*%
D10*
%TO.C,D302*%
X51270000Y-54600000D03*
D11*
X48730000Y-54600000D03*
%TD*%
D10*
%TO.C,D301*%
X57930000Y-133300000D03*
D11*
X55390000Y-133300000D03*
%TD*%
D18*
%TO.C,D203*%
X108100000Y-65600000D03*
D19*
X100480000Y-65600000D03*
%TD*%
D20*
%TO.C,D202*%
X98200000Y-144900000D03*
X101500000Y-144900000D03*
%TD*%
%TO.C,D201*%
X101400000Y-134700000D03*
X98100000Y-134700000D03*
%TD*%
D21*
%TO.C,D110*%
X95000000Y-109700000D03*
X92800000Y-109700000D03*
%TD*%
%TO.C,D109*%
X88300000Y-105000000D03*
X86100000Y-105000000D03*
%TD*%
D20*
%TO.C,D108*%
X96800000Y-96800000D03*
X93500000Y-96800000D03*
%TD*%
D18*
%TO.C,D107*%
X101300000Y-100200000D03*
D19*
X101300000Y-92580000D03*
%TD*%
D18*
%TO.C,D106*%
X97780000Y-52100000D03*
D19*
X105400000Y-52100000D03*
%TD*%
D18*
%TO.C,D105*%
X97780000Y-54900000D03*
D19*
X105400000Y-54900000D03*
%TD*%
D21*
%TO.C,D104*%
X91400000Y-92100000D03*
X93600000Y-92100000D03*
%TD*%
%TO.C,D103*%
X91000000Y-62200000D03*
X88800000Y-62200000D03*
%TD*%
%TO.C,D102*%
X91000000Y-60100000D03*
X88800000Y-60100000D03*
%TD*%
%TO.C,D101*%
X85000000Y-127000000D03*
X82800000Y-127000000D03*
%TD*%
%TO.C,C206*%
G36*
G01*
X76320000Y-84970000D02*
X76320000Y-84630000D01*
G75*
G02*
X76460000Y-84490000I140000J0D01*
G01*
X76740000Y-84490000D01*
G75*
G02*
X76880000Y-84630000I0J-140000D01*
G01*
X76880000Y-84970000D01*
G75*
G02*
X76740000Y-85110000I-140000J0D01*
G01*
X76460000Y-85110000D01*
G75*
G02*
X76320000Y-84970000I0J140000D01*
G01*
G37*
G36*
G01*
X75360000Y-84970000D02*
X75360000Y-84630000D01*
G75*
G02*
X75500000Y-84490000I140000J0D01*
G01*
X75780000Y-84490000D01*
G75*
G02*
X75920000Y-84630000I0J-140000D01*
G01*
X75920000Y-84970000D01*
G75*
G02*
X75780000Y-85110000I-140000J0D01*
G01*
X75500000Y-85110000D01*
G75*
G02*
X75360000Y-84970000I0J140000D01*
G01*
G37*
%TD*%
%TO.C,C205*%
G36*
G01*
X82220000Y-78170000D02*
X82220000Y-77830000D01*
G75*
G02*
X82360000Y-77690000I140000J0D01*
G01*
X82640000Y-77690000D01*
G75*
G02*
X82780000Y-77830000I0J-140000D01*
G01*
X82780000Y-78170000D01*
G75*
G02*
X82640000Y-78310000I-140000J0D01*
G01*
X82360000Y-78310000D01*
G75*
G02*
X82220000Y-78170000I0J140000D01*
G01*
G37*
G36*
G01*
X81260000Y-78170000D02*
X81260000Y-77830000D01*
G75*
G02*
X81400000Y-77690000I140000J0D01*
G01*
X81680000Y-77690000D01*
G75*
G02*
X81820000Y-77830000I0J-140000D01*
G01*
X81820000Y-78170000D01*
G75*
G02*
X81680000Y-78310000I-140000J0D01*
G01*
X81400000Y-78310000D01*
G75*
G02*
X81260000Y-78170000I0J140000D01*
G01*
G37*
%TD*%
%TO.C,C204*%
G36*
G01*
X97520000Y-85370000D02*
X97520000Y-85030000D01*
G75*
G02*
X97660000Y-84890000I140000J0D01*
G01*
X97940000Y-84890000D01*
G75*
G02*
X98080000Y-85030000I0J-140000D01*
G01*
X98080000Y-85370000D01*
G75*
G02*
X97940000Y-85510000I-140000J0D01*
G01*
X97660000Y-85510000D01*
G75*
G02*
X97520000Y-85370000I0J140000D01*
G01*
G37*
G36*
G01*
X96560000Y-85370000D02*
X96560000Y-85030000D01*
G75*
G02*
X96700000Y-84890000I140000J0D01*
G01*
X96980000Y-84890000D01*
G75*
G02*
X97120000Y-85030000I0J-140000D01*
G01*
X97120000Y-85370000D01*
G75*
G02*
X96980000Y-85510000I-140000J0D01*
G01*
X96700000Y-85510000D01*
G75*
G02*
X96560000Y-85370000I0J140000D01*
G01*
G37*
%TD*%
%TO.C,C203*%
G36*
G01*
X103420000Y-78470000D02*
X103420000Y-78130000D01*
G75*
G02*
X103560000Y-77990000I140000J0D01*
G01*
X103840000Y-77990000D01*
G75*
G02*
X103980000Y-78130000I0J-140000D01*
G01*
X103980000Y-78470000D01*
G75*
G02*
X103840000Y-78610000I-140000J0D01*
G01*
X103560000Y-78610000D01*
G75*
G02*
X103420000Y-78470000I0J140000D01*
G01*
G37*
G36*
G01*
X102460000Y-78470000D02*
X102460000Y-78130000D01*
G75*
G02*
X102600000Y-77990000I140000J0D01*
G01*
X102880000Y-77990000D01*
G75*
G02*
X103020000Y-78130000I0J-140000D01*
G01*
X103020000Y-78470000D01*
G75*
G02*
X102880000Y-78610000I-140000J0D01*
G01*
X102600000Y-78610000D01*
G75*
G02*
X102460000Y-78470000I0J140000D01*
G01*
G37*
%TD*%
%TO.C,C202*%
G36*
G01*
X98480000Y-142430000D02*
X98480000Y-142770000D01*
G75*
G02*
X98340000Y-142910000I-140000J0D01*
G01*
X98060000Y-142910000D01*
G75*
G02*
X97920000Y-142770000I0J140000D01*
G01*
X97920000Y-142430000D01*
G75*
G02*
X98060000Y-142290000I140000J0D01*
G01*
X98340000Y-142290000D01*
G75*
G02*
X98480000Y-142430000I0J-140000D01*
G01*
G37*
G36*
G01*
X99440000Y-142430000D02*
X99440000Y-142770000D01*
G75*
G02*
X99300000Y-142910000I-140000J0D01*
G01*
X99020000Y-142910000D01*
G75*
G02*
X98880000Y-142770000I0J140000D01*
G01*
X98880000Y-142430000D01*
G75*
G02*
X99020000Y-142290000I140000J0D01*
G01*
X99300000Y-142290000D01*
G75*
G02*
X99440000Y-142430000I0J-140000D01*
G01*
G37*
%TD*%
%TO.C,C201*%
G36*
G01*
X98820000Y-136970000D02*
X98820000Y-136630000D01*
G75*
G02*
X98960000Y-136490000I140000J0D01*
G01*
X99240000Y-136490000D01*
G75*
G02*
X99380000Y-136630000I0J-140000D01*
G01*
X99380000Y-136970000D01*
G75*
G02*
X99240000Y-137110000I-140000J0D01*
G01*
X98960000Y-137110000D01*
G75*
G02*
X98820000Y-136970000I0J140000D01*
G01*
G37*
G36*
G01*
X97860000Y-136970000D02*
X97860000Y-136630000D01*
G75*
G02*
X98000000Y-136490000I140000J0D01*
G01*
X98280000Y-136490000D01*
G75*
G02*
X98420000Y-136630000I0J-140000D01*
G01*
X98420000Y-136970000D01*
G75*
G02*
X98280000Y-137110000I-140000J0D01*
G01*
X98000000Y-137110000D01*
G75*
G02*
X97860000Y-136970000I0J140000D01*
G01*
G37*
%TD*%
%TO.C,C112*%
G36*
G01*
X75920000Y-59970000D02*
X75920000Y-59630000D01*
G75*
G02*
X76060000Y-59490000I140000J0D01*
G01*
X76340000Y-59490000D01*
G75*
G02*
X76480000Y-59630000I0J-140000D01*
G01*
X76480000Y-59970000D01*
G75*
G02*
X76340000Y-60110000I-140000J0D01*
G01*
X76060000Y-60110000D01*
G75*
G02*
X75920000Y-59970000I0J140000D01*
G01*
G37*
G36*
G01*
X74960000Y-59970000D02*
X74960000Y-59630000D01*
G75*
G02*
X75100000Y-59490000I140000J0D01*
G01*
X75380000Y-59490000D01*
G75*
G02*
X75520000Y-59630000I0J-140000D01*
G01*
X75520000Y-59970000D01*
G75*
G02*
X75380000Y-60110000I-140000J0D01*
G01*
X75100000Y-60110000D01*
G75*
G02*
X74960000Y-59970000I0J140000D01*
G01*
G37*
%TD*%
%TO.C,C110*%
G36*
G01*
X91100000Y-109870000D02*
X91100000Y-109530000D01*
G75*
G02*
X91240000Y-109390000I140000J0D01*
G01*
X91520000Y-109390000D01*
G75*
G02*
X91660000Y-109530000I0J-140000D01*
G01*
X91660000Y-109870000D01*
G75*
G02*
X91520000Y-110010000I-140000J0D01*
G01*
X91240000Y-110010000D01*
G75*
G02*
X91100000Y-109870000I0J140000D01*
G01*
G37*
G36*
G01*
X90140000Y-109870000D02*
X90140000Y-109530000D01*
G75*
G02*
X90280000Y-109390000I140000J0D01*
G01*
X90560000Y-109390000D01*
G75*
G02*
X90700000Y-109530000I0J-140000D01*
G01*
X90700000Y-109870000D01*
G75*
G02*
X90560000Y-110010000I-140000J0D01*
G01*
X90280000Y-110010000D01*
G75*
G02*
X90140000Y-109870000I0J140000D01*
G01*
G37*
%TD*%
%TO.C,C109*%
G36*
G01*
X72820000Y-58470000D02*
X72820000Y-58130000D01*
G75*
G02*
X72960000Y-57990000I140000J0D01*
G01*
X73240000Y-57990000D01*
G75*
G02*
X73380000Y-58130000I0J-140000D01*
G01*
X73380000Y-58470000D01*
G75*
G02*
X73240000Y-58610000I-140000J0D01*
G01*
X72960000Y-58610000D01*
G75*
G02*
X72820000Y-58470000I0J140000D01*
G01*
G37*
G36*
G01*
X71860000Y-58470000D02*
X71860000Y-58130000D01*
G75*
G02*
X72000000Y-57990000I140000J0D01*
G01*
X72280000Y-57990000D01*
G75*
G02*
X72420000Y-58130000I0J-140000D01*
G01*
X72420000Y-58470000D01*
G75*
G02*
X72280000Y-58610000I-140000J0D01*
G01*
X72000000Y-58610000D01*
G75*
G02*
X71860000Y-58470000I0J140000D01*
G01*
G37*
%TD*%
%TO.C,C108*%
G36*
G01*
X78680000Y-51870000D02*
X78680000Y-51530000D01*
G75*
G02*
X78820000Y-51390000I140000J0D01*
G01*
X79100000Y-51390000D01*
G75*
G02*
X79240000Y-51530000I0J-140000D01*
G01*
X79240000Y-51870000D01*
G75*
G02*
X79100000Y-52010000I-140000J0D01*
G01*
X78820000Y-52010000D01*
G75*
G02*
X78680000Y-51870000I0J140000D01*
G01*
G37*
G36*
G01*
X77720000Y-51870000D02*
X77720000Y-51530000D01*
G75*
G02*
X77860000Y-51390000I140000J0D01*
G01*
X78140000Y-51390000D01*
G75*
G02*
X78280000Y-51530000I0J-140000D01*
G01*
X78280000Y-51870000D01*
G75*
G02*
X78140000Y-52010000I-140000J0D01*
G01*
X77860000Y-52010000D01*
G75*
G02*
X77720000Y-51870000I0J140000D01*
G01*
G37*
%TD*%
%TO.C,C107*%
G36*
G01*
X87420000Y-130070000D02*
X87420000Y-129730000D01*
G75*
G02*
X87560000Y-129590000I140000J0D01*
G01*
X87840000Y-129590000D01*
G75*
G02*
X87980000Y-129730000I0J-140000D01*
G01*
X87980000Y-130070000D01*
G75*
G02*
X87840000Y-130210000I-140000J0D01*
G01*
X87560000Y-130210000D01*
G75*
G02*
X87420000Y-130070000I0J140000D01*
G01*
G37*
G36*
G01*
X86460000Y-130070000D02*
X86460000Y-129730000D01*
G75*
G02*
X86600000Y-129590000I140000J0D01*
G01*
X86880000Y-129590000D01*
G75*
G02*
X87020000Y-129730000I0J-140000D01*
G01*
X87020000Y-130070000D01*
G75*
G02*
X86880000Y-130210000I-140000J0D01*
G01*
X86600000Y-130210000D01*
G75*
G02*
X86460000Y-130070000I0J140000D01*
G01*
G37*
%TD*%
%TO.C,C106*%
G36*
G01*
X93220000Y-123070000D02*
X93220000Y-122730000D01*
G75*
G02*
X93360000Y-122590000I140000J0D01*
G01*
X93640000Y-122590000D01*
G75*
G02*
X93780000Y-122730000I0J-140000D01*
G01*
X93780000Y-123070000D01*
G75*
G02*
X93640000Y-123210000I-140000J0D01*
G01*
X93360000Y-123210000D01*
G75*
G02*
X93220000Y-123070000I0J140000D01*
G01*
G37*
G36*
G01*
X92260000Y-123070000D02*
X92260000Y-122730000D01*
G75*
G02*
X92400000Y-122590000I140000J0D01*
G01*
X92680000Y-122590000D01*
G75*
G02*
X92820000Y-122730000I0J-140000D01*
G01*
X92820000Y-123070000D01*
G75*
G02*
X92680000Y-123210000I-140000J0D01*
G01*
X92400000Y-123210000D01*
G75*
G02*
X92260000Y-123070000I0J140000D01*
G01*
G37*
%TD*%
%TO.C,C105*%
G36*
G01*
X84920000Y-102570000D02*
X84920000Y-102230000D01*
G75*
G02*
X85060000Y-102090000I140000J0D01*
G01*
X85340000Y-102090000D01*
G75*
G02*
X85480000Y-102230000I0J-140000D01*
G01*
X85480000Y-102570000D01*
G75*
G02*
X85340000Y-102710000I-140000J0D01*
G01*
X85060000Y-102710000D01*
G75*
G02*
X84920000Y-102570000I0J140000D01*
G01*
G37*
G36*
G01*
X83960000Y-102570000D02*
X83960000Y-102230000D01*
G75*
G02*
X84100000Y-102090000I140000J0D01*
G01*
X84380000Y-102090000D01*
G75*
G02*
X84520000Y-102230000I0J-140000D01*
G01*
X84520000Y-102570000D01*
G75*
G02*
X84380000Y-102710000I-140000J0D01*
G01*
X84100000Y-102710000D01*
G75*
G02*
X83960000Y-102570000I0J140000D01*
G01*
G37*
%TD*%
%TO.C,C104*%
G36*
G01*
X90720000Y-95770000D02*
X90720000Y-95430000D01*
G75*
G02*
X90860000Y-95290000I140000J0D01*
G01*
X91140000Y-95290000D01*
G75*
G02*
X91280000Y-95430000I0J-140000D01*
G01*
X91280000Y-95770000D01*
G75*
G02*
X91140000Y-95910000I-140000J0D01*
G01*
X90860000Y-95910000D01*
G75*
G02*
X90720000Y-95770000I0J140000D01*
G01*
G37*
G36*
G01*
X89760000Y-95770000D02*
X89760000Y-95430000D01*
G75*
G02*
X89900000Y-95290000I140000J0D01*
G01*
X90180000Y-95290000D01*
G75*
G02*
X90320000Y-95430000I0J-140000D01*
G01*
X90320000Y-95770000D01*
G75*
G02*
X90180000Y-95910000I-140000J0D01*
G01*
X89900000Y-95910000D01*
G75*
G02*
X89760000Y-95770000I0J140000D01*
G01*
G37*
%TD*%
%TO.C,C103*%
G36*
G01*
X87020000Y-58470000D02*
X87020000Y-58130000D01*
G75*
G02*
X87160000Y-57990000I140000J0D01*
G01*
X87440000Y-57990000D01*
G75*
G02*
X87580000Y-58130000I0J-140000D01*
G01*
X87580000Y-58470000D01*
G75*
G02*
X87440000Y-58610000I-140000J0D01*
G01*
X87160000Y-58610000D01*
G75*
G02*
X87020000Y-58470000I0J140000D01*
G01*
G37*
G36*
G01*
X86060000Y-58470000D02*
X86060000Y-58130000D01*
G75*
G02*
X86200000Y-57990000I140000J0D01*
G01*
X86480000Y-57990000D01*
G75*
G02*
X86620000Y-58130000I0J-140000D01*
G01*
X86620000Y-58470000D01*
G75*
G02*
X86480000Y-58610000I-140000J0D01*
G01*
X86200000Y-58610000D01*
G75*
G02*
X86060000Y-58470000I0J140000D01*
G01*
G37*
%TD*%
%TO.C,C102*%
G36*
G01*
X92920000Y-51970000D02*
X92920000Y-51630000D01*
G75*
G02*
X93060000Y-51490000I140000J0D01*
G01*
X93340000Y-51490000D01*
G75*
G02*
X93480000Y-51630000I0J-140000D01*
G01*
X93480000Y-51970000D01*
G75*
G02*
X93340000Y-52110000I-140000J0D01*
G01*
X93060000Y-52110000D01*
G75*
G02*
X92920000Y-51970000I0J140000D01*
G01*
G37*
G36*
G01*
X91960000Y-51970000D02*
X91960000Y-51630000D01*
G75*
G02*
X92100000Y-51490000I140000J0D01*
G01*
X92380000Y-51490000D01*
G75*
G02*
X92520000Y-51630000I0J-140000D01*
G01*
X92520000Y-51970000D01*
G75*
G02*
X92380000Y-52110000I-140000J0D01*
G01*
X92100000Y-52110000D01*
G75*
G02*
X91960000Y-51970000I0J140000D01*
G01*
G37*
%TD*%
%TO.C,C101*%
G36*
G01*
X84880000Y-92430000D02*
X84880000Y-92770000D01*
G75*
G02*
X84740000Y-92910000I-140000J0D01*
G01*
X84460000Y-92910000D01*
G75*
G02*
X84320000Y-92770000I0J140000D01*
G01*
X84320000Y-92430000D01*
G75*
G02*
X84460000Y-92290000I140000J0D01*
G01*
X84740000Y-92290000D01*
G75*
G02*
X84880000Y-92430000I0J-140000D01*
G01*
G37*
G36*
G01*
X85840000Y-92430000D02*
X85840000Y-92770000D01*
G75*
G02*
X85700000Y-92910000I-140000J0D01*
G01*
X85420000Y-92910000D01*
G75*
G02*
X85280000Y-92770000I0J140000D01*
G01*
X85280000Y-92430000D01*
G75*
G02*
X85420000Y-92290000I140000J0D01*
G01*
X85700000Y-92290000D01*
G75*
G02*
X85840000Y-92430000I0J-140000D01*
G01*
G37*
%TD*%
M02*
