%TF.GenerationSoftware,KiCad,Pcbnew,(5.1.7-0-10_14)*%
%TF.CreationDate,2021-05-28T11:23:36-04:00*%
%TF.ProjectId,SlewLimiter,536c6577-4c69-46d6-9974-65722e6b6963,rev?*%
%TF.SameCoordinates,Original*%
%TF.FileFunction,Copper,L1,Top*%
%TF.FilePolarity,Positive*%
%FSLAX46Y46*%
G04 Gerber Fmt 4.6, Leading zero omitted, Abs format (unit mm)*
G04 Created by KiCad (PCBNEW (5.1.7-0-10_14)) date 2021-05-28 11:23:36*
%MOMM*%
%LPD*%
G01*
G04 APERTURE LIST*
%TA.AperFunction,ComponentPad*%
%ADD10C,1.800000*%
%TD*%
%TA.AperFunction,ComponentPad*%
%ADD11R,1.800000X1.800000*%
%TD*%
%TA.AperFunction,ComponentPad*%
%ADD12O,2.800000X2.200000*%
%TD*%
%TA.AperFunction,SMDPad,CuDef*%
%ADD13R,0.800000X0.900000*%
%TD*%
%TA.AperFunction,ComponentPad*%
%ADD14O,2.300000X1.500000*%
%TD*%
%TA.AperFunction,ComponentPad*%
%ADD15O,1.700000X1.700000*%
%TD*%
%TA.AperFunction,ComponentPad*%
%ADD16R,1.700000X1.700000*%
%TD*%
%TA.AperFunction,ComponentPad*%
%ADD17O,1.600000X1.600000*%
%TD*%
%TA.AperFunction,ComponentPad*%
%ADD18R,1.600000X1.600000*%
%TD*%
%TA.AperFunction,SMDPad,CuDef*%
%ADD19R,0.900000X1.200000*%
%TD*%
%TA.AperFunction,SMDPad,CuDef*%
%ADD20R,0.500000X0.500000*%
%TD*%
%TA.AperFunction,ViaPad*%
%ADD21C,0.800000*%
%TD*%
%TA.AperFunction,Conductor*%
%ADD22C,0.250000*%
%TD*%
%TA.AperFunction,Conductor*%
%ADD23C,0.500000*%
%TD*%
G04 APERTURE END LIST*
D10*
%TO.P,D303,2*%
%TO.N,/FrontPanel/OUT_LED_NEG_PANEL*%
X51270000Y-63400000D03*
D11*
%TO.P,D303,1*%
%TO.N,/FrontPanel/OUT_LED_POS_PANEL*%
X48730000Y-63400000D03*
%TD*%
%TO.P,U202,8*%
%TO.N,+12V*%
%TA.AperFunction,SMDPad,CuDef*%
G36*
G01*
X80600000Y-79645000D02*
X80600000Y-79345000D01*
G75*
G02*
X80750000Y-79195000I150000J0D01*
G01*
X82400000Y-79195000D01*
G75*
G02*
X82550000Y-79345000I0J-150000D01*
G01*
X82550000Y-79645000D01*
G75*
G02*
X82400000Y-79795000I-150000J0D01*
G01*
X80750000Y-79795000D01*
G75*
G02*
X80600000Y-79645000I0J150000D01*
G01*
G37*
%TD.AperFunction*%
%TO.P,U202,7*%
%TO.N,Net-(R213-Pad1)*%
%TA.AperFunction,SMDPad,CuDef*%
G36*
G01*
X80600000Y-80915000D02*
X80600000Y-80615000D01*
G75*
G02*
X80750000Y-80465000I150000J0D01*
G01*
X82400000Y-80465000D01*
G75*
G02*
X82550000Y-80615000I0J-150000D01*
G01*
X82550000Y-80915000D01*
G75*
G02*
X82400000Y-81065000I-150000J0D01*
G01*
X80750000Y-81065000D01*
G75*
G02*
X80600000Y-80915000I0J150000D01*
G01*
G37*
%TD.AperFunction*%
%TO.P,U202,6*%
%TO.N,Net-(R211-Pad1)*%
%TA.AperFunction,SMDPad,CuDef*%
G36*
G01*
X80600000Y-82185000D02*
X80600000Y-81885000D01*
G75*
G02*
X80750000Y-81735000I150000J0D01*
G01*
X82400000Y-81735000D01*
G75*
G02*
X82550000Y-81885000I0J-150000D01*
G01*
X82550000Y-82185000D01*
G75*
G02*
X82400000Y-82335000I-150000J0D01*
G01*
X80750000Y-82335000D01*
G75*
G02*
X80600000Y-82185000I0J150000D01*
G01*
G37*
%TD.AperFunction*%
%TO.P,U202,5*%
%TO.N,/SlewLimiter2/RISE_SHAPE_WIPER*%
%TA.AperFunction,SMDPad,CuDef*%
G36*
G01*
X80600000Y-83455000D02*
X80600000Y-83155000D01*
G75*
G02*
X80750000Y-83005000I150000J0D01*
G01*
X82400000Y-83005000D01*
G75*
G02*
X82550000Y-83155000I0J-150000D01*
G01*
X82550000Y-83455000D01*
G75*
G02*
X82400000Y-83605000I-150000J0D01*
G01*
X80750000Y-83605000D01*
G75*
G02*
X80600000Y-83455000I0J150000D01*
G01*
G37*
%TD.AperFunction*%
%TO.P,U202,4*%
%TO.N,-12V*%
%TA.AperFunction,SMDPad,CuDef*%
G36*
G01*
X75650000Y-83455000D02*
X75650000Y-83155000D01*
G75*
G02*
X75800000Y-83005000I150000J0D01*
G01*
X77450000Y-83005000D01*
G75*
G02*
X77600000Y-83155000I0J-150000D01*
G01*
X77600000Y-83455000D01*
G75*
G02*
X77450000Y-83605000I-150000J0D01*
G01*
X75800000Y-83605000D01*
G75*
G02*
X75650000Y-83455000I0J150000D01*
G01*
G37*
%TD.AperFunction*%
%TO.P,U202,3*%
%TO.N,/SlewLimiter2/RISE_CV_WIPER*%
%TA.AperFunction,SMDPad,CuDef*%
G36*
G01*
X75650000Y-82185000D02*
X75650000Y-81885000D01*
G75*
G02*
X75800000Y-81735000I150000J0D01*
G01*
X77450000Y-81735000D01*
G75*
G02*
X77600000Y-81885000I0J-150000D01*
G01*
X77600000Y-82185000D01*
G75*
G02*
X77450000Y-82335000I-150000J0D01*
G01*
X75800000Y-82335000D01*
G75*
G02*
X75650000Y-82185000I0J150000D01*
G01*
G37*
%TD.AperFunction*%
%TO.P,U202,2*%
%TO.N,Net-(R202-Pad1)*%
%TA.AperFunction,SMDPad,CuDef*%
G36*
G01*
X75650000Y-80915000D02*
X75650000Y-80615000D01*
G75*
G02*
X75800000Y-80465000I150000J0D01*
G01*
X77450000Y-80465000D01*
G75*
G02*
X77600000Y-80615000I0J-150000D01*
G01*
X77600000Y-80915000D01*
G75*
G02*
X77450000Y-81065000I-150000J0D01*
G01*
X75800000Y-81065000D01*
G75*
G02*
X75650000Y-80915000I0J150000D01*
G01*
G37*
%TD.AperFunction*%
%TO.P,U202,1*%
%TO.N,Net-(R204-Pad1)*%
%TA.AperFunction,SMDPad,CuDef*%
G36*
G01*
X75650000Y-79645000D02*
X75650000Y-79345000D01*
G75*
G02*
X75800000Y-79195000I150000J0D01*
G01*
X77450000Y-79195000D01*
G75*
G02*
X77600000Y-79345000I0J-150000D01*
G01*
X77600000Y-79645000D01*
G75*
G02*
X77450000Y-79795000I-150000J0D01*
G01*
X75800000Y-79795000D01*
G75*
G02*
X75650000Y-79645000I0J150000D01*
G01*
G37*
%TD.AperFunction*%
%TD*%
%TO.P,U201,8*%
%TO.N,+12V*%
%TA.AperFunction,SMDPad,CuDef*%
G36*
G01*
X101800000Y-79945000D02*
X101800000Y-79645000D01*
G75*
G02*
X101950000Y-79495000I150000J0D01*
G01*
X103600000Y-79495000D01*
G75*
G02*
X103750000Y-79645000I0J-150000D01*
G01*
X103750000Y-79945000D01*
G75*
G02*
X103600000Y-80095000I-150000J0D01*
G01*
X101950000Y-80095000D01*
G75*
G02*
X101800000Y-79945000I0J150000D01*
G01*
G37*
%TD.AperFunction*%
%TO.P,U201,7*%
%TO.N,Net-(R212-Pad1)*%
%TA.AperFunction,SMDPad,CuDef*%
G36*
G01*
X101800000Y-81215000D02*
X101800000Y-80915000D01*
G75*
G02*
X101950000Y-80765000I150000J0D01*
G01*
X103600000Y-80765000D01*
G75*
G02*
X103750000Y-80915000I0J-150000D01*
G01*
X103750000Y-81215000D01*
G75*
G02*
X103600000Y-81365000I-150000J0D01*
G01*
X101950000Y-81365000D01*
G75*
G02*
X101800000Y-81215000I0J150000D01*
G01*
G37*
%TD.AperFunction*%
%TO.P,U201,6*%
%TO.N,Net-(R210-Pad1)*%
%TA.AperFunction,SMDPad,CuDef*%
G36*
G01*
X101800000Y-82485000D02*
X101800000Y-82185000D01*
G75*
G02*
X101950000Y-82035000I150000J0D01*
G01*
X103600000Y-82035000D01*
G75*
G02*
X103750000Y-82185000I0J-150000D01*
G01*
X103750000Y-82485000D01*
G75*
G02*
X103600000Y-82635000I-150000J0D01*
G01*
X101950000Y-82635000D01*
G75*
G02*
X101800000Y-82485000I0J150000D01*
G01*
G37*
%TD.AperFunction*%
%TO.P,U201,5*%
%TO.N,/SlewLimiter2/FALL_SHAPE_WIPER*%
%TA.AperFunction,SMDPad,CuDef*%
G36*
G01*
X101800000Y-83755000D02*
X101800000Y-83455000D01*
G75*
G02*
X101950000Y-83305000I150000J0D01*
G01*
X103600000Y-83305000D01*
G75*
G02*
X103750000Y-83455000I0J-150000D01*
G01*
X103750000Y-83755000D01*
G75*
G02*
X103600000Y-83905000I-150000J0D01*
G01*
X101950000Y-83905000D01*
G75*
G02*
X101800000Y-83755000I0J150000D01*
G01*
G37*
%TD.AperFunction*%
%TO.P,U201,4*%
%TO.N,-12V*%
%TA.AperFunction,SMDPad,CuDef*%
G36*
G01*
X96850000Y-83755000D02*
X96850000Y-83455000D01*
G75*
G02*
X97000000Y-83305000I150000J0D01*
G01*
X98650000Y-83305000D01*
G75*
G02*
X98800000Y-83455000I0J-150000D01*
G01*
X98800000Y-83755000D01*
G75*
G02*
X98650000Y-83905000I-150000J0D01*
G01*
X97000000Y-83905000D01*
G75*
G02*
X96850000Y-83755000I0J150000D01*
G01*
G37*
%TD.AperFunction*%
%TO.P,U201,3*%
%TO.N,/SlewLimiter2/FALL_CV_WIPER*%
%TA.AperFunction,SMDPad,CuDef*%
G36*
G01*
X96850000Y-82485000D02*
X96850000Y-82185000D01*
G75*
G02*
X97000000Y-82035000I150000J0D01*
G01*
X98650000Y-82035000D01*
G75*
G02*
X98800000Y-82185000I0J-150000D01*
G01*
X98800000Y-82485000D01*
G75*
G02*
X98650000Y-82635000I-150000J0D01*
G01*
X97000000Y-82635000D01*
G75*
G02*
X96850000Y-82485000I0J150000D01*
G01*
G37*
%TD.AperFunction*%
%TO.P,U201,2*%
%TO.N,Net-(R201-Pad1)*%
%TA.AperFunction,SMDPad,CuDef*%
G36*
G01*
X96850000Y-81215000D02*
X96850000Y-80915000D01*
G75*
G02*
X97000000Y-80765000I150000J0D01*
G01*
X98650000Y-80765000D01*
G75*
G02*
X98800000Y-80915000I0J-150000D01*
G01*
X98800000Y-81215000D01*
G75*
G02*
X98650000Y-81365000I-150000J0D01*
G01*
X97000000Y-81365000D01*
G75*
G02*
X96850000Y-81215000I0J150000D01*
G01*
G37*
%TD.AperFunction*%
%TO.P,U201,1*%
%TO.N,Net-(R203-Pad1)*%
%TA.AperFunction,SMDPad,CuDef*%
G36*
G01*
X96850000Y-79945000D02*
X96850000Y-79645000D01*
G75*
G02*
X97000000Y-79495000I150000J0D01*
G01*
X98650000Y-79495000D01*
G75*
G02*
X98800000Y-79645000I0J-150000D01*
G01*
X98800000Y-79945000D01*
G75*
G02*
X98650000Y-80095000I-150000J0D01*
G01*
X97000000Y-80095000D01*
G75*
G02*
X96850000Y-79945000I0J150000D01*
G01*
G37*
%TD.AperFunction*%
%TD*%
%TO.P,U105,8*%
%TO.N,+12V*%
%TA.AperFunction,SMDPad,CuDef*%
G36*
G01*
X89425000Y-111250000D02*
X89425000Y-110950000D01*
G75*
G02*
X89575000Y-110800000I150000J0D01*
G01*
X91225000Y-110800000D01*
G75*
G02*
X91375000Y-110950000I0J-150000D01*
G01*
X91375000Y-111250000D01*
G75*
G02*
X91225000Y-111400000I-150000J0D01*
G01*
X89575000Y-111400000D01*
G75*
G02*
X89425000Y-111250000I0J150000D01*
G01*
G37*
%TD.AperFunction*%
%TO.P,U105,7*%
%TO.N,Net-(D110-Pad2)*%
%TA.AperFunction,SMDPad,CuDef*%
G36*
G01*
X89425000Y-112520000D02*
X89425000Y-112220000D01*
G75*
G02*
X89575000Y-112070000I150000J0D01*
G01*
X91225000Y-112070000D01*
G75*
G02*
X91375000Y-112220000I0J-150000D01*
G01*
X91375000Y-112520000D01*
G75*
G02*
X91225000Y-112670000I-150000J0D01*
G01*
X89575000Y-112670000D01*
G75*
G02*
X89425000Y-112520000I0J150000D01*
G01*
G37*
%TD.AperFunction*%
%TO.P,U105,6*%
%TO.N,Net-(D108-Pad1)*%
%TA.AperFunction,SMDPad,CuDef*%
G36*
G01*
X89425000Y-113790000D02*
X89425000Y-113490000D01*
G75*
G02*
X89575000Y-113340000I150000J0D01*
G01*
X91225000Y-113340000D01*
G75*
G02*
X91375000Y-113490000I0J-150000D01*
G01*
X91375000Y-113790000D01*
G75*
G02*
X91225000Y-113940000I-150000J0D01*
G01*
X89575000Y-113940000D01*
G75*
G02*
X89425000Y-113790000I0J150000D01*
G01*
G37*
%TD.AperFunction*%
%TO.P,U105,5*%
%TO.N,Net-(R116-Pad2)*%
%TA.AperFunction,SMDPad,CuDef*%
G36*
G01*
X89425000Y-115060000D02*
X89425000Y-114760000D01*
G75*
G02*
X89575000Y-114610000I150000J0D01*
G01*
X91225000Y-114610000D01*
G75*
G02*
X91375000Y-114760000I0J-150000D01*
G01*
X91375000Y-115060000D01*
G75*
G02*
X91225000Y-115210000I-150000J0D01*
G01*
X89575000Y-115210000D01*
G75*
G02*
X89425000Y-115060000I0J150000D01*
G01*
G37*
%TD.AperFunction*%
%TO.P,U105,4*%
%TO.N,GND*%
%TA.AperFunction,SMDPad,CuDef*%
G36*
G01*
X84475000Y-115060000D02*
X84475000Y-114760000D01*
G75*
G02*
X84625000Y-114610000I150000J0D01*
G01*
X86275000Y-114610000D01*
G75*
G02*
X86425000Y-114760000I0J-150000D01*
G01*
X86425000Y-115060000D01*
G75*
G02*
X86275000Y-115210000I-150000J0D01*
G01*
X84625000Y-115210000D01*
G75*
G02*
X84475000Y-115060000I0J150000D01*
G01*
G37*
%TD.AperFunction*%
%TO.P,U105,3*%
%TO.N,Net-(R121-Pad2)*%
%TA.AperFunction,SMDPad,CuDef*%
G36*
G01*
X84475000Y-113790000D02*
X84475000Y-113490000D01*
G75*
G02*
X84625000Y-113340000I150000J0D01*
G01*
X86275000Y-113340000D01*
G75*
G02*
X86425000Y-113490000I0J-150000D01*
G01*
X86425000Y-113790000D01*
G75*
G02*
X86275000Y-113940000I-150000J0D01*
G01*
X84625000Y-113940000D01*
G75*
G02*
X84475000Y-113790000I0J150000D01*
G01*
G37*
%TD.AperFunction*%
%TO.P,U105,2*%
%TO.N,Net-(D109-Pad1)*%
%TA.AperFunction,SMDPad,CuDef*%
G36*
G01*
X84475000Y-112520000D02*
X84475000Y-112220000D01*
G75*
G02*
X84625000Y-112070000I150000J0D01*
G01*
X86275000Y-112070000D01*
G75*
G02*
X86425000Y-112220000I0J-150000D01*
G01*
X86425000Y-112520000D01*
G75*
G02*
X86275000Y-112670000I-150000J0D01*
G01*
X84625000Y-112670000D01*
G75*
G02*
X84475000Y-112520000I0J150000D01*
G01*
G37*
%TD.AperFunction*%
%TO.P,U105,1*%
%TO.N,Net-(R123-Pad2)*%
%TA.AperFunction,SMDPad,CuDef*%
G36*
G01*
X84475000Y-111250000D02*
X84475000Y-110950000D01*
G75*
G02*
X84625000Y-110800000I150000J0D01*
G01*
X86275000Y-110800000D01*
G75*
G02*
X86425000Y-110950000I0J-150000D01*
G01*
X86425000Y-111250000D01*
G75*
G02*
X86275000Y-111400000I-150000J0D01*
G01*
X84625000Y-111400000D01*
G75*
G02*
X84475000Y-111250000I0J150000D01*
G01*
G37*
%TD.AperFunction*%
%TD*%
%TO.P,U104,8*%
%TO.N,+12V*%
%TA.AperFunction,SMDPad,CuDef*%
G36*
G01*
X77025000Y-53250000D02*
X77025000Y-52950000D01*
G75*
G02*
X77175000Y-52800000I150000J0D01*
G01*
X78825000Y-52800000D01*
G75*
G02*
X78975000Y-52950000I0J-150000D01*
G01*
X78975000Y-53250000D01*
G75*
G02*
X78825000Y-53400000I-150000J0D01*
G01*
X77175000Y-53400000D01*
G75*
G02*
X77025000Y-53250000I0J150000D01*
G01*
G37*
%TD.AperFunction*%
%TO.P,U104,7*%
%TO.N,Net-(R120-Pad1)*%
%TA.AperFunction,SMDPad,CuDef*%
G36*
G01*
X77025000Y-54520000D02*
X77025000Y-54220000D01*
G75*
G02*
X77175000Y-54070000I150000J0D01*
G01*
X78825000Y-54070000D01*
G75*
G02*
X78975000Y-54220000I0J-150000D01*
G01*
X78975000Y-54520000D01*
G75*
G02*
X78825000Y-54670000I-150000J0D01*
G01*
X77175000Y-54670000D01*
G75*
G02*
X77025000Y-54520000I0J150000D01*
G01*
G37*
%TD.AperFunction*%
%TO.P,U104,6*%
%TO.N,Net-(C112-Pad2)*%
%TA.AperFunction,SMDPad,CuDef*%
G36*
G01*
X77025000Y-55790000D02*
X77025000Y-55490000D01*
G75*
G02*
X77175000Y-55340000I150000J0D01*
G01*
X78825000Y-55340000D01*
G75*
G02*
X78975000Y-55490000I0J-150000D01*
G01*
X78975000Y-55790000D01*
G75*
G02*
X78825000Y-55940000I-150000J0D01*
G01*
X77175000Y-55940000D01*
G75*
G02*
X77025000Y-55790000I0J150000D01*
G01*
G37*
%TD.AperFunction*%
%TO.P,U104,5*%
%TO.N,GND*%
%TA.AperFunction,SMDPad,CuDef*%
G36*
G01*
X77025000Y-57060000D02*
X77025000Y-56760000D01*
G75*
G02*
X77175000Y-56610000I150000J0D01*
G01*
X78825000Y-56610000D01*
G75*
G02*
X78975000Y-56760000I0J-150000D01*
G01*
X78975000Y-57060000D01*
G75*
G02*
X78825000Y-57210000I-150000J0D01*
G01*
X77175000Y-57210000D01*
G75*
G02*
X77025000Y-57060000I0J150000D01*
G01*
G37*
%TD.AperFunction*%
%TO.P,U104,4*%
%TO.N,-12V*%
%TA.AperFunction,SMDPad,CuDef*%
G36*
G01*
X72075000Y-57060000D02*
X72075000Y-56760000D01*
G75*
G02*
X72225000Y-56610000I150000J0D01*
G01*
X73875000Y-56610000D01*
G75*
G02*
X74025000Y-56760000I0J-150000D01*
G01*
X74025000Y-57060000D01*
G75*
G02*
X73875000Y-57210000I-150000J0D01*
G01*
X72225000Y-57210000D01*
G75*
G02*
X72075000Y-57060000I0J150000D01*
G01*
G37*
%TD.AperFunction*%
%TO.P,U104,3*%
%TO.N,Net-(C112-Pad1)*%
%TA.AperFunction,SMDPad,CuDef*%
G36*
G01*
X72075000Y-55790000D02*
X72075000Y-55490000D01*
G75*
G02*
X72225000Y-55340000I150000J0D01*
G01*
X73875000Y-55340000D01*
G75*
G02*
X74025000Y-55490000I0J-150000D01*
G01*
X74025000Y-55790000D01*
G75*
G02*
X73875000Y-55940000I-150000J0D01*
G01*
X72225000Y-55940000D01*
G75*
G02*
X72075000Y-55790000I0J150000D01*
G01*
G37*
%TD.AperFunction*%
%TO.P,U104,2*%
%TO.N,OUT*%
%TA.AperFunction,SMDPad,CuDef*%
G36*
G01*
X72075000Y-54520000D02*
X72075000Y-54220000D01*
G75*
G02*
X72225000Y-54070000I150000J0D01*
G01*
X73875000Y-54070000D01*
G75*
G02*
X74025000Y-54220000I0J-150000D01*
G01*
X74025000Y-54520000D01*
G75*
G02*
X73875000Y-54670000I-150000J0D01*
G01*
X72225000Y-54670000D01*
G75*
G02*
X72075000Y-54520000I0J150000D01*
G01*
G37*
%TD.AperFunction*%
%TO.P,U104,1*%
%TA.AperFunction,SMDPad,CuDef*%
G36*
G01*
X72075000Y-53250000D02*
X72075000Y-52950000D01*
G75*
G02*
X72225000Y-52800000I150000J0D01*
G01*
X73875000Y-52800000D01*
G75*
G02*
X74025000Y-52950000I0J-150000D01*
G01*
X74025000Y-53250000D01*
G75*
G02*
X73875000Y-53400000I-150000J0D01*
G01*
X72225000Y-53400000D01*
G75*
G02*
X72075000Y-53250000I0J150000D01*
G01*
G37*
%TD.AperFunction*%
%TD*%
%TO.P,U103,8*%
%TO.N,+12V*%
%TA.AperFunction,SMDPad,CuDef*%
G36*
G01*
X91600000Y-124645000D02*
X91600000Y-124345000D01*
G75*
G02*
X91750000Y-124195000I150000J0D01*
G01*
X93400000Y-124195000D01*
G75*
G02*
X93550000Y-124345000I0J-150000D01*
G01*
X93550000Y-124645000D01*
G75*
G02*
X93400000Y-124795000I-150000J0D01*
G01*
X91750000Y-124795000D01*
G75*
G02*
X91600000Y-124645000I0J150000D01*
G01*
G37*
%TD.AperFunction*%
%TO.P,U103,7*%
%TO.N,OUT_LED_POS*%
%TA.AperFunction,SMDPad,CuDef*%
G36*
G01*
X91600000Y-125915000D02*
X91600000Y-125615000D01*
G75*
G02*
X91750000Y-125465000I150000J0D01*
G01*
X93400000Y-125465000D01*
G75*
G02*
X93550000Y-125615000I0J-150000D01*
G01*
X93550000Y-125915000D01*
G75*
G02*
X93400000Y-126065000I-150000J0D01*
G01*
X91750000Y-126065000D01*
G75*
G02*
X91600000Y-125915000I0J150000D01*
G01*
G37*
%TD.AperFunction*%
%TO.P,U103,6*%
%TO.N,OUT_LED_NEG*%
%TA.AperFunction,SMDPad,CuDef*%
G36*
G01*
X91600000Y-127185000D02*
X91600000Y-126885000D01*
G75*
G02*
X91750000Y-126735000I150000J0D01*
G01*
X93400000Y-126735000D01*
G75*
G02*
X93550000Y-126885000I0J-150000D01*
G01*
X93550000Y-127185000D01*
G75*
G02*
X93400000Y-127335000I-150000J0D01*
G01*
X91750000Y-127335000D01*
G75*
G02*
X91600000Y-127185000I0J150000D01*
G01*
G37*
%TD.AperFunction*%
%TO.P,U103,5*%
%TO.N,OUT*%
%TA.AperFunction,SMDPad,CuDef*%
G36*
G01*
X91600000Y-128455000D02*
X91600000Y-128155000D01*
G75*
G02*
X91750000Y-128005000I150000J0D01*
G01*
X93400000Y-128005000D01*
G75*
G02*
X93550000Y-128155000I0J-150000D01*
G01*
X93550000Y-128455000D01*
G75*
G02*
X93400000Y-128605000I-150000J0D01*
G01*
X91750000Y-128605000D01*
G75*
G02*
X91600000Y-128455000I0J150000D01*
G01*
G37*
%TD.AperFunction*%
%TO.P,U103,4*%
%TO.N,-12V*%
%TA.AperFunction,SMDPad,CuDef*%
G36*
G01*
X86650000Y-128455000D02*
X86650000Y-128155000D01*
G75*
G02*
X86800000Y-128005000I150000J0D01*
G01*
X88450000Y-128005000D01*
G75*
G02*
X88600000Y-128155000I0J-150000D01*
G01*
X88600000Y-128455000D01*
G75*
G02*
X88450000Y-128605000I-150000J0D01*
G01*
X86800000Y-128605000D01*
G75*
G02*
X86650000Y-128455000I0J150000D01*
G01*
G37*
%TD.AperFunction*%
%TO.P,U103,3*%
%TO.N,Net-(D101-Pad2)*%
%TA.AperFunction,SMDPad,CuDef*%
G36*
G01*
X86650000Y-127185000D02*
X86650000Y-126885000D01*
G75*
G02*
X86800000Y-126735000I150000J0D01*
G01*
X88450000Y-126735000D01*
G75*
G02*
X88600000Y-126885000I0J-150000D01*
G01*
X88600000Y-127185000D01*
G75*
G02*
X88450000Y-127335000I-150000J0D01*
G01*
X86800000Y-127335000D01*
G75*
G02*
X86650000Y-127185000I0J150000D01*
G01*
G37*
%TD.AperFunction*%
%TO.P,U103,2*%
%TO.N,/SUSTAIN_BUF*%
%TA.AperFunction,SMDPad,CuDef*%
G36*
G01*
X86650000Y-125915000D02*
X86650000Y-125615000D01*
G75*
G02*
X86800000Y-125465000I150000J0D01*
G01*
X88450000Y-125465000D01*
G75*
G02*
X88600000Y-125615000I0J-150000D01*
G01*
X88600000Y-125915000D01*
G75*
G02*
X88450000Y-126065000I-150000J0D01*
G01*
X86800000Y-126065000D01*
G75*
G02*
X86650000Y-125915000I0J150000D01*
G01*
G37*
%TD.AperFunction*%
%TO.P,U103,1*%
%TA.AperFunction,SMDPad,CuDef*%
G36*
G01*
X86650000Y-124645000D02*
X86650000Y-124345000D01*
G75*
G02*
X86800000Y-124195000I150000J0D01*
G01*
X88450000Y-124195000D01*
G75*
G02*
X88600000Y-124345000I0J-150000D01*
G01*
X88600000Y-124645000D01*
G75*
G02*
X88450000Y-124795000I-150000J0D01*
G01*
X86800000Y-124795000D01*
G75*
G02*
X86650000Y-124645000I0J150000D01*
G01*
G37*
%TD.AperFunction*%
%TD*%
%TO.P,U102,8*%
%TO.N,+12V*%
%TA.AperFunction,SMDPad,CuDef*%
G36*
G01*
X89125000Y-97280000D02*
X89125000Y-96980000D01*
G75*
G02*
X89275000Y-96830000I150000J0D01*
G01*
X90925000Y-96830000D01*
G75*
G02*
X91075000Y-96980000I0J-150000D01*
G01*
X91075000Y-97280000D01*
G75*
G02*
X90925000Y-97430000I-150000J0D01*
G01*
X89275000Y-97430000D01*
G75*
G02*
X89125000Y-97280000I0J150000D01*
G01*
G37*
%TD.AperFunction*%
%TO.P,U102,7*%
%TO.N,/STATE*%
%TA.AperFunction,SMDPad,CuDef*%
G36*
G01*
X89125000Y-98550000D02*
X89125000Y-98250000D01*
G75*
G02*
X89275000Y-98100000I150000J0D01*
G01*
X90925000Y-98100000D01*
G75*
G02*
X91075000Y-98250000I0J-150000D01*
G01*
X91075000Y-98550000D01*
G75*
G02*
X90925000Y-98700000I-150000J0D01*
G01*
X89275000Y-98700000D01*
G75*
G02*
X89125000Y-98550000I0J150000D01*
G01*
G37*
%TD.AperFunction*%
%TO.P,U102,6*%
%TO.N,Net-(D108-Pad1)*%
%TA.AperFunction,SMDPad,CuDef*%
G36*
G01*
X89125000Y-99820000D02*
X89125000Y-99520000D01*
G75*
G02*
X89275000Y-99370000I150000J0D01*
G01*
X90925000Y-99370000D01*
G75*
G02*
X91075000Y-99520000I0J-150000D01*
G01*
X91075000Y-99820000D01*
G75*
G02*
X90925000Y-99970000I-150000J0D01*
G01*
X89275000Y-99970000D01*
G75*
G02*
X89125000Y-99820000I0J150000D01*
G01*
G37*
%TD.AperFunction*%
%TO.P,U102,5*%
%TO.N,Net-(D107-Pad1)*%
%TA.AperFunction,SMDPad,CuDef*%
G36*
G01*
X89125000Y-101090000D02*
X89125000Y-100790000D01*
G75*
G02*
X89275000Y-100640000I150000J0D01*
G01*
X90925000Y-100640000D01*
G75*
G02*
X91075000Y-100790000I0J-150000D01*
G01*
X91075000Y-101090000D01*
G75*
G02*
X90925000Y-101240000I-150000J0D01*
G01*
X89275000Y-101240000D01*
G75*
G02*
X89125000Y-101090000I0J150000D01*
G01*
G37*
%TD.AperFunction*%
%TO.P,U102,4*%
%TO.N,-12V*%
%TA.AperFunction,SMDPad,CuDef*%
G36*
G01*
X84175000Y-101090000D02*
X84175000Y-100790000D01*
G75*
G02*
X84325000Y-100640000I150000J0D01*
G01*
X85975000Y-100640000D01*
G75*
G02*
X86125000Y-100790000I0J-150000D01*
G01*
X86125000Y-101090000D01*
G75*
G02*
X85975000Y-101240000I-150000J0D01*
G01*
X84325000Y-101240000D01*
G75*
G02*
X84175000Y-101090000I0J150000D01*
G01*
G37*
%TD.AperFunction*%
%TO.P,U102,3*%
%TO.N,Net-(R103-Pad1)*%
%TA.AperFunction,SMDPad,CuDef*%
G36*
G01*
X84175000Y-99820000D02*
X84175000Y-99520000D01*
G75*
G02*
X84325000Y-99370000I150000J0D01*
G01*
X85975000Y-99370000D01*
G75*
G02*
X86125000Y-99520000I0J-150000D01*
G01*
X86125000Y-99820000D01*
G75*
G02*
X85975000Y-99970000I-150000J0D01*
G01*
X84325000Y-99970000D01*
G75*
G02*
X84175000Y-99820000I0J150000D01*
G01*
G37*
%TD.AperFunction*%
%TO.P,U102,2*%
%TO.N,GND*%
%TA.AperFunction,SMDPad,CuDef*%
G36*
G01*
X84175000Y-98550000D02*
X84175000Y-98250000D01*
G75*
G02*
X84325000Y-98100000I150000J0D01*
G01*
X85975000Y-98100000D01*
G75*
G02*
X86125000Y-98250000I0J-150000D01*
G01*
X86125000Y-98550000D01*
G75*
G02*
X85975000Y-98700000I-150000J0D01*
G01*
X84325000Y-98700000D01*
G75*
G02*
X84175000Y-98550000I0J150000D01*
G01*
G37*
%TD.AperFunction*%
%TO.P,U102,1*%
%TO.N,/GATE_BUF*%
%TA.AperFunction,SMDPad,CuDef*%
G36*
G01*
X84175000Y-97280000D02*
X84175000Y-96980000D01*
G75*
G02*
X84325000Y-96830000I150000J0D01*
G01*
X85975000Y-96830000D01*
G75*
G02*
X86125000Y-96980000I0J-150000D01*
G01*
X86125000Y-97280000D01*
G75*
G02*
X85975000Y-97430000I-150000J0D01*
G01*
X84325000Y-97430000D01*
G75*
G02*
X84175000Y-97280000I0J150000D01*
G01*
G37*
%TD.AperFunction*%
%TD*%
%TO.P,U101,8*%
%TO.N,+12V*%
%TA.AperFunction,SMDPad,CuDef*%
G36*
G01*
X91225000Y-53250000D02*
X91225000Y-52950000D01*
G75*
G02*
X91375000Y-52800000I150000J0D01*
G01*
X93025000Y-52800000D01*
G75*
G02*
X93175000Y-52950000I0J-150000D01*
G01*
X93175000Y-53250000D01*
G75*
G02*
X93025000Y-53400000I-150000J0D01*
G01*
X91375000Y-53400000D01*
G75*
G02*
X91225000Y-53250000I0J150000D01*
G01*
G37*
%TD.AperFunction*%
%TO.P,U101,7*%
%TO.N,Net-(R111-Pad2)*%
%TA.AperFunction,SMDPad,CuDef*%
G36*
G01*
X91225000Y-54520000D02*
X91225000Y-54220000D01*
G75*
G02*
X91375000Y-54070000I150000J0D01*
G01*
X93025000Y-54070000D01*
G75*
G02*
X93175000Y-54220000I0J-150000D01*
G01*
X93175000Y-54520000D01*
G75*
G02*
X93025000Y-54670000I-150000J0D01*
G01*
X91375000Y-54670000D01*
G75*
G02*
X91225000Y-54520000I0J150000D01*
G01*
G37*
%TD.AperFunction*%
%TO.P,U101,6*%
%TO.N,Net-(D102-Pad1)*%
%TA.AperFunction,SMDPad,CuDef*%
G36*
G01*
X91225000Y-55790000D02*
X91225000Y-55490000D01*
G75*
G02*
X91375000Y-55340000I150000J0D01*
G01*
X93025000Y-55340000D01*
G75*
G02*
X93175000Y-55490000I0J-150000D01*
G01*
X93175000Y-55790000D01*
G75*
G02*
X93025000Y-55940000I-150000J0D01*
G01*
X91375000Y-55940000D01*
G75*
G02*
X91225000Y-55790000I0J150000D01*
G01*
G37*
%TD.AperFunction*%
%TO.P,U101,5*%
%TO.N,Net-(R120-Pad1)*%
%TA.AperFunction,SMDPad,CuDef*%
G36*
G01*
X91225000Y-57060000D02*
X91225000Y-56760000D01*
G75*
G02*
X91375000Y-56610000I150000J0D01*
G01*
X93025000Y-56610000D01*
G75*
G02*
X93175000Y-56760000I0J-150000D01*
G01*
X93175000Y-57060000D01*
G75*
G02*
X93025000Y-57210000I-150000J0D01*
G01*
X91375000Y-57210000D01*
G75*
G02*
X91225000Y-57060000I0J150000D01*
G01*
G37*
%TD.AperFunction*%
%TO.P,U101,4*%
%TO.N,-12V*%
%TA.AperFunction,SMDPad,CuDef*%
G36*
G01*
X86275000Y-57060000D02*
X86275000Y-56760000D01*
G75*
G02*
X86425000Y-56610000I150000J0D01*
G01*
X88075000Y-56610000D01*
G75*
G02*
X88225000Y-56760000I0J-150000D01*
G01*
X88225000Y-57060000D01*
G75*
G02*
X88075000Y-57210000I-150000J0D01*
G01*
X86425000Y-57210000D01*
G75*
G02*
X86275000Y-57060000I0J150000D01*
G01*
G37*
%TD.AperFunction*%
%TO.P,U101,3*%
%TO.N,Net-(R105-Pad2)*%
%TA.AperFunction,SMDPad,CuDef*%
G36*
G01*
X86275000Y-55790000D02*
X86275000Y-55490000D01*
G75*
G02*
X86425000Y-55340000I150000J0D01*
G01*
X88075000Y-55340000D01*
G75*
G02*
X88225000Y-55490000I0J-150000D01*
G01*
X88225000Y-55790000D01*
G75*
G02*
X88075000Y-55940000I-150000J0D01*
G01*
X86425000Y-55940000D01*
G75*
G02*
X86275000Y-55790000I0J150000D01*
G01*
G37*
%TD.AperFunction*%
%TO.P,U101,2*%
%TO.N,Net-(R109-Pad2)*%
%TA.AperFunction,SMDPad,CuDef*%
G36*
G01*
X86275000Y-54520000D02*
X86275000Y-54220000D01*
G75*
G02*
X86425000Y-54070000I150000J0D01*
G01*
X88075000Y-54070000D01*
G75*
G02*
X88225000Y-54220000I0J-150000D01*
G01*
X88225000Y-54520000D01*
G75*
G02*
X88075000Y-54670000I-150000J0D01*
G01*
X86425000Y-54670000D01*
G75*
G02*
X86275000Y-54520000I0J150000D01*
G01*
G37*
%TD.AperFunction*%
%TO.P,U101,1*%
%TA.AperFunction,SMDPad,CuDef*%
G36*
G01*
X86275000Y-53250000D02*
X86275000Y-52950000D01*
G75*
G02*
X86425000Y-52800000I150000J0D01*
G01*
X88075000Y-52800000D01*
G75*
G02*
X88225000Y-52950000I0J-150000D01*
G01*
X88225000Y-53250000D01*
G75*
G02*
X88075000Y-53400000I-150000J0D01*
G01*
X86425000Y-53400000D01*
G75*
G02*
X86275000Y-53250000I0J150000D01*
G01*
G37*
%TD.AperFunction*%
%TD*%
D12*
%TO.P,RV307,*%
%TO.N,*%
X65650000Y-120000000D03*
X54350000Y-120000000D03*
D10*
%TO.P,RV307,3*%
%TO.N,/FrontPanel/OUT_PANEL*%
X62500000Y-127500000D03*
%TO.P,RV307,2*%
%TO.N,/FrontPanel/FALL_SHAPE_WIPER_PANEL*%
X60000000Y-127500000D03*
%TO.P,RV307,1*%
%TO.N,GND*%
X57500000Y-127500000D03*
%TD*%
D12*
%TO.P,RV306,*%
%TO.N,*%
X65650000Y-79500000D03*
X54350000Y-79500000D03*
D10*
%TO.P,RV306,3*%
%TO.N,GND*%
X62500000Y-87000000D03*
%TO.P,RV306,2*%
%TO.N,/FrontPanel/FALL_CV_WIPER_PANEL*%
X60000000Y-87000000D03*
%TO.P,RV306,1*%
%TO.N,/FrontPanel/FALL_CV_IN_PANEL*%
X57500000Y-87000000D03*
%TD*%
D12*
%TO.P,RV305,*%
%TO.N,*%
X67900000Y-55200000D03*
X56600000Y-55200000D03*
D10*
%TO.P,RV305,3*%
%TO.N,/FrontPanel/VREF_PANEL*%
X64750000Y-62700000D03*
%TO.P,RV305,2*%
%TO.N,/FrontPanel/FALL_WIPER_PANEL*%
X62250000Y-62700000D03*
%TO.P,RV305,1*%
%TO.N,GND*%
X59750000Y-62700000D03*
%TD*%
D12*
%TO.P,RV304,*%
%TO.N,*%
X55650000Y-99900000D03*
X44350000Y-99900000D03*
D10*
%TO.P,RV304,3*%
%TO.N,/FrontPanel/VREF_PANEL*%
X52500000Y-107400000D03*
%TO.P,RV304,2*%
%TO.N,/FrontPanel/SUSTAIN_PANEL*%
X50000000Y-107400000D03*
%TO.P,RV304,1*%
%TO.N,GND*%
X47500000Y-107400000D03*
%TD*%
D12*
%TO.P,RV303,*%
%TO.N,*%
X45650000Y-120000000D03*
X34350000Y-120000000D03*
D10*
%TO.P,RV303,3*%
%TO.N,/FrontPanel/OUT_PANEL*%
X42500000Y-127500000D03*
%TO.P,RV303,2*%
%TO.N,/FrontPanel/RISE_SHAPE_WIPER_PANEL*%
X40000000Y-127500000D03*
%TO.P,RV303,1*%
%TO.N,GND*%
X37500000Y-127500000D03*
%TD*%
D12*
%TO.P,RV302,*%
%TO.N,*%
X45650000Y-79500000D03*
X34350000Y-79500000D03*
D10*
%TO.P,RV302,3*%
%TO.N,GND*%
X42500000Y-87000000D03*
%TO.P,RV302,2*%
%TO.N,/FrontPanel/RISE_CV_WIPER_PANEL*%
X40000000Y-87000000D03*
%TO.P,RV302,1*%
%TO.N,/FrontPanel/RISE_CV_IN_PANEL*%
X37500000Y-87000000D03*
%TD*%
D12*
%TO.P,RV301,*%
%TO.N,*%
X43400000Y-55200000D03*
X32100000Y-55200000D03*
D10*
%TO.P,RV301,3*%
%TO.N,/FrontPanel/VREF_PANEL*%
X40250000Y-62700000D03*
%TO.P,RV301,2*%
%TO.N,/FrontPanel/RISE_WIPER_PANEL*%
X37750000Y-62700000D03*
%TO.P,RV301,1*%
%TO.N,GND*%
X35250000Y-62700000D03*
%TD*%
%TO.P,R302,2*%
%TO.N,/FrontPanel/EOR_LED_PANEL*%
%TA.AperFunction,SMDPad,CuDef*%
G36*
G01*
X48785000Y-134970000D02*
X48415000Y-134970000D01*
G75*
G02*
X48280000Y-134835000I0J135000D01*
G01*
X48280000Y-134565000D01*
G75*
G02*
X48415000Y-134430000I135000J0D01*
G01*
X48785000Y-134430000D01*
G75*
G02*
X48920000Y-134565000I0J-135000D01*
G01*
X48920000Y-134835000D01*
G75*
G02*
X48785000Y-134970000I-135000J0D01*
G01*
G37*
%TD.AperFunction*%
%TO.P,R302,1*%
%TO.N,/FrontPanel/EOR_PANEL*%
%TA.AperFunction,SMDPad,CuDef*%
G36*
G01*
X48785000Y-135990000D02*
X48415000Y-135990000D01*
G75*
G02*
X48280000Y-135855000I0J135000D01*
G01*
X48280000Y-135585000D01*
G75*
G02*
X48415000Y-135450000I135000J0D01*
G01*
X48785000Y-135450000D01*
G75*
G02*
X48920000Y-135585000I0J-135000D01*
G01*
X48920000Y-135855000D01*
G75*
G02*
X48785000Y-135990000I-135000J0D01*
G01*
G37*
%TD.AperFunction*%
%TD*%
%TO.P,R301,2*%
%TO.N,/FrontPanel/EOC_LED_PANEL*%
%TA.AperFunction,SMDPad,CuDef*%
G36*
G01*
X52585000Y-134960000D02*
X52215000Y-134960000D01*
G75*
G02*
X52080000Y-134825000I0J135000D01*
G01*
X52080000Y-134555000D01*
G75*
G02*
X52215000Y-134420000I135000J0D01*
G01*
X52585000Y-134420000D01*
G75*
G02*
X52720000Y-134555000I0J-135000D01*
G01*
X52720000Y-134825000D01*
G75*
G02*
X52585000Y-134960000I-135000J0D01*
G01*
G37*
%TD.AperFunction*%
%TO.P,R301,1*%
%TO.N,/FrontPanel/EOC_PANEL*%
%TA.AperFunction,SMDPad,CuDef*%
G36*
G01*
X52585000Y-135980000D02*
X52215000Y-135980000D01*
G75*
G02*
X52080000Y-135845000I0J135000D01*
G01*
X52080000Y-135575000D01*
G75*
G02*
X52215000Y-135440000I135000J0D01*
G01*
X52585000Y-135440000D01*
G75*
G02*
X52720000Y-135575000I0J-135000D01*
G01*
X52720000Y-135845000D01*
G75*
G02*
X52585000Y-135980000I-135000J0D01*
G01*
G37*
%TD.AperFunction*%
%TD*%
%TO.P,R219,2*%
%TO.N,RISE2*%
%TA.AperFunction,SMDPad,CuDef*%
G36*
G01*
X86030000Y-75985000D02*
X86030000Y-75615000D01*
G75*
G02*
X86165000Y-75480000I135000J0D01*
G01*
X86435000Y-75480000D01*
G75*
G02*
X86570000Y-75615000I0J-135000D01*
G01*
X86570000Y-75985000D01*
G75*
G02*
X86435000Y-76120000I-135000J0D01*
G01*
X86165000Y-76120000D01*
G75*
G02*
X86030000Y-75985000I0J135000D01*
G01*
G37*
%TD.AperFunction*%
%TO.P,R219,1*%
%TO.N,GND*%
%TA.AperFunction,SMDPad,CuDef*%
G36*
G01*
X85010000Y-75985000D02*
X85010000Y-75615000D01*
G75*
G02*
X85145000Y-75480000I135000J0D01*
G01*
X85415000Y-75480000D01*
G75*
G02*
X85550000Y-75615000I0J-135000D01*
G01*
X85550000Y-75985000D01*
G75*
G02*
X85415000Y-76120000I-135000J0D01*
G01*
X85145000Y-76120000D01*
G75*
G02*
X85010000Y-75985000I0J135000D01*
G01*
G37*
%TD.AperFunction*%
%TD*%
%TO.P,R218,2*%
%TO.N,FALL2*%
%TA.AperFunction,SMDPad,CuDef*%
G36*
G01*
X106250000Y-78915000D02*
X106250000Y-79285000D01*
G75*
G02*
X106115000Y-79420000I-135000J0D01*
G01*
X105845000Y-79420000D01*
G75*
G02*
X105710000Y-79285000I0J135000D01*
G01*
X105710000Y-78915000D01*
G75*
G02*
X105845000Y-78780000I135000J0D01*
G01*
X106115000Y-78780000D01*
G75*
G02*
X106250000Y-78915000I0J-135000D01*
G01*
G37*
%TD.AperFunction*%
%TO.P,R218,1*%
%TO.N,GND*%
%TA.AperFunction,SMDPad,CuDef*%
G36*
G01*
X107270000Y-78915000D02*
X107270000Y-79285000D01*
G75*
G02*
X107135000Y-79420000I-135000J0D01*
G01*
X106865000Y-79420000D01*
G75*
G02*
X106730000Y-79285000I0J135000D01*
G01*
X106730000Y-78915000D01*
G75*
G02*
X106865000Y-78780000I135000J0D01*
G01*
X107135000Y-78780000D01*
G75*
G02*
X107270000Y-78915000I0J-135000D01*
G01*
G37*
%TD.AperFunction*%
%TD*%
%TO.P,R217,2*%
%TO.N,Net-(R213-Pad1)*%
%TA.AperFunction,SMDPad,CuDef*%
G36*
G01*
X86115000Y-77630000D02*
X86485000Y-77630000D01*
G75*
G02*
X86620000Y-77765000I0J-135000D01*
G01*
X86620000Y-78035000D01*
G75*
G02*
X86485000Y-78170000I-135000J0D01*
G01*
X86115000Y-78170000D01*
G75*
G02*
X85980000Y-78035000I0J135000D01*
G01*
X85980000Y-77765000D01*
G75*
G02*
X86115000Y-77630000I135000J0D01*
G01*
G37*
%TD.AperFunction*%
%TO.P,R217,1*%
%TO.N,RISE2*%
%TA.AperFunction,SMDPad,CuDef*%
G36*
G01*
X86115000Y-76610000D02*
X86485000Y-76610000D01*
G75*
G02*
X86620000Y-76745000I0J-135000D01*
G01*
X86620000Y-77015000D01*
G75*
G02*
X86485000Y-77150000I-135000J0D01*
G01*
X86115000Y-77150000D01*
G75*
G02*
X85980000Y-77015000I0J135000D01*
G01*
X85980000Y-76745000D01*
G75*
G02*
X86115000Y-76610000I135000J0D01*
G01*
G37*
%TD.AperFunction*%
%TD*%
%TO.P,R216,2*%
%TO.N,/SlewLimiter2/RISE_WIPER*%
%TA.AperFunction,SMDPad,CuDef*%
G36*
G01*
X86385000Y-72770000D02*
X86015000Y-72770000D01*
G75*
G02*
X85880000Y-72635000I0J135000D01*
G01*
X85880000Y-72365000D01*
G75*
G02*
X86015000Y-72230000I135000J0D01*
G01*
X86385000Y-72230000D01*
G75*
G02*
X86520000Y-72365000I0J-135000D01*
G01*
X86520000Y-72635000D01*
G75*
G02*
X86385000Y-72770000I-135000J0D01*
G01*
G37*
%TD.AperFunction*%
%TO.P,R216,1*%
%TO.N,RISE2*%
%TA.AperFunction,SMDPad,CuDef*%
G36*
G01*
X86385000Y-73790000D02*
X86015000Y-73790000D01*
G75*
G02*
X85880000Y-73655000I0J135000D01*
G01*
X85880000Y-73385000D01*
G75*
G02*
X86015000Y-73250000I135000J0D01*
G01*
X86385000Y-73250000D01*
G75*
G02*
X86520000Y-73385000I0J-135000D01*
G01*
X86520000Y-73655000D01*
G75*
G02*
X86385000Y-73790000I-135000J0D01*
G01*
G37*
%TD.AperFunction*%
%TD*%
%TO.P,R215,2*%
%TO.N,Net-(R212-Pad1)*%
%TA.AperFunction,SMDPad,CuDef*%
G36*
G01*
X104615000Y-79830000D02*
X104985000Y-79830000D01*
G75*
G02*
X105120000Y-79965000I0J-135000D01*
G01*
X105120000Y-80235000D01*
G75*
G02*
X104985000Y-80370000I-135000J0D01*
G01*
X104615000Y-80370000D01*
G75*
G02*
X104480000Y-80235000I0J135000D01*
G01*
X104480000Y-79965000D01*
G75*
G02*
X104615000Y-79830000I135000J0D01*
G01*
G37*
%TD.AperFunction*%
%TO.P,R215,1*%
%TO.N,FALL2*%
%TA.AperFunction,SMDPad,CuDef*%
G36*
G01*
X104615000Y-78810000D02*
X104985000Y-78810000D01*
G75*
G02*
X105120000Y-78945000I0J-135000D01*
G01*
X105120000Y-79215000D01*
G75*
G02*
X104985000Y-79350000I-135000J0D01*
G01*
X104615000Y-79350000D01*
G75*
G02*
X104480000Y-79215000I0J135000D01*
G01*
X104480000Y-78945000D01*
G75*
G02*
X104615000Y-78810000I135000J0D01*
G01*
G37*
%TD.AperFunction*%
%TD*%
%TO.P,R214,2*%
%TO.N,/SlewLimiter2/FALL_WIPER*%
%TA.AperFunction,SMDPad,CuDef*%
G36*
G01*
X96485000Y-73070000D02*
X96115000Y-73070000D01*
G75*
G02*
X95980000Y-72935000I0J135000D01*
G01*
X95980000Y-72665000D01*
G75*
G02*
X96115000Y-72530000I135000J0D01*
G01*
X96485000Y-72530000D01*
G75*
G02*
X96620000Y-72665000I0J-135000D01*
G01*
X96620000Y-72935000D01*
G75*
G02*
X96485000Y-73070000I-135000J0D01*
G01*
G37*
%TD.AperFunction*%
%TO.P,R214,1*%
%TO.N,FALL2*%
%TA.AperFunction,SMDPad,CuDef*%
G36*
G01*
X96485000Y-74090000D02*
X96115000Y-74090000D01*
G75*
G02*
X95980000Y-73955000I0J135000D01*
G01*
X95980000Y-73685000D01*
G75*
G02*
X96115000Y-73550000I135000J0D01*
G01*
X96485000Y-73550000D01*
G75*
G02*
X96620000Y-73685000I0J-135000D01*
G01*
X96620000Y-73955000D01*
G75*
G02*
X96485000Y-74090000I-135000J0D01*
G01*
G37*
%TD.AperFunction*%
%TD*%
%TO.P,R213,2*%
%TO.N,Net-(R211-Pad1)*%
%TA.AperFunction,SMDPad,CuDef*%
G36*
G01*
X83415000Y-81630000D02*
X83785000Y-81630000D01*
G75*
G02*
X83920000Y-81765000I0J-135000D01*
G01*
X83920000Y-82035000D01*
G75*
G02*
X83785000Y-82170000I-135000J0D01*
G01*
X83415000Y-82170000D01*
G75*
G02*
X83280000Y-82035000I0J135000D01*
G01*
X83280000Y-81765000D01*
G75*
G02*
X83415000Y-81630000I135000J0D01*
G01*
G37*
%TD.AperFunction*%
%TO.P,R213,1*%
%TO.N,Net-(R213-Pad1)*%
%TA.AperFunction,SMDPad,CuDef*%
G36*
G01*
X83415000Y-80610000D02*
X83785000Y-80610000D01*
G75*
G02*
X83920000Y-80745000I0J-135000D01*
G01*
X83920000Y-81015000D01*
G75*
G02*
X83785000Y-81150000I-135000J0D01*
G01*
X83415000Y-81150000D01*
G75*
G02*
X83280000Y-81015000I0J135000D01*
G01*
X83280000Y-80745000D01*
G75*
G02*
X83415000Y-80610000I135000J0D01*
G01*
G37*
%TD.AperFunction*%
%TD*%
%TO.P,R212,2*%
%TO.N,Net-(R210-Pad1)*%
%TA.AperFunction,SMDPad,CuDef*%
G36*
G01*
X104615000Y-81930000D02*
X104985000Y-81930000D01*
G75*
G02*
X105120000Y-82065000I0J-135000D01*
G01*
X105120000Y-82335000D01*
G75*
G02*
X104985000Y-82470000I-135000J0D01*
G01*
X104615000Y-82470000D01*
G75*
G02*
X104480000Y-82335000I0J135000D01*
G01*
X104480000Y-82065000D01*
G75*
G02*
X104615000Y-81930000I135000J0D01*
G01*
G37*
%TD.AperFunction*%
%TO.P,R212,1*%
%TO.N,Net-(R212-Pad1)*%
%TA.AperFunction,SMDPad,CuDef*%
G36*
G01*
X104615000Y-80910000D02*
X104985000Y-80910000D01*
G75*
G02*
X105120000Y-81045000I0J-135000D01*
G01*
X105120000Y-81315000D01*
G75*
G02*
X104985000Y-81450000I-135000J0D01*
G01*
X104615000Y-81450000D01*
G75*
G02*
X104480000Y-81315000I0J135000D01*
G01*
X104480000Y-81045000D01*
G75*
G02*
X104615000Y-80910000I135000J0D01*
G01*
G37*
%TD.AperFunction*%
%TD*%
%TO.P,R211,2*%
%TO.N,OUT*%
%TA.AperFunction,SMDPad,CuDef*%
G36*
G01*
X85285000Y-77170000D02*
X84915000Y-77170000D01*
G75*
G02*
X84780000Y-77035000I0J135000D01*
G01*
X84780000Y-76765000D01*
G75*
G02*
X84915000Y-76630000I135000J0D01*
G01*
X85285000Y-76630000D01*
G75*
G02*
X85420000Y-76765000I0J-135000D01*
G01*
X85420000Y-77035000D01*
G75*
G02*
X85285000Y-77170000I-135000J0D01*
G01*
G37*
%TD.AperFunction*%
%TO.P,R211,1*%
%TO.N,Net-(R211-Pad1)*%
%TA.AperFunction,SMDPad,CuDef*%
G36*
G01*
X85285000Y-78190000D02*
X84915000Y-78190000D01*
G75*
G02*
X84780000Y-78055000I0J135000D01*
G01*
X84780000Y-77785000D01*
G75*
G02*
X84915000Y-77650000I135000J0D01*
G01*
X85285000Y-77650000D01*
G75*
G02*
X85420000Y-77785000I0J-135000D01*
G01*
X85420000Y-78055000D01*
G75*
G02*
X85285000Y-78190000I-135000J0D01*
G01*
G37*
%TD.AperFunction*%
%TD*%
%TO.P,R210,2*%
%TO.N,OUT*%
%TA.AperFunction,SMDPad,CuDef*%
G36*
G01*
X104615000Y-84230000D02*
X104985000Y-84230000D01*
G75*
G02*
X105120000Y-84365000I0J-135000D01*
G01*
X105120000Y-84635000D01*
G75*
G02*
X104985000Y-84770000I-135000J0D01*
G01*
X104615000Y-84770000D01*
G75*
G02*
X104480000Y-84635000I0J135000D01*
G01*
X104480000Y-84365000D01*
G75*
G02*
X104615000Y-84230000I135000J0D01*
G01*
G37*
%TD.AperFunction*%
%TO.P,R210,1*%
%TO.N,Net-(R210-Pad1)*%
%TA.AperFunction,SMDPad,CuDef*%
G36*
G01*
X104615000Y-83210000D02*
X104985000Y-83210000D01*
G75*
G02*
X105120000Y-83345000I0J-135000D01*
G01*
X105120000Y-83615000D01*
G75*
G02*
X104985000Y-83750000I-135000J0D01*
G01*
X104615000Y-83750000D01*
G75*
G02*
X104480000Y-83615000I0J135000D01*
G01*
X104480000Y-83345000D01*
G75*
G02*
X104615000Y-83210000I135000J0D01*
G01*
G37*
%TD.AperFunction*%
%TD*%
%TO.P,R209,2*%
%TO.N,GND*%
%TA.AperFunction,SMDPad,CuDef*%
G36*
G01*
X74870000Y-76815000D02*
X74870000Y-77185000D01*
G75*
G02*
X74735000Y-77320000I-135000J0D01*
G01*
X74465000Y-77320000D01*
G75*
G02*
X74330000Y-77185000I0J135000D01*
G01*
X74330000Y-76815000D01*
G75*
G02*
X74465000Y-76680000I135000J0D01*
G01*
X74735000Y-76680000D01*
G75*
G02*
X74870000Y-76815000I0J-135000D01*
G01*
G37*
%TD.AperFunction*%
%TO.P,R209,1*%
%TO.N,RISE1*%
%TA.AperFunction,SMDPad,CuDef*%
G36*
G01*
X75890000Y-76815000D02*
X75890000Y-77185000D01*
G75*
G02*
X75755000Y-77320000I-135000J0D01*
G01*
X75485000Y-77320000D01*
G75*
G02*
X75350000Y-77185000I0J135000D01*
G01*
X75350000Y-76815000D01*
G75*
G02*
X75485000Y-76680000I135000J0D01*
G01*
X75755000Y-76680000D01*
G75*
G02*
X75890000Y-76815000I0J-135000D01*
G01*
G37*
%TD.AperFunction*%
%TD*%
%TO.P,R208,2*%
%TO.N,GND*%
%TA.AperFunction,SMDPad,CuDef*%
G36*
G01*
X93830000Y-81285000D02*
X93830000Y-80915000D01*
G75*
G02*
X93965000Y-80780000I135000J0D01*
G01*
X94235000Y-80780000D01*
G75*
G02*
X94370000Y-80915000I0J-135000D01*
G01*
X94370000Y-81285000D01*
G75*
G02*
X94235000Y-81420000I-135000J0D01*
G01*
X93965000Y-81420000D01*
G75*
G02*
X93830000Y-81285000I0J135000D01*
G01*
G37*
%TD.AperFunction*%
%TO.P,R208,1*%
%TO.N,FALL1*%
%TA.AperFunction,SMDPad,CuDef*%
G36*
G01*
X92810000Y-81285000D02*
X92810000Y-80915000D01*
G75*
G02*
X92945000Y-80780000I135000J0D01*
G01*
X93215000Y-80780000D01*
G75*
G02*
X93350000Y-80915000I0J-135000D01*
G01*
X93350000Y-81285000D01*
G75*
G02*
X93215000Y-81420000I-135000J0D01*
G01*
X92945000Y-81420000D01*
G75*
G02*
X92810000Y-81285000I0J135000D01*
G01*
G37*
%TD.AperFunction*%
%TD*%
%TO.P,R207,2*%
%TO.N,/SlewLimiter2/VREF*%
%TA.AperFunction,SMDPad,CuDef*%
G36*
G01*
X100570000Y-67415000D02*
X100570000Y-67785000D01*
G75*
G02*
X100435000Y-67920000I-135000J0D01*
G01*
X100165000Y-67920000D01*
G75*
G02*
X100030000Y-67785000I0J135000D01*
G01*
X100030000Y-67415000D01*
G75*
G02*
X100165000Y-67280000I135000J0D01*
G01*
X100435000Y-67280000D01*
G75*
G02*
X100570000Y-67415000I0J-135000D01*
G01*
G37*
%TD.AperFunction*%
%TO.P,R207,1*%
%TO.N,+12V*%
%TA.AperFunction,SMDPad,CuDef*%
G36*
G01*
X101590000Y-67415000D02*
X101590000Y-67785000D01*
G75*
G02*
X101455000Y-67920000I-135000J0D01*
G01*
X101185000Y-67920000D01*
G75*
G02*
X101050000Y-67785000I0J135000D01*
G01*
X101050000Y-67415000D01*
G75*
G02*
X101185000Y-67280000I135000J0D01*
G01*
X101455000Y-67280000D01*
G75*
G02*
X101590000Y-67415000I0J-135000D01*
G01*
G37*
%TD.AperFunction*%
%TD*%
%TO.P,R206,2*%
%TO.N,Net-(R204-Pad1)*%
%TA.AperFunction,SMDPad,CuDef*%
G36*
G01*
X74870000Y-77915000D02*
X74870000Y-78285000D01*
G75*
G02*
X74735000Y-78420000I-135000J0D01*
G01*
X74465000Y-78420000D01*
G75*
G02*
X74330000Y-78285000I0J135000D01*
G01*
X74330000Y-77915000D01*
G75*
G02*
X74465000Y-77780000I135000J0D01*
G01*
X74735000Y-77780000D01*
G75*
G02*
X74870000Y-77915000I0J-135000D01*
G01*
G37*
%TD.AperFunction*%
%TO.P,R206,1*%
%TO.N,RISE1*%
%TA.AperFunction,SMDPad,CuDef*%
G36*
G01*
X75890000Y-77915000D02*
X75890000Y-78285000D01*
G75*
G02*
X75755000Y-78420000I-135000J0D01*
G01*
X75485000Y-78420000D01*
G75*
G02*
X75350000Y-78285000I0J135000D01*
G01*
X75350000Y-77915000D01*
G75*
G02*
X75485000Y-77780000I135000J0D01*
G01*
X75755000Y-77780000D01*
G75*
G02*
X75890000Y-77915000I0J-135000D01*
G01*
G37*
%TD.AperFunction*%
%TD*%
%TO.P,R205,2*%
%TO.N,Net-(R203-Pad1)*%
%TA.AperFunction,SMDPad,CuDef*%
G36*
G01*
X93830000Y-80085000D02*
X93830000Y-79715000D01*
G75*
G02*
X93965000Y-79580000I135000J0D01*
G01*
X94235000Y-79580000D01*
G75*
G02*
X94370000Y-79715000I0J-135000D01*
G01*
X94370000Y-80085000D01*
G75*
G02*
X94235000Y-80220000I-135000J0D01*
G01*
X93965000Y-80220000D01*
G75*
G02*
X93830000Y-80085000I0J135000D01*
G01*
G37*
%TD.AperFunction*%
%TO.P,R205,1*%
%TO.N,FALL1*%
%TA.AperFunction,SMDPad,CuDef*%
G36*
G01*
X92810000Y-80085000D02*
X92810000Y-79715000D01*
G75*
G02*
X92945000Y-79580000I135000J0D01*
G01*
X93215000Y-79580000D01*
G75*
G02*
X93350000Y-79715000I0J-135000D01*
G01*
X93350000Y-80085000D01*
G75*
G02*
X93215000Y-80220000I-135000J0D01*
G01*
X92945000Y-80220000D01*
G75*
G02*
X92810000Y-80085000I0J135000D01*
G01*
G37*
%TD.AperFunction*%
%TD*%
%TO.P,R204,2*%
%TO.N,Net-(R202-Pad1)*%
%TA.AperFunction,SMDPad,CuDef*%
G36*
G01*
X74415000Y-80250000D02*
X74785000Y-80250000D01*
G75*
G02*
X74920000Y-80385000I0J-135000D01*
G01*
X74920000Y-80655000D01*
G75*
G02*
X74785000Y-80790000I-135000J0D01*
G01*
X74415000Y-80790000D01*
G75*
G02*
X74280000Y-80655000I0J135000D01*
G01*
X74280000Y-80385000D01*
G75*
G02*
X74415000Y-80250000I135000J0D01*
G01*
G37*
%TD.AperFunction*%
%TO.P,R204,1*%
%TO.N,Net-(R204-Pad1)*%
%TA.AperFunction,SMDPad,CuDef*%
G36*
G01*
X74415000Y-79230000D02*
X74785000Y-79230000D01*
G75*
G02*
X74920000Y-79365000I0J-135000D01*
G01*
X74920000Y-79635000D01*
G75*
G02*
X74785000Y-79770000I-135000J0D01*
G01*
X74415000Y-79770000D01*
G75*
G02*
X74280000Y-79635000I0J135000D01*
G01*
X74280000Y-79365000D01*
G75*
G02*
X74415000Y-79230000I135000J0D01*
G01*
G37*
%TD.AperFunction*%
%TD*%
%TO.P,R203,2*%
%TO.N,Net-(R201-Pad1)*%
%TA.AperFunction,SMDPad,CuDef*%
G36*
G01*
X95315000Y-80630000D02*
X95685000Y-80630000D01*
G75*
G02*
X95820000Y-80765000I0J-135000D01*
G01*
X95820000Y-81035000D01*
G75*
G02*
X95685000Y-81170000I-135000J0D01*
G01*
X95315000Y-81170000D01*
G75*
G02*
X95180000Y-81035000I0J135000D01*
G01*
X95180000Y-80765000D01*
G75*
G02*
X95315000Y-80630000I135000J0D01*
G01*
G37*
%TD.AperFunction*%
%TO.P,R203,1*%
%TO.N,Net-(R203-Pad1)*%
%TA.AperFunction,SMDPad,CuDef*%
G36*
G01*
X95315000Y-79610000D02*
X95685000Y-79610000D01*
G75*
G02*
X95820000Y-79745000I0J-135000D01*
G01*
X95820000Y-80015000D01*
G75*
G02*
X95685000Y-80150000I-135000J0D01*
G01*
X95315000Y-80150000D01*
G75*
G02*
X95180000Y-80015000I0J135000D01*
G01*
X95180000Y-79745000D01*
G75*
G02*
X95315000Y-79610000I135000J0D01*
G01*
G37*
%TD.AperFunction*%
%TD*%
%TO.P,R202,2*%
%TO.N,/SlewLimiter2/RISE_CV_IN*%
%TA.AperFunction,SMDPad,CuDef*%
G36*
G01*
X78885000Y-72850000D02*
X78515000Y-72850000D01*
G75*
G02*
X78380000Y-72715000I0J135000D01*
G01*
X78380000Y-72445000D01*
G75*
G02*
X78515000Y-72310000I135000J0D01*
G01*
X78885000Y-72310000D01*
G75*
G02*
X79020000Y-72445000I0J-135000D01*
G01*
X79020000Y-72715000D01*
G75*
G02*
X78885000Y-72850000I-135000J0D01*
G01*
G37*
%TD.AperFunction*%
%TO.P,R202,1*%
%TO.N,Net-(R202-Pad1)*%
%TA.AperFunction,SMDPad,CuDef*%
G36*
G01*
X78885000Y-73870000D02*
X78515000Y-73870000D01*
G75*
G02*
X78380000Y-73735000I0J135000D01*
G01*
X78380000Y-73465000D01*
G75*
G02*
X78515000Y-73330000I135000J0D01*
G01*
X78885000Y-73330000D01*
G75*
G02*
X79020000Y-73465000I0J-135000D01*
G01*
X79020000Y-73735000D01*
G75*
G02*
X78885000Y-73870000I-135000J0D01*
G01*
G37*
%TD.AperFunction*%
%TD*%
%TO.P,R201,2*%
%TO.N,/SlewLimiter2/FALL_CV_IN*%
%TA.AperFunction,SMDPad,CuDef*%
G36*
G01*
X88885000Y-72870000D02*
X88515000Y-72870000D01*
G75*
G02*
X88380000Y-72735000I0J135000D01*
G01*
X88380000Y-72465000D01*
G75*
G02*
X88515000Y-72330000I135000J0D01*
G01*
X88885000Y-72330000D01*
G75*
G02*
X89020000Y-72465000I0J-135000D01*
G01*
X89020000Y-72735000D01*
G75*
G02*
X88885000Y-72870000I-135000J0D01*
G01*
G37*
%TD.AperFunction*%
%TO.P,R201,1*%
%TO.N,Net-(R201-Pad1)*%
%TA.AperFunction,SMDPad,CuDef*%
G36*
G01*
X88885000Y-73890000D02*
X88515000Y-73890000D01*
G75*
G02*
X88380000Y-73755000I0J135000D01*
G01*
X88380000Y-73485000D01*
G75*
G02*
X88515000Y-73350000I135000J0D01*
G01*
X88885000Y-73350000D01*
G75*
G02*
X89020000Y-73485000I0J-135000D01*
G01*
X89020000Y-73755000D01*
G75*
G02*
X88885000Y-73890000I-135000J0D01*
G01*
G37*
%TD.AperFunction*%
%TD*%
%TO.P,R124,2*%
%TO.N,Net-(D110-Pad2)*%
%TA.AperFunction,SMDPad,CuDef*%
G36*
G01*
X92750000Y-112215000D02*
X92750000Y-112585000D01*
G75*
G02*
X92615000Y-112720000I-135000J0D01*
G01*
X92345000Y-112720000D01*
G75*
G02*
X92210000Y-112585000I0J135000D01*
G01*
X92210000Y-112215000D01*
G75*
G02*
X92345000Y-112080000I135000J0D01*
G01*
X92615000Y-112080000D01*
G75*
G02*
X92750000Y-112215000I0J-135000D01*
G01*
G37*
%TD.AperFunction*%
%TO.P,R124,1*%
%TO.N,EOC*%
%TA.AperFunction,SMDPad,CuDef*%
G36*
G01*
X93770000Y-112215000D02*
X93770000Y-112585000D01*
G75*
G02*
X93635000Y-112720000I-135000J0D01*
G01*
X93365000Y-112720000D01*
G75*
G02*
X93230000Y-112585000I0J135000D01*
G01*
X93230000Y-112215000D01*
G75*
G02*
X93365000Y-112080000I135000J0D01*
G01*
X93635000Y-112080000D01*
G75*
G02*
X93770000Y-112215000I0J-135000D01*
G01*
G37*
%TD.AperFunction*%
%TD*%
%TO.P,R123,2*%
%TO.N,Net-(R123-Pad2)*%
%TA.AperFunction,SMDPad,CuDef*%
G36*
G01*
X85730000Y-118085000D02*
X85730000Y-117715000D01*
G75*
G02*
X85865000Y-117580000I135000J0D01*
G01*
X86135000Y-117580000D01*
G75*
G02*
X86270000Y-117715000I0J-135000D01*
G01*
X86270000Y-118085000D01*
G75*
G02*
X86135000Y-118220000I-135000J0D01*
G01*
X85865000Y-118220000D01*
G75*
G02*
X85730000Y-118085000I0J135000D01*
G01*
G37*
%TD.AperFunction*%
%TO.P,R123,1*%
%TO.N,EOR*%
%TA.AperFunction,SMDPad,CuDef*%
G36*
G01*
X84710000Y-118085000D02*
X84710000Y-117715000D01*
G75*
G02*
X84845000Y-117580000I135000J0D01*
G01*
X85115000Y-117580000D01*
G75*
G02*
X85250000Y-117715000I0J-135000D01*
G01*
X85250000Y-118085000D01*
G75*
G02*
X85115000Y-118220000I-135000J0D01*
G01*
X84845000Y-118220000D01*
G75*
G02*
X84710000Y-118085000I0J135000D01*
G01*
G37*
%TD.AperFunction*%
%TD*%
%TO.P,R122,2*%
%TO.N,GND*%
%TA.AperFunction,SMDPad,CuDef*%
G36*
G01*
X82750000Y-113515000D02*
X82750000Y-113885000D01*
G75*
G02*
X82615000Y-114020000I-135000J0D01*
G01*
X82345000Y-114020000D01*
G75*
G02*
X82210000Y-113885000I0J135000D01*
G01*
X82210000Y-113515000D01*
G75*
G02*
X82345000Y-113380000I135000J0D01*
G01*
X82615000Y-113380000D01*
G75*
G02*
X82750000Y-113515000I0J-135000D01*
G01*
G37*
%TD.AperFunction*%
%TO.P,R122,1*%
%TO.N,Net-(R121-Pad2)*%
%TA.AperFunction,SMDPad,CuDef*%
G36*
G01*
X83770000Y-113515000D02*
X83770000Y-113885000D01*
G75*
G02*
X83635000Y-114020000I-135000J0D01*
G01*
X83365000Y-114020000D01*
G75*
G02*
X83230000Y-113885000I0J135000D01*
G01*
X83230000Y-113515000D01*
G75*
G02*
X83365000Y-113380000I135000J0D01*
G01*
X83635000Y-113380000D01*
G75*
G02*
X83770000Y-113515000I0J-135000D01*
G01*
G37*
%TD.AperFunction*%
%TD*%
%TO.P,R121,2*%
%TO.N,Net-(R121-Pad2)*%
%TA.AperFunction,SMDPad,CuDef*%
G36*
G01*
X83130000Y-111185000D02*
X83130000Y-110815000D01*
G75*
G02*
X83265000Y-110680000I135000J0D01*
G01*
X83535000Y-110680000D01*
G75*
G02*
X83670000Y-110815000I0J-135000D01*
G01*
X83670000Y-111185000D01*
G75*
G02*
X83535000Y-111320000I-135000J0D01*
G01*
X83265000Y-111320000D01*
G75*
G02*
X83130000Y-111185000I0J135000D01*
G01*
G37*
%TD.AperFunction*%
%TO.P,R121,1*%
%TO.N,+12V*%
%TA.AperFunction,SMDPad,CuDef*%
G36*
G01*
X82110000Y-111185000D02*
X82110000Y-110815000D01*
G75*
G02*
X82245000Y-110680000I135000J0D01*
G01*
X82515000Y-110680000D01*
G75*
G02*
X82650000Y-110815000I0J-135000D01*
G01*
X82650000Y-111185000D01*
G75*
G02*
X82515000Y-111320000I-135000J0D01*
G01*
X82245000Y-111320000D01*
G75*
G02*
X82110000Y-111185000I0J135000D01*
G01*
G37*
%TD.AperFunction*%
%TD*%
%TO.P,R120,2*%
%TO.N,Net-(C112-Pad1)*%
%TA.AperFunction,SMDPad,CuDef*%
G36*
G01*
X75550000Y-58415000D02*
X75550000Y-58785000D01*
G75*
G02*
X75415000Y-58920000I-135000J0D01*
G01*
X75145000Y-58920000D01*
G75*
G02*
X75010000Y-58785000I0J135000D01*
G01*
X75010000Y-58415000D01*
G75*
G02*
X75145000Y-58280000I135000J0D01*
G01*
X75415000Y-58280000D01*
G75*
G02*
X75550000Y-58415000I0J-135000D01*
G01*
G37*
%TD.AperFunction*%
%TO.P,R120,1*%
%TO.N,Net-(R120-Pad1)*%
%TA.AperFunction,SMDPad,CuDef*%
G36*
G01*
X76570000Y-58415000D02*
X76570000Y-58785000D01*
G75*
G02*
X76435000Y-58920000I-135000J0D01*
G01*
X76165000Y-58920000D01*
G75*
G02*
X76030000Y-58785000I0J135000D01*
G01*
X76030000Y-58415000D01*
G75*
G02*
X76165000Y-58280000I135000J0D01*
G01*
X76435000Y-58280000D01*
G75*
G02*
X76570000Y-58415000I0J-135000D01*
G01*
G37*
%TD.AperFunction*%
%TD*%
%TO.P,R119,2*%
%TO.N,GND*%
%TA.AperFunction,SMDPad,CuDef*%
G36*
G01*
X82750000Y-112215000D02*
X82750000Y-112585000D01*
G75*
G02*
X82615000Y-112720000I-135000J0D01*
G01*
X82345000Y-112720000D01*
G75*
G02*
X82210000Y-112585000I0J135000D01*
G01*
X82210000Y-112215000D01*
G75*
G02*
X82345000Y-112080000I135000J0D01*
G01*
X82615000Y-112080000D01*
G75*
G02*
X82750000Y-112215000I0J-135000D01*
G01*
G37*
%TD.AperFunction*%
%TO.P,R119,1*%
%TO.N,Net-(D109-Pad1)*%
%TA.AperFunction,SMDPad,CuDef*%
G36*
G01*
X83770000Y-112215000D02*
X83770000Y-112585000D01*
G75*
G02*
X83635000Y-112720000I-135000J0D01*
G01*
X83365000Y-112720000D01*
G75*
G02*
X83230000Y-112585000I0J135000D01*
G01*
X83230000Y-112215000D01*
G75*
G02*
X83365000Y-112080000I135000J0D01*
G01*
X83635000Y-112080000D01*
G75*
G02*
X83770000Y-112215000I0J-135000D01*
G01*
G37*
%TD.AperFunction*%
%TD*%
%TO.P,R118,2*%
%TO.N,Net-(R116-Pad2)*%
%TA.AperFunction,SMDPad,CuDef*%
G36*
G01*
X93230000Y-113785000D02*
X93230000Y-113415000D01*
G75*
G02*
X93365000Y-113280000I135000J0D01*
G01*
X93635000Y-113280000D01*
G75*
G02*
X93770000Y-113415000I0J-135000D01*
G01*
X93770000Y-113785000D01*
G75*
G02*
X93635000Y-113920000I-135000J0D01*
G01*
X93365000Y-113920000D01*
G75*
G02*
X93230000Y-113785000I0J135000D01*
G01*
G37*
%TD.AperFunction*%
%TO.P,R118,1*%
%TO.N,Net-(D110-Pad2)*%
%TA.AperFunction,SMDPad,CuDef*%
G36*
G01*
X92210000Y-113785000D02*
X92210000Y-113415000D01*
G75*
G02*
X92345000Y-113280000I135000J0D01*
G01*
X92615000Y-113280000D01*
G75*
G02*
X92750000Y-113415000I0J-135000D01*
G01*
X92750000Y-113785000D01*
G75*
G02*
X92615000Y-113920000I-135000J0D01*
G01*
X92345000Y-113920000D01*
G75*
G02*
X92210000Y-113785000I0J135000D01*
G01*
G37*
%TD.AperFunction*%
%TD*%
%TO.P,R117,2*%
%TO.N,-12V*%
%TA.AperFunction,SMDPad,CuDef*%
G36*
G01*
X93450000Y-116985000D02*
X93450000Y-116615000D01*
G75*
G02*
X93585000Y-116480000I135000J0D01*
G01*
X93855000Y-116480000D01*
G75*
G02*
X93990000Y-116615000I0J-135000D01*
G01*
X93990000Y-116985000D01*
G75*
G02*
X93855000Y-117120000I-135000J0D01*
G01*
X93585000Y-117120000D01*
G75*
G02*
X93450000Y-116985000I0J135000D01*
G01*
G37*
%TD.AperFunction*%
%TO.P,R117,1*%
%TO.N,Net-(R116-Pad2)*%
%TA.AperFunction,SMDPad,CuDef*%
G36*
G01*
X92430000Y-116985000D02*
X92430000Y-116615000D01*
G75*
G02*
X92565000Y-116480000I135000J0D01*
G01*
X92835000Y-116480000D01*
G75*
G02*
X92970000Y-116615000I0J-135000D01*
G01*
X92970000Y-116985000D01*
G75*
G02*
X92835000Y-117120000I-135000J0D01*
G01*
X92565000Y-117120000D01*
G75*
G02*
X92430000Y-116985000I0J135000D01*
G01*
G37*
%TD.AperFunction*%
%TD*%
%TO.P,R116,2*%
%TO.N,Net-(R116-Pad2)*%
%TA.AperFunction,SMDPad,CuDef*%
G36*
G01*
X92950000Y-115115000D02*
X92950000Y-115485000D01*
G75*
G02*
X92815000Y-115620000I-135000J0D01*
G01*
X92545000Y-115620000D01*
G75*
G02*
X92410000Y-115485000I0J135000D01*
G01*
X92410000Y-115115000D01*
G75*
G02*
X92545000Y-114980000I135000J0D01*
G01*
X92815000Y-114980000D01*
G75*
G02*
X92950000Y-115115000I0J-135000D01*
G01*
G37*
%TD.AperFunction*%
%TO.P,R116,1*%
%TO.N,+12V*%
%TA.AperFunction,SMDPad,CuDef*%
G36*
G01*
X93970000Y-115115000D02*
X93970000Y-115485000D01*
G75*
G02*
X93835000Y-115620000I-135000J0D01*
G01*
X93565000Y-115620000D01*
G75*
G02*
X93430000Y-115485000I0J135000D01*
G01*
X93430000Y-115115000D01*
G75*
G02*
X93565000Y-114980000I135000J0D01*
G01*
X93835000Y-114980000D01*
G75*
G02*
X93970000Y-115115000I0J-135000D01*
G01*
G37*
%TD.AperFunction*%
%TD*%
%TO.P,R115,2*%
%TO.N,Net-(D107-Pad1)*%
%TA.AperFunction,SMDPad,CuDef*%
G36*
G01*
X93115000Y-100530000D02*
X93485000Y-100530000D01*
G75*
G02*
X93620000Y-100665000I0J-135000D01*
G01*
X93620000Y-100935000D01*
G75*
G02*
X93485000Y-101070000I-135000J0D01*
G01*
X93115000Y-101070000D01*
G75*
G02*
X92980000Y-100935000I0J135000D01*
G01*
X92980000Y-100665000D01*
G75*
G02*
X93115000Y-100530000I135000J0D01*
G01*
G37*
%TD.AperFunction*%
%TO.P,R115,1*%
%TO.N,/STATE*%
%TA.AperFunction,SMDPad,CuDef*%
G36*
G01*
X93115000Y-99510000D02*
X93485000Y-99510000D01*
G75*
G02*
X93620000Y-99645000I0J-135000D01*
G01*
X93620000Y-99915000D01*
G75*
G02*
X93485000Y-100050000I-135000J0D01*
G01*
X93115000Y-100050000D01*
G75*
G02*
X92980000Y-99915000I0J135000D01*
G01*
X92980000Y-99645000D01*
G75*
G02*
X93115000Y-99510000I135000J0D01*
G01*
G37*
%TD.AperFunction*%
%TD*%
%TO.P,R114,2*%
%TO.N,Net-(D105-Pad1)*%
%TA.AperFunction,SMDPad,CuDef*%
G36*
G01*
X108630000Y-54485000D02*
X108630000Y-54115000D01*
G75*
G02*
X108765000Y-53980000I135000J0D01*
G01*
X109035000Y-53980000D01*
G75*
G02*
X109170000Y-54115000I0J-135000D01*
G01*
X109170000Y-54485000D01*
G75*
G02*
X109035000Y-54620000I-135000J0D01*
G01*
X108765000Y-54620000D01*
G75*
G02*
X108630000Y-54485000I0J135000D01*
G01*
G37*
%TD.AperFunction*%
%TO.P,R114,1*%
%TO.N,Net-(Q101-Pad2)*%
%TA.AperFunction,SMDPad,CuDef*%
G36*
G01*
X107610000Y-54485000D02*
X107610000Y-54115000D01*
G75*
G02*
X107745000Y-53980000I135000J0D01*
G01*
X108015000Y-53980000D01*
G75*
G02*
X108150000Y-54115000I0J-135000D01*
G01*
X108150000Y-54485000D01*
G75*
G02*
X108015000Y-54620000I-135000J0D01*
G01*
X107745000Y-54620000D01*
G75*
G02*
X107610000Y-54485000I0J135000D01*
G01*
G37*
%TD.AperFunction*%
%TD*%
%TO.P,R113,2*%
%TO.N,OUT*%
%TA.AperFunction,SMDPad,CuDef*%
G36*
G01*
X94030000Y-98785000D02*
X94030000Y-98415000D01*
G75*
G02*
X94165000Y-98280000I135000J0D01*
G01*
X94435000Y-98280000D01*
G75*
G02*
X94570000Y-98415000I0J-135000D01*
G01*
X94570000Y-98785000D01*
G75*
G02*
X94435000Y-98920000I-135000J0D01*
G01*
X94165000Y-98920000D01*
G75*
G02*
X94030000Y-98785000I0J135000D01*
G01*
G37*
%TD.AperFunction*%
%TO.P,R113,1*%
%TO.N,Net-(D108-Pad1)*%
%TA.AperFunction,SMDPad,CuDef*%
G36*
G01*
X93010000Y-98785000D02*
X93010000Y-98415000D01*
G75*
G02*
X93145000Y-98280000I135000J0D01*
G01*
X93415000Y-98280000D01*
G75*
G02*
X93550000Y-98415000I0J-135000D01*
G01*
X93550000Y-98785000D01*
G75*
G02*
X93415000Y-98920000I-135000J0D01*
G01*
X93145000Y-98920000D01*
G75*
G02*
X93010000Y-98785000I0J135000D01*
G01*
G37*
%TD.AperFunction*%
%TD*%
%TO.P,R112,2*%
%TO.N,Net-(D104-Pad1)*%
%TA.AperFunction,SMDPad,CuDef*%
G36*
G01*
X96130000Y-93285000D02*
X96130000Y-92915000D01*
G75*
G02*
X96265000Y-92780000I135000J0D01*
G01*
X96535000Y-92780000D01*
G75*
G02*
X96670000Y-92915000I0J-135000D01*
G01*
X96670000Y-93285000D01*
G75*
G02*
X96535000Y-93420000I-135000J0D01*
G01*
X96265000Y-93420000D01*
G75*
G02*
X96130000Y-93285000I0J135000D01*
G01*
G37*
%TD.AperFunction*%
%TO.P,R112,1*%
%TO.N,Net-(D107-Pad1)*%
%TA.AperFunction,SMDPad,CuDef*%
G36*
G01*
X95110000Y-93285000D02*
X95110000Y-92915000D01*
G75*
G02*
X95245000Y-92780000I135000J0D01*
G01*
X95515000Y-92780000D01*
G75*
G02*
X95650000Y-92915000I0J-135000D01*
G01*
X95650000Y-93285000D01*
G75*
G02*
X95515000Y-93420000I-135000J0D01*
G01*
X95245000Y-93420000D01*
G75*
G02*
X95110000Y-93285000I0J135000D01*
G01*
G37*
%TD.AperFunction*%
%TD*%
%TO.P,R111,2*%
%TO.N,Net-(R111-Pad2)*%
%TA.AperFunction,SMDPad,CuDef*%
G36*
G01*
X94570000Y-54215000D02*
X94570000Y-54585000D01*
G75*
G02*
X94435000Y-54720000I-135000J0D01*
G01*
X94165000Y-54720000D01*
G75*
G02*
X94030000Y-54585000I0J135000D01*
G01*
X94030000Y-54215000D01*
G75*
G02*
X94165000Y-54080000I135000J0D01*
G01*
X94435000Y-54080000D01*
G75*
G02*
X94570000Y-54215000I0J-135000D01*
G01*
G37*
%TD.AperFunction*%
%TO.P,R111,1*%
%TO.N,Net-(D105-Pad1)*%
%TA.AperFunction,SMDPad,CuDef*%
G36*
G01*
X95590000Y-54215000D02*
X95590000Y-54585000D01*
G75*
G02*
X95455000Y-54720000I-135000J0D01*
G01*
X95185000Y-54720000D01*
G75*
G02*
X95050000Y-54585000I0J135000D01*
G01*
X95050000Y-54215000D01*
G75*
G02*
X95185000Y-54080000I135000J0D01*
G01*
X95455000Y-54080000D01*
G75*
G02*
X95590000Y-54215000I0J-135000D01*
G01*
G37*
%TD.AperFunction*%
%TD*%
%TO.P,R110,2*%
%TO.N,GND*%
%TA.AperFunction,SMDPad,CuDef*%
G36*
G01*
X87630000Y-92985000D02*
X87630000Y-92615000D01*
G75*
G02*
X87765000Y-92480000I135000J0D01*
G01*
X88035000Y-92480000D01*
G75*
G02*
X88170000Y-92615000I0J-135000D01*
G01*
X88170000Y-92985000D01*
G75*
G02*
X88035000Y-93120000I-135000J0D01*
G01*
X87765000Y-93120000D01*
G75*
G02*
X87630000Y-92985000I0J135000D01*
G01*
G37*
%TD.AperFunction*%
%TO.P,R110,1*%
%TO.N,/TRIGGER*%
%TA.AperFunction,SMDPad,CuDef*%
G36*
G01*
X86610000Y-92985000D02*
X86610000Y-92615000D01*
G75*
G02*
X86745000Y-92480000I135000J0D01*
G01*
X87015000Y-92480000D01*
G75*
G02*
X87150000Y-92615000I0J-135000D01*
G01*
X87150000Y-92985000D01*
G75*
G02*
X87015000Y-93120000I-135000J0D01*
G01*
X86745000Y-93120000D01*
G75*
G02*
X86610000Y-92985000I0J135000D01*
G01*
G37*
%TD.AperFunction*%
%TD*%
%TO.P,R109,2*%
%TO.N,Net-(R109-Pad2)*%
%TA.AperFunction,SMDPad,CuDef*%
G36*
G01*
X89570000Y-58315000D02*
X89570000Y-58685000D01*
G75*
G02*
X89435000Y-58820000I-135000J0D01*
G01*
X89165000Y-58820000D01*
G75*
G02*
X89030000Y-58685000I0J135000D01*
G01*
X89030000Y-58315000D01*
G75*
G02*
X89165000Y-58180000I135000J0D01*
G01*
X89435000Y-58180000D01*
G75*
G02*
X89570000Y-58315000I0J-135000D01*
G01*
G37*
%TD.AperFunction*%
%TO.P,R109,1*%
%TO.N,Net-(D102-Pad1)*%
%TA.AperFunction,SMDPad,CuDef*%
G36*
G01*
X90590000Y-58315000D02*
X90590000Y-58685000D01*
G75*
G02*
X90455000Y-58820000I-135000J0D01*
G01*
X90185000Y-58820000D01*
G75*
G02*
X90050000Y-58685000I0J135000D01*
G01*
X90050000Y-58315000D01*
G75*
G02*
X90185000Y-58180000I135000J0D01*
G01*
X90455000Y-58180000D01*
G75*
G02*
X90590000Y-58315000I0J-135000D01*
G01*
G37*
%TD.AperFunction*%
%TD*%
%TO.P,R108,2*%
%TO.N,Net-(R103-Pad1)*%
%TA.AperFunction,SMDPad,CuDef*%
G36*
G01*
X82815000Y-97930000D02*
X83185000Y-97930000D01*
G75*
G02*
X83320000Y-98065000I0J-135000D01*
G01*
X83320000Y-98335000D01*
G75*
G02*
X83185000Y-98470000I-135000J0D01*
G01*
X82815000Y-98470000D01*
G75*
G02*
X82680000Y-98335000I0J135000D01*
G01*
X82680000Y-98065000D01*
G75*
G02*
X82815000Y-97930000I135000J0D01*
G01*
G37*
%TD.AperFunction*%
%TO.P,R108,1*%
%TO.N,/GATE_BUF*%
%TA.AperFunction,SMDPad,CuDef*%
G36*
G01*
X82815000Y-96910000D02*
X83185000Y-96910000D01*
G75*
G02*
X83320000Y-97045000I0J-135000D01*
G01*
X83320000Y-97315000D01*
G75*
G02*
X83185000Y-97450000I-135000J0D01*
G01*
X82815000Y-97450000D01*
G75*
G02*
X82680000Y-97315000I0J135000D01*
G01*
X82680000Y-97045000D01*
G75*
G02*
X82815000Y-96910000I135000J0D01*
G01*
G37*
%TD.AperFunction*%
%TD*%
%TO.P,R107,2*%
%TO.N,GND*%
%TA.AperFunction,SMDPad,CuDef*%
G36*
G01*
X95330000Y-127185000D02*
X95330000Y-126815000D01*
G75*
G02*
X95465000Y-126680000I135000J0D01*
G01*
X95735000Y-126680000D01*
G75*
G02*
X95870000Y-126815000I0J-135000D01*
G01*
X95870000Y-127185000D01*
G75*
G02*
X95735000Y-127320000I-135000J0D01*
G01*
X95465000Y-127320000D01*
G75*
G02*
X95330000Y-127185000I0J135000D01*
G01*
G37*
%TD.AperFunction*%
%TO.P,R107,1*%
%TO.N,OUT_LED_NEG*%
%TA.AperFunction,SMDPad,CuDef*%
G36*
G01*
X94310000Y-127185000D02*
X94310000Y-126815000D01*
G75*
G02*
X94445000Y-126680000I135000J0D01*
G01*
X94715000Y-126680000D01*
G75*
G02*
X94850000Y-126815000I0J-135000D01*
G01*
X94850000Y-127185000D01*
G75*
G02*
X94715000Y-127320000I-135000J0D01*
G01*
X94445000Y-127320000D01*
G75*
G02*
X94310000Y-127185000I0J135000D01*
G01*
G37*
%TD.AperFunction*%
%TD*%
%TO.P,R106,2*%
%TO.N,-12V*%
%TA.AperFunction,SMDPad,CuDef*%
G36*
G01*
X82915000Y-100550000D02*
X83285000Y-100550000D01*
G75*
G02*
X83420000Y-100685000I0J-135000D01*
G01*
X83420000Y-100955000D01*
G75*
G02*
X83285000Y-101090000I-135000J0D01*
G01*
X82915000Y-101090000D01*
G75*
G02*
X82780000Y-100955000I0J135000D01*
G01*
X82780000Y-100685000D01*
G75*
G02*
X82915000Y-100550000I135000J0D01*
G01*
G37*
%TD.AperFunction*%
%TO.P,R106,1*%
%TO.N,Net-(R103-Pad1)*%
%TA.AperFunction,SMDPad,CuDef*%
G36*
G01*
X82915000Y-99530000D02*
X83285000Y-99530000D01*
G75*
G02*
X83420000Y-99665000I0J-135000D01*
G01*
X83420000Y-99935000D01*
G75*
G02*
X83285000Y-100070000I-135000J0D01*
G01*
X82915000Y-100070000D01*
G75*
G02*
X82780000Y-99935000I0J135000D01*
G01*
X82780000Y-99665000D01*
G75*
G02*
X82915000Y-99530000I135000J0D01*
G01*
G37*
%TD.AperFunction*%
%TD*%
%TO.P,R105,2*%
%TO.N,Net-(R105-Pad2)*%
%TA.AperFunction,SMDPad,CuDef*%
G36*
G01*
X84930000Y-55785000D02*
X84930000Y-55415000D01*
G75*
G02*
X85065000Y-55280000I135000J0D01*
G01*
X85335000Y-55280000D01*
G75*
G02*
X85470000Y-55415000I0J-135000D01*
G01*
X85470000Y-55785000D01*
G75*
G02*
X85335000Y-55920000I-135000J0D01*
G01*
X85065000Y-55920000D01*
G75*
G02*
X84930000Y-55785000I0J135000D01*
G01*
G37*
%TD.AperFunction*%
%TO.P,R105,1*%
%TO.N,IN*%
%TA.AperFunction,SMDPad,CuDef*%
G36*
G01*
X83910000Y-55785000D02*
X83910000Y-55415000D01*
G75*
G02*
X84045000Y-55280000I135000J0D01*
G01*
X84315000Y-55280000D01*
G75*
G02*
X84450000Y-55415000I0J-135000D01*
G01*
X84450000Y-55785000D01*
G75*
G02*
X84315000Y-55920000I-135000J0D01*
G01*
X84045000Y-55920000D01*
G75*
G02*
X83910000Y-55785000I0J135000D01*
G01*
G37*
%TD.AperFunction*%
%TD*%
%TO.P,R104,2*%
%TO.N,GATE_IN_2*%
%TA.AperFunction,SMDPad,CuDef*%
G36*
G01*
X80415000Y-100550000D02*
X80785000Y-100550000D01*
G75*
G02*
X80920000Y-100685000I0J-135000D01*
G01*
X80920000Y-100955000D01*
G75*
G02*
X80785000Y-101090000I-135000J0D01*
G01*
X80415000Y-101090000D01*
G75*
G02*
X80280000Y-100955000I0J135000D01*
G01*
X80280000Y-100685000D01*
G75*
G02*
X80415000Y-100550000I135000J0D01*
G01*
G37*
%TD.AperFunction*%
%TO.P,R104,1*%
%TO.N,Net-(R103-Pad1)*%
%TA.AperFunction,SMDPad,CuDef*%
G36*
G01*
X80415000Y-99530000D02*
X80785000Y-99530000D01*
G75*
G02*
X80920000Y-99665000I0J-135000D01*
G01*
X80920000Y-99935000D01*
G75*
G02*
X80785000Y-100070000I-135000J0D01*
G01*
X80415000Y-100070000D01*
G75*
G02*
X80280000Y-99935000I0J135000D01*
G01*
X80280000Y-99665000D01*
G75*
G02*
X80415000Y-99530000I135000J0D01*
G01*
G37*
%TD.AperFunction*%
%TD*%
%TO.P,R103,2*%
%TO.N,GATE_IN_1*%
%TA.AperFunction,SMDPad,CuDef*%
G36*
G01*
X81615000Y-100550000D02*
X81985000Y-100550000D01*
G75*
G02*
X82120000Y-100685000I0J-135000D01*
G01*
X82120000Y-100955000D01*
G75*
G02*
X81985000Y-101090000I-135000J0D01*
G01*
X81615000Y-101090000D01*
G75*
G02*
X81480000Y-100955000I0J135000D01*
G01*
X81480000Y-100685000D01*
G75*
G02*
X81615000Y-100550000I135000J0D01*
G01*
G37*
%TD.AperFunction*%
%TO.P,R103,1*%
%TO.N,Net-(R103-Pad1)*%
%TA.AperFunction,SMDPad,CuDef*%
G36*
G01*
X81615000Y-99530000D02*
X81985000Y-99530000D01*
G75*
G02*
X82120000Y-99665000I0J-135000D01*
G01*
X82120000Y-99935000D01*
G75*
G02*
X81985000Y-100070000I-135000J0D01*
G01*
X81615000Y-100070000D01*
G75*
G02*
X81480000Y-99935000I0J135000D01*
G01*
X81480000Y-99665000D01*
G75*
G02*
X81615000Y-99530000I135000J0D01*
G01*
G37*
%TD.AperFunction*%
%TD*%
%TO.P,R102,2*%
%TO.N,GND*%
%TA.AperFunction,SMDPad,CuDef*%
G36*
G01*
X84950000Y-57085000D02*
X84950000Y-56715000D01*
G75*
G02*
X85085000Y-56580000I135000J0D01*
G01*
X85355000Y-56580000D01*
G75*
G02*
X85490000Y-56715000I0J-135000D01*
G01*
X85490000Y-57085000D01*
G75*
G02*
X85355000Y-57220000I-135000J0D01*
G01*
X85085000Y-57220000D01*
G75*
G02*
X84950000Y-57085000I0J135000D01*
G01*
G37*
%TD.AperFunction*%
%TO.P,R102,1*%
%TO.N,IN*%
%TA.AperFunction,SMDPad,CuDef*%
G36*
G01*
X83930000Y-57085000D02*
X83930000Y-56715000D01*
G75*
G02*
X84065000Y-56580000I135000J0D01*
G01*
X84335000Y-56580000D01*
G75*
G02*
X84470000Y-56715000I0J-135000D01*
G01*
X84470000Y-57085000D01*
G75*
G02*
X84335000Y-57220000I-135000J0D01*
G01*
X84065000Y-57220000D01*
G75*
G02*
X83930000Y-57085000I0J135000D01*
G01*
G37*
%TD.AperFunction*%
%TD*%
%TO.P,R101,2*%
%TO.N,SUSTAIN*%
%TA.AperFunction,SMDPad,CuDef*%
G36*
G01*
X84815000Y-129530000D02*
X85185000Y-129530000D01*
G75*
G02*
X85320000Y-129665000I0J-135000D01*
G01*
X85320000Y-129935000D01*
G75*
G02*
X85185000Y-130070000I-135000J0D01*
G01*
X84815000Y-130070000D01*
G75*
G02*
X84680000Y-129935000I0J135000D01*
G01*
X84680000Y-129665000D01*
G75*
G02*
X84815000Y-129530000I135000J0D01*
G01*
G37*
%TD.AperFunction*%
%TO.P,R101,1*%
%TO.N,Net-(D101-Pad2)*%
%TA.AperFunction,SMDPad,CuDef*%
G36*
G01*
X84815000Y-128510000D02*
X85185000Y-128510000D01*
G75*
G02*
X85320000Y-128645000I0J-135000D01*
G01*
X85320000Y-128915000D01*
G75*
G02*
X85185000Y-129050000I-135000J0D01*
G01*
X84815000Y-129050000D01*
G75*
G02*
X84680000Y-128915000I0J135000D01*
G01*
X84680000Y-128645000D01*
G75*
G02*
X84815000Y-128510000I135000J0D01*
G01*
G37*
%TD.AperFunction*%
%TD*%
D13*
%TO.P,Q104,3*%
%TO.N,Net-(C112-Pad2)*%
X105800000Y-61000000D03*
%TO.P,Q104,2*%
%TO.N,Net-(Q101-Pad2)*%
X106750000Y-63000000D03*
%TO.P,Q104,1*%
%TO.N,RISE1*%
X104850000Y-63000000D03*
%TD*%
%TO.P,Q103,3*%
%TO.N,Net-(C112-Pad2)*%
X105800000Y-59500000D03*
%TO.P,Q103,2*%
%TO.N,Net-(Q101-Pad2)*%
X104850000Y-57500000D03*
%TO.P,Q103,1*%
%TO.N,FALL2*%
X106750000Y-57500000D03*
%TD*%
%TO.P,Q102,3*%
%TO.N,GND*%
X102100000Y-61000000D03*
%TO.P,Q102,2*%
%TO.N,Net-(Q101-Pad2)*%
X103050000Y-63000000D03*
%TO.P,Q102,1*%
%TO.N,RISE2*%
X101150000Y-63000000D03*
%TD*%
%TO.P,Q101,3*%
%TO.N,GND*%
X102100000Y-59500000D03*
%TO.P,Q101,2*%
%TO.N,Net-(Q101-Pad2)*%
X101150000Y-57500000D03*
%TO.P,Q101,1*%
%TO.N,FALL1*%
X103050000Y-57500000D03*
%TD*%
D14*
%TO.P,J310,T*%
%TO.N,/FrontPanel/EOR_PANEL*%
X45100000Y-140600000D03*
X45100000Y-148800000D03*
%TO.P,J310,S*%
%TO.N,GND*%
X45100000Y-151000000D03*
%TD*%
%TO.P,J309,T*%
%TO.N,/FrontPanel/FALL_CV_IN_PANEL*%
X64700000Y-140600000D03*
X64700000Y-148800000D03*
%TO.P,J309,S*%
%TO.N,GND*%
X64700000Y-151000000D03*
%TD*%
%TO.P,J308,T*%
%TO.N,/FrontPanel/RISE_CV_IN_PANEL*%
X35300000Y-140600000D03*
X35300000Y-148800000D03*
%TO.P,J308,S*%
%TO.N,GND*%
X35300000Y-151000000D03*
%TD*%
%TO.P,J307,T*%
%TO.N,/FrontPanel/OUT_PANEL*%
X64700000Y-158300000D03*
X64700000Y-166500000D03*
%TO.P,J307,S*%
%TO.N,GND*%
X64700000Y-168700000D03*
%TD*%
%TO.P,J306,T*%
%TO.N,/FrontPanel/EOC_PANEL*%
X54900000Y-140600000D03*
X54900000Y-148800000D03*
%TO.P,J306,S*%
%TO.N,GND*%
X54900000Y-151000000D03*
%TD*%
%TO.P,J305,T*%
%TO.N,/FrontPanel/GATE_IN_2_PANEL*%
X54900000Y-158300000D03*
X54900000Y-166500000D03*
%TO.P,J305,S*%
%TO.N,GND*%
X54900000Y-168700000D03*
%TD*%
%TO.P,J304,T*%
%TO.N,/FrontPanel/GATE_IN_1_PANEL*%
X45100000Y-158300000D03*
X45100000Y-166500000D03*
%TO.P,J304,S*%
%TO.N,GND*%
X45100000Y-168700000D03*
%TD*%
%TO.P,J303,T*%
%TO.N,/FrontPanel/IN_PANEL*%
X35300000Y-158300000D03*
X35300000Y-166500000D03*
%TO.P,J303,S*%
%TO.N,GND*%
X35300000Y-168700000D03*
%TD*%
D15*
%TO.P,J302,10*%
%TO.N,GND*%
X61460000Y-70000000D03*
%TO.P,J302,9*%
%TO.N,/FrontPanel/VREF_PANEL*%
X58920000Y-70000000D03*
%TO.P,J302,8*%
%TO.N,/FrontPanel/FALL_WIPER_PANEL*%
X56380000Y-70000000D03*
%TO.P,J302,7*%
%TO.N,/FrontPanel/FALL_SHAPE_WIPER_PANEL*%
X53840000Y-70000000D03*
%TO.P,J302,6*%
%TO.N,/FrontPanel/FALL_CV_WIPER_PANEL*%
X51300000Y-70000000D03*
%TO.P,J302,5*%
%TO.N,/FrontPanel/FALL_CV_IN_PANEL*%
X48760000Y-70000000D03*
%TO.P,J302,4*%
%TO.N,/FrontPanel/RISE_WIPER_PANEL*%
X46220000Y-70000000D03*
%TO.P,J302,3*%
%TO.N,/FrontPanel/RISE_SHAPE_WIPER_PANEL*%
X43680000Y-70000000D03*
%TO.P,J302,2*%
%TO.N,/FrontPanel/RISE_CV_WIPER_PANEL*%
X41140000Y-70000000D03*
D16*
%TO.P,J302,1*%
%TO.N,/FrontPanel/RISE_CV_IN_PANEL*%
X38600000Y-70000000D03*
%TD*%
D15*
%TO.P,J301,9*%
%TO.N,/FrontPanel/IN_PANEL*%
X60120000Y-154400000D03*
%TO.P,J301,8*%
%TO.N,/FrontPanel/GATE_IN_2_PANEL*%
X57580000Y-154400000D03*
%TO.P,J301,7*%
%TO.N,/FrontPanel/GATE_IN_1_PANEL*%
X55040000Y-154400000D03*
%TO.P,J301,6*%
%TO.N,/FrontPanel/SUSTAIN_PANEL*%
X52500000Y-154400000D03*
%TO.P,J301,5*%
%TO.N,/FrontPanel/OUT_LED_NEG_PANEL*%
X49960000Y-154400000D03*
%TO.P,J301,4*%
%TO.N,/FrontPanel/OUT_LED_POS_PANEL*%
X47420000Y-154400000D03*
%TO.P,J301,3*%
%TO.N,/FrontPanel/EOC_PANEL*%
X44880000Y-154400000D03*
%TO.P,J301,2*%
%TO.N,/FrontPanel/EOR_PANEL*%
X42340000Y-154400000D03*
D16*
%TO.P,J301,1*%
%TO.N,/FrontPanel/OUT_PANEL*%
X39800000Y-154400000D03*
%TD*%
D15*
%TO.P,J203,10*%
%TO.N,GND*%
X101460000Y-70000000D03*
%TO.P,J203,9*%
%TO.N,/SlewLimiter2/VREF*%
X98920000Y-70000000D03*
%TO.P,J203,8*%
%TO.N,/SlewLimiter2/FALL_WIPER*%
X96380000Y-70000000D03*
%TO.P,J203,7*%
%TO.N,/SlewLimiter2/FALL_SHAPE_WIPER*%
X93840000Y-70000000D03*
%TO.P,J203,6*%
%TO.N,/SlewLimiter2/FALL_CV_WIPER*%
X91300000Y-70000000D03*
%TO.P,J203,5*%
%TO.N,/SlewLimiter2/FALL_CV_IN*%
X88760000Y-70000000D03*
%TO.P,J203,4*%
%TO.N,/SlewLimiter2/RISE_WIPER*%
X86220000Y-70000000D03*
%TO.P,J203,3*%
%TO.N,/SlewLimiter2/RISE_SHAPE_WIPER*%
X83680000Y-70000000D03*
%TO.P,J203,2*%
%TO.N,/SlewLimiter2/RISE_CV_WIPER*%
X81140000Y-70000000D03*
D16*
%TO.P,J203,1*%
%TO.N,/SlewLimiter2/RISE_CV_IN*%
X78600000Y-70000000D03*
%TD*%
D15*
%TO.P,J202,9*%
%TO.N,IN*%
X100120000Y-154400000D03*
%TO.P,J202,8*%
%TO.N,GATE_IN_2*%
X97580000Y-154400000D03*
%TO.P,J202,7*%
%TO.N,GATE_IN_1*%
X95040000Y-154400000D03*
%TO.P,J202,6*%
%TO.N,SUSTAIN*%
X92500000Y-154400000D03*
%TO.P,J202,5*%
%TO.N,OUT_LED_NEG*%
X89960000Y-154400000D03*
%TO.P,J202,4*%
%TO.N,OUT_LED_POS*%
X87420000Y-154400000D03*
%TO.P,J202,3*%
%TO.N,EOC*%
X84880000Y-154400000D03*
%TO.P,J202,2*%
%TO.N,EOR*%
X82340000Y-154400000D03*
D16*
%TO.P,J202,1*%
%TO.N,OUT*%
X79800000Y-154400000D03*
%TD*%
D15*
%TO.P,J201,10*%
%TO.N,Net-(D202-Pad1)*%
X104260000Y-144860000D03*
%TO.P,J201,9*%
X106800000Y-144860000D03*
%TO.P,J201,8*%
%TO.N,GND*%
X104260000Y-142320000D03*
%TO.P,J201,7*%
X106800000Y-142320000D03*
%TO.P,J201,6*%
X104260000Y-139780000D03*
%TO.P,J201,5*%
X106800000Y-139780000D03*
%TO.P,J201,4*%
X104260000Y-137240000D03*
%TO.P,J201,3*%
X106800000Y-137240000D03*
%TO.P,J201,2*%
%TO.N,Net-(D201-Pad2)*%
X104260000Y-134700000D03*
D16*
%TO.P,J201,1*%
X106800000Y-134700000D03*
%TD*%
D10*
%TO.P,D304,2*%
%TO.N,/FrontPanel/EOR_LED_PANEL*%
X44600000Y-133300000D03*
D11*
%TO.P,D304,1*%
%TO.N,GND*%
X42060000Y-133300000D03*
%TD*%
D10*
%TO.P,D302,2*%
%TO.N,/FrontPanel/OUT_LED_POS_PANEL*%
X51270000Y-54600000D03*
D11*
%TO.P,D302,1*%
%TO.N,/FrontPanel/OUT_LED_NEG_PANEL*%
X48730000Y-54600000D03*
%TD*%
D10*
%TO.P,D301,2*%
%TO.N,/FrontPanel/EOC_LED_PANEL*%
X57930000Y-133300000D03*
D11*
%TO.P,D301,1*%
%TO.N,GND*%
X55390000Y-133300000D03*
%TD*%
D17*
%TO.P,D203,2*%
%TO.N,GND*%
X108100000Y-65600000D03*
D18*
%TO.P,D203,1*%
%TO.N,/SlewLimiter2/VREF*%
X100480000Y-65600000D03*
%TD*%
D19*
%TO.P,D202,2*%
%TO.N,-12V*%
X98200000Y-144900000D03*
%TO.P,D202,1*%
%TO.N,Net-(D202-Pad1)*%
X101500000Y-144900000D03*
%TD*%
%TO.P,D201,2*%
%TO.N,Net-(D201-Pad2)*%
X101400000Y-134700000D03*
%TO.P,D201,1*%
%TO.N,+12V*%
X98100000Y-134700000D03*
%TD*%
D20*
%TO.P,D110,2*%
%TO.N,Net-(D110-Pad2)*%
X95000000Y-109700000D03*
%TO.P,D110,1*%
%TO.N,Net-(D109-Pad1)*%
X92800000Y-109700000D03*
%TD*%
%TO.P,D109,2*%
%TO.N,/STATE*%
X88300000Y-105000000D03*
%TO.P,D109,1*%
%TO.N,Net-(D109-Pad1)*%
X86100000Y-105000000D03*
%TD*%
D19*
%TO.P,D108,2*%
%TO.N,GND*%
X96800000Y-96800000D03*
%TO.P,D108,1*%
%TO.N,Net-(D108-Pad1)*%
X93500000Y-96800000D03*
%TD*%
D17*
%TO.P,D107,2*%
%TO.N,GND*%
X101300000Y-100200000D03*
D18*
%TO.P,D107,1*%
%TO.N,Net-(D107-Pad1)*%
X101300000Y-92580000D03*
%TD*%
D17*
%TO.P,D106,2*%
%TO.N,Net-(D105-Pad2)*%
X97780000Y-52100000D03*
D18*
%TO.P,D106,1*%
%TO.N,GND*%
X105400000Y-52100000D03*
%TD*%
D17*
%TO.P,D105,2*%
%TO.N,Net-(D105-Pad2)*%
X97780000Y-54900000D03*
D18*
%TO.P,D105,1*%
%TO.N,Net-(D105-Pad1)*%
X105400000Y-54900000D03*
%TD*%
D20*
%TO.P,D104,2*%
%TO.N,/TRIGGER*%
X91400000Y-92100000D03*
%TO.P,D104,1*%
%TO.N,Net-(D104-Pad1)*%
X93600000Y-92100000D03*
%TD*%
%TO.P,D103,2*%
%TO.N,/SUSTAIN_BUF*%
X91000000Y-62200000D03*
%TO.P,D103,1*%
%TO.N,Net-(D102-Pad1)*%
X88800000Y-62200000D03*
%TD*%
%TO.P,D102,2*%
%TO.N,/STATE*%
X91000000Y-60100000D03*
%TO.P,D102,1*%
%TO.N,Net-(D102-Pad1)*%
X88800000Y-60100000D03*
%TD*%
%TO.P,D101,2*%
%TO.N,Net-(D101-Pad2)*%
X85000000Y-127000000D03*
%TO.P,D101,1*%
%TO.N,/GATE_BUF*%
X82800000Y-127000000D03*
%TD*%
%TO.P,C206,2*%
%TO.N,-12V*%
%TA.AperFunction,SMDPad,CuDef*%
G36*
G01*
X76320000Y-84970000D02*
X76320000Y-84630000D01*
G75*
G02*
X76460000Y-84490000I140000J0D01*
G01*
X76740000Y-84490000D01*
G75*
G02*
X76880000Y-84630000I0J-140000D01*
G01*
X76880000Y-84970000D01*
G75*
G02*
X76740000Y-85110000I-140000J0D01*
G01*
X76460000Y-85110000D01*
G75*
G02*
X76320000Y-84970000I0J140000D01*
G01*
G37*
%TD.AperFunction*%
%TO.P,C206,1*%
%TO.N,GND*%
%TA.AperFunction,SMDPad,CuDef*%
G36*
G01*
X75360000Y-84970000D02*
X75360000Y-84630000D01*
G75*
G02*
X75500000Y-84490000I140000J0D01*
G01*
X75780000Y-84490000D01*
G75*
G02*
X75920000Y-84630000I0J-140000D01*
G01*
X75920000Y-84970000D01*
G75*
G02*
X75780000Y-85110000I-140000J0D01*
G01*
X75500000Y-85110000D01*
G75*
G02*
X75360000Y-84970000I0J140000D01*
G01*
G37*
%TD.AperFunction*%
%TD*%
%TO.P,C205,2*%
%TO.N,GND*%
%TA.AperFunction,SMDPad,CuDef*%
G36*
G01*
X82220000Y-78170000D02*
X82220000Y-77830000D01*
G75*
G02*
X82360000Y-77690000I140000J0D01*
G01*
X82640000Y-77690000D01*
G75*
G02*
X82780000Y-77830000I0J-140000D01*
G01*
X82780000Y-78170000D01*
G75*
G02*
X82640000Y-78310000I-140000J0D01*
G01*
X82360000Y-78310000D01*
G75*
G02*
X82220000Y-78170000I0J140000D01*
G01*
G37*
%TD.AperFunction*%
%TO.P,C205,1*%
%TO.N,+12V*%
%TA.AperFunction,SMDPad,CuDef*%
G36*
G01*
X81260000Y-78170000D02*
X81260000Y-77830000D01*
G75*
G02*
X81400000Y-77690000I140000J0D01*
G01*
X81680000Y-77690000D01*
G75*
G02*
X81820000Y-77830000I0J-140000D01*
G01*
X81820000Y-78170000D01*
G75*
G02*
X81680000Y-78310000I-140000J0D01*
G01*
X81400000Y-78310000D01*
G75*
G02*
X81260000Y-78170000I0J140000D01*
G01*
G37*
%TD.AperFunction*%
%TD*%
%TO.P,C204,2*%
%TO.N,-12V*%
%TA.AperFunction,SMDPad,CuDef*%
G36*
G01*
X97520000Y-85370000D02*
X97520000Y-85030000D01*
G75*
G02*
X97660000Y-84890000I140000J0D01*
G01*
X97940000Y-84890000D01*
G75*
G02*
X98080000Y-85030000I0J-140000D01*
G01*
X98080000Y-85370000D01*
G75*
G02*
X97940000Y-85510000I-140000J0D01*
G01*
X97660000Y-85510000D01*
G75*
G02*
X97520000Y-85370000I0J140000D01*
G01*
G37*
%TD.AperFunction*%
%TO.P,C204,1*%
%TO.N,GND*%
%TA.AperFunction,SMDPad,CuDef*%
G36*
G01*
X96560000Y-85370000D02*
X96560000Y-85030000D01*
G75*
G02*
X96700000Y-84890000I140000J0D01*
G01*
X96980000Y-84890000D01*
G75*
G02*
X97120000Y-85030000I0J-140000D01*
G01*
X97120000Y-85370000D01*
G75*
G02*
X96980000Y-85510000I-140000J0D01*
G01*
X96700000Y-85510000D01*
G75*
G02*
X96560000Y-85370000I0J140000D01*
G01*
G37*
%TD.AperFunction*%
%TD*%
%TO.P,C203,2*%
%TO.N,GND*%
%TA.AperFunction,SMDPad,CuDef*%
G36*
G01*
X103420000Y-78470000D02*
X103420000Y-78130000D01*
G75*
G02*
X103560000Y-77990000I140000J0D01*
G01*
X103840000Y-77990000D01*
G75*
G02*
X103980000Y-78130000I0J-140000D01*
G01*
X103980000Y-78470000D01*
G75*
G02*
X103840000Y-78610000I-140000J0D01*
G01*
X103560000Y-78610000D01*
G75*
G02*
X103420000Y-78470000I0J140000D01*
G01*
G37*
%TD.AperFunction*%
%TO.P,C203,1*%
%TO.N,+12V*%
%TA.AperFunction,SMDPad,CuDef*%
G36*
G01*
X102460000Y-78470000D02*
X102460000Y-78130000D01*
G75*
G02*
X102600000Y-77990000I140000J0D01*
G01*
X102880000Y-77990000D01*
G75*
G02*
X103020000Y-78130000I0J-140000D01*
G01*
X103020000Y-78470000D01*
G75*
G02*
X102880000Y-78610000I-140000J0D01*
G01*
X102600000Y-78610000D01*
G75*
G02*
X102460000Y-78470000I0J140000D01*
G01*
G37*
%TD.AperFunction*%
%TD*%
%TO.P,C202,2*%
%TO.N,-12V*%
%TA.AperFunction,SMDPad,CuDef*%
G36*
G01*
X98480000Y-142430000D02*
X98480000Y-142770000D01*
G75*
G02*
X98340000Y-142910000I-140000J0D01*
G01*
X98060000Y-142910000D01*
G75*
G02*
X97920000Y-142770000I0J140000D01*
G01*
X97920000Y-142430000D01*
G75*
G02*
X98060000Y-142290000I140000J0D01*
G01*
X98340000Y-142290000D01*
G75*
G02*
X98480000Y-142430000I0J-140000D01*
G01*
G37*
%TD.AperFunction*%
%TO.P,C202,1*%
%TO.N,GND*%
%TA.AperFunction,SMDPad,CuDef*%
G36*
G01*
X99440000Y-142430000D02*
X99440000Y-142770000D01*
G75*
G02*
X99300000Y-142910000I-140000J0D01*
G01*
X99020000Y-142910000D01*
G75*
G02*
X98880000Y-142770000I0J140000D01*
G01*
X98880000Y-142430000D01*
G75*
G02*
X99020000Y-142290000I140000J0D01*
G01*
X99300000Y-142290000D01*
G75*
G02*
X99440000Y-142430000I0J-140000D01*
G01*
G37*
%TD.AperFunction*%
%TD*%
%TO.P,C201,2*%
%TO.N,GND*%
%TA.AperFunction,SMDPad,CuDef*%
G36*
G01*
X98820000Y-136970000D02*
X98820000Y-136630000D01*
G75*
G02*
X98960000Y-136490000I140000J0D01*
G01*
X99240000Y-136490000D01*
G75*
G02*
X99380000Y-136630000I0J-140000D01*
G01*
X99380000Y-136970000D01*
G75*
G02*
X99240000Y-137110000I-140000J0D01*
G01*
X98960000Y-137110000D01*
G75*
G02*
X98820000Y-136970000I0J140000D01*
G01*
G37*
%TD.AperFunction*%
%TO.P,C201,1*%
%TO.N,+12V*%
%TA.AperFunction,SMDPad,CuDef*%
G36*
G01*
X97860000Y-136970000D02*
X97860000Y-136630000D01*
G75*
G02*
X98000000Y-136490000I140000J0D01*
G01*
X98280000Y-136490000D01*
G75*
G02*
X98420000Y-136630000I0J-140000D01*
G01*
X98420000Y-136970000D01*
G75*
G02*
X98280000Y-137110000I-140000J0D01*
G01*
X98000000Y-137110000D01*
G75*
G02*
X97860000Y-136970000I0J140000D01*
G01*
G37*
%TD.AperFunction*%
%TD*%
%TO.P,C112,2*%
%TO.N,Net-(C112-Pad2)*%
%TA.AperFunction,SMDPad,CuDef*%
G36*
G01*
X75920000Y-59970000D02*
X75920000Y-59630000D01*
G75*
G02*
X76060000Y-59490000I140000J0D01*
G01*
X76340000Y-59490000D01*
G75*
G02*
X76480000Y-59630000I0J-140000D01*
G01*
X76480000Y-59970000D01*
G75*
G02*
X76340000Y-60110000I-140000J0D01*
G01*
X76060000Y-60110000D01*
G75*
G02*
X75920000Y-59970000I0J140000D01*
G01*
G37*
%TD.AperFunction*%
%TO.P,C112,1*%
%TO.N,Net-(C112-Pad1)*%
%TA.AperFunction,SMDPad,CuDef*%
G36*
G01*
X74960000Y-59970000D02*
X74960000Y-59630000D01*
G75*
G02*
X75100000Y-59490000I140000J0D01*
G01*
X75380000Y-59490000D01*
G75*
G02*
X75520000Y-59630000I0J-140000D01*
G01*
X75520000Y-59970000D01*
G75*
G02*
X75380000Y-60110000I-140000J0D01*
G01*
X75100000Y-60110000D01*
G75*
G02*
X74960000Y-59970000I0J140000D01*
G01*
G37*
%TD.AperFunction*%
%TD*%
%TO.P,C110,2*%
%TO.N,GND*%
%TA.AperFunction,SMDPad,CuDef*%
G36*
G01*
X91100000Y-109870000D02*
X91100000Y-109530000D01*
G75*
G02*
X91240000Y-109390000I140000J0D01*
G01*
X91520000Y-109390000D01*
G75*
G02*
X91660000Y-109530000I0J-140000D01*
G01*
X91660000Y-109870000D01*
G75*
G02*
X91520000Y-110010000I-140000J0D01*
G01*
X91240000Y-110010000D01*
G75*
G02*
X91100000Y-109870000I0J140000D01*
G01*
G37*
%TD.AperFunction*%
%TO.P,C110,1*%
%TO.N,+12V*%
%TA.AperFunction,SMDPad,CuDef*%
G36*
G01*
X90140000Y-109870000D02*
X90140000Y-109530000D01*
G75*
G02*
X90280000Y-109390000I140000J0D01*
G01*
X90560000Y-109390000D01*
G75*
G02*
X90700000Y-109530000I0J-140000D01*
G01*
X90700000Y-109870000D01*
G75*
G02*
X90560000Y-110010000I-140000J0D01*
G01*
X90280000Y-110010000D01*
G75*
G02*
X90140000Y-109870000I0J140000D01*
G01*
G37*
%TD.AperFunction*%
%TD*%
%TO.P,C109,2*%
%TO.N,-12V*%
%TA.AperFunction,SMDPad,CuDef*%
G36*
G01*
X72820000Y-58470000D02*
X72820000Y-58130000D01*
G75*
G02*
X72960000Y-57990000I140000J0D01*
G01*
X73240000Y-57990000D01*
G75*
G02*
X73380000Y-58130000I0J-140000D01*
G01*
X73380000Y-58470000D01*
G75*
G02*
X73240000Y-58610000I-140000J0D01*
G01*
X72960000Y-58610000D01*
G75*
G02*
X72820000Y-58470000I0J140000D01*
G01*
G37*
%TD.AperFunction*%
%TO.P,C109,1*%
%TO.N,GND*%
%TA.AperFunction,SMDPad,CuDef*%
G36*
G01*
X71860000Y-58470000D02*
X71860000Y-58130000D01*
G75*
G02*
X72000000Y-57990000I140000J0D01*
G01*
X72280000Y-57990000D01*
G75*
G02*
X72420000Y-58130000I0J-140000D01*
G01*
X72420000Y-58470000D01*
G75*
G02*
X72280000Y-58610000I-140000J0D01*
G01*
X72000000Y-58610000D01*
G75*
G02*
X71860000Y-58470000I0J140000D01*
G01*
G37*
%TD.AperFunction*%
%TD*%
%TO.P,C108,2*%
%TO.N,GND*%
%TA.AperFunction,SMDPad,CuDef*%
G36*
G01*
X78680000Y-51870000D02*
X78680000Y-51530000D01*
G75*
G02*
X78820000Y-51390000I140000J0D01*
G01*
X79100000Y-51390000D01*
G75*
G02*
X79240000Y-51530000I0J-140000D01*
G01*
X79240000Y-51870000D01*
G75*
G02*
X79100000Y-52010000I-140000J0D01*
G01*
X78820000Y-52010000D01*
G75*
G02*
X78680000Y-51870000I0J140000D01*
G01*
G37*
%TD.AperFunction*%
%TO.P,C108,1*%
%TO.N,+12V*%
%TA.AperFunction,SMDPad,CuDef*%
G36*
G01*
X77720000Y-51870000D02*
X77720000Y-51530000D01*
G75*
G02*
X77860000Y-51390000I140000J0D01*
G01*
X78140000Y-51390000D01*
G75*
G02*
X78280000Y-51530000I0J-140000D01*
G01*
X78280000Y-51870000D01*
G75*
G02*
X78140000Y-52010000I-140000J0D01*
G01*
X77860000Y-52010000D01*
G75*
G02*
X77720000Y-51870000I0J140000D01*
G01*
G37*
%TD.AperFunction*%
%TD*%
%TO.P,C107,2*%
%TO.N,-12V*%
%TA.AperFunction,SMDPad,CuDef*%
G36*
G01*
X87420000Y-130070000D02*
X87420000Y-129730000D01*
G75*
G02*
X87560000Y-129590000I140000J0D01*
G01*
X87840000Y-129590000D01*
G75*
G02*
X87980000Y-129730000I0J-140000D01*
G01*
X87980000Y-130070000D01*
G75*
G02*
X87840000Y-130210000I-140000J0D01*
G01*
X87560000Y-130210000D01*
G75*
G02*
X87420000Y-130070000I0J140000D01*
G01*
G37*
%TD.AperFunction*%
%TO.P,C107,1*%
%TO.N,GND*%
%TA.AperFunction,SMDPad,CuDef*%
G36*
G01*
X86460000Y-130070000D02*
X86460000Y-129730000D01*
G75*
G02*
X86600000Y-129590000I140000J0D01*
G01*
X86880000Y-129590000D01*
G75*
G02*
X87020000Y-129730000I0J-140000D01*
G01*
X87020000Y-130070000D01*
G75*
G02*
X86880000Y-130210000I-140000J0D01*
G01*
X86600000Y-130210000D01*
G75*
G02*
X86460000Y-130070000I0J140000D01*
G01*
G37*
%TD.AperFunction*%
%TD*%
%TO.P,C106,2*%
%TO.N,GND*%
%TA.AperFunction,SMDPad,CuDef*%
G36*
G01*
X93220000Y-123070000D02*
X93220000Y-122730000D01*
G75*
G02*
X93360000Y-122590000I140000J0D01*
G01*
X93640000Y-122590000D01*
G75*
G02*
X93780000Y-122730000I0J-140000D01*
G01*
X93780000Y-123070000D01*
G75*
G02*
X93640000Y-123210000I-140000J0D01*
G01*
X93360000Y-123210000D01*
G75*
G02*
X93220000Y-123070000I0J140000D01*
G01*
G37*
%TD.AperFunction*%
%TO.P,C106,1*%
%TO.N,+12V*%
%TA.AperFunction,SMDPad,CuDef*%
G36*
G01*
X92260000Y-123070000D02*
X92260000Y-122730000D01*
G75*
G02*
X92400000Y-122590000I140000J0D01*
G01*
X92680000Y-122590000D01*
G75*
G02*
X92820000Y-122730000I0J-140000D01*
G01*
X92820000Y-123070000D01*
G75*
G02*
X92680000Y-123210000I-140000J0D01*
G01*
X92400000Y-123210000D01*
G75*
G02*
X92260000Y-123070000I0J140000D01*
G01*
G37*
%TD.AperFunction*%
%TD*%
%TO.P,C105,2*%
%TO.N,-12V*%
%TA.AperFunction,SMDPad,CuDef*%
G36*
G01*
X84920000Y-102570000D02*
X84920000Y-102230000D01*
G75*
G02*
X85060000Y-102090000I140000J0D01*
G01*
X85340000Y-102090000D01*
G75*
G02*
X85480000Y-102230000I0J-140000D01*
G01*
X85480000Y-102570000D01*
G75*
G02*
X85340000Y-102710000I-140000J0D01*
G01*
X85060000Y-102710000D01*
G75*
G02*
X84920000Y-102570000I0J140000D01*
G01*
G37*
%TD.AperFunction*%
%TO.P,C105,1*%
%TO.N,GND*%
%TA.AperFunction,SMDPad,CuDef*%
G36*
G01*
X83960000Y-102570000D02*
X83960000Y-102230000D01*
G75*
G02*
X84100000Y-102090000I140000J0D01*
G01*
X84380000Y-102090000D01*
G75*
G02*
X84520000Y-102230000I0J-140000D01*
G01*
X84520000Y-102570000D01*
G75*
G02*
X84380000Y-102710000I-140000J0D01*
G01*
X84100000Y-102710000D01*
G75*
G02*
X83960000Y-102570000I0J140000D01*
G01*
G37*
%TD.AperFunction*%
%TD*%
%TO.P,C104,2*%
%TO.N,GND*%
%TA.AperFunction,SMDPad,CuDef*%
G36*
G01*
X90720000Y-95770000D02*
X90720000Y-95430000D01*
G75*
G02*
X90860000Y-95290000I140000J0D01*
G01*
X91140000Y-95290000D01*
G75*
G02*
X91280000Y-95430000I0J-140000D01*
G01*
X91280000Y-95770000D01*
G75*
G02*
X91140000Y-95910000I-140000J0D01*
G01*
X90860000Y-95910000D01*
G75*
G02*
X90720000Y-95770000I0J140000D01*
G01*
G37*
%TD.AperFunction*%
%TO.P,C104,1*%
%TO.N,+12V*%
%TA.AperFunction,SMDPad,CuDef*%
G36*
G01*
X89760000Y-95770000D02*
X89760000Y-95430000D01*
G75*
G02*
X89900000Y-95290000I140000J0D01*
G01*
X90180000Y-95290000D01*
G75*
G02*
X90320000Y-95430000I0J-140000D01*
G01*
X90320000Y-95770000D01*
G75*
G02*
X90180000Y-95910000I-140000J0D01*
G01*
X89900000Y-95910000D01*
G75*
G02*
X89760000Y-95770000I0J140000D01*
G01*
G37*
%TD.AperFunction*%
%TD*%
%TO.P,C103,2*%
%TO.N,-12V*%
%TA.AperFunction,SMDPad,CuDef*%
G36*
G01*
X87020000Y-58470000D02*
X87020000Y-58130000D01*
G75*
G02*
X87160000Y-57990000I140000J0D01*
G01*
X87440000Y-57990000D01*
G75*
G02*
X87580000Y-58130000I0J-140000D01*
G01*
X87580000Y-58470000D01*
G75*
G02*
X87440000Y-58610000I-140000J0D01*
G01*
X87160000Y-58610000D01*
G75*
G02*
X87020000Y-58470000I0J140000D01*
G01*
G37*
%TD.AperFunction*%
%TO.P,C103,1*%
%TO.N,GND*%
%TA.AperFunction,SMDPad,CuDef*%
G36*
G01*
X86060000Y-58470000D02*
X86060000Y-58130000D01*
G75*
G02*
X86200000Y-57990000I140000J0D01*
G01*
X86480000Y-57990000D01*
G75*
G02*
X86620000Y-58130000I0J-140000D01*
G01*
X86620000Y-58470000D01*
G75*
G02*
X86480000Y-58610000I-140000J0D01*
G01*
X86200000Y-58610000D01*
G75*
G02*
X86060000Y-58470000I0J140000D01*
G01*
G37*
%TD.AperFunction*%
%TD*%
%TO.P,C102,2*%
%TO.N,GND*%
%TA.AperFunction,SMDPad,CuDef*%
G36*
G01*
X92920000Y-51970000D02*
X92920000Y-51630000D01*
G75*
G02*
X93060000Y-51490000I140000J0D01*
G01*
X93340000Y-51490000D01*
G75*
G02*
X93480000Y-51630000I0J-140000D01*
G01*
X93480000Y-51970000D01*
G75*
G02*
X93340000Y-52110000I-140000J0D01*
G01*
X93060000Y-52110000D01*
G75*
G02*
X92920000Y-51970000I0J140000D01*
G01*
G37*
%TD.AperFunction*%
%TO.P,C102,1*%
%TO.N,+12V*%
%TA.AperFunction,SMDPad,CuDef*%
G36*
G01*
X91960000Y-51970000D02*
X91960000Y-51630000D01*
G75*
G02*
X92100000Y-51490000I140000J0D01*
G01*
X92380000Y-51490000D01*
G75*
G02*
X92520000Y-51630000I0J-140000D01*
G01*
X92520000Y-51970000D01*
G75*
G02*
X92380000Y-52110000I-140000J0D01*
G01*
X92100000Y-52110000D01*
G75*
G02*
X91960000Y-51970000I0J140000D01*
G01*
G37*
%TD.AperFunction*%
%TD*%
%TO.P,C101,2*%
%TO.N,/GATE_BUF*%
%TA.AperFunction,SMDPad,CuDef*%
G36*
G01*
X84880000Y-92430000D02*
X84880000Y-92770000D01*
G75*
G02*
X84740000Y-92910000I-140000J0D01*
G01*
X84460000Y-92910000D01*
G75*
G02*
X84320000Y-92770000I0J140000D01*
G01*
X84320000Y-92430000D01*
G75*
G02*
X84460000Y-92290000I140000J0D01*
G01*
X84740000Y-92290000D01*
G75*
G02*
X84880000Y-92430000I0J-140000D01*
G01*
G37*
%TD.AperFunction*%
%TO.P,C101,1*%
%TO.N,/TRIGGER*%
%TA.AperFunction,SMDPad,CuDef*%
G36*
G01*
X85840000Y-92430000D02*
X85840000Y-92770000D01*
G75*
G02*
X85700000Y-92910000I-140000J0D01*
G01*
X85420000Y-92910000D01*
G75*
G02*
X85280000Y-92770000I0J140000D01*
G01*
X85280000Y-92430000D01*
G75*
G02*
X85420000Y-92290000I140000J0D01*
G01*
X85700000Y-92290000D01*
G75*
G02*
X85840000Y-92430000I0J-140000D01*
G01*
G37*
%TD.AperFunction*%
%TD*%
D21*
%TO.N,GND*%
X95200000Y-96900000D03*
X88100000Y-94200000D03*
X91900000Y-96400000D03*
X87400000Y-98400000D03*
X82800000Y-115100000D03*
X103900000Y-60200000D03*
X94300000Y-51800000D03*
X80200000Y-51700000D03*
X85700000Y-57700000D03*
X79500000Y-58400000D03*
X72250000Y-59800000D03*
X103900000Y-77100000D03*
X107100000Y-80300000D03*
X95800000Y-85100000D03*
X94100000Y-82200000D03*
X83600000Y-76900000D03*
X73954990Y-83114990D03*
X83653959Y-103053959D03*
X94800000Y-122800000D03*
X95600000Y-125600000D03*
X86700000Y-130900000D03*
X92062666Y-109099990D03*
%TO.N,Net-(C112-Pad2)*%
X106900000Y-60200000D03*
X100156028Y-58034853D03*
X95134269Y-60465731D03*
X93882187Y-61617813D03*
X84000000Y-63800000D03*
X81249999Y-61949999D03*
%TO.N,/STATE*%
X92000000Y-85150000D03*
X90100000Y-64525000D03*
X90000000Y-63075000D03*
X90799896Y-74115239D03*
X90525010Y-75815250D03*
X92100000Y-87800000D03*
%TO.N,Net-(D102-Pad1)*%
X94400000Y-59100000D03*
X93082187Y-60817813D03*
%TO.N,/SUSTAIN_BUF*%
X92100000Y-62100000D03*
X100500000Y-75810001D03*
X100600000Y-80100000D03*
X100659269Y-82559269D03*
X100100010Y-120600000D03*
X98400000Y-120599990D03*
X94600000Y-120400000D03*
X92400000Y-120600000D03*
X100200000Y-73600000D03*
X94400000Y-63800000D03*
%TO.N,Net-(D107-Pad1)*%
X98300000Y-93599990D03*
X98400000Y-95300000D03*
%TO.N,Net-(D108-Pad1)*%
X91800000Y-99600000D03*
X92405000Y-97861111D03*
X89100000Y-109475000D03*
X89100000Y-107399990D03*
%TO.N,Net-(D109-Pad1)*%
X87200000Y-110300000D03*
X93987347Y-109687347D03*
X87400000Y-107399990D03*
%TO.N,/FrontPanel/OUT_LED_POS_PANEL*%
X50500000Y-67175000D03*
X50300000Y-72700000D03*
X51800000Y-128000001D03*
X51800000Y-130300000D03*
X51300000Y-146000000D03*
X49552653Y-150752653D03*
%TO.N,/FrontPanel/OUT_LED_NEG_PANEL*%
X47800000Y-72700000D03*
X48800000Y-127600000D03*
X49200000Y-131400000D03*
X50600000Y-148075000D03*
X50600000Y-150200000D03*
X48600000Y-66400000D03*
%TO.N,IN*%
X74000000Y-64950000D03*
X72250000Y-66330991D03*
%TO.N,GATE_IN_2*%
X81700000Y-103850000D03*
X89825000Y-105500000D03*
X98400010Y-105600000D03*
X101550010Y-105600000D03*
X101200000Y-132900000D03*
X98300000Y-137800000D03*
X94958149Y-142056067D03*
X94287347Y-144612653D03*
%TO.N,GATE_IN_1*%
X82800000Y-103600000D03*
X90300000Y-104400000D03*
X98400010Y-104500000D03*
X100825010Y-104500000D03*
X100300000Y-132400000D03*
X97050001Y-135549634D03*
X94251041Y-141348959D03*
X92800000Y-143600000D03*
%TO.N,SUSTAIN*%
X85451041Y-132548959D03*
X84837347Y-135162653D03*
X90800000Y-147200000D03*
X87700000Y-143500000D03*
%TO.N,OUT_LED_NEG*%
X92401041Y-139498959D03*
X91012663Y-145787343D03*
%TO.N,OUT_LED_POS*%
X93108149Y-140206067D03*
X91700000Y-142600000D03*
%TO.N,EOC*%
X96900000Y-115120010D03*
X97000000Y-116820010D03*
X97100000Y-119874990D03*
X97400000Y-122300000D03*
X97050001Y-133600000D03*
X90000000Y-141200000D03*
%TO.N,EOR*%
X83201041Y-130298959D03*
X81287347Y-133112653D03*
%TO.N,OUT*%
X89300000Y-129100000D03*
X82600000Y-133300000D03*
X83882739Y-77975323D03*
X85504266Y-81102737D03*
X79500000Y-85150000D03*
X74500000Y-89400000D03*
X93700000Y-95299990D03*
X92800000Y-93599990D03*
X98200000Y-86700000D03*
X100825010Y-86700000D03*
X90500000Y-86850000D03*
X90200000Y-85150000D03*
%TO.N,/SlewLimiter2/FALL_SHAPE_WIPER*%
X97000000Y-76000000D03*
X99775000Y-79100000D03*
X101900000Y-84600000D03*
%TO.N,/SlewLimiter2/FALL_CV_WIPER*%
X95200000Y-75810001D03*
X94400000Y-74110001D03*
%TO.N,/SlewLimiter2/RISE_CV_WIPER*%
X75000000Y-82100000D03*
X79000000Y-78000000D03*
%TO.N,/FrontPanel/SUSTAIN_PANEL*%
X50500000Y-127900000D03*
X50500000Y-129600000D03*
X51800000Y-147600000D03*
X51500000Y-149700000D03*
%TO.N,/FrontPanel/OUT_PANEL*%
X57700000Y-156700000D03*
X50400000Y-156499990D03*
%TO.N,/FrontPanel/VREF_PANEL*%
X57300000Y-67900000D03*
%TO.N,/FrontPanel/FALL_SHAPE_WIPER_PANEL*%
X60200000Y-77100000D03*
X62200000Y-79300000D03*
%TO.N,/FrontPanel/FALL_CV_IN_PANEL*%
X60400000Y-98200000D03*
X64500000Y-102300000D03*
%TO.N,FALL1*%
X95841377Y-61172839D03*
X94486791Y-62414342D03*
X93807652Y-72492348D03*
X93400000Y-76000000D03*
%TO.N,RISE2*%
X87200000Y-75810001D03*
X87000000Y-74110001D03*
X97534269Y-62865731D03*
X89000000Y-65400000D03*
%TO.N,FALL2*%
X101800000Y-74110001D03*
X103610001Y-74252757D03*
%TO.N,RISE1*%
X103200000Y-64300000D03*
X87187347Y-66187347D03*
X75084706Y-74115294D03*
X74000000Y-76000000D03*
%TO.N,Net-(R120-Pad1)*%
X92700000Y-57900000D03*
X82900000Y-55900000D03*
%TO.N,Net-(R201-Pad1)*%
X91225000Y-77300000D03*
X89800000Y-74100000D03*
%TO.N,Net-(R202-Pad1)*%
X78000000Y-76800000D03*
X76582624Y-78017376D03*
%TO.N,Net-(R211-Pad1)*%
X83737347Y-79437347D03*
X84662653Y-80562653D03*
%TD*%
D22*
%TO.N,/GATE_BUF*%
X84600000Y-96580000D02*
X85150000Y-97130000D01*
X84600000Y-92600000D02*
X84600000Y-96580000D01*
X83050000Y-97130000D02*
X83000000Y-97180000D01*
X85150000Y-97130000D02*
X83050000Y-97130000D01*
X88125001Y-98748001D02*
X88125001Y-98051999D01*
X87849990Y-100873196D02*
X87849990Y-99023012D01*
X87203002Y-97130000D02*
X85150000Y-97130000D01*
X88125001Y-98051999D02*
X87203002Y-97130000D01*
X81434980Y-107288206D02*
X87849990Y-100873196D01*
X87849990Y-99023012D02*
X88125001Y-98748001D01*
X81434980Y-125634980D02*
X81434980Y-107288206D01*
X82800000Y-127000000D02*
X81434980Y-125634980D01*
%TO.N,/TRIGGER*%
X87580000Y-92100000D02*
X86880000Y-92800000D01*
X91400000Y-92100000D02*
X87580000Y-92100000D01*
X85760000Y-92800000D02*
X85560000Y-92600000D01*
X86880000Y-92800000D02*
X85760000Y-92800000D01*
D23*
%TO.N,GND*%
X103980000Y-142600000D02*
X104260000Y-142320000D01*
X99160000Y-142600000D02*
X103980000Y-142600000D01*
X103820000Y-136800000D02*
X104260000Y-137240000D01*
X99100000Y-136800000D02*
X103820000Y-136800000D01*
D22*
X95300000Y-96800000D02*
X95200000Y-96900000D01*
X96800000Y-96800000D02*
X95300000Y-96800000D01*
X87900000Y-94000000D02*
X88100000Y-94200000D01*
X87900000Y-92800000D02*
X87900000Y-94000000D01*
X91100000Y-95600000D02*
X91900000Y-96400000D01*
X91000000Y-95600000D02*
X91100000Y-95600000D01*
X85150000Y-98400000D02*
X87400000Y-98400000D01*
X82480000Y-112400000D02*
X82480000Y-113700000D01*
X82480000Y-114780000D02*
X82800000Y-115100000D01*
X82480000Y-113700000D02*
X82480000Y-114780000D01*
X85260000Y-115100000D02*
X85450000Y-114910000D01*
X82800000Y-115100000D02*
X85260000Y-115100000D01*
X102100000Y-60200000D02*
X103900000Y-60200000D01*
X102100000Y-59500000D02*
X102100000Y-60200000D01*
X102100000Y-60200000D02*
X102100000Y-61000000D01*
X93200000Y-51800000D02*
X94300000Y-51800000D01*
X78960000Y-51700000D02*
X80200000Y-51700000D01*
X85220000Y-56900000D02*
X85220000Y-57180000D01*
X85720000Y-57680000D02*
X85700000Y-57700000D01*
X85220000Y-57180000D02*
X85720000Y-57680000D01*
X85720000Y-57680000D02*
X86340000Y-58300000D01*
X79490000Y-58400000D02*
X79500000Y-58400000D01*
X78000000Y-56910000D02*
X79490000Y-58400000D01*
X72140000Y-59690000D02*
X72250000Y-59800000D01*
X72140000Y-58300000D02*
X72140000Y-59690000D01*
X103700000Y-77300000D02*
X103900000Y-77100000D01*
X103700000Y-78300000D02*
X103700000Y-77300000D01*
X107000000Y-80200000D02*
X107100000Y-80300000D01*
X107000000Y-79100000D02*
X107000000Y-80200000D01*
X95900000Y-85200000D02*
X95800000Y-85100000D01*
X96840000Y-85200000D02*
X95900000Y-85200000D01*
X94100000Y-81100000D02*
X94100000Y-82200000D01*
X73954990Y-83114990D02*
X75640000Y-84800000D01*
X73954990Y-77645010D02*
X73954990Y-83114990D01*
X74600000Y-77000000D02*
X73954990Y-77645010D01*
X84700000Y-75800000D02*
X85280000Y-75800000D01*
X82500000Y-78000000D02*
X83600000Y-76900000D01*
X83600000Y-76900000D02*
X84700000Y-75800000D01*
X84240000Y-102467918D02*
X83653959Y-103053959D01*
X84240000Y-102400000D02*
X84240000Y-102467918D01*
X94700000Y-122900000D02*
X94800000Y-122800000D01*
X93500000Y-122900000D02*
X94700000Y-122900000D01*
X95600000Y-127000000D02*
X95600000Y-125600000D01*
X86740000Y-130860000D02*
X86700000Y-130900000D01*
X86740000Y-129900000D02*
X86740000Y-130860000D01*
X91462656Y-109700000D02*
X92062666Y-109099990D01*
X91380000Y-109700000D02*
X91462656Y-109700000D01*
D23*
%TO.N,+12V*%
X98100000Y-136760000D02*
X98140000Y-136800000D01*
X98100000Y-134700000D02*
X98100000Y-136760000D01*
X102505000Y-79795000D02*
X102775000Y-79795000D01*
X98100000Y-134700000D02*
X99250010Y-133549990D01*
X101985010Y-80314990D02*
X102505000Y-79795000D01*
X99250010Y-82766446D02*
X101701466Y-80314990D01*
X101701466Y-80314990D02*
X101985010Y-80314990D01*
X102775000Y-78335000D02*
X102740000Y-78300000D01*
X102775000Y-79795000D02*
X102775000Y-78335000D01*
X92575000Y-122935000D02*
X92540000Y-122900000D01*
X92575000Y-124495000D02*
X92575000Y-122935000D01*
X93805608Y-121449990D02*
X99250010Y-121449990D01*
X92769990Y-122485608D02*
X93805608Y-121449990D01*
X92769990Y-122830010D02*
X92769990Y-122485608D01*
X92700000Y-122900000D02*
X92769990Y-122830010D01*
X92540000Y-122900000D02*
X92700000Y-122900000D01*
X99250010Y-133549990D02*
X99250010Y-121449990D01*
X99070030Y-115970010D02*
X99250010Y-116149990D01*
X94370010Y-115970010D02*
X99070030Y-115970010D01*
X93700000Y-115300000D02*
X94370010Y-115970010D01*
X99250010Y-121449990D02*
X99250010Y-116149990D01*
X90100000Y-95660000D02*
X90040000Y-95600000D01*
X90100000Y-97130000D02*
X90100000Y-95660000D01*
X90880010Y-94449990D02*
X99250010Y-94449990D01*
X90040000Y-95600000D02*
X90040000Y-95290000D01*
X99250010Y-94449990D02*
X99250010Y-82766446D01*
X90040000Y-95290000D02*
X90880010Y-94449990D01*
X90400000Y-109720000D02*
X90420000Y-109700000D01*
X90400000Y-111100000D02*
X90400000Y-109720000D01*
X91560010Y-108249990D02*
X99250010Y-108249990D01*
X90420000Y-109700000D02*
X90420000Y-109390000D01*
X90420000Y-109390000D02*
X91560010Y-108249990D01*
X99250010Y-108249990D02*
X99250010Y-94449990D01*
X99250010Y-116149990D02*
X99250010Y-108249990D01*
X84810010Y-108249990D02*
X91560010Y-108249990D01*
X82380000Y-110680000D02*
X84810010Y-108249990D01*
X82380000Y-111000000D02*
X82380000Y-110680000D01*
X81575000Y-78035000D02*
X81540000Y-78000000D01*
X81575000Y-79495000D02*
X81575000Y-78035000D01*
X92200000Y-51840000D02*
X92240000Y-51800000D01*
X92200000Y-53100000D02*
X92200000Y-51840000D01*
X78000000Y-53100000D02*
X78000000Y-51700000D01*
X101320000Y-67600000D02*
X101300000Y-67600000D01*
X102760001Y-78279999D02*
X102740000Y-78300000D01*
X101300000Y-67600000D02*
X102760001Y-69060001D01*
X91646456Y-53100000D02*
X92200000Y-53100000D01*
X90774990Y-53971466D02*
X91646456Y-53100000D01*
X97366457Y-63900001D02*
X90774990Y-57308534D01*
X101190003Y-63900001D02*
X97366457Y-63900001D01*
X90774990Y-57308534D02*
X90774990Y-53971466D01*
X102760001Y-65469999D02*
X101190003Y-63900001D01*
X102760001Y-69060001D02*
X102760001Y-65469999D01*
X89153514Y-52349990D02*
X90774990Y-53971466D01*
X86176466Y-52349990D02*
X89153514Y-52349990D01*
X85426456Y-53100000D02*
X86176466Y-52349990D01*
X78000000Y-53100000D02*
X85426456Y-53100000D01*
X102760001Y-74960001D02*
X102760001Y-78279999D01*
X102760001Y-69060001D02*
X102760001Y-74960001D01*
X81540000Y-78000000D02*
X81540000Y-77690000D01*
X84269999Y-74960001D02*
X90386656Y-74960001D01*
X91207897Y-74965240D02*
X91213136Y-74960001D01*
X81540000Y-77690000D02*
X84269999Y-74960001D01*
X90386656Y-74960001D02*
X90391895Y-74965240D01*
X90391895Y-74965240D02*
X91207897Y-74965240D01*
X91213136Y-74960001D02*
X102760001Y-74960001D01*
%TO.N,-12V*%
X98200000Y-144900000D02*
X98200000Y-142600000D01*
X98200000Y-144900000D02*
X96600000Y-144900000D01*
X78600000Y-78832670D02*
X73100000Y-73332670D01*
X73050000Y-58250000D02*
X73100000Y-58300000D01*
X73050000Y-56910000D02*
X73050000Y-58250000D01*
X76625000Y-84775000D02*
X76600000Y-84800000D01*
X76625000Y-83305000D02*
X76625000Y-84775000D01*
X76600000Y-84800000D02*
X78600000Y-84800000D01*
X78600000Y-84800000D02*
X78600000Y-78832670D01*
X87625000Y-129825000D02*
X87700000Y-129900000D01*
X87625000Y-128305000D02*
X87625000Y-129825000D01*
X87700000Y-131700000D02*
X85550000Y-133850000D01*
X85550000Y-133850000D02*
X78600000Y-126900000D01*
X87700000Y-129900000D02*
X87700000Y-131700000D01*
X96600000Y-144900000D02*
X85550000Y-133850000D01*
X97825000Y-85175000D02*
X97800000Y-85200000D01*
X97825000Y-83605000D02*
X97825000Y-85175000D01*
X97800000Y-85510000D02*
X97310000Y-86000000D01*
X97800000Y-85200000D02*
X97800000Y-85510000D01*
X78600000Y-86000000D02*
X78600000Y-84800000D01*
X97310000Y-86000000D02*
X78600000Y-86000000D01*
X85150000Y-102350000D02*
X85200000Y-102400000D01*
X85150000Y-100940000D02*
X85150000Y-102350000D01*
X83210000Y-104700000D02*
X78600000Y-104700000D01*
X85200000Y-102400000D02*
X85200000Y-102710000D01*
X78600000Y-104700000D02*
X78600000Y-86000000D01*
X85200000Y-102710000D02*
X83210000Y-104700000D01*
X78600000Y-126900000D02*
X78600000Y-104700000D01*
X85030000Y-100820000D02*
X85150000Y-100940000D01*
X83100000Y-100820000D02*
X85030000Y-100820000D01*
X87250000Y-58250000D02*
X87300000Y-58300000D01*
X87250000Y-56910000D02*
X87250000Y-58250000D01*
X87300000Y-58610000D02*
X80110000Y-65800000D01*
X87300000Y-58300000D02*
X87300000Y-58610000D01*
X80110000Y-65800000D02*
X73100000Y-65800000D01*
X73100000Y-65800000D02*
X73100000Y-58300000D01*
X73100000Y-73332670D02*
X73100000Y-65800000D01*
X88600000Y-128305000D02*
X87625000Y-128305000D01*
X89500000Y-127405000D02*
X88600000Y-128305000D01*
X89500000Y-124765635D02*
X89500000Y-127405000D01*
X93720000Y-120545635D02*
X93720000Y-116800000D01*
X89500000Y-124765635D02*
X93720000Y-120545635D01*
D22*
%TO.N,Net-(C112-Pad2)*%
X77025000Y-55640000D02*
X78000000Y-55640000D01*
X76699990Y-55965010D02*
X77025000Y-55640000D01*
X76895010Y-57451778D02*
X76699990Y-57256758D01*
X76699990Y-57256758D02*
X76699990Y-55965010D01*
X76895010Y-59104990D02*
X76895010Y-57451778D01*
X106800000Y-60300000D02*
X106900000Y-60200000D01*
X105800000Y-59500000D02*
X105800000Y-60300000D01*
X105800000Y-60300000D02*
X106800000Y-60300000D01*
X105800000Y-60300000D02*
X105800000Y-61000000D01*
X97565147Y-58034853D02*
X95134269Y-60465731D01*
X100156028Y-58034853D02*
X97565147Y-58034853D01*
X91700000Y-63800000D02*
X84000000Y-63800000D01*
X93882187Y-61617813D02*
X91700000Y-63800000D01*
X76800000Y-59200000D02*
X76895010Y-59104990D01*
X76200000Y-59800000D02*
X76800000Y-59200000D01*
X76800000Y-59200000D02*
X79549999Y-61949999D01*
X79549999Y-61949999D02*
X81249999Y-61949999D01*
%TO.N,Net-(C112-Pad1)*%
X75280000Y-59760000D02*
X75240000Y-59800000D01*
X75280000Y-58600000D02*
X75280000Y-59760000D01*
X75280000Y-57493232D02*
X73426768Y-55640000D01*
X73426768Y-55640000D02*
X73050000Y-55640000D01*
X75280000Y-58600000D02*
X75280000Y-57493232D01*
%TO.N,Net-(D101-Pad2)*%
X85000000Y-127000000D02*
X85000000Y-128780000D01*
X87590000Y-127000000D02*
X87625000Y-127035000D01*
X85000000Y-127000000D02*
X87590000Y-127000000D01*
%TO.N,/STATE*%
X89125000Y-98400000D02*
X90100000Y-98400000D01*
X88300000Y-99225000D02*
X89125000Y-98400000D01*
X88300000Y-105000000D02*
X88300000Y-99225000D01*
X91920000Y-98400000D02*
X93300000Y-99780000D01*
X90100000Y-98400000D02*
X91920000Y-98400000D01*
X90000000Y-61100000D02*
X91000000Y-60100000D01*
X90000000Y-63075000D02*
X90000000Y-61100000D01*
X90100000Y-64525000D02*
X90100000Y-73326998D01*
X90799896Y-74026894D02*
X90799896Y-74115239D01*
X90100000Y-73326998D02*
X90799896Y-74026894D01*
X90125011Y-76215249D02*
X90525010Y-75815250D01*
X92000000Y-85150000D02*
X90125011Y-83275011D01*
X90125011Y-83275011D02*
X90125011Y-76215249D01*
X89109412Y-98400000D02*
X87389402Y-96679990D01*
X87389402Y-96679990D02*
X91394391Y-92675001D01*
X92100000Y-92485002D02*
X92100000Y-87800000D01*
X91394391Y-92675001D02*
X91910001Y-92675001D01*
X91910001Y-92675001D02*
X92100000Y-92485002D01*
X90100000Y-98400000D02*
X89109412Y-98400000D01*
%TO.N,Net-(D102-Pad1)*%
X88800000Y-60100000D02*
X88800000Y-62200000D01*
X88800000Y-60020000D02*
X90320000Y-58500000D01*
X88800000Y-60100000D02*
X88800000Y-60020000D01*
X94400000Y-56865000D02*
X94400000Y-59100000D01*
X93175000Y-55640000D02*
X94400000Y-56865000D01*
X92200000Y-55640000D02*
X93175000Y-55640000D01*
X90764374Y-58500000D02*
X90320000Y-58500000D01*
X93082187Y-60817813D02*
X90764374Y-58500000D01*
%TO.N,/SUSTAIN_BUF*%
X87625000Y-125765000D02*
X87625000Y-124495000D01*
X92000000Y-62200000D02*
X92100000Y-62100000D01*
X91000000Y-62200000D02*
X92000000Y-62200000D01*
X100500000Y-80000000D02*
X100600000Y-80100000D01*
X100500000Y-75810001D02*
X100500000Y-80000000D01*
X100100010Y-83118528D02*
X100100010Y-120600000D01*
X100659269Y-82559269D02*
X100100010Y-83118528D01*
X94799990Y-120599990D02*
X94600000Y-120400000D01*
X98400000Y-120599990D02*
X94799990Y-120599990D01*
X88505000Y-124495000D02*
X87625000Y-124495000D01*
X92400000Y-120600000D02*
X88505000Y-124495000D01*
X97744999Y-71144999D02*
X97744999Y-67144999D01*
X100200000Y-73600000D02*
X97744999Y-71144999D01*
X97744999Y-67144999D02*
X94400000Y-63800000D01*
%TO.N,Net-(D104-Pad1)*%
X95400000Y-92100000D02*
X93600000Y-92100000D01*
X96400000Y-93100000D02*
X95400000Y-92100000D01*
%TO.N,Net-(D105-Pad2)*%
X97780000Y-52100000D02*
X97780000Y-54900000D01*
%TO.N,Net-(D105-Pad1)*%
X108254990Y-53654990D02*
X108900000Y-54300000D01*
X106645010Y-53654990D02*
X108254990Y-53654990D01*
X105400000Y-54900000D02*
X106645010Y-53654990D01*
X104274999Y-56025001D02*
X105400000Y-54900000D01*
X96945001Y-56025001D02*
X104274999Y-56025001D01*
X95320000Y-54400000D02*
X96945001Y-56025001D01*
%TO.N,Net-(D107-Pad1)*%
X93160000Y-100940000D02*
X93300000Y-100800000D01*
X90100000Y-100940000D02*
X93160000Y-100940000D01*
X98154980Y-93745010D02*
X98300000Y-93599990D01*
X96025010Y-93745010D02*
X98154980Y-93745010D01*
X95380000Y-93100000D02*
X96025010Y-93745010D01*
X98400000Y-96835002D02*
X98400000Y-95300000D01*
X94435002Y-100800000D02*
X98400000Y-96835002D01*
X93300000Y-100800000D02*
X94435002Y-100800000D01*
%TO.N,Net-(D108-Pad1)*%
X91730000Y-99670000D02*
X91800000Y-99600000D01*
X90100000Y-99670000D02*
X91730000Y-99670000D01*
X92438889Y-97861111D02*
X93500000Y-96800000D01*
X92405000Y-97861111D02*
X92438889Y-97861111D01*
X93143889Y-98600000D02*
X92405000Y-97861111D01*
X93280000Y-98600000D02*
X93143889Y-98600000D01*
X89100000Y-113315000D02*
X89100000Y-109475000D01*
X89425000Y-113640000D02*
X89100000Y-113315000D01*
X90400000Y-113640000D02*
X89425000Y-113640000D01*
X88799990Y-101286758D02*
X88799990Y-99995010D01*
X89100000Y-101586768D02*
X88799990Y-101286758D01*
X89125000Y-99670000D02*
X90100000Y-99670000D01*
X88799990Y-99995010D02*
X89125000Y-99670000D01*
X89100000Y-107399990D02*
X89100000Y-101586768D01*
%TO.N,Net-(D109-Pad1)*%
X85420000Y-112400000D02*
X85450000Y-112370000D01*
X83500000Y-112400000D02*
X85420000Y-112400000D01*
X87200000Y-111595000D02*
X87200000Y-110300000D01*
X86425000Y-112370000D02*
X87200000Y-111595000D01*
X85450000Y-112370000D02*
X86425000Y-112370000D01*
X92812653Y-109687347D02*
X92800000Y-109700000D01*
X93987347Y-109687347D02*
X92812653Y-109687347D01*
X86100000Y-106099990D02*
X87400000Y-107399990D01*
X86100000Y-105000000D02*
X86100000Y-106099990D01*
%TO.N,Net-(D110-Pad2)*%
X92480000Y-112400000D02*
X92480000Y-113600000D01*
X90430000Y-112400000D02*
X90400000Y-112370000D01*
X92480000Y-112400000D02*
X90430000Y-112400000D01*
X92480000Y-112220000D02*
X95000000Y-109700000D01*
X92480000Y-112400000D02*
X92480000Y-112220000D01*
D23*
%TO.N,Net-(D201-Pad2)*%
X106800000Y-134700000D02*
X104260000Y-134700000D01*
X104260000Y-134700000D02*
X101400000Y-134700000D01*
%TO.N,Net-(D202-Pad1)*%
X104260000Y-144860000D02*
X106800000Y-144860000D01*
X101540000Y-144860000D02*
X101500000Y-144900000D01*
X104260000Y-144860000D02*
X101540000Y-144860000D01*
D22*
%TO.N,/SlewLimiter2/VREF*%
X100300000Y-65780000D02*
X100480000Y-65600000D01*
X100300000Y-67600000D02*
X100300000Y-65780000D01*
X100300000Y-68620000D02*
X98920000Y-70000000D01*
X100300000Y-67600000D02*
X100300000Y-68620000D01*
%TO.N,/FrontPanel/EOC_LED_PANEL*%
X52400000Y-133904998D02*
X52400000Y-134690000D01*
X56704999Y-132074999D02*
X54229999Y-132074999D01*
X54229999Y-132074999D02*
X52400000Y-133904998D01*
X57930000Y-133300000D02*
X56704999Y-132074999D01*
%TO.N,/FrontPanel/OUT_LED_POS_PANEL*%
X51274999Y-127475000D02*
X51800000Y-128000001D01*
X51274999Y-73674999D02*
X51274999Y-127475000D01*
X50300000Y-72700000D02*
X51274999Y-73674999D01*
X51300000Y-130800000D02*
X51300000Y-146000000D01*
X51800000Y-130300000D02*
X51300000Y-130800000D01*
X49552653Y-152267347D02*
X47420000Y-154400000D01*
X49552653Y-150752653D02*
X49552653Y-152267347D01*
X47874999Y-64255001D02*
X48730000Y-63400000D01*
X47874999Y-66748001D02*
X47874999Y-64255001D01*
X48301998Y-67175000D02*
X47874999Y-66748001D01*
X50500000Y-67175000D02*
X48301998Y-67175000D01*
X52495001Y-65179999D02*
X52495001Y-55825001D01*
X52495001Y-55825001D02*
X51270000Y-54600000D01*
X50500000Y-67175000D02*
X52495001Y-65179999D01*
%TO.N,/FrontPanel/OUT_LED_NEG_PANEL*%
X48774999Y-73674999D02*
X48774999Y-127574999D01*
X48774999Y-127574999D02*
X48800000Y-127600000D01*
X47800000Y-72700000D02*
X48774999Y-73674999D01*
X49599999Y-147074999D02*
X50600000Y-148075000D01*
X49599999Y-131799999D02*
X49599999Y-147074999D01*
X49200000Y-131400000D02*
X49599999Y-131799999D01*
X50600000Y-153760000D02*
X49960000Y-154400000D01*
X50600000Y-150200000D02*
X50600000Y-153760000D01*
X51270000Y-57140000D02*
X48730000Y-54600000D01*
X51270000Y-63400000D02*
X51270000Y-57140000D01*
X51270000Y-63730000D02*
X51270000Y-63400000D01*
X48600000Y-66400000D02*
X51270000Y-63730000D01*
%TO.N,/FrontPanel/EOR_LED_PANEL*%
X47200000Y-133300000D02*
X48600000Y-134700000D01*
X44600000Y-133300000D02*
X47200000Y-133300000D01*
%TO.N,IN*%
X84180000Y-56880000D02*
X84200000Y-56900000D01*
X84180000Y-55600000D02*
X84180000Y-56880000D01*
X79323000Y-64950000D02*
X74000000Y-64950000D01*
X84200000Y-60073000D02*
X79323000Y-64950000D01*
X84200000Y-56900000D02*
X84200000Y-60073000D01*
X100120000Y-149420000D02*
X100120000Y-154400000D01*
X76150010Y-87913600D02*
X76150010Y-125450010D01*
X72250000Y-84013590D02*
X76150010Y-87913600D01*
X76150010Y-125450010D02*
X100120000Y-149420000D01*
X72250000Y-66330991D02*
X72250000Y-84013590D01*
%TO.N,GATE_IN_2*%
X80600000Y-102750000D02*
X81700000Y-103850000D01*
X80600000Y-100820000D02*
X80600000Y-102750000D01*
X98300010Y-105500000D02*
X98400010Y-105600000D01*
X89825000Y-105500000D02*
X98300010Y-105500000D01*
X101550010Y-132549990D02*
X101200000Y-132900000D01*
X101550010Y-105600000D02*
X101550010Y-132549990D01*
X98300000Y-138714216D02*
X94958149Y-142056067D01*
X98300000Y-137800000D02*
X98300000Y-138714216D01*
X96215001Y-153035001D02*
X97580000Y-154400000D01*
X96215001Y-146540307D02*
X96215001Y-153035001D01*
X94287347Y-144612653D02*
X96215001Y-146540307D01*
%TO.N,GATE_IN_1*%
X81800000Y-102600000D02*
X82800000Y-103600000D01*
X81800000Y-100820000D02*
X81800000Y-102600000D01*
X98300010Y-104400000D02*
X98400010Y-104500000D01*
X90300000Y-104400000D02*
X98300010Y-104400000D01*
X100825010Y-131874990D02*
X100300000Y-132400000D01*
X100825010Y-104500000D02*
X100825010Y-131874990D01*
X97050001Y-138549999D02*
X94251041Y-141348959D01*
X97050001Y-135549634D02*
X97050001Y-138549999D01*
X92800000Y-152160000D02*
X95040000Y-154400000D01*
X92800000Y-143600000D02*
X92800000Y-152160000D01*
%TO.N,SUSTAIN*%
X85000000Y-132097918D02*
X85451041Y-132548959D01*
X85000000Y-129800000D02*
X85000000Y-132097918D01*
X90800000Y-152700000D02*
X92500000Y-154400000D01*
X90800000Y-147200000D02*
X90800000Y-152700000D01*
X84837347Y-140637347D02*
X87700000Y-143500000D01*
X84837347Y-135162653D02*
X84837347Y-140637347D01*
%TO.N,OUT_LED_NEG*%
X92610000Y-127000000D02*
X92575000Y-127035000D01*
X94580000Y-127000000D02*
X92610000Y-127000000D01*
X93875010Y-138024990D02*
X92401041Y-139498959D01*
X93875010Y-127360010D02*
X93875010Y-138024990D01*
X93550000Y-127035000D02*
X93875010Y-127360010D01*
X92575000Y-127035000D02*
X93550000Y-127035000D01*
X89960000Y-146840006D02*
X91012663Y-145787343D01*
X89960000Y-154400000D02*
X89960000Y-146840006D01*
%TO.N,OUT_LED_POS*%
X96325001Y-136989215D02*
X93108149Y-140206067D01*
X96325001Y-125251999D02*
X96325001Y-136989215D01*
X95251999Y-124874999D02*
X95948001Y-124874999D01*
X95948001Y-124874999D02*
X96325001Y-125251999D01*
X94361998Y-125765000D02*
X95251999Y-124874999D01*
X92575000Y-125765000D02*
X94361998Y-125765000D01*
X87420000Y-154400000D02*
X87420000Y-146880000D01*
X87420000Y-146880000D02*
X91700000Y-142600000D01*
%TO.N,EOC*%
X94179990Y-112400000D02*
X96900000Y-115120010D01*
X93500000Y-112400000D02*
X94179990Y-112400000D01*
X97000000Y-119774990D02*
X97100000Y-119874990D01*
X97000000Y-116820010D02*
X97000000Y-119774990D01*
X97400000Y-133250001D02*
X97050001Y-133600000D01*
X97400000Y-122300000D02*
X97400000Y-133250001D01*
X84880000Y-147820000D02*
X84880000Y-154400000D01*
X90000000Y-142700000D02*
X84880000Y-147820000D01*
X90000000Y-141200000D02*
X90000000Y-142700000D01*
%TO.N,EOR*%
X84354990Y-129145010D02*
X83201041Y-130298959D01*
X84354990Y-118525010D02*
X84354990Y-129145010D01*
X84980000Y-117900000D02*
X84354990Y-118525010D01*
X81287347Y-153347347D02*
X82340000Y-154400000D01*
X81287347Y-133112653D02*
X81287347Y-153347347D01*
%TO.N,OUT*%
X73050000Y-53100000D02*
X73050000Y-54370000D01*
X79800000Y-130600000D02*
X79800000Y-154400000D01*
X90095000Y-128305000D02*
X89300000Y-129100000D01*
X92575000Y-128305000D02*
X90095000Y-128305000D01*
X79800000Y-130600000D02*
X82500000Y-133300000D01*
X82500000Y-133300000D02*
X82600000Y-133300000D01*
X84958062Y-76900000D02*
X83882739Y-77975323D01*
X85100000Y-76900000D02*
X84958062Y-76900000D01*
X81457003Y-85150000D02*
X79500000Y-85150000D01*
X85504266Y-81102737D02*
X81457003Y-85150000D01*
X75700000Y-90600000D02*
X75700000Y-126500000D01*
X74500000Y-89400000D02*
X75700000Y-90600000D01*
X75700000Y-126500000D02*
X79800000Y-130600000D01*
X71524999Y-54920001D02*
X71524999Y-83924999D01*
X74500000Y-86900000D02*
X74500000Y-89400000D01*
X72075000Y-54370000D02*
X71524999Y-54920001D01*
X71524999Y-83924999D02*
X74500000Y-86900000D01*
X73050000Y-54370000D02*
X72075000Y-54370000D01*
X94300000Y-95899990D02*
X93700000Y-95299990D01*
X94300000Y-98600000D02*
X94300000Y-95899990D01*
X92800000Y-93599990D02*
X92800000Y-88000000D01*
X92800000Y-88000000D02*
X94100000Y-86700000D01*
X94100000Y-86700000D02*
X98200000Y-86700000D01*
X102600000Y-86700000D02*
X104800000Y-84500000D01*
X100825010Y-86700000D02*
X102600000Y-86700000D01*
X90650000Y-86700000D02*
X90500000Y-86850000D01*
X94100000Y-86700000D02*
X90650000Y-86700000D01*
X86152737Y-81102737D02*
X85504266Y-81102737D01*
X90200000Y-85150000D02*
X86152737Y-81102737D01*
%TO.N,/SlewLimiter2/FALL_WIPER*%
X96300000Y-70080000D02*
X96380000Y-70000000D01*
X96300000Y-72800000D02*
X96300000Y-70080000D01*
%TO.N,/SlewLimiter2/FALL_SHAPE_WIPER*%
X99775000Y-78775000D02*
X99775000Y-79100000D01*
X97000000Y-76000000D02*
X99775000Y-78775000D01*
X101900000Y-84480000D02*
X101900000Y-84600000D01*
X102775000Y-83605000D02*
X101900000Y-84480000D01*
%TO.N,/SlewLimiter2/FALL_CV_WIPER*%
X95486769Y-75810001D02*
X95200000Y-75810001D01*
X99125010Y-79448242D02*
X95486769Y-75810001D01*
X99125010Y-82009990D02*
X99125010Y-79448242D01*
X98800000Y-82335000D02*
X99125010Y-82009990D01*
X97825000Y-82335000D02*
X98800000Y-82335000D01*
X91300000Y-71010001D02*
X91300000Y-70000000D01*
X94400000Y-74110001D02*
X91300000Y-71010001D01*
%TO.N,/SlewLimiter2/FALL_CV_IN*%
X88700000Y-70060000D02*
X88760000Y-70000000D01*
X88700000Y-72600000D02*
X88700000Y-70060000D01*
%TO.N,/SlewLimiter2/RISE_WIPER*%
X86200000Y-70020000D02*
X86220000Y-70000000D01*
X86200000Y-72500000D02*
X86200000Y-70020000D01*
%TO.N,/SlewLimiter2/RISE_SHAPE_WIPER*%
X80600000Y-83305000D02*
X81575000Y-83305000D01*
X80274990Y-82979990D02*
X80600000Y-83305000D01*
X80274990Y-78125010D02*
X80274990Y-82979990D01*
X83680000Y-74720000D02*
X80274990Y-78125010D01*
X83680000Y-70000000D02*
X83680000Y-74720000D01*
%TO.N,/SlewLimiter2/RISE_CV_WIPER*%
X76625000Y-82035000D02*
X76735000Y-82035000D01*
X76670000Y-82100000D02*
X75000000Y-82100000D01*
X76735000Y-82035000D02*
X76670000Y-82100000D01*
X81140000Y-75860000D02*
X79000000Y-78000000D01*
X81140000Y-70000000D02*
X81140000Y-75860000D01*
%TO.N,/SlewLimiter2/RISE_CV_IN*%
X78700000Y-70100000D02*
X78600000Y-70000000D01*
X78700000Y-72580000D02*
X78700000Y-70100000D01*
%TO.N,/FrontPanel/IN_PANEL*%
X37425001Y-164374999D02*
X35300000Y-166500000D01*
X37425001Y-160425001D02*
X37425001Y-164374999D01*
X35300000Y-158300000D02*
X37425001Y-160425001D01*
X58944999Y-153224999D02*
X60120000Y-154400000D01*
X54475999Y-153224999D02*
X58944999Y-153224999D01*
X53675001Y-154025997D02*
X54475999Y-153224999D01*
X53675001Y-154964001D02*
X53675001Y-154025997D01*
X51414012Y-157224990D02*
X53675001Y-154964001D01*
X36375010Y-157224990D02*
X51414012Y-157224990D01*
X35300000Y-158300000D02*
X36375010Y-157224990D01*
%TO.N,/FrontPanel/GATE_IN_2_PANEL*%
X57580000Y-155620000D02*
X54900000Y-158300000D01*
X57580000Y-154400000D02*
X57580000Y-155620000D01*
X57025001Y-164374999D02*
X54900000Y-166500000D01*
X57025001Y-160425001D02*
X57025001Y-164374999D01*
X54900000Y-158300000D02*
X57025001Y-160425001D01*
%TO.N,/FrontPanel/GATE_IN_1_PANEL*%
X51140000Y-158300000D02*
X45100000Y-158300000D01*
X55040000Y-154400000D02*
X51140000Y-158300000D01*
X47225001Y-164374999D02*
X45100000Y-166500000D01*
X47225001Y-160425001D02*
X47225001Y-164374999D01*
X45100000Y-158300000D02*
X47225001Y-160425001D01*
%TO.N,/FrontPanel/SUSTAIN_PANEL*%
X50000000Y-127400000D02*
X50500000Y-127900000D01*
X50000000Y-107400000D02*
X50000000Y-127400000D01*
X50500000Y-146300000D02*
X51800000Y-147600000D01*
X50500000Y-129600000D02*
X50500000Y-146300000D01*
X52500000Y-150700000D02*
X52500000Y-154400000D01*
X51500000Y-149700000D02*
X52500000Y-150700000D01*
%TO.N,/FrontPanel/EOC_PANEL*%
X52400000Y-138100000D02*
X54900000Y-140600000D01*
X52400000Y-135710000D02*
X52400000Y-138100000D01*
X50480000Y-148800000D02*
X54900000Y-148800000D01*
X44880000Y-154400000D02*
X50480000Y-148800000D01*
X57025001Y-142725001D02*
X54900000Y-140600000D01*
X57025001Y-146674999D02*
X57025001Y-142725001D01*
X54900000Y-148800000D02*
X57025001Y-146674999D01*
%TO.N,/FrontPanel/EOR_PANEL*%
X48600000Y-137100000D02*
X45100000Y-140600000D01*
X48600000Y-135720000D02*
X48600000Y-137100000D01*
X42340000Y-151560000D02*
X45100000Y-148800000D01*
X42340000Y-154400000D02*
X42340000Y-151560000D01*
X47225001Y-142725001D02*
X45100000Y-140600000D01*
X47225001Y-146674999D02*
X47225001Y-142725001D01*
X45100000Y-148800000D02*
X47225001Y-146674999D01*
%TO.N,/FrontPanel/OUT_PANEL*%
X61274999Y-128725001D02*
X62500000Y-127500000D01*
X43725001Y-128725001D02*
X61274999Y-128725001D01*
X42500000Y-127500000D02*
X43725001Y-128725001D01*
X43374999Y-129075003D02*
X43725001Y-128725001D01*
X43374999Y-134370003D02*
X43374999Y-129075003D01*
X39800000Y-137945002D02*
X43374999Y-134370003D01*
X39800000Y-154400000D02*
X39800000Y-137945002D01*
X62574999Y-164374999D02*
X64700000Y-166500000D01*
X62574999Y-160425001D02*
X62574999Y-164374999D01*
X64700000Y-158300000D02*
X62574999Y-160425001D01*
X59300000Y-158300000D02*
X57700000Y-156700000D01*
X64700000Y-158300000D02*
X59300000Y-158300000D01*
X41899990Y-156499990D02*
X39800000Y-154400000D01*
X50400000Y-156499990D02*
X41899990Y-156499990D01*
%TO.N,/FrontPanel/VREF_PANEL*%
X58920000Y-68530000D02*
X64750000Y-62700000D01*
X58920000Y-70000000D02*
X58920000Y-68530000D01*
X45450000Y-67900000D02*
X57300000Y-67900000D01*
X40250000Y-62700000D02*
X45450000Y-67900000D01*
X61274999Y-72354999D02*
X58920000Y-70000000D01*
X61274999Y-98625001D02*
X61274999Y-72354999D01*
X52500000Y-107400000D02*
X61274999Y-98625001D01*
%TO.N,/FrontPanel/FALL_WIPER_PANEL*%
X62250000Y-64130000D02*
X56380000Y-70000000D01*
X62250000Y-62700000D02*
X62250000Y-64130000D01*
%TO.N,/FrontPanel/FALL_SHAPE_WIPER_PANEL*%
X60200000Y-76360000D02*
X60200000Y-77100000D01*
X53840000Y-70000000D02*
X60200000Y-76360000D01*
X63725001Y-123774999D02*
X60000000Y-127500000D01*
X63725001Y-80825001D02*
X63725001Y-123774999D01*
X62200000Y-79300000D02*
X63725001Y-80825001D01*
%TO.N,/FrontPanel/FALL_CV_WIPER_PANEL*%
X60000000Y-78700000D02*
X51300000Y-70000000D01*
X60000000Y-87000000D02*
X60000000Y-78700000D01*
%TO.N,/FrontPanel/FALL_CV_IN_PANEL*%
X57500000Y-78740000D02*
X48760000Y-70000000D01*
X57500000Y-87000000D02*
X57500000Y-78740000D01*
X66825001Y-146674999D02*
X64700000Y-148800000D01*
X66825001Y-142725001D02*
X66825001Y-146674999D01*
X64700000Y-140600000D02*
X66825001Y-142725001D01*
X57500000Y-95300000D02*
X60400000Y-98200000D01*
X57500000Y-87000000D02*
X57500000Y-95300000D01*
X67375010Y-137924990D02*
X64700000Y-140600000D01*
X67375010Y-105175010D02*
X67375010Y-137924990D01*
X64500000Y-102300000D02*
X67375010Y-105175010D01*
%TO.N,/FrontPanel/RISE_WIPER_PANEL*%
X40145001Y-63925001D02*
X46220000Y-70000000D01*
X38975001Y-63925001D02*
X40145001Y-63925001D01*
X37750000Y-62700000D02*
X38975001Y-63925001D01*
%TO.N,/FrontPanel/RISE_SHAPE_WIPER_PANEL*%
X40000000Y-101934732D02*
X40000000Y-127500000D01*
X43725001Y-98209731D02*
X40000000Y-101934732D01*
X43725001Y-70045001D02*
X43725001Y-98209731D01*
X43680000Y-70000000D02*
X43725001Y-70045001D01*
%TO.N,/FrontPanel/RISE_CV_WIPER_PANEL*%
X40000000Y-71140000D02*
X41140000Y-70000000D01*
X40000000Y-87000000D02*
X40000000Y-71140000D01*
%TO.N,/FrontPanel/RISE_CV_IN_PANEL*%
X37425001Y-146674999D02*
X35300000Y-148800000D01*
X37425001Y-142725001D02*
X37425001Y-146674999D01*
X35300000Y-140600000D02*
X37425001Y-142725001D01*
X38600000Y-85900000D02*
X37500000Y-87000000D01*
X38600000Y-70000000D02*
X38600000Y-85900000D01*
X36274999Y-139625001D02*
X35300000Y-140600000D01*
X36274999Y-88225001D02*
X36274999Y-139625001D01*
X37500000Y-87000000D02*
X36274999Y-88225001D01*
%TO.N,Net-(Q101-Pad2)*%
X105000000Y-57500000D02*
X104850000Y-57500000D01*
X107880000Y-54620000D02*
X105000000Y-57500000D01*
X107880000Y-54300000D02*
X107880000Y-54620000D01*
X101925001Y-56724999D02*
X101150000Y-57500000D01*
X104074999Y-56724999D02*
X101925001Y-56724999D01*
X104850000Y-57500000D02*
X104074999Y-56724999D01*
X105974999Y-62224999D02*
X106750000Y-63000000D01*
X103050000Y-63000000D02*
X103825001Y-62224999D01*
X104850000Y-62199998D02*
X104824999Y-62224999D01*
X104850000Y-57500000D02*
X104850000Y-62199998D01*
X104824999Y-62224999D02*
X105974999Y-62224999D01*
X103825001Y-62224999D02*
X104824999Y-62224999D01*
%TO.N,FALL1*%
X93080000Y-81100000D02*
X93080000Y-79900000D01*
X98912163Y-61172839D02*
X95841377Y-61172839D01*
X102585002Y-57500000D02*
X98912163Y-61172839D01*
X103050000Y-57500000D02*
X102585002Y-57500000D01*
X92664999Y-64236134D02*
X92664999Y-71464999D01*
X94486791Y-62414342D02*
X92664999Y-64236134D01*
X93692348Y-72492348D02*
X93807652Y-72492348D01*
X92664999Y-71464999D02*
X93692348Y-72492348D01*
X93400000Y-79580000D02*
X93080000Y-79900000D01*
X93400000Y-76000000D02*
X93400000Y-79580000D01*
%TO.N,RISE2*%
X86300000Y-76880000D02*
X86300000Y-75800000D01*
X87189999Y-75800000D02*
X87200000Y-75810001D01*
X86300000Y-75800000D02*
X87189999Y-75800000D01*
X86790001Y-74110001D02*
X86200000Y-73520000D01*
X87000000Y-74110001D02*
X86790001Y-74110001D01*
X97668538Y-63000000D02*
X97534269Y-62865731D01*
X101150000Y-63000000D02*
X97668538Y-63000000D01*
X87584999Y-66815001D02*
X87584999Y-73525002D01*
X87584999Y-73525002D02*
X87000000Y-74110001D01*
X89000000Y-65400000D02*
X87584999Y-66815001D01*
%TO.N,FALL2*%
X104820000Y-79100000D02*
X104800000Y-79080000D01*
X105980000Y-79100000D02*
X104820000Y-79100000D01*
X101585000Y-74325001D02*
X101800000Y-74110001D01*
X96805001Y-74325001D02*
X101585000Y-74325001D01*
X96300000Y-73820000D02*
X96805001Y-74325001D01*
X104800000Y-75442756D02*
X104800000Y-79080000D01*
X103610001Y-74252757D02*
X104800000Y-75442756D01*
X107625001Y-64409997D02*
X107625001Y-58375001D01*
X103610001Y-68424997D02*
X107625001Y-64409997D01*
X107625001Y-58375001D02*
X106750000Y-57500000D01*
X103610001Y-74252757D02*
X103610001Y-68424997D01*
%TO.N,RISE1*%
X75620000Y-77000000D02*
X75620000Y-78100000D01*
X104250000Y-64300000D02*
X103200000Y-64300000D01*
X104850000Y-63700000D02*
X104250000Y-64300000D01*
X104850000Y-63000000D02*
X104850000Y-63700000D01*
X75084706Y-71230292D02*
X75084706Y-74115294D01*
X79727652Y-66587346D02*
X75084706Y-71230292D01*
X86787348Y-66587346D02*
X79727652Y-66587346D01*
X87187347Y-66187347D02*
X86787348Y-66587346D01*
X74620000Y-76000000D02*
X75620000Y-77000000D01*
X74000000Y-76000000D02*
X74620000Y-76000000D01*
%TO.N,Net-(R103-Pad1)*%
X83100000Y-98300000D02*
X83000000Y-98200000D01*
X83100000Y-99800000D02*
X83100000Y-98300000D01*
X85020000Y-99800000D02*
X85150000Y-99670000D01*
X83100000Y-99800000D02*
X85020000Y-99800000D01*
X83100000Y-99800000D02*
X81800000Y-99800000D01*
X81800000Y-99800000D02*
X80600000Y-99800000D01*
%TO.N,Net-(R105-Pad2)*%
X87210000Y-55600000D02*
X87250000Y-55640000D01*
X85200000Y-55600000D02*
X87210000Y-55600000D01*
%TO.N,Net-(R109-Pad2)*%
X87250000Y-53100000D02*
X87250000Y-54370000D01*
X89300000Y-55445000D02*
X89300000Y-58500000D01*
X88225000Y-54370000D02*
X89300000Y-55445000D01*
X87250000Y-54370000D02*
X88225000Y-54370000D01*
%TO.N,Net-(R111-Pad2)*%
X92230000Y-54400000D02*
X92200000Y-54370000D01*
X94300000Y-54400000D02*
X92230000Y-54400000D01*
%TO.N,Net-(R116-Pad2)*%
X92290000Y-114910000D02*
X92680000Y-115300000D01*
X90400000Y-114910000D02*
X92290000Y-114910000D01*
X92680000Y-116780000D02*
X92700000Y-116800000D01*
X92680000Y-115300000D02*
X92680000Y-116780000D01*
X92680000Y-114420000D02*
X93500000Y-113600000D01*
X92680000Y-115300000D02*
X92680000Y-114420000D01*
%TO.N,Net-(R120-Pad1)*%
X77025000Y-54370000D02*
X78000000Y-54370000D01*
X76249980Y-55145020D02*
X77025000Y-54370000D01*
X76249980Y-58549980D02*
X76249980Y-55145020D01*
X76300000Y-58600000D02*
X76249980Y-58549980D01*
X92200000Y-57400000D02*
X92700000Y-57900000D01*
X92200000Y-56910000D02*
X92200000Y-57400000D01*
X81370000Y-54370000D02*
X78000000Y-54370000D01*
X82900000Y-55900000D02*
X81370000Y-54370000D01*
%TO.N,Net-(R121-Pad2)*%
X85390000Y-113700000D02*
X85450000Y-113640000D01*
X83500000Y-113700000D02*
X85390000Y-113700000D01*
X86425000Y-113640000D02*
X85450000Y-113640000D01*
X87500000Y-109300000D02*
X88300000Y-110100000D01*
X88300000Y-111765000D02*
X86425000Y-113640000D01*
X85100000Y-109300000D02*
X87500000Y-109300000D01*
X88300000Y-110100000D02*
X88300000Y-111765000D01*
X83400000Y-111000000D02*
X85100000Y-109300000D01*
%TO.N,Net-(R123-Pad2)*%
X81884990Y-112024456D02*
X81884990Y-115257992D01*
X85354990Y-117254990D02*
X86000000Y-117900000D01*
X82154456Y-111754990D02*
X81884990Y-112024456D01*
X84145010Y-111754990D02*
X82154456Y-111754990D01*
X83881988Y-117254990D02*
X85354990Y-117254990D01*
X84500000Y-111400000D02*
X84145010Y-111754990D01*
X85150000Y-111400000D02*
X84500000Y-111400000D01*
X81884990Y-115257992D02*
X83881988Y-117254990D01*
X85450000Y-111100000D02*
X85150000Y-111400000D01*
%TO.N,Net-(R201-Pad1)*%
X97660000Y-80900000D02*
X97825000Y-81065000D01*
X95500000Y-80900000D02*
X97660000Y-80900000D01*
X95500000Y-81873002D02*
X94448001Y-82925001D01*
X93751999Y-82925001D02*
X91225000Y-80398002D01*
X94448001Y-82925001D02*
X93751999Y-82925001D01*
X91225000Y-80398002D02*
X91225000Y-77300000D01*
X95500000Y-80900000D02*
X95500000Y-81873002D01*
X88700000Y-73620000D02*
X89320000Y-73620000D01*
X89320000Y-73620000D02*
X89800000Y-74100000D01*
%TO.N,Net-(R202-Pad1)*%
X76380000Y-80520000D02*
X76625000Y-80765000D01*
X74600000Y-80520000D02*
X76380000Y-80520000D01*
X78700000Y-76100000D02*
X78000000Y-76800000D01*
X78700000Y-73600000D02*
X78700000Y-76100000D01*
X77600000Y-80765000D02*
X76625000Y-80765000D01*
X77925010Y-80439990D02*
X77600000Y-80765000D01*
X77925010Y-79148242D02*
X77925010Y-80439990D01*
X77646758Y-78869990D02*
X77925010Y-79148242D01*
X77435238Y-78869990D02*
X77646758Y-78869990D01*
X76582624Y-78017376D02*
X77435238Y-78869990D01*
%TO.N,Net-(R203-Pad1)*%
X95585000Y-79795000D02*
X95500000Y-79880000D01*
X97825000Y-79795000D02*
X95585000Y-79795000D01*
X94120000Y-79880000D02*
X94100000Y-79900000D01*
X95500000Y-79880000D02*
X94120000Y-79880000D01*
%TO.N,Net-(R204-Pad1)*%
X74605000Y-79495000D02*
X74600000Y-79500000D01*
X76625000Y-79495000D02*
X74605000Y-79495000D01*
X74600000Y-78100000D02*
X74600000Y-79500000D01*
%TO.N,Net-(R210-Pad1)*%
X104665000Y-82335000D02*
X104800000Y-82200000D01*
X102775000Y-82335000D02*
X104665000Y-82335000D01*
X104800000Y-82200000D02*
X104800000Y-83480000D01*
%TO.N,Net-(R211-Pad1)*%
X85100000Y-78074694D02*
X83737347Y-79437347D01*
X85100000Y-77920000D02*
X85100000Y-78074694D01*
X84662653Y-80837347D02*
X83600000Y-81900000D01*
X84662653Y-80562653D02*
X84662653Y-80837347D01*
X83465000Y-82035000D02*
X83600000Y-81900000D01*
X81575000Y-82035000D02*
X83465000Y-82035000D01*
%TO.N,Net-(R212-Pad1)*%
X104800000Y-80100000D02*
X104800000Y-81180000D01*
X102890000Y-81180000D02*
X102775000Y-81065000D01*
X104800000Y-81180000D02*
X102890000Y-81180000D01*
%TO.N,Net-(R213-Pad1)*%
X81690000Y-80880000D02*
X81575000Y-80765000D01*
X83600000Y-80880000D02*
X81690000Y-80880000D01*
X83600000Y-80600000D02*
X86300000Y-77900000D01*
X83600000Y-80880000D02*
X83600000Y-80600000D01*
%TD*%
M02*
