%TF.GenerationSoftware,KiCad,Pcbnew,(5.1.7-0-10_14)*%
%TF.CreationDate,2021-05-28T11:23:36-04:00*%
%TF.ProjectId,SlewLimiter,536c6577-4c69-46d6-9974-65722e6b6963,rev?*%
%TF.SameCoordinates,Original*%
%TF.FileFunction,Soldermask,Bot*%
%TF.FilePolarity,Negative*%
%FSLAX46Y46*%
G04 Gerber Fmt 4.6, Leading zero omitted, Abs format (unit mm)*
G04 Created by KiCad (PCBNEW (5.1.7-0-10_14)) date 2021-05-28 11:23:36*
%MOMM*%
%LPD*%
G01*
G04 APERTURE LIST*
%ADD10C,1.800000*%
%ADD11R,1.800000X1.800000*%
%ADD12O,2.800000X2.200000*%
%ADD13C,3.600000*%
%ADD14O,2.300000X1.500000*%
%ADD15O,1.700000X1.700000*%
%ADD16R,1.700000X1.700000*%
%ADD17O,1.600000X1.600000*%
%ADD18R,1.600000X1.600000*%
G04 APERTURE END LIST*
D10*
%TO.C,D303*%
X51270000Y-63400000D03*
D11*
X48730000Y-63400000D03*
%TD*%
D12*
%TO.C,RV307*%
X65650000Y-120000000D03*
X54350000Y-120000000D03*
D10*
X62500000Y-127500000D03*
X60000000Y-127500000D03*
X57500000Y-127500000D03*
%TD*%
D12*
%TO.C,RV306*%
X65650000Y-79500000D03*
X54350000Y-79500000D03*
D10*
X62500000Y-87000000D03*
X60000000Y-87000000D03*
X57500000Y-87000000D03*
%TD*%
D12*
%TO.C,RV305*%
X67900000Y-55200000D03*
X56600000Y-55200000D03*
D10*
X64750000Y-62700000D03*
X62250000Y-62700000D03*
X59750000Y-62700000D03*
%TD*%
D12*
%TO.C,RV304*%
X55650000Y-99900000D03*
X44350000Y-99900000D03*
D10*
X52500000Y-107400000D03*
X50000000Y-107400000D03*
X47500000Y-107400000D03*
%TD*%
D12*
%TO.C,RV303*%
X45650000Y-120000000D03*
X34350000Y-120000000D03*
D10*
X42500000Y-127500000D03*
X40000000Y-127500000D03*
X37500000Y-127500000D03*
%TD*%
D12*
%TO.C,RV302*%
X45650000Y-79500000D03*
X34350000Y-79500000D03*
D10*
X42500000Y-87000000D03*
X40000000Y-87000000D03*
X37500000Y-87000000D03*
%TD*%
D12*
%TO.C,RV301*%
X43400000Y-55200000D03*
X32100000Y-55200000D03*
D10*
X40250000Y-62700000D03*
X37750000Y-62700000D03*
X35250000Y-62700000D03*
%TD*%
D13*
%TO.C,J310*%
X45100000Y-145400000D03*
D14*
X45100000Y-140600000D03*
X45100000Y-148800000D03*
X45100000Y-151000000D03*
%TD*%
D13*
%TO.C,J309*%
X64700000Y-145400000D03*
D14*
X64700000Y-140600000D03*
X64700000Y-148800000D03*
X64700000Y-151000000D03*
%TD*%
D13*
%TO.C,J308*%
X35300000Y-145400000D03*
D14*
X35300000Y-140600000D03*
X35300000Y-148800000D03*
X35300000Y-151000000D03*
%TD*%
D13*
%TO.C,J307*%
X64700000Y-163100000D03*
D14*
X64700000Y-158300000D03*
X64700000Y-166500000D03*
X64700000Y-168700000D03*
%TD*%
D13*
%TO.C,J306*%
X54900000Y-145400000D03*
D14*
X54900000Y-140600000D03*
X54900000Y-148800000D03*
X54900000Y-151000000D03*
%TD*%
D13*
%TO.C,J305*%
X54900000Y-163100000D03*
D14*
X54900000Y-158300000D03*
X54900000Y-166500000D03*
X54900000Y-168700000D03*
%TD*%
D13*
%TO.C,J304*%
X45100000Y-163100000D03*
D14*
X45100000Y-158300000D03*
X45100000Y-166500000D03*
X45100000Y-168700000D03*
%TD*%
D13*
%TO.C,J303*%
X35300000Y-163100000D03*
D14*
X35300000Y-158300000D03*
X35300000Y-166500000D03*
X35300000Y-168700000D03*
%TD*%
D15*
%TO.C,J302*%
X61460000Y-70000000D03*
X58920000Y-70000000D03*
X56380000Y-70000000D03*
X53840000Y-70000000D03*
X51300000Y-70000000D03*
X48760000Y-70000000D03*
X46220000Y-70000000D03*
X43680000Y-70000000D03*
X41140000Y-70000000D03*
D16*
X38600000Y-70000000D03*
%TD*%
D15*
%TO.C,J301*%
X60120000Y-154400000D03*
X57580000Y-154400000D03*
X55040000Y-154400000D03*
X52500000Y-154400000D03*
X49960000Y-154400000D03*
X47420000Y-154400000D03*
X44880000Y-154400000D03*
X42340000Y-154400000D03*
D16*
X39800000Y-154400000D03*
%TD*%
D15*
%TO.C,J203*%
X101460000Y-70000000D03*
X98920000Y-70000000D03*
X96380000Y-70000000D03*
X93840000Y-70000000D03*
X91300000Y-70000000D03*
X88760000Y-70000000D03*
X86220000Y-70000000D03*
X83680000Y-70000000D03*
X81140000Y-70000000D03*
D16*
X78600000Y-70000000D03*
%TD*%
D15*
%TO.C,J202*%
X100120000Y-154400000D03*
X97580000Y-154400000D03*
X95040000Y-154400000D03*
X92500000Y-154400000D03*
X89960000Y-154400000D03*
X87420000Y-154400000D03*
X84880000Y-154400000D03*
X82340000Y-154400000D03*
D16*
X79800000Y-154400000D03*
%TD*%
D15*
%TO.C,J201*%
X104260000Y-144860000D03*
X106800000Y-144860000D03*
X104260000Y-142320000D03*
X106800000Y-142320000D03*
X104260000Y-139780000D03*
X106800000Y-139780000D03*
X104260000Y-137240000D03*
X106800000Y-137240000D03*
X104260000Y-134700000D03*
D16*
X106800000Y-134700000D03*
%TD*%
D10*
%TO.C,D304*%
X44600000Y-133300000D03*
D11*
X42060000Y-133300000D03*
%TD*%
D10*
%TO.C,D302*%
X51270000Y-54600000D03*
D11*
X48730000Y-54600000D03*
%TD*%
D10*
%TO.C,D301*%
X57930000Y-133300000D03*
D11*
X55390000Y-133300000D03*
%TD*%
D17*
%TO.C,D203*%
X108100000Y-65600000D03*
D18*
X100480000Y-65600000D03*
%TD*%
D17*
%TO.C,D107*%
X101300000Y-100200000D03*
D18*
X101300000Y-92580000D03*
%TD*%
D17*
%TO.C,D106*%
X97780000Y-52100000D03*
D18*
X105400000Y-52100000D03*
%TD*%
D17*
%TO.C,D105*%
X97780000Y-54900000D03*
D18*
X105400000Y-54900000D03*
%TD*%
M02*
