M48
; DRILL file {KiCad (5.1.7-0-10_14)} date Friday, May 28, 2021 at 11:23:40 AM
; FORMAT={-:-/ absolute / inch / decimal}
; #@! TF.CreationDate,2021-05-28T11:23:40-04:00
; #@! TF.GenerationSoftware,Kicad,Pcbnew,(5.1.7-0-10_14)
FMAT,2
INCH
T1C0.0157
T2C0.0315
T3C0.0354
T4C0.0394
T5C0.0433
T6C0.0551
T7C0.1417
%
G90
G05
T1
X1.8819Y-2.8622
X1.9134Y-2.6142
X1.9213Y-5.0236
X1.937Y-5.1732
X1.9509Y-5.9351
X1.9803Y-2.8622
X1.9843Y-6.1614
X1.9882Y-2.6447
X1.9882Y-5.0354
X1.9882Y-5.1024
X1.9921Y-5.8297
X1.9921Y-5.9134
X2.0197Y-5.748
X2.0276Y-5.8937
X2.0394Y-5.0394
X2.0394Y-5.1299
X2.0394Y-5.811
X2.2559Y-2.6732
X2.2717Y-6.1693
X2.3701Y-3.0354
X2.378Y-3.8661
X2.4488Y-3.122
X2.5394Y-4.0276
X2.8445Y-2.3543
X2.8445Y-2.6115
X2.9116Y-3.2722
X2.9134Y-2.5571
X2.9134Y-2.9921
X2.9331Y-3.5197
X2.9528Y-3.2323
X2.9561Y-2.9179
X3.0151Y-3.0716
X3.0709Y-3.0236
X3.1102Y-3.0709
X3.1299Y-2.2992
X3.1299Y-3.3524
X3.1575Y-2.0354
X3.1988Y-2.439
X3.2003Y-5.2407
X3.2165Y-4.0886
X3.252Y-5.248
X3.2598Y-4.0787
X3.2598Y-4.5315
X3.2638Y-2.2008
X3.2756Y-5.1299
X3.2913Y-3.0276
X3.2935Y-4.0572
X3.2967Y-3.1275
X3.3025Y-3.0699
X3.3071Y-2.5118
X3.3332Y-3.1718
X3.3401Y-5.3214
X3.3642Y-5.2185
X3.3663Y-3.193
X3.374Y-2.2717
X3.4134Y-5.1535
X3.4252Y-2.9177
X3.4326Y-2.6058
X3.4331Y-2.9846
X3.4331Y-4.3425
X3.4409Y-3.874
X3.4409Y-4.2283
X3.4528Y-5.6496
X3.4685Y-3.7087
X3.5039Y-2.5748
X3.5079Y-4.2283
X3.5079Y-4.31
X3.5157Y-5.0827
X3.5354Y-2.9173
X3.5364Y-4.1535
X3.5433Y-2.4833
X3.5433Y-5.5591
X3.5472Y-2.5404
X3.5512Y-3.3524
X3.5551Y-4.1102
X3.563Y-3.4193
X3.564Y-2.9849
X3.5748Y-2.9179
X3.5748Y-5.7953
X3.5832Y-5.7397
X3.5915Y-3.0433
X3.6102Y-5.6142
X3.6142Y-3.9213
X3.6181Y-3.7953
X3.622Y-3.3524
X3.6245Y-4.2953
X3.626Y-2.4449
X3.626Y-3.4567
X3.6378Y-4.748
X3.6378Y-5.4921
X3.638Y-3.8528
X3.6496Y-2.2795
X3.6535Y-3.685
X3.6535Y-5.6535
X3.6647Y-2.3944
X3.6657Y-5.5199
X3.6772Y-2.9921
X3.689Y-3.752
X3.6932Y-2.854
X3.6961Y-2.4259
X3.7003Y-4.3184
X3.7047Y-3.2362
X3.7107Y-5.5649
X3.7121Y-5.6934
X3.7126Y-2.0394
X3.7165Y-2.3268
X3.7165Y-2.5118
X3.7165Y-2.9177
X3.72Y-2.4573
X3.7244Y-4.7402
X3.7323Y-4.8346
X3.7385Y-5.5928
X3.7454Y-2.3805
X3.748Y-2.9846
X3.748Y-3.815
X3.7638Y-4.9449
X3.7717Y-3.3504
X3.7733Y-2.4084
X3.815Y-4.5323
X3.8189Y-2.9921
X3.8189Y-4.5992
X3.8209Y-5.2598
X3.8209Y-5.3366
X3.8228Y-4.7195
X3.8346Y-4.815
X3.8399Y-2.475
X3.8661Y-3.4134
X3.8701Y-3.685
X3.8701Y-5.4252
X3.874Y-3.752
X3.874Y-4.748
X3.874Y-4.1142
X3.874Y-4.1575
X3.9281Y-3.1142
X3.9409Y-4.748
X3.9432Y-2.2848
X3.9449Y-2.8976
X3.9488Y-5.2126
X3.9567Y-2.9846
X3.9606Y-3.1535
X3.963Y-3.2504
X3.9695Y-3.4134
X3.9695Y-4.1142
X3.9843Y-5.2323
X3.998Y-4.1575
X4.0079Y-2.9177
X4.0118Y-3.3307
X4.063Y-2.5315
X4.0791Y-2.9233
X4.0906Y-2.3701
X4.0906Y-3.0354
X4.2087Y-2.3701
X4.2165Y-3.1614
T2
X3.8496Y-2.0512
X4.1496Y-2.0512
X3.9882Y-3.6449
X3.9882Y-3.9449
X3.8496Y-2.1614
X4.1496Y-2.1614
X3.9559Y-2.5827
X4.2559Y-2.5827
T3
X1.6559Y-5.248
X1.7559Y-5.248
X1.9185Y-2.4961
X2.0185Y-2.4961
X1.9185Y-2.1496
X2.0185Y-2.1496
X2.1807Y-5.248
X2.2807Y-5.248
T4
X3.1417Y-6.0787
X3.2417Y-6.0787
X3.3417Y-6.0787
X3.4417Y-6.0787
X3.5417Y-6.0787
X3.6417Y-6.0787
X3.7417Y-6.0787
X3.8417Y-6.0787
X3.9417Y-6.0787
X1.5197Y-2.7559
X1.6197Y-2.7559
X1.7197Y-2.7559
X1.8197Y-2.7559
X1.9197Y-2.7559
X2.0197Y-2.7559
X2.1197Y-2.7559
X2.2197Y-2.7559
X2.3197Y-2.7559
X2.4197Y-2.7559
X1.5669Y-6.0787
X1.6669Y-6.0787
X1.7669Y-6.0787
X1.8669Y-6.0787
X1.9669Y-6.0787
X2.0669Y-6.0787
X2.1669Y-6.0787
X2.2669Y-6.0787
X2.3669Y-6.0787
X3.0945Y-2.7559
X3.1945Y-2.7559
X3.2945Y-2.7559
X3.3945Y-2.7559
X3.4945Y-2.7559
X3.5945Y-2.7559
X3.6945Y-2.7559
X3.7945Y-2.7559
X3.8945Y-2.7559
X3.9945Y-2.7559
X4.1047Y-5.3031
X4.1047Y-5.4031
X4.1047Y-5.5031
X4.1047Y-5.6031
X4.1047Y-5.7031
X4.2047Y-5.3031
X4.2047Y-5.4031
X4.2047Y-5.5031
X4.2047Y-5.6031
X4.2047Y-5.7031
T5
X2.3524Y-2.4685
X2.4508Y-2.4685
X2.5492Y-2.4685
X2.2638Y-5.0197
X2.3622Y-5.0197
X2.4606Y-5.0197
X1.4764Y-5.0197
X1.5748Y-5.0197
X1.6732Y-5.0197
X1.4764Y-3.4252
X1.5748Y-3.4252
X1.6732Y-3.4252
X1.8701Y-4.2283
X1.9685Y-4.2283
X2.0669Y-4.2283
X1.3878Y-2.4685
X1.4862Y-2.4685
X1.5846Y-2.4685
X2.2638Y-3.4252
X2.3622Y-3.4252
X2.4606Y-3.4252
T7
X1.3898Y-6.4213
X1.7756Y-6.4213
X2.1614Y-6.4213
X2.1614Y-5.7244
X2.5472Y-6.4213
X1.3898Y-5.7244
X2.5472Y-5.7244
X1.7756Y-5.7244
T2
G00X1.376Y-6.2323
M15
G01X1.4035Y-6.2323
M16
G05
G00X1.376Y-6.5551
M15
G01X1.4035Y-6.5551
M16
G05
G00X1.376Y-6.6417
M15
G01X1.4035Y-6.6417
M16
G05
G00X1.7618Y-6.2323
M15
G01X1.7894Y-6.2323
M16
G05
G00X1.7618Y-6.5551
M15
G01X1.7894Y-6.5551
M16
G05
G00X1.7618Y-6.6417
M15
G01X1.7894Y-6.6417
M16
G05
G00X2.1476Y-6.2323
M15
G01X2.1752Y-6.2323
M16
G05
G00X2.1476Y-6.5551
M15
G01X2.1752Y-6.5551
M16
G05
G00X2.1476Y-6.6417
M15
G01X2.1752Y-6.6417
M16
G05
G00X2.1476Y-5.5354
M15
G01X2.1752Y-5.5354
M16
G05
G00X2.1476Y-5.8583
M15
G01X2.1752Y-5.8583
M16
G05
G00X2.1476Y-5.9449
M15
G01X2.1752Y-5.9449
M16
G05
G00X2.5335Y-6.2323
M15
G01X2.561Y-6.2323
M16
G05
G00X2.5335Y-6.5551
M15
G01X2.561Y-6.5551
M16
G05
G00X2.5335Y-6.6417
M15
G01X2.561Y-6.6417
M16
G05
G00X1.376Y-5.5354
M15
G01X1.4035Y-5.5354
M16
G05
G00X1.376Y-5.8583
M15
G01X1.4035Y-5.8583
M16
G05
G00X1.376Y-5.9449
M15
G01X1.4035Y-5.9449
M16
G05
G00X2.5335Y-5.5354
M15
G01X2.561Y-5.5354
M16
G05
G00X2.5335Y-5.8583
M15
G01X2.561Y-5.8583
M16
G05
G00X2.5335Y-5.9449
M15
G01X2.561Y-5.9449
M16
G05
G00X1.7618Y-5.5354
M15
G01X1.7894Y-5.5354
M16
G05
G00X1.7618Y-5.8583
M15
G01X1.7894Y-5.8583
M16
G05
G00X1.7618Y-5.9449
M15
G01X1.7894Y-5.9449
M16
G05
T6
G00X2.2402Y-2.1732
M15
G01X2.2165Y-2.1732
M16
G05
G00X2.685Y-2.1732
M15
G01X2.6614Y-2.1732
M16
G05
G00X2.1516Y-4.7244
M15
G01X2.128Y-4.7244
M16
G05
G00X2.5965Y-4.7244
M15
G01X2.5728Y-4.7244
M16
G05
G00X1.3642Y-4.7244
M15
G01X1.3406Y-4.7244
M16
G05
G00X1.8091Y-4.7244
M15
G01X1.7854Y-4.7244
M16
G05
G00X1.3642Y-3.1299
M15
G01X1.3406Y-3.1299
M16
G05
G00X1.8091Y-3.1299
M15
G01X1.7854Y-3.1299
M16
G05
G00X1.7579Y-3.9331
M15
G01X1.7343Y-3.9331
M16
G05
G00X2.2028Y-3.9331
M15
G01X2.1791Y-3.9331
M16
G05
G00X1.2756Y-2.1732
M15
G01X1.252Y-2.1732
M16
G05
G00X1.7205Y-2.1732
M15
G01X1.6969Y-2.1732
M16
G05
G00X2.1516Y-3.1299
M15
G01X2.128Y-3.1299
M16
G05
G00X2.5965Y-3.1299
M15
G01X2.5728Y-3.1299
M16
G05
T0
M30
