%TF.GenerationSoftware,KiCad,Pcbnew,(5.1.7-0-10_14)*%
%TF.CreationDate,2021-05-28T11:23:36-04:00*%
%TF.ProjectId,SlewLimiter,536c6577-4c69-46d6-9974-65722e6b6963,rev?*%
%TF.SameCoordinates,Original*%
%TF.FileFunction,Legend,Top*%
%TF.FilePolarity,Positive*%
%FSLAX46Y46*%
G04 Gerber Fmt 4.6, Leading zero omitted, Abs format (unit mm)*
G04 Created by KiCad (PCBNEW (5.1.7-0-10_14)) date 2021-05-28 11:23:36*
%MOMM*%
%LPD*%
G01*
G04 APERTURE LIST*
%ADD10C,0.150000*%
%ADD11C,0.120000*%
%ADD12C,0.300000*%
G04 APERTURE END LIST*
D10*
X53090476Y-155985714D02*
X53090476Y-156795238D01*
X53042857Y-156890476D01*
X52995238Y-156938095D01*
X52900000Y-156985714D01*
X52757142Y-156985714D01*
X52661904Y-156938095D01*
X53090476Y-156604761D02*
X52995238Y-156652380D01*
X52804761Y-156652380D01*
X52709523Y-156604761D01*
X52661904Y-156557142D01*
X52614285Y-156461904D01*
X52614285Y-156176190D01*
X52661904Y-156080952D01*
X52709523Y-156033333D01*
X52804761Y-155985714D01*
X52995238Y-155985714D01*
X53090476Y-156033333D01*
X53995238Y-156652380D02*
X53995238Y-156128571D01*
X53947619Y-156033333D01*
X53852380Y-155985714D01*
X53661904Y-155985714D01*
X53566666Y-156033333D01*
X53995238Y-156604761D02*
X53900000Y-156652380D01*
X53661904Y-156652380D01*
X53566666Y-156604761D01*
X53519047Y-156509523D01*
X53519047Y-156414285D01*
X53566666Y-156319047D01*
X53661904Y-156271428D01*
X53900000Y-156271428D01*
X53995238Y-156223809D01*
X54328571Y-155985714D02*
X54709523Y-155985714D01*
X54471428Y-155652380D02*
X54471428Y-156509523D01*
X54519047Y-156604761D01*
X54614285Y-156652380D01*
X54709523Y-156652380D01*
X55423809Y-156604761D02*
X55328571Y-156652380D01*
X55138095Y-156652380D01*
X55042857Y-156604761D01*
X54995238Y-156509523D01*
X54995238Y-156128571D01*
X55042857Y-156033333D01*
X55138095Y-155985714D01*
X55328571Y-155985714D01*
X55423809Y-156033333D01*
X55471428Y-156128571D01*
X55471428Y-156223809D01*
X54995238Y-156319047D01*
X56661904Y-156652380D02*
X56661904Y-155985714D01*
X56661904Y-155652380D02*
X56614285Y-155700000D01*
X56661904Y-155747619D01*
X56709523Y-155700000D01*
X56661904Y-155652380D01*
X56661904Y-155747619D01*
X57138095Y-156652380D02*
X57138095Y-155985714D01*
X57138095Y-155652380D02*
X57090476Y-155700000D01*
X57138095Y-155747619D01*
X57185714Y-155700000D01*
X57138095Y-155652380D01*
X57138095Y-155747619D01*
X43528571Y-155985714D02*
X43528571Y-156795238D01*
X43480952Y-156890476D01*
X43433333Y-156938095D01*
X43338095Y-156985714D01*
X43195238Y-156985714D01*
X43100000Y-156938095D01*
X43528571Y-156604761D02*
X43433333Y-156652380D01*
X43242857Y-156652380D01*
X43147619Y-156604761D01*
X43100000Y-156557142D01*
X43052380Y-156461904D01*
X43052380Y-156176190D01*
X43100000Y-156080952D01*
X43147619Y-156033333D01*
X43242857Y-155985714D01*
X43433333Y-155985714D01*
X43528571Y-156033333D01*
X44433333Y-156652380D02*
X44433333Y-156128571D01*
X44385714Y-156033333D01*
X44290476Y-155985714D01*
X44100000Y-155985714D01*
X44004761Y-156033333D01*
X44433333Y-156604761D02*
X44338095Y-156652380D01*
X44100000Y-156652380D01*
X44004761Y-156604761D01*
X43957142Y-156509523D01*
X43957142Y-156414285D01*
X44004761Y-156319047D01*
X44100000Y-156271428D01*
X44338095Y-156271428D01*
X44433333Y-156223809D01*
X44766666Y-155985714D02*
X45147619Y-155985714D01*
X44909523Y-155652380D02*
X44909523Y-156509523D01*
X44957142Y-156604761D01*
X45052380Y-156652380D01*
X45147619Y-156652380D01*
X45861904Y-156604761D02*
X45766666Y-156652380D01*
X45576190Y-156652380D01*
X45480952Y-156604761D01*
X45433333Y-156509523D01*
X45433333Y-156128571D01*
X45480952Y-156033333D01*
X45576190Y-155985714D01*
X45766666Y-155985714D01*
X45861904Y-156033333D01*
X45909523Y-156128571D01*
X45909523Y-156223809D01*
X45433333Y-156319047D01*
X47100000Y-156652380D02*
X47100000Y-155985714D01*
X47100000Y-155652380D02*
X47052380Y-155700000D01*
X47100000Y-155747619D01*
X47147619Y-155700000D01*
X47100000Y-155652380D01*
X47100000Y-155747619D01*
X63890476Y-155952380D02*
X63795238Y-155904761D01*
X63747619Y-155857142D01*
X63700000Y-155761904D01*
X63700000Y-155476190D01*
X63747619Y-155380952D01*
X63795238Y-155333333D01*
X63890476Y-155285714D01*
X64033333Y-155285714D01*
X64128571Y-155333333D01*
X64176190Y-155380952D01*
X64223809Y-155476190D01*
X64223809Y-155761904D01*
X64176190Y-155857142D01*
X64128571Y-155904761D01*
X64033333Y-155952380D01*
X63890476Y-155952380D01*
X65080952Y-155285714D02*
X65080952Y-155952380D01*
X64652380Y-155285714D02*
X64652380Y-155809523D01*
X64700000Y-155904761D01*
X64795238Y-155952380D01*
X64938095Y-155952380D01*
X65033333Y-155904761D01*
X65080952Y-155857142D01*
X65414285Y-155285714D02*
X65795238Y-155285714D01*
X65557142Y-154952380D02*
X65557142Y-155809523D01*
X65604761Y-155904761D01*
X65700000Y-155952380D01*
X65795238Y-155952380D01*
X34847619Y-155952380D02*
X34847619Y-155285714D01*
X34847619Y-154952380D02*
X34800000Y-155000000D01*
X34847619Y-155047619D01*
X34895238Y-155000000D01*
X34847619Y-154952380D01*
X34847619Y-155047619D01*
X35323809Y-155285714D02*
X35323809Y-155952380D01*
X35323809Y-155380952D02*
X35371428Y-155333333D01*
X35466666Y-155285714D01*
X35609523Y-155285714D01*
X35704761Y-155333333D01*
X35752380Y-155428571D01*
X35752380Y-155952380D01*
X62342857Y-137685714D02*
X62723809Y-137685714D01*
X62485714Y-138352380D02*
X62485714Y-137495238D01*
X62533333Y-137400000D01*
X62628571Y-137352380D01*
X62723809Y-137352380D01*
X63485714Y-138352380D02*
X63485714Y-137828571D01*
X63438095Y-137733333D01*
X63342857Y-137685714D01*
X63152380Y-137685714D01*
X63057142Y-137733333D01*
X63485714Y-138304761D02*
X63390476Y-138352380D01*
X63152380Y-138352380D01*
X63057142Y-138304761D01*
X63009523Y-138209523D01*
X63009523Y-138114285D01*
X63057142Y-138019047D01*
X63152380Y-137971428D01*
X63390476Y-137971428D01*
X63485714Y-137923809D01*
X64104761Y-138352380D02*
X64009523Y-138304761D01*
X63961904Y-138209523D01*
X63961904Y-137352380D01*
X64628571Y-138352380D02*
X64533333Y-138304761D01*
X64485714Y-138209523D01*
X64485714Y-137352380D01*
X66200000Y-138304761D02*
X66104761Y-138352380D01*
X65914285Y-138352380D01*
X65819047Y-138304761D01*
X65771428Y-138257142D01*
X65723809Y-138161904D01*
X65723809Y-137876190D01*
X65771428Y-137780952D01*
X65819047Y-137733333D01*
X65914285Y-137685714D01*
X66104761Y-137685714D01*
X66200000Y-137733333D01*
X66533333Y-137685714D02*
X66771428Y-138352380D01*
X67009523Y-137685714D01*
X33066666Y-138352380D02*
X33066666Y-137685714D01*
X33066666Y-137876190D02*
X33114285Y-137780952D01*
X33161904Y-137733333D01*
X33257142Y-137685714D01*
X33352380Y-137685714D01*
X33685714Y-138352380D02*
X33685714Y-137685714D01*
X33685714Y-137352380D02*
X33638095Y-137400000D01*
X33685714Y-137447619D01*
X33733333Y-137400000D01*
X33685714Y-137352380D01*
X33685714Y-137447619D01*
X34114285Y-138304761D02*
X34209523Y-138352380D01*
X34400000Y-138352380D01*
X34495238Y-138304761D01*
X34542857Y-138209523D01*
X34542857Y-138161904D01*
X34495238Y-138066666D01*
X34400000Y-138019047D01*
X34257142Y-138019047D01*
X34161904Y-137971428D01*
X34114285Y-137876190D01*
X34114285Y-137828571D01*
X34161904Y-137733333D01*
X34257142Y-137685714D01*
X34400000Y-137685714D01*
X34495238Y-137733333D01*
X35352380Y-138304761D02*
X35257142Y-138352380D01*
X35066666Y-138352380D01*
X34971428Y-138304761D01*
X34923809Y-138209523D01*
X34923809Y-137828571D01*
X34971428Y-137733333D01*
X35066666Y-137685714D01*
X35257142Y-137685714D01*
X35352380Y-137733333D01*
X35400000Y-137828571D01*
X35400000Y-137923809D01*
X34923809Y-138019047D01*
X37019047Y-138304761D02*
X36923809Y-138352380D01*
X36733333Y-138352380D01*
X36638095Y-138304761D01*
X36590476Y-138257142D01*
X36542857Y-138161904D01*
X36542857Y-137876190D01*
X36590476Y-137780952D01*
X36638095Y-137733333D01*
X36733333Y-137685714D01*
X36923809Y-137685714D01*
X37019047Y-137733333D01*
X37352380Y-137685714D02*
X37590476Y-138352380D01*
X37828571Y-137685714D01*
D11*
X44100000Y-138800000D02*
X44400000Y-139200000D01*
X43800000Y-138800000D02*
X44100000Y-139200000D01*
X43300000Y-136800000D02*
X43600000Y-137200000D01*
X43900000Y-137200000D02*
X43600000Y-136800000D01*
X55600000Y-138800000D02*
X55300000Y-139200000D01*
X56200000Y-137200000D02*
X56500000Y-136800000D01*
X55900000Y-137200000D02*
X56200000Y-136800000D01*
X55900000Y-138800000D02*
X55600000Y-139200000D01*
D10*
X43228571Y-138304761D02*
X43133333Y-138352380D01*
X42942857Y-138352380D01*
X42847619Y-138304761D01*
X42800000Y-138209523D01*
X42800000Y-137828571D01*
X42847619Y-137733333D01*
X42942857Y-137685714D01*
X43133333Y-137685714D01*
X43228571Y-137733333D01*
X43276190Y-137828571D01*
X43276190Y-137923809D01*
X42800000Y-138019047D01*
X43847619Y-138352380D02*
X43752380Y-138304761D01*
X43704761Y-138257142D01*
X43657142Y-138161904D01*
X43657142Y-137876190D01*
X43704761Y-137780952D01*
X43752380Y-137733333D01*
X43847619Y-137685714D01*
X43990476Y-137685714D01*
X44085714Y-137733333D01*
X44133333Y-137780952D01*
X44180952Y-137876190D01*
X44180952Y-138161904D01*
X44133333Y-138257142D01*
X44085714Y-138304761D01*
X43990476Y-138352380D01*
X43847619Y-138352380D01*
X44609523Y-138352380D02*
X44609523Y-137685714D01*
X44609523Y-137876190D02*
X44657142Y-137780952D01*
X44704761Y-137733333D01*
X44800000Y-137685714D01*
X44895238Y-137685714D01*
X55309523Y-138304761D02*
X55214285Y-138352380D01*
X55023809Y-138352380D01*
X54928571Y-138304761D01*
X54880952Y-138209523D01*
X54880952Y-137828571D01*
X54928571Y-137733333D01*
X55023809Y-137685714D01*
X55214285Y-137685714D01*
X55309523Y-137733333D01*
X55357142Y-137828571D01*
X55357142Y-137923809D01*
X54880952Y-138019047D01*
X55928571Y-138352380D02*
X55833333Y-138304761D01*
X55785714Y-138257142D01*
X55738095Y-138161904D01*
X55738095Y-137876190D01*
X55785714Y-137780952D01*
X55833333Y-137733333D01*
X55928571Y-137685714D01*
X56071428Y-137685714D01*
X56166666Y-137733333D01*
X56214285Y-137780952D01*
X56261904Y-137876190D01*
X56261904Y-138161904D01*
X56214285Y-138257142D01*
X56166666Y-138304761D01*
X56071428Y-138352380D01*
X55928571Y-138352380D01*
X57119047Y-138304761D02*
X57023809Y-138352380D01*
X56833333Y-138352380D01*
X56738095Y-138304761D01*
X56690476Y-138257142D01*
X56642857Y-138161904D01*
X56642857Y-137876190D01*
X56690476Y-137780952D01*
X56738095Y-137733333D01*
X56833333Y-137685714D01*
X57023809Y-137685714D01*
X57119047Y-137733333D01*
X61333333Y-129160714D02*
X61714285Y-129160714D01*
X61476190Y-129827380D02*
X61476190Y-128970238D01*
X61523809Y-128875000D01*
X61619047Y-128827380D01*
X61714285Y-128827380D01*
X62476190Y-129827380D02*
X62476190Y-129303571D01*
X62428571Y-129208333D01*
X62333333Y-129160714D01*
X62142857Y-129160714D01*
X62047619Y-129208333D01*
X62476190Y-129779761D02*
X62380952Y-129827380D01*
X62142857Y-129827380D01*
X62047619Y-129779761D01*
X62000000Y-129684523D01*
X62000000Y-129589285D01*
X62047619Y-129494047D01*
X62142857Y-129446428D01*
X62380952Y-129446428D01*
X62476190Y-129398809D01*
X63095238Y-129827380D02*
X63000000Y-129779761D01*
X62952380Y-129684523D01*
X62952380Y-128827380D01*
X63619047Y-129827380D02*
X63523809Y-129779761D01*
X63476190Y-129684523D01*
X63476190Y-128827380D01*
X60500000Y-131429761D02*
X60595238Y-131477380D01*
X60785714Y-131477380D01*
X60880952Y-131429761D01*
X60928571Y-131334523D01*
X60928571Y-131286904D01*
X60880952Y-131191666D01*
X60785714Y-131144047D01*
X60642857Y-131144047D01*
X60547619Y-131096428D01*
X60500000Y-131001190D01*
X60500000Y-130953571D01*
X60547619Y-130858333D01*
X60642857Y-130810714D01*
X60785714Y-130810714D01*
X60880952Y-130858333D01*
X61357142Y-131477380D02*
X61357142Y-130477380D01*
X61785714Y-131477380D02*
X61785714Y-130953571D01*
X61738095Y-130858333D01*
X61642857Y-130810714D01*
X61500000Y-130810714D01*
X61404761Y-130858333D01*
X61357142Y-130905952D01*
X62690476Y-131477380D02*
X62690476Y-130953571D01*
X62642857Y-130858333D01*
X62547619Y-130810714D01*
X62357142Y-130810714D01*
X62261904Y-130858333D01*
X62690476Y-131429761D02*
X62595238Y-131477380D01*
X62357142Y-131477380D01*
X62261904Y-131429761D01*
X62214285Y-131334523D01*
X62214285Y-131239285D01*
X62261904Y-131144047D01*
X62357142Y-131096428D01*
X62595238Y-131096428D01*
X62690476Y-131048809D01*
X63166666Y-130810714D02*
X63166666Y-131810714D01*
X63166666Y-130858333D02*
X63261904Y-130810714D01*
X63452380Y-130810714D01*
X63547619Y-130858333D01*
X63595238Y-130905952D01*
X63642857Y-131001190D01*
X63642857Y-131286904D01*
X63595238Y-131382142D01*
X63547619Y-131429761D01*
X63452380Y-131477380D01*
X63261904Y-131477380D01*
X63166666Y-131429761D01*
X64452380Y-131429761D02*
X64357142Y-131477380D01*
X64166666Y-131477380D01*
X64071428Y-131429761D01*
X64023809Y-131334523D01*
X64023809Y-130953571D01*
X64071428Y-130858333D01*
X64166666Y-130810714D01*
X64357142Y-130810714D01*
X64452380Y-130858333D01*
X64499999Y-130953571D01*
X64499999Y-131048809D01*
X64023809Y-131144047D01*
X36257142Y-129827380D02*
X36257142Y-129160714D01*
X36257142Y-129351190D02*
X36304761Y-129255952D01*
X36352380Y-129208333D01*
X36447619Y-129160714D01*
X36542857Y-129160714D01*
X36876190Y-129827380D02*
X36876190Y-129160714D01*
X36876190Y-128827380D02*
X36828571Y-128875000D01*
X36876190Y-128922619D01*
X36923809Y-128875000D01*
X36876190Y-128827380D01*
X36876190Y-128922619D01*
X37304761Y-129779761D02*
X37400000Y-129827380D01*
X37590476Y-129827380D01*
X37685714Y-129779761D01*
X37733333Y-129684523D01*
X37733333Y-129636904D01*
X37685714Y-129541666D01*
X37590476Y-129494047D01*
X37447619Y-129494047D01*
X37352380Y-129446428D01*
X37304761Y-129351190D01*
X37304761Y-129303571D01*
X37352380Y-129208333D01*
X37447619Y-129160714D01*
X37590476Y-129160714D01*
X37685714Y-129208333D01*
X38542857Y-129779761D02*
X38447619Y-129827380D01*
X38257142Y-129827380D01*
X38161904Y-129779761D01*
X38114285Y-129684523D01*
X38114285Y-129303571D01*
X38161904Y-129208333D01*
X38257142Y-129160714D01*
X38447619Y-129160714D01*
X38542857Y-129208333D01*
X38590476Y-129303571D01*
X38590476Y-129398809D01*
X38114285Y-129494047D01*
X35400000Y-131429761D02*
X35495238Y-131477380D01*
X35685714Y-131477380D01*
X35780952Y-131429761D01*
X35828571Y-131334523D01*
X35828571Y-131286904D01*
X35780952Y-131191666D01*
X35685714Y-131144047D01*
X35542857Y-131144047D01*
X35447619Y-131096428D01*
X35400000Y-131001190D01*
X35400000Y-130953571D01*
X35447619Y-130858333D01*
X35542857Y-130810714D01*
X35685714Y-130810714D01*
X35780952Y-130858333D01*
X36257142Y-131477380D02*
X36257142Y-130477380D01*
X36685714Y-131477380D02*
X36685714Y-130953571D01*
X36638095Y-130858333D01*
X36542857Y-130810714D01*
X36400000Y-130810714D01*
X36304761Y-130858333D01*
X36257142Y-130905952D01*
X37590476Y-131477380D02*
X37590476Y-130953571D01*
X37542857Y-130858333D01*
X37447619Y-130810714D01*
X37257142Y-130810714D01*
X37161904Y-130858333D01*
X37590476Y-131429761D02*
X37495238Y-131477380D01*
X37257142Y-131477380D01*
X37161904Y-131429761D01*
X37114285Y-131334523D01*
X37114285Y-131239285D01*
X37161904Y-131144047D01*
X37257142Y-131096428D01*
X37495238Y-131096428D01*
X37590476Y-131048809D01*
X38066666Y-130810714D02*
X38066666Y-131810714D01*
X38066666Y-130858333D02*
X38161904Y-130810714D01*
X38352380Y-130810714D01*
X38447619Y-130858333D01*
X38495238Y-130905952D01*
X38542857Y-131001190D01*
X38542857Y-131286904D01*
X38495238Y-131382142D01*
X38447619Y-131429761D01*
X38352380Y-131477380D01*
X38161904Y-131477380D01*
X38066666Y-131429761D01*
X39352380Y-131429761D02*
X39257142Y-131477380D01*
X39066666Y-131477380D01*
X38971428Y-131429761D01*
X38923809Y-131334523D01*
X38923809Y-130953571D01*
X38971428Y-130858333D01*
X39066666Y-130810714D01*
X39257142Y-130810714D01*
X39352380Y-130858333D01*
X39399999Y-130953571D01*
X39399999Y-131048809D01*
X38923809Y-131144047D01*
D12*
X46250000Y-110407142D02*
X46392857Y-110478571D01*
X46678571Y-110478571D01*
X46821428Y-110407142D01*
X46892857Y-110264285D01*
X46892857Y-110192857D01*
X46821428Y-110050000D01*
X46678571Y-109978571D01*
X46464285Y-109978571D01*
X46321428Y-109907142D01*
X46250000Y-109764285D01*
X46250000Y-109692857D01*
X46321428Y-109550000D01*
X46464285Y-109478571D01*
X46678571Y-109478571D01*
X46821428Y-109550000D01*
X48178571Y-109478571D02*
X48178571Y-110478571D01*
X47535714Y-109478571D02*
X47535714Y-110264285D01*
X47607142Y-110407142D01*
X47750000Y-110478571D01*
X47964285Y-110478571D01*
X48107142Y-110407142D01*
X48178571Y-110335714D01*
X48821428Y-110407142D02*
X48964285Y-110478571D01*
X49250000Y-110478571D01*
X49392857Y-110407142D01*
X49464285Y-110264285D01*
X49464285Y-110192857D01*
X49392857Y-110050000D01*
X49250000Y-109978571D01*
X49035714Y-109978571D01*
X48892857Y-109907142D01*
X48821428Y-109764285D01*
X48821428Y-109692857D01*
X48892857Y-109550000D01*
X49035714Y-109478571D01*
X49250000Y-109478571D01*
X49392857Y-109550000D01*
X49892857Y-109478571D02*
X50464285Y-109478571D01*
X50107142Y-108978571D02*
X50107142Y-110264285D01*
X50178571Y-110407142D01*
X50321428Y-110478571D01*
X50464285Y-110478571D01*
X51607142Y-110478571D02*
X51607142Y-109692857D01*
X51535714Y-109550000D01*
X51392857Y-109478571D01*
X51107142Y-109478571D01*
X50964285Y-109550000D01*
X51607142Y-110407142D02*
X51464285Y-110478571D01*
X51107142Y-110478571D01*
X50964285Y-110407142D01*
X50892857Y-110264285D01*
X50892857Y-110121428D01*
X50964285Y-109978571D01*
X51107142Y-109907142D01*
X51464285Y-109907142D01*
X51607142Y-109835714D01*
X52321428Y-110478571D02*
X52321428Y-109478571D01*
X52321428Y-108978571D02*
X52250000Y-109050000D01*
X52321428Y-109121428D01*
X52392857Y-109050000D01*
X52321428Y-108978571D01*
X52321428Y-109121428D01*
X53035714Y-109478571D02*
X53035714Y-110478571D01*
X53035714Y-109621428D02*
X53107142Y-109550000D01*
X53250000Y-109478571D01*
X53464285Y-109478571D01*
X53607142Y-109550000D01*
X53678571Y-109692857D01*
X53678571Y-110478571D01*
X56464285Y-88978571D02*
X57035714Y-88978571D01*
X56678571Y-89978571D02*
X56678571Y-88692857D01*
X56750000Y-88550000D01*
X56892857Y-88478571D01*
X57035714Y-88478571D01*
X58178571Y-89978571D02*
X58178571Y-89192857D01*
X58107142Y-89050000D01*
X57964285Y-88978571D01*
X57678571Y-88978571D01*
X57535714Y-89050000D01*
X58178571Y-89907142D02*
X58035714Y-89978571D01*
X57678571Y-89978571D01*
X57535714Y-89907142D01*
X57464285Y-89764285D01*
X57464285Y-89621428D01*
X57535714Y-89478571D01*
X57678571Y-89407142D01*
X58035714Y-89407142D01*
X58178571Y-89335714D01*
X59107142Y-89978571D02*
X58964285Y-89907142D01*
X58892857Y-89764285D01*
X58892857Y-88478571D01*
X59892857Y-89978571D02*
X59750000Y-89907142D01*
X59678571Y-89764285D01*
X59678571Y-88478571D01*
X62250000Y-89907142D02*
X62107142Y-89978571D01*
X61821428Y-89978571D01*
X61678571Y-89907142D01*
X61607142Y-89835714D01*
X61535714Y-89692857D01*
X61535714Y-89264285D01*
X61607142Y-89121428D01*
X61678571Y-89050000D01*
X61821428Y-88978571D01*
X62107142Y-88978571D01*
X62250000Y-89050000D01*
X62750000Y-88978571D02*
X63107142Y-89978571D01*
X63464285Y-88978571D01*
X36500000Y-90178571D02*
X36500000Y-89178571D01*
X36500000Y-89464285D02*
X36571428Y-89321428D01*
X36642857Y-89250000D01*
X36785714Y-89178571D01*
X36928571Y-89178571D01*
X37428571Y-90178571D02*
X37428571Y-89178571D01*
X37428571Y-88678571D02*
X37357142Y-88750000D01*
X37428571Y-88821428D01*
X37500000Y-88750000D01*
X37428571Y-88678571D01*
X37428571Y-88821428D01*
X38071428Y-90107142D02*
X38214285Y-90178571D01*
X38500000Y-90178571D01*
X38642857Y-90107142D01*
X38714285Y-89964285D01*
X38714285Y-89892857D01*
X38642857Y-89750000D01*
X38500000Y-89678571D01*
X38285714Y-89678571D01*
X38142857Y-89607142D01*
X38071428Y-89464285D01*
X38071428Y-89392857D01*
X38142857Y-89250000D01*
X38285714Y-89178571D01*
X38500000Y-89178571D01*
X38642857Y-89250000D01*
X39928571Y-90107142D02*
X39785714Y-90178571D01*
X39500000Y-90178571D01*
X39357142Y-90107142D01*
X39285714Y-89964285D01*
X39285714Y-89392857D01*
X39357142Y-89250000D01*
X39500000Y-89178571D01*
X39785714Y-89178571D01*
X39928571Y-89250000D01*
X40000000Y-89392857D01*
X40000000Y-89535714D01*
X39285714Y-89678571D01*
X42428571Y-90107142D02*
X42285714Y-90178571D01*
X42000000Y-90178571D01*
X41857142Y-90107142D01*
X41785714Y-90035714D01*
X41714285Y-89892857D01*
X41714285Y-89464285D01*
X41785714Y-89321428D01*
X41857142Y-89250000D01*
X42000000Y-89178571D01*
X42285714Y-89178571D01*
X42428571Y-89250000D01*
X42928571Y-89178571D02*
X43285714Y-90178571D01*
X43642857Y-89178571D01*
D10*
X47119047Y-67285714D02*
X47119047Y-67952380D01*
X47119047Y-67380952D02*
X47166666Y-67333333D01*
X47261904Y-67285714D01*
X47404761Y-67285714D01*
X47500000Y-67333333D01*
X47547619Y-67428571D01*
X47547619Y-67952380D01*
X48404761Y-67904761D02*
X48309523Y-67952380D01*
X48119047Y-67952380D01*
X48023809Y-67904761D01*
X47976190Y-67809523D01*
X47976190Y-67428571D01*
X48023809Y-67333333D01*
X48119047Y-67285714D01*
X48309523Y-67285714D01*
X48404761Y-67333333D01*
X48452380Y-67428571D01*
X48452380Y-67523809D01*
X47976190Y-67619047D01*
X49309523Y-67285714D02*
X49309523Y-68095238D01*
X49261904Y-68190476D01*
X49214285Y-68238095D01*
X49119047Y-68285714D01*
X48976190Y-68285714D01*
X48880952Y-68238095D01*
X49309523Y-67904761D02*
X49214285Y-67952380D01*
X49023809Y-67952380D01*
X48928571Y-67904761D01*
X48880952Y-67857142D01*
X48833333Y-67761904D01*
X48833333Y-67476190D01*
X48880952Y-67380952D01*
X48928571Y-67333333D01*
X49023809Y-67285714D01*
X49214285Y-67285714D01*
X49309523Y-67333333D01*
X50214285Y-67952380D02*
X50214285Y-67428571D01*
X50166666Y-67333333D01*
X50071428Y-67285714D01*
X49880952Y-67285714D01*
X49785714Y-67333333D01*
X50214285Y-67904761D02*
X50119047Y-67952380D01*
X49880952Y-67952380D01*
X49785714Y-67904761D01*
X49738095Y-67809523D01*
X49738095Y-67714285D01*
X49785714Y-67619047D01*
X49880952Y-67571428D01*
X50119047Y-67571428D01*
X50214285Y-67523809D01*
X50547619Y-67285714D02*
X50928571Y-67285714D01*
X50690476Y-66952380D02*
X50690476Y-67809523D01*
X50738095Y-67904761D01*
X50833333Y-67952380D01*
X50928571Y-67952380D01*
X51261904Y-67952380D02*
X51261904Y-67285714D01*
X51261904Y-66952380D02*
X51214285Y-67000000D01*
X51261904Y-67047619D01*
X51309523Y-67000000D01*
X51261904Y-66952380D01*
X51261904Y-67047619D01*
X51642857Y-67285714D02*
X51880952Y-67952380D01*
X52119047Y-67285714D01*
X52880952Y-67904761D02*
X52785714Y-67952380D01*
X52595238Y-67952380D01*
X52500000Y-67904761D01*
X52452380Y-67809523D01*
X52452380Y-67428571D01*
X52500000Y-67333333D01*
X52595238Y-67285714D01*
X52785714Y-67285714D01*
X52880952Y-67333333D01*
X52928571Y-67428571D01*
X52928571Y-67523809D01*
X52452380Y-67619047D01*
X47357142Y-58485714D02*
X47357142Y-59485714D01*
X47357142Y-58533333D02*
X47452380Y-58485714D01*
X47642857Y-58485714D01*
X47738095Y-58533333D01*
X47785714Y-58580952D01*
X47833333Y-58676190D01*
X47833333Y-58961904D01*
X47785714Y-59057142D01*
X47738095Y-59104761D01*
X47642857Y-59152380D01*
X47452380Y-59152380D01*
X47357142Y-59104761D01*
X48404761Y-59152380D02*
X48309523Y-59104761D01*
X48261904Y-59057142D01*
X48214285Y-58961904D01*
X48214285Y-58676190D01*
X48261904Y-58580952D01*
X48309523Y-58533333D01*
X48404761Y-58485714D01*
X48547619Y-58485714D01*
X48642857Y-58533333D01*
X48690476Y-58580952D01*
X48738095Y-58676190D01*
X48738095Y-58961904D01*
X48690476Y-59057142D01*
X48642857Y-59104761D01*
X48547619Y-59152380D01*
X48404761Y-59152380D01*
X49119047Y-59104761D02*
X49214285Y-59152380D01*
X49404761Y-59152380D01*
X49500000Y-59104761D01*
X49547619Y-59009523D01*
X49547619Y-58961904D01*
X49500000Y-58866666D01*
X49404761Y-58819047D01*
X49261904Y-58819047D01*
X49166666Y-58771428D01*
X49119047Y-58676190D01*
X49119047Y-58628571D01*
X49166666Y-58533333D01*
X49261904Y-58485714D01*
X49404761Y-58485714D01*
X49500000Y-58533333D01*
X49976190Y-59152380D02*
X49976190Y-58485714D01*
X49976190Y-58152380D02*
X49928571Y-58200000D01*
X49976190Y-58247619D01*
X50023809Y-58200000D01*
X49976190Y-58152380D01*
X49976190Y-58247619D01*
X50309523Y-58485714D02*
X50690476Y-58485714D01*
X50452380Y-58152380D02*
X50452380Y-59009523D01*
X50500000Y-59104761D01*
X50595238Y-59152380D01*
X50690476Y-59152380D01*
X51023809Y-59152380D02*
X51023809Y-58485714D01*
X51023809Y-58152380D02*
X50976190Y-58200000D01*
X51023809Y-58247619D01*
X51071428Y-58200000D01*
X51023809Y-58152380D01*
X51023809Y-58247619D01*
X51404761Y-58485714D02*
X51642857Y-59152380D01*
X51880952Y-58485714D01*
X52642857Y-59104761D02*
X52547619Y-59152380D01*
X52357142Y-59152380D01*
X52261904Y-59104761D01*
X52214285Y-59009523D01*
X52214285Y-58628571D01*
X52261904Y-58533333D01*
X52357142Y-58485714D01*
X52547619Y-58485714D01*
X52642857Y-58533333D01*
X52690476Y-58628571D01*
X52690476Y-58723809D01*
X52214285Y-58819047D01*
D12*
X35985714Y-65878571D02*
X35985714Y-64878571D01*
X35985714Y-65164285D02*
X36057142Y-65021428D01*
X36128571Y-64950000D01*
X36271428Y-64878571D01*
X36414285Y-64878571D01*
X36914285Y-65878571D02*
X36914285Y-64878571D01*
X36914285Y-64378571D02*
X36842857Y-64450000D01*
X36914285Y-64521428D01*
X36985714Y-64450000D01*
X36914285Y-64378571D01*
X36914285Y-64521428D01*
X37557142Y-65807142D02*
X37700000Y-65878571D01*
X37985714Y-65878571D01*
X38128571Y-65807142D01*
X38200000Y-65664285D01*
X38200000Y-65592857D01*
X38128571Y-65450000D01*
X37985714Y-65378571D01*
X37771428Y-65378571D01*
X37628571Y-65307142D01*
X37557142Y-65164285D01*
X37557142Y-65092857D01*
X37628571Y-64950000D01*
X37771428Y-64878571D01*
X37985714Y-64878571D01*
X38128571Y-64950000D01*
X39414285Y-65807142D02*
X39271428Y-65878571D01*
X38985714Y-65878571D01*
X38842857Y-65807142D01*
X38771428Y-65664285D01*
X38771428Y-65092857D01*
X38842857Y-64950000D01*
X38985714Y-64878571D01*
X39271428Y-64878571D01*
X39414285Y-64950000D01*
X39485714Y-65092857D01*
X39485714Y-65235714D01*
X38771428Y-65378571D01*
X60550000Y-65078571D02*
X61121428Y-65078571D01*
X60764285Y-66078571D02*
X60764285Y-64792857D01*
X60835714Y-64650000D01*
X60978571Y-64578571D01*
X61121428Y-64578571D01*
X62264285Y-66078571D02*
X62264285Y-65292857D01*
X62192857Y-65150000D01*
X62050000Y-65078571D01*
X61764285Y-65078571D01*
X61621428Y-65150000D01*
X62264285Y-66007142D02*
X62121428Y-66078571D01*
X61764285Y-66078571D01*
X61621428Y-66007142D01*
X61550000Y-65864285D01*
X61550000Y-65721428D01*
X61621428Y-65578571D01*
X61764285Y-65507142D01*
X62121428Y-65507142D01*
X62264285Y-65435714D01*
X63192857Y-66078571D02*
X63050000Y-66007142D01*
X62978571Y-65864285D01*
X62978571Y-64578571D01*
X63978571Y-66078571D02*
X63835714Y-66007142D01*
X63764285Y-65864285D01*
X63764285Y-64578571D01*
D11*
%TO.C,D303*%
X47440000Y-61855000D02*
X47440000Y-64945000D01*
X52500000Y-63400000D02*
G75*
G03*
X52500000Y-63400000I-2500000J0D01*
G01*
X52990000Y-63399538D02*
G75*
G02*
X47440000Y-64944830I-2990000J-462D01*
G01*
X52990000Y-63400462D02*
G75*
G03*
X47440000Y-61855170I-2990000J462D01*
G01*
%TO.C,U202*%
X79100000Y-78840000D02*
X75650000Y-78840000D01*
X79100000Y-78840000D02*
X81050000Y-78840000D01*
X79100000Y-83960000D02*
X77150000Y-83960000D01*
X79100000Y-83960000D02*
X81050000Y-83960000D01*
%TO.C,U201*%
X100300000Y-79140000D02*
X96850000Y-79140000D01*
X100300000Y-79140000D02*
X102250000Y-79140000D01*
X100300000Y-84260000D02*
X98350000Y-84260000D01*
X100300000Y-84260000D02*
X102250000Y-84260000D01*
%TO.C,U105*%
X87925000Y-110445000D02*
X84475000Y-110445000D01*
X87925000Y-110445000D02*
X89875000Y-110445000D01*
X87925000Y-115565000D02*
X85975000Y-115565000D01*
X87925000Y-115565000D02*
X89875000Y-115565000D01*
%TO.C,U104*%
X75525000Y-52445000D02*
X72075000Y-52445000D01*
X75525000Y-52445000D02*
X77475000Y-52445000D01*
X75525000Y-57565000D02*
X73575000Y-57565000D01*
X75525000Y-57565000D02*
X77475000Y-57565000D01*
%TO.C,U103*%
X90100000Y-123840000D02*
X86650000Y-123840000D01*
X90100000Y-123840000D02*
X92050000Y-123840000D01*
X90100000Y-128960000D02*
X88150000Y-128960000D01*
X90100000Y-128960000D02*
X92050000Y-128960000D01*
%TO.C,U102*%
X87625000Y-96475000D02*
X84175000Y-96475000D01*
X87625000Y-96475000D02*
X89575000Y-96475000D01*
X87625000Y-101595000D02*
X85675000Y-101595000D01*
X87625000Y-101595000D02*
X89575000Y-101595000D01*
%TO.C,U101*%
X89725000Y-52445000D02*
X86275000Y-52445000D01*
X89725000Y-52445000D02*
X91675000Y-52445000D01*
X89725000Y-57565000D02*
X87775000Y-57565000D01*
X89725000Y-57565000D02*
X91675000Y-57565000D01*
%TO.C,RV307*%
X64000000Y-120000000D02*
X64000000Y-126300000D01*
X64000000Y-126300000D02*
X56000000Y-126300000D01*
X56000000Y-126300000D02*
X56000000Y-120000000D01*
X56000000Y-120000000D02*
X56000000Y-115200000D01*
X56000000Y-115200000D02*
X64000000Y-115200000D01*
X64000000Y-115200000D02*
X64000000Y-120000000D01*
X63180000Y-119900000D02*
G75*
G03*
X63180000Y-119900000I-3180000J0D01*
G01*
%TO.C,RV306*%
X64000000Y-79500000D02*
X64000000Y-85800000D01*
X64000000Y-85800000D02*
X56000000Y-85800000D01*
X56000000Y-85800000D02*
X56000000Y-79500000D01*
X56000000Y-79500000D02*
X56000000Y-74700000D01*
X56000000Y-74700000D02*
X64000000Y-74700000D01*
X64000000Y-74700000D02*
X64000000Y-79500000D01*
X63180000Y-79400000D02*
G75*
G03*
X63180000Y-79400000I-3180000J0D01*
G01*
%TO.C,RV305*%
X66250000Y-55200000D02*
X66250000Y-61500000D01*
X66250000Y-61500000D02*
X58250000Y-61500000D01*
X58250000Y-61500000D02*
X58250000Y-55200000D01*
X58250000Y-55200000D02*
X58250000Y-50400000D01*
X58250000Y-50400000D02*
X66250000Y-50400000D01*
X66250000Y-50400000D02*
X66250000Y-55200000D01*
X65430000Y-55100000D02*
G75*
G03*
X65430000Y-55100000I-3180000J0D01*
G01*
%TO.C,RV304*%
X54000000Y-99900000D02*
X54000000Y-106200000D01*
X54000000Y-106200000D02*
X46000000Y-106200000D01*
X46000000Y-106200000D02*
X46000000Y-99900000D01*
X46000000Y-99900000D02*
X46000000Y-95100000D01*
X46000000Y-95100000D02*
X54000000Y-95100000D01*
X54000000Y-95100000D02*
X54000000Y-99900000D01*
X53180000Y-99800000D02*
G75*
G03*
X53180000Y-99800000I-3180000J0D01*
G01*
%TO.C,RV303*%
X44000000Y-120000000D02*
X44000000Y-126300000D01*
X44000000Y-126300000D02*
X36000000Y-126300000D01*
X36000000Y-126300000D02*
X36000000Y-120000000D01*
X36000000Y-120000000D02*
X36000000Y-115200000D01*
X36000000Y-115200000D02*
X44000000Y-115200000D01*
X44000000Y-115200000D02*
X44000000Y-120000000D01*
X43180000Y-119900000D02*
G75*
G03*
X43180000Y-119900000I-3180000J0D01*
G01*
%TO.C,RV302*%
X44000000Y-79500000D02*
X44000000Y-85800000D01*
X44000000Y-85800000D02*
X36000000Y-85800000D01*
X36000000Y-85800000D02*
X36000000Y-79500000D01*
X36000000Y-79500000D02*
X36000000Y-74700000D01*
X36000000Y-74700000D02*
X44000000Y-74700000D01*
X44000000Y-74700000D02*
X44000000Y-79500000D01*
X43180000Y-79400000D02*
G75*
G03*
X43180000Y-79400000I-3180000J0D01*
G01*
%TO.C,RV301*%
X41750000Y-55200000D02*
X41750000Y-61500000D01*
X41750000Y-61500000D02*
X33750000Y-61500000D01*
X33750000Y-61500000D02*
X33750000Y-55200000D01*
X33750000Y-55200000D02*
X33750000Y-50400000D01*
X33750000Y-50400000D02*
X41750000Y-50400000D01*
X41750000Y-50400000D02*
X41750000Y-55200000D01*
X40930000Y-55100000D02*
G75*
G03*
X40930000Y-55100000I-3180000J0D01*
G01*
%TO.C,R302*%
X48980000Y-135363641D02*
X48980000Y-135056359D01*
X48220000Y-135363641D02*
X48220000Y-135056359D01*
%TO.C,R301*%
X52780000Y-135353641D02*
X52780000Y-135046359D01*
X52020000Y-135353641D02*
X52020000Y-135046359D01*
%TO.C,R219*%
X85636359Y-76180000D02*
X85943641Y-76180000D01*
X85636359Y-75420000D02*
X85943641Y-75420000D01*
%TO.C,R218*%
X106643641Y-78720000D02*
X106336359Y-78720000D01*
X106643641Y-79480000D02*
X106336359Y-79480000D01*
%TO.C,R217*%
X85920000Y-77236359D02*
X85920000Y-77543641D01*
X86680000Y-77236359D02*
X86680000Y-77543641D01*
%TO.C,R216*%
X86580000Y-73163641D02*
X86580000Y-72856359D01*
X85820000Y-73163641D02*
X85820000Y-72856359D01*
%TO.C,R215*%
X104420000Y-79436359D02*
X104420000Y-79743641D01*
X105180000Y-79436359D02*
X105180000Y-79743641D01*
%TO.C,R214*%
X96680000Y-73463641D02*
X96680000Y-73156359D01*
X95920000Y-73463641D02*
X95920000Y-73156359D01*
%TO.C,R213*%
X83220000Y-81236359D02*
X83220000Y-81543641D01*
X83980000Y-81236359D02*
X83980000Y-81543641D01*
%TO.C,R212*%
X104420000Y-81536359D02*
X104420000Y-81843641D01*
X105180000Y-81536359D02*
X105180000Y-81843641D01*
%TO.C,R211*%
X85480000Y-77563641D02*
X85480000Y-77256359D01*
X84720000Y-77563641D02*
X84720000Y-77256359D01*
%TO.C,R210*%
X104420000Y-83836359D02*
X104420000Y-84143641D01*
X105180000Y-83836359D02*
X105180000Y-84143641D01*
%TO.C,R209*%
X75263641Y-76620000D02*
X74956359Y-76620000D01*
X75263641Y-77380000D02*
X74956359Y-77380000D01*
%TO.C,R208*%
X93436359Y-81480000D02*
X93743641Y-81480000D01*
X93436359Y-80720000D02*
X93743641Y-80720000D01*
%TO.C,R207*%
X100963641Y-67220000D02*
X100656359Y-67220000D01*
X100963641Y-67980000D02*
X100656359Y-67980000D01*
%TO.C,R206*%
X75263641Y-77720000D02*
X74956359Y-77720000D01*
X75263641Y-78480000D02*
X74956359Y-78480000D01*
%TO.C,R205*%
X93436359Y-80280000D02*
X93743641Y-80280000D01*
X93436359Y-79520000D02*
X93743641Y-79520000D01*
%TO.C,R204*%
X74220000Y-79856359D02*
X74220000Y-80163641D01*
X74980000Y-79856359D02*
X74980000Y-80163641D01*
%TO.C,R203*%
X95120000Y-80236359D02*
X95120000Y-80543641D01*
X95880000Y-80236359D02*
X95880000Y-80543641D01*
%TO.C,R202*%
X79080000Y-73243641D02*
X79080000Y-72936359D01*
X78320000Y-73243641D02*
X78320000Y-72936359D01*
%TO.C,R201*%
X89080000Y-73263641D02*
X89080000Y-72956359D01*
X88320000Y-73263641D02*
X88320000Y-72956359D01*
%TO.C,R124*%
X93143641Y-112020000D02*
X92836359Y-112020000D01*
X93143641Y-112780000D02*
X92836359Y-112780000D01*
%TO.C,R123*%
X85336359Y-118280000D02*
X85643641Y-118280000D01*
X85336359Y-117520000D02*
X85643641Y-117520000D01*
%TO.C,R122*%
X83143641Y-113320000D02*
X82836359Y-113320000D01*
X83143641Y-114080000D02*
X82836359Y-114080000D01*
%TO.C,R121*%
X82736359Y-111380000D02*
X83043641Y-111380000D01*
X82736359Y-110620000D02*
X83043641Y-110620000D01*
%TO.C,R120*%
X75943641Y-58220000D02*
X75636359Y-58220000D01*
X75943641Y-58980000D02*
X75636359Y-58980000D01*
%TO.C,R119*%
X83143641Y-112020000D02*
X82836359Y-112020000D01*
X83143641Y-112780000D02*
X82836359Y-112780000D01*
%TO.C,R118*%
X92836359Y-113980000D02*
X93143641Y-113980000D01*
X92836359Y-113220000D02*
X93143641Y-113220000D01*
%TO.C,R117*%
X93056359Y-117180000D02*
X93363641Y-117180000D01*
X93056359Y-116420000D02*
X93363641Y-116420000D01*
%TO.C,R116*%
X93343641Y-114920000D02*
X93036359Y-114920000D01*
X93343641Y-115680000D02*
X93036359Y-115680000D01*
%TO.C,R115*%
X92920000Y-100136359D02*
X92920000Y-100443641D01*
X93680000Y-100136359D02*
X93680000Y-100443641D01*
%TO.C,R114*%
X108236359Y-54680000D02*
X108543641Y-54680000D01*
X108236359Y-53920000D02*
X108543641Y-53920000D01*
%TO.C,R113*%
X93636359Y-98980000D02*
X93943641Y-98980000D01*
X93636359Y-98220000D02*
X93943641Y-98220000D01*
%TO.C,R112*%
X95736359Y-93480000D02*
X96043641Y-93480000D01*
X95736359Y-92720000D02*
X96043641Y-92720000D01*
%TO.C,R111*%
X94963641Y-54020000D02*
X94656359Y-54020000D01*
X94963641Y-54780000D02*
X94656359Y-54780000D01*
%TO.C,R110*%
X87236359Y-93180000D02*
X87543641Y-93180000D01*
X87236359Y-92420000D02*
X87543641Y-92420000D01*
%TO.C,R109*%
X89963641Y-58120000D02*
X89656359Y-58120000D01*
X89963641Y-58880000D02*
X89656359Y-58880000D01*
%TO.C,R108*%
X82620000Y-97536359D02*
X82620000Y-97843641D01*
X83380000Y-97536359D02*
X83380000Y-97843641D01*
%TO.C,R107*%
X94936359Y-127380000D02*
X95243641Y-127380000D01*
X94936359Y-126620000D02*
X95243641Y-126620000D01*
%TO.C,R106*%
X82720000Y-100156359D02*
X82720000Y-100463641D01*
X83480000Y-100156359D02*
X83480000Y-100463641D01*
%TO.C,R105*%
X84536359Y-55980000D02*
X84843641Y-55980000D01*
X84536359Y-55220000D02*
X84843641Y-55220000D01*
%TO.C,R104*%
X80220000Y-100156359D02*
X80220000Y-100463641D01*
X80980000Y-100156359D02*
X80980000Y-100463641D01*
%TO.C,R103*%
X81420000Y-100156359D02*
X81420000Y-100463641D01*
X82180000Y-100156359D02*
X82180000Y-100463641D01*
%TO.C,R102*%
X84556359Y-57280000D02*
X84863641Y-57280000D01*
X84556359Y-56520000D02*
X84863641Y-56520000D01*
%TO.C,R101*%
X84620000Y-129136359D02*
X84620000Y-129443641D01*
X85380000Y-129136359D02*
X85380000Y-129443641D01*
%TO.C,Q104*%
X107380000Y-61240000D02*
X107380000Y-62700000D01*
X104220000Y-61240000D02*
X104220000Y-63400000D01*
X104220000Y-61240000D02*
X105150000Y-61240000D01*
X107380000Y-61240000D02*
X106450000Y-61240000D01*
%TO.C,Q103*%
X104220000Y-59260000D02*
X104220000Y-57800000D01*
X107380000Y-59260000D02*
X107380000Y-57100000D01*
X107380000Y-59260000D02*
X106450000Y-59260000D01*
X104220000Y-59260000D02*
X105150000Y-59260000D01*
%TO.C,Q102*%
X103680000Y-61240000D02*
X103680000Y-62700000D01*
X100520000Y-61240000D02*
X100520000Y-63400000D01*
X100520000Y-61240000D02*
X101450000Y-61240000D01*
X103680000Y-61240000D02*
X102750000Y-61240000D01*
%TO.C,Q101*%
X100520000Y-59260000D02*
X100520000Y-57800000D01*
X103680000Y-59260000D02*
X103680000Y-57100000D01*
X103680000Y-59260000D02*
X102750000Y-59260000D01*
X100520000Y-59260000D02*
X101450000Y-59260000D01*
%TO.C,J310*%
X40600000Y-149900000D02*
X49600000Y-149900000D01*
X49600000Y-149900000D02*
X49600000Y-139400000D01*
X49600000Y-139400000D02*
X40600000Y-139400000D01*
X40600000Y-139400000D02*
X40600000Y-149900000D01*
%TO.C,J309*%
X60200000Y-149900000D02*
X69200000Y-149900000D01*
X69200000Y-149900000D02*
X69200000Y-139400000D01*
X69200000Y-139400000D02*
X60200000Y-139400000D01*
X60200000Y-139400000D02*
X60200000Y-149900000D01*
%TO.C,J308*%
X30800000Y-149900000D02*
X39800000Y-149900000D01*
X39800000Y-149900000D02*
X39800000Y-139400000D01*
X39800000Y-139400000D02*
X30800000Y-139400000D01*
X30800000Y-139400000D02*
X30800000Y-149900000D01*
%TO.C,J307*%
X60200000Y-167600000D02*
X69200000Y-167600000D01*
X69200000Y-167600000D02*
X69200000Y-157100000D01*
X69200000Y-157100000D02*
X60200000Y-157100000D01*
X60200000Y-157100000D02*
X60200000Y-167600000D01*
%TO.C,J306*%
X50400000Y-149900000D02*
X59400000Y-149900000D01*
X59400000Y-149900000D02*
X59400000Y-139400000D01*
X59400000Y-139400000D02*
X50400000Y-139400000D01*
X50400000Y-139400000D02*
X50400000Y-149900000D01*
%TO.C,J305*%
X50400000Y-167600000D02*
X59400000Y-167600000D01*
X59400000Y-167600000D02*
X59400000Y-157100000D01*
X59400000Y-157100000D02*
X50400000Y-157100000D01*
X50400000Y-157100000D02*
X50400000Y-167600000D01*
%TO.C,J304*%
X40600000Y-167600000D02*
X49600000Y-167600000D01*
X49600000Y-167600000D02*
X49600000Y-157100000D01*
X49600000Y-157100000D02*
X40600000Y-157100000D01*
X40600000Y-157100000D02*
X40600000Y-167600000D01*
%TO.C,J303*%
X30800000Y-167600000D02*
X39800000Y-167600000D01*
X39800000Y-167600000D02*
X39800000Y-157100000D01*
X39800000Y-157100000D02*
X30800000Y-157100000D01*
X30800000Y-157100000D02*
X30800000Y-167600000D01*
%TO.C,J203*%
X77270000Y-71330000D02*
X77270000Y-70000000D01*
X78600000Y-71330000D02*
X77270000Y-71330000D01*
X79870000Y-71330000D02*
X79870000Y-68670000D01*
X79870000Y-68670000D02*
X102790000Y-68670000D01*
X79870000Y-71330000D02*
X102790000Y-71330000D01*
X102790000Y-71330000D02*
X102790000Y-68670000D01*
%TO.C,J202*%
X78470000Y-155730000D02*
X78470000Y-154400000D01*
X79800000Y-155730000D02*
X78470000Y-155730000D01*
X81070000Y-155730000D02*
X81070000Y-153070000D01*
X81070000Y-153070000D02*
X101450000Y-153070000D01*
X81070000Y-155730000D02*
X101450000Y-155730000D01*
X101450000Y-155730000D02*
X101450000Y-153070000D01*
%TO.C,D304*%
X40770000Y-131755000D02*
X40770000Y-134845000D01*
X45830000Y-133300000D02*
G75*
G03*
X45830000Y-133300000I-2500000J0D01*
G01*
X46320000Y-133299538D02*
G75*
G02*
X40770000Y-134844830I-2990000J-462D01*
G01*
X46320000Y-133300462D02*
G75*
G03*
X40770000Y-131755170I-2990000J462D01*
G01*
%TO.C,D302*%
X47440000Y-53055000D02*
X47440000Y-56145000D01*
X52500000Y-54600000D02*
G75*
G03*
X52500000Y-54600000I-2500000J0D01*
G01*
X52990000Y-54599538D02*
G75*
G02*
X47440000Y-56144830I-2990000J-462D01*
G01*
X52990000Y-54600462D02*
G75*
G03*
X47440000Y-53055170I-2990000J462D01*
G01*
%TO.C,D301*%
X54100000Y-131755000D02*
X54100000Y-134845000D01*
X59160000Y-133300000D02*
G75*
G03*
X59160000Y-133300000I-2500000J0D01*
G01*
X59650000Y-133299538D02*
G75*
G02*
X54100000Y-134844830I-2990000J-462D01*
G01*
X59650000Y-133300462D02*
G75*
G03*
X54100000Y-131755170I-2990000J462D01*
G01*
%TO.C,D203*%
X102770000Y-64480000D02*
X102770000Y-66720000D01*
X103010000Y-64480000D02*
X103010000Y-66720000D01*
X102890000Y-64480000D02*
X102890000Y-66720000D01*
X107060000Y-65600000D02*
X106410000Y-65600000D01*
X101520000Y-65600000D02*
X102170000Y-65600000D01*
X106410000Y-64480000D02*
X102170000Y-64480000D01*
X106410000Y-66720000D02*
X106410000Y-64480000D01*
X102170000Y-66720000D02*
X106410000Y-66720000D01*
X102170000Y-64480000D02*
X102170000Y-66720000D01*
%TO.C,D202*%
X102100000Y-145900000D02*
X98200000Y-145900000D01*
X102100000Y-143900000D02*
X98200000Y-143900000D01*
X102100000Y-145900000D02*
X102100000Y-143900000D01*
%TO.C,D201*%
X97500000Y-133700000D02*
X101400000Y-133700000D01*
X97500000Y-135700000D02*
X101400000Y-135700000D01*
X97500000Y-133700000D02*
X97500000Y-135700000D01*
%TO.C,D110*%
X92400000Y-108850000D02*
X94950000Y-108850000D01*
X92400000Y-110550000D02*
X94950000Y-110550000D01*
X92400000Y-108850000D02*
X92400000Y-110550000D01*
%TO.C,D109*%
X85700000Y-104150000D02*
X88250000Y-104150000D01*
X85700000Y-105850000D02*
X88250000Y-105850000D01*
X85700000Y-104150000D02*
X85700000Y-105850000D01*
%TO.C,D108*%
X92900000Y-95800000D02*
X96800000Y-95800000D01*
X92900000Y-97800000D02*
X96800000Y-97800000D01*
X92900000Y-95800000D02*
X92900000Y-97800000D01*
%TO.C,D107*%
X102420000Y-94870000D02*
X100180000Y-94870000D01*
X102420000Y-95110000D02*
X100180000Y-95110000D01*
X102420000Y-94990000D02*
X100180000Y-94990000D01*
X101300000Y-99160000D02*
X101300000Y-98510000D01*
X101300000Y-93620000D02*
X101300000Y-94270000D01*
X102420000Y-98510000D02*
X102420000Y-94270000D01*
X100180000Y-98510000D02*
X102420000Y-98510000D01*
X100180000Y-94270000D02*
X100180000Y-98510000D01*
X102420000Y-94270000D02*
X100180000Y-94270000D01*
%TO.C,D106*%
X103110000Y-53220000D02*
X103110000Y-50980000D01*
X102870000Y-53220000D02*
X102870000Y-50980000D01*
X102990000Y-53220000D02*
X102990000Y-50980000D01*
X98820000Y-52100000D02*
X99470000Y-52100000D01*
X104360000Y-52100000D02*
X103710000Y-52100000D01*
X99470000Y-53220000D02*
X103710000Y-53220000D01*
X99470000Y-50980000D02*
X99470000Y-53220000D01*
X103710000Y-50980000D02*
X99470000Y-50980000D01*
X103710000Y-53220000D02*
X103710000Y-50980000D01*
%TO.C,D105*%
X103110000Y-56020000D02*
X103110000Y-53780000D01*
X102870000Y-56020000D02*
X102870000Y-53780000D01*
X102990000Y-56020000D02*
X102990000Y-53780000D01*
X98820000Y-54900000D02*
X99470000Y-54900000D01*
X104360000Y-54900000D02*
X103710000Y-54900000D01*
X99470000Y-56020000D02*
X103710000Y-56020000D01*
X99470000Y-53780000D02*
X99470000Y-56020000D01*
X103710000Y-53780000D02*
X99470000Y-53780000D01*
X103710000Y-56020000D02*
X103710000Y-53780000D01*
%TO.C,D104*%
X94000000Y-92950000D02*
X91450000Y-92950000D01*
X94000000Y-91250000D02*
X91450000Y-91250000D01*
X94000000Y-92950000D02*
X94000000Y-91250000D01*
%TO.C,D103*%
X88400000Y-61350000D02*
X90950000Y-61350000D01*
X88400000Y-63050000D02*
X90950000Y-63050000D01*
X88400000Y-61350000D02*
X88400000Y-63050000D01*
%TO.C,D102*%
X88400000Y-59250000D02*
X90950000Y-59250000D01*
X88400000Y-60950000D02*
X90950000Y-60950000D01*
X88400000Y-59250000D02*
X88400000Y-60950000D01*
%TO.C,D101*%
X82400000Y-126150000D02*
X84950000Y-126150000D01*
X82400000Y-127850000D02*
X84950000Y-127850000D01*
X82400000Y-126150000D02*
X82400000Y-127850000D01*
%TO.C,C206*%
X76012164Y-85160000D02*
X76227836Y-85160000D01*
X76012164Y-84440000D02*
X76227836Y-84440000D01*
%TO.C,C205*%
X81912164Y-78360000D02*
X82127836Y-78360000D01*
X81912164Y-77640000D02*
X82127836Y-77640000D01*
%TO.C,C204*%
X97212164Y-85560000D02*
X97427836Y-85560000D01*
X97212164Y-84840000D02*
X97427836Y-84840000D01*
%TO.C,C203*%
X103112164Y-78660000D02*
X103327836Y-78660000D01*
X103112164Y-77940000D02*
X103327836Y-77940000D01*
%TO.C,C202*%
X98787836Y-142240000D02*
X98572164Y-142240000D01*
X98787836Y-142960000D02*
X98572164Y-142960000D01*
%TO.C,C201*%
X98512164Y-137160000D02*
X98727836Y-137160000D01*
X98512164Y-136440000D02*
X98727836Y-136440000D01*
%TO.C,C112*%
X75612164Y-60160000D02*
X75827836Y-60160000D01*
X75612164Y-59440000D02*
X75827836Y-59440000D01*
%TO.C,C110*%
X90792164Y-110060000D02*
X91007836Y-110060000D01*
X90792164Y-109340000D02*
X91007836Y-109340000D01*
%TO.C,C109*%
X72512164Y-58660000D02*
X72727836Y-58660000D01*
X72512164Y-57940000D02*
X72727836Y-57940000D01*
%TO.C,C108*%
X78372164Y-52060000D02*
X78587836Y-52060000D01*
X78372164Y-51340000D02*
X78587836Y-51340000D01*
%TO.C,C107*%
X87112164Y-130260000D02*
X87327836Y-130260000D01*
X87112164Y-129540000D02*
X87327836Y-129540000D01*
%TO.C,C106*%
X92912164Y-123260000D02*
X93127836Y-123260000D01*
X92912164Y-122540000D02*
X93127836Y-122540000D01*
%TO.C,C105*%
X84612164Y-102760000D02*
X84827836Y-102760000D01*
X84612164Y-102040000D02*
X84827836Y-102040000D01*
%TO.C,C104*%
X90412164Y-95960000D02*
X90627836Y-95960000D01*
X90412164Y-95240000D02*
X90627836Y-95240000D01*
%TO.C,C103*%
X86712164Y-58660000D02*
X86927836Y-58660000D01*
X86712164Y-57940000D02*
X86927836Y-57940000D01*
%TO.C,C102*%
X92612164Y-52160000D02*
X92827836Y-52160000D01*
X92612164Y-51440000D02*
X92827836Y-51440000D01*
%TO.C,C101*%
X85187836Y-92240000D02*
X84972164Y-92240000D01*
X85187836Y-92960000D02*
X84972164Y-92960000D01*
%TO.C,U202*%
D10*
X77385714Y-77452380D02*
X77385714Y-78261904D01*
X77433333Y-78357142D01*
X77480952Y-78404761D01*
X77576190Y-78452380D01*
X77766666Y-78452380D01*
X77861904Y-78404761D01*
X77909523Y-78357142D01*
X77957142Y-78261904D01*
X77957142Y-77452380D01*
X78385714Y-77547619D02*
X78433333Y-77500000D01*
X78528571Y-77452380D01*
X78766666Y-77452380D01*
X78861904Y-77500000D01*
X78909523Y-77547619D01*
X78957142Y-77642857D01*
X78957142Y-77738095D01*
X78909523Y-77880952D01*
X78338095Y-78452380D01*
X78957142Y-78452380D01*
X79576190Y-77452380D02*
X79671428Y-77452380D01*
X79766666Y-77500000D01*
X79814285Y-77547619D01*
X79861904Y-77642857D01*
X79909523Y-77833333D01*
X79909523Y-78071428D01*
X79861904Y-78261904D01*
X79814285Y-78357142D01*
X79766666Y-78404761D01*
X79671428Y-78452380D01*
X79576190Y-78452380D01*
X79480952Y-78404761D01*
X79433333Y-78357142D01*
X79385714Y-78261904D01*
X79338095Y-78071428D01*
X79338095Y-77833333D01*
X79385714Y-77642857D01*
X79433333Y-77547619D01*
X79480952Y-77500000D01*
X79576190Y-77452380D01*
X80290476Y-77547619D02*
X80338095Y-77500000D01*
X80433333Y-77452380D01*
X80671428Y-77452380D01*
X80766666Y-77500000D01*
X80814285Y-77547619D01*
X80861904Y-77642857D01*
X80861904Y-77738095D01*
X80814285Y-77880952D01*
X80242857Y-78452380D01*
X80861904Y-78452380D01*
%TO.C,U201*%
X98585714Y-77752380D02*
X98585714Y-78561904D01*
X98633333Y-78657142D01*
X98680952Y-78704761D01*
X98776190Y-78752380D01*
X98966666Y-78752380D01*
X99061904Y-78704761D01*
X99109523Y-78657142D01*
X99157142Y-78561904D01*
X99157142Y-77752380D01*
X99585714Y-77847619D02*
X99633333Y-77800000D01*
X99728571Y-77752380D01*
X99966666Y-77752380D01*
X100061904Y-77800000D01*
X100109523Y-77847619D01*
X100157142Y-77942857D01*
X100157142Y-78038095D01*
X100109523Y-78180952D01*
X99538095Y-78752380D01*
X100157142Y-78752380D01*
X100776190Y-77752380D02*
X100871428Y-77752380D01*
X100966666Y-77800000D01*
X101014285Y-77847619D01*
X101061904Y-77942857D01*
X101109523Y-78133333D01*
X101109523Y-78371428D01*
X101061904Y-78561904D01*
X101014285Y-78657142D01*
X100966666Y-78704761D01*
X100871428Y-78752380D01*
X100776190Y-78752380D01*
X100680952Y-78704761D01*
X100633333Y-78657142D01*
X100585714Y-78561904D01*
X100538095Y-78371428D01*
X100538095Y-78133333D01*
X100585714Y-77942857D01*
X100633333Y-77847619D01*
X100680952Y-77800000D01*
X100776190Y-77752380D01*
X102061904Y-78752380D02*
X101490476Y-78752380D01*
X101776190Y-78752380D02*
X101776190Y-77752380D01*
X101680952Y-77895238D01*
X101585714Y-77990476D01*
X101490476Y-78038095D01*
%TO.C,U105*%
X86210714Y-109057380D02*
X86210714Y-109866904D01*
X86258333Y-109962142D01*
X86305952Y-110009761D01*
X86401190Y-110057380D01*
X86591666Y-110057380D01*
X86686904Y-110009761D01*
X86734523Y-109962142D01*
X86782142Y-109866904D01*
X86782142Y-109057380D01*
X87782142Y-110057380D02*
X87210714Y-110057380D01*
X87496428Y-110057380D02*
X87496428Y-109057380D01*
X87401190Y-109200238D01*
X87305952Y-109295476D01*
X87210714Y-109343095D01*
X88401190Y-109057380D02*
X88496428Y-109057380D01*
X88591666Y-109105000D01*
X88639285Y-109152619D01*
X88686904Y-109247857D01*
X88734523Y-109438333D01*
X88734523Y-109676428D01*
X88686904Y-109866904D01*
X88639285Y-109962142D01*
X88591666Y-110009761D01*
X88496428Y-110057380D01*
X88401190Y-110057380D01*
X88305952Y-110009761D01*
X88258333Y-109962142D01*
X88210714Y-109866904D01*
X88163095Y-109676428D01*
X88163095Y-109438333D01*
X88210714Y-109247857D01*
X88258333Y-109152619D01*
X88305952Y-109105000D01*
X88401190Y-109057380D01*
X89639285Y-109057380D02*
X89163095Y-109057380D01*
X89115476Y-109533571D01*
X89163095Y-109485952D01*
X89258333Y-109438333D01*
X89496428Y-109438333D01*
X89591666Y-109485952D01*
X89639285Y-109533571D01*
X89686904Y-109628809D01*
X89686904Y-109866904D01*
X89639285Y-109962142D01*
X89591666Y-110009761D01*
X89496428Y-110057380D01*
X89258333Y-110057380D01*
X89163095Y-110009761D01*
X89115476Y-109962142D01*
%TO.C,U104*%
X73810714Y-51057380D02*
X73810714Y-51866904D01*
X73858333Y-51962142D01*
X73905952Y-52009761D01*
X74001190Y-52057380D01*
X74191666Y-52057380D01*
X74286904Y-52009761D01*
X74334523Y-51962142D01*
X74382142Y-51866904D01*
X74382142Y-51057380D01*
X75382142Y-52057380D02*
X74810714Y-52057380D01*
X75096428Y-52057380D02*
X75096428Y-51057380D01*
X75001190Y-51200238D01*
X74905952Y-51295476D01*
X74810714Y-51343095D01*
X76001190Y-51057380D02*
X76096428Y-51057380D01*
X76191666Y-51105000D01*
X76239285Y-51152619D01*
X76286904Y-51247857D01*
X76334523Y-51438333D01*
X76334523Y-51676428D01*
X76286904Y-51866904D01*
X76239285Y-51962142D01*
X76191666Y-52009761D01*
X76096428Y-52057380D01*
X76001190Y-52057380D01*
X75905952Y-52009761D01*
X75858333Y-51962142D01*
X75810714Y-51866904D01*
X75763095Y-51676428D01*
X75763095Y-51438333D01*
X75810714Y-51247857D01*
X75858333Y-51152619D01*
X75905952Y-51105000D01*
X76001190Y-51057380D01*
X77191666Y-51390714D02*
X77191666Y-52057380D01*
X76953571Y-51009761D02*
X76715476Y-51724047D01*
X77334523Y-51724047D01*
%TO.C,U103*%
X88385714Y-122452380D02*
X88385714Y-123261904D01*
X88433333Y-123357142D01*
X88480952Y-123404761D01*
X88576190Y-123452380D01*
X88766666Y-123452380D01*
X88861904Y-123404761D01*
X88909523Y-123357142D01*
X88957142Y-123261904D01*
X88957142Y-122452380D01*
X89957142Y-123452380D02*
X89385714Y-123452380D01*
X89671428Y-123452380D02*
X89671428Y-122452380D01*
X89576190Y-122595238D01*
X89480952Y-122690476D01*
X89385714Y-122738095D01*
X90576190Y-122452380D02*
X90671428Y-122452380D01*
X90766666Y-122500000D01*
X90814285Y-122547619D01*
X90861904Y-122642857D01*
X90909523Y-122833333D01*
X90909523Y-123071428D01*
X90861904Y-123261904D01*
X90814285Y-123357142D01*
X90766666Y-123404761D01*
X90671428Y-123452380D01*
X90576190Y-123452380D01*
X90480952Y-123404761D01*
X90433333Y-123357142D01*
X90385714Y-123261904D01*
X90338095Y-123071428D01*
X90338095Y-122833333D01*
X90385714Y-122642857D01*
X90433333Y-122547619D01*
X90480952Y-122500000D01*
X90576190Y-122452380D01*
X91242857Y-122452380D02*
X91861904Y-122452380D01*
X91528571Y-122833333D01*
X91671428Y-122833333D01*
X91766666Y-122880952D01*
X91814285Y-122928571D01*
X91861904Y-123023809D01*
X91861904Y-123261904D01*
X91814285Y-123357142D01*
X91766666Y-123404761D01*
X91671428Y-123452380D01*
X91385714Y-123452380D01*
X91290476Y-123404761D01*
X91242857Y-123357142D01*
%TO.C,U102*%
X85910714Y-95087380D02*
X85910714Y-95896904D01*
X85958333Y-95992142D01*
X86005952Y-96039761D01*
X86101190Y-96087380D01*
X86291666Y-96087380D01*
X86386904Y-96039761D01*
X86434523Y-95992142D01*
X86482142Y-95896904D01*
X86482142Y-95087380D01*
X87482142Y-96087380D02*
X86910714Y-96087380D01*
X87196428Y-96087380D02*
X87196428Y-95087380D01*
X87101190Y-95230238D01*
X87005952Y-95325476D01*
X86910714Y-95373095D01*
X88101190Y-95087380D02*
X88196428Y-95087380D01*
X88291666Y-95135000D01*
X88339285Y-95182619D01*
X88386904Y-95277857D01*
X88434523Y-95468333D01*
X88434523Y-95706428D01*
X88386904Y-95896904D01*
X88339285Y-95992142D01*
X88291666Y-96039761D01*
X88196428Y-96087380D01*
X88101190Y-96087380D01*
X88005952Y-96039761D01*
X87958333Y-95992142D01*
X87910714Y-95896904D01*
X87863095Y-95706428D01*
X87863095Y-95468333D01*
X87910714Y-95277857D01*
X87958333Y-95182619D01*
X88005952Y-95135000D01*
X88101190Y-95087380D01*
X88815476Y-95182619D02*
X88863095Y-95135000D01*
X88958333Y-95087380D01*
X89196428Y-95087380D01*
X89291666Y-95135000D01*
X89339285Y-95182619D01*
X89386904Y-95277857D01*
X89386904Y-95373095D01*
X89339285Y-95515952D01*
X88767857Y-96087380D01*
X89386904Y-96087380D01*
%TO.C,U101*%
X88010714Y-51057380D02*
X88010714Y-51866904D01*
X88058333Y-51962142D01*
X88105952Y-52009761D01*
X88201190Y-52057380D01*
X88391666Y-52057380D01*
X88486904Y-52009761D01*
X88534523Y-51962142D01*
X88582142Y-51866904D01*
X88582142Y-51057380D01*
X89582142Y-52057380D02*
X89010714Y-52057380D01*
X89296428Y-52057380D02*
X89296428Y-51057380D01*
X89201190Y-51200238D01*
X89105952Y-51295476D01*
X89010714Y-51343095D01*
X90201190Y-51057380D02*
X90296428Y-51057380D01*
X90391666Y-51105000D01*
X90439285Y-51152619D01*
X90486904Y-51247857D01*
X90534523Y-51438333D01*
X90534523Y-51676428D01*
X90486904Y-51866904D01*
X90439285Y-51962142D01*
X90391666Y-52009761D01*
X90296428Y-52057380D01*
X90201190Y-52057380D01*
X90105952Y-52009761D01*
X90058333Y-51962142D01*
X90010714Y-51866904D01*
X89963095Y-51676428D01*
X89963095Y-51438333D01*
X90010714Y-51247857D01*
X90058333Y-51152619D01*
X90105952Y-51105000D01*
X90201190Y-51057380D01*
X91486904Y-52057380D02*
X90915476Y-52057380D01*
X91201190Y-52057380D02*
X91201190Y-51057380D01*
X91105952Y-51200238D01*
X91010714Y-51295476D01*
X90915476Y-51343095D01*
%TO.C,RV307*%
X58452380Y-124952380D02*
X58119047Y-124476190D01*
X57880952Y-124952380D02*
X57880952Y-123952380D01*
X58261904Y-123952380D01*
X58357142Y-124000000D01*
X58404761Y-124047619D01*
X58452380Y-124142857D01*
X58452380Y-124285714D01*
X58404761Y-124380952D01*
X58357142Y-124428571D01*
X58261904Y-124476190D01*
X57880952Y-124476190D01*
X58738095Y-123952380D02*
X59071428Y-124952380D01*
X59404761Y-123952380D01*
X59642857Y-123952380D02*
X60261904Y-123952380D01*
X59928571Y-124333333D01*
X60071428Y-124333333D01*
X60166666Y-124380952D01*
X60214285Y-124428571D01*
X60261904Y-124523809D01*
X60261904Y-124761904D01*
X60214285Y-124857142D01*
X60166666Y-124904761D01*
X60071428Y-124952380D01*
X59785714Y-124952380D01*
X59690476Y-124904761D01*
X59642857Y-124857142D01*
X60880952Y-123952380D02*
X60976190Y-123952380D01*
X61071428Y-124000000D01*
X61119047Y-124047619D01*
X61166666Y-124142857D01*
X61214285Y-124333333D01*
X61214285Y-124571428D01*
X61166666Y-124761904D01*
X61119047Y-124857142D01*
X61071428Y-124904761D01*
X60976190Y-124952380D01*
X60880952Y-124952380D01*
X60785714Y-124904761D01*
X60738095Y-124857142D01*
X60690476Y-124761904D01*
X60642857Y-124571428D01*
X60642857Y-124333333D01*
X60690476Y-124142857D01*
X60738095Y-124047619D01*
X60785714Y-124000000D01*
X60880952Y-123952380D01*
X61547619Y-123952380D02*
X62214285Y-123952380D01*
X61785714Y-124952380D01*
%TO.C,RV306*%
X58452380Y-84452380D02*
X58119047Y-83976190D01*
X57880952Y-84452380D02*
X57880952Y-83452380D01*
X58261904Y-83452380D01*
X58357142Y-83500000D01*
X58404761Y-83547619D01*
X58452380Y-83642857D01*
X58452380Y-83785714D01*
X58404761Y-83880952D01*
X58357142Y-83928571D01*
X58261904Y-83976190D01*
X57880952Y-83976190D01*
X58738095Y-83452380D02*
X59071428Y-84452380D01*
X59404761Y-83452380D01*
X59642857Y-83452380D02*
X60261904Y-83452380D01*
X59928571Y-83833333D01*
X60071428Y-83833333D01*
X60166666Y-83880952D01*
X60214285Y-83928571D01*
X60261904Y-84023809D01*
X60261904Y-84261904D01*
X60214285Y-84357142D01*
X60166666Y-84404761D01*
X60071428Y-84452380D01*
X59785714Y-84452380D01*
X59690476Y-84404761D01*
X59642857Y-84357142D01*
X60880952Y-83452380D02*
X60976190Y-83452380D01*
X61071428Y-83500000D01*
X61119047Y-83547619D01*
X61166666Y-83642857D01*
X61214285Y-83833333D01*
X61214285Y-84071428D01*
X61166666Y-84261904D01*
X61119047Y-84357142D01*
X61071428Y-84404761D01*
X60976190Y-84452380D01*
X60880952Y-84452380D01*
X60785714Y-84404761D01*
X60738095Y-84357142D01*
X60690476Y-84261904D01*
X60642857Y-84071428D01*
X60642857Y-83833333D01*
X60690476Y-83642857D01*
X60738095Y-83547619D01*
X60785714Y-83500000D01*
X60880952Y-83452380D01*
X62071428Y-83452380D02*
X61880952Y-83452380D01*
X61785714Y-83500000D01*
X61738095Y-83547619D01*
X61642857Y-83690476D01*
X61595238Y-83880952D01*
X61595238Y-84261904D01*
X61642857Y-84357142D01*
X61690476Y-84404761D01*
X61785714Y-84452380D01*
X61976190Y-84452380D01*
X62071428Y-84404761D01*
X62119047Y-84357142D01*
X62166666Y-84261904D01*
X62166666Y-84023809D01*
X62119047Y-83928571D01*
X62071428Y-83880952D01*
X61976190Y-83833333D01*
X61785714Y-83833333D01*
X61690476Y-83880952D01*
X61642857Y-83928571D01*
X61595238Y-84023809D01*
%TO.C,RV305*%
X60702380Y-60152380D02*
X60369047Y-59676190D01*
X60130952Y-60152380D02*
X60130952Y-59152380D01*
X60511904Y-59152380D01*
X60607142Y-59200000D01*
X60654761Y-59247619D01*
X60702380Y-59342857D01*
X60702380Y-59485714D01*
X60654761Y-59580952D01*
X60607142Y-59628571D01*
X60511904Y-59676190D01*
X60130952Y-59676190D01*
X60988095Y-59152380D02*
X61321428Y-60152380D01*
X61654761Y-59152380D01*
X61892857Y-59152380D02*
X62511904Y-59152380D01*
X62178571Y-59533333D01*
X62321428Y-59533333D01*
X62416666Y-59580952D01*
X62464285Y-59628571D01*
X62511904Y-59723809D01*
X62511904Y-59961904D01*
X62464285Y-60057142D01*
X62416666Y-60104761D01*
X62321428Y-60152380D01*
X62035714Y-60152380D01*
X61940476Y-60104761D01*
X61892857Y-60057142D01*
X63130952Y-59152380D02*
X63226190Y-59152380D01*
X63321428Y-59200000D01*
X63369047Y-59247619D01*
X63416666Y-59342857D01*
X63464285Y-59533333D01*
X63464285Y-59771428D01*
X63416666Y-59961904D01*
X63369047Y-60057142D01*
X63321428Y-60104761D01*
X63226190Y-60152380D01*
X63130952Y-60152380D01*
X63035714Y-60104761D01*
X62988095Y-60057142D01*
X62940476Y-59961904D01*
X62892857Y-59771428D01*
X62892857Y-59533333D01*
X62940476Y-59342857D01*
X62988095Y-59247619D01*
X63035714Y-59200000D01*
X63130952Y-59152380D01*
X64369047Y-59152380D02*
X63892857Y-59152380D01*
X63845238Y-59628571D01*
X63892857Y-59580952D01*
X63988095Y-59533333D01*
X64226190Y-59533333D01*
X64321428Y-59580952D01*
X64369047Y-59628571D01*
X64416666Y-59723809D01*
X64416666Y-59961904D01*
X64369047Y-60057142D01*
X64321428Y-60104761D01*
X64226190Y-60152380D01*
X63988095Y-60152380D01*
X63892857Y-60104761D01*
X63845238Y-60057142D01*
%TO.C,RV304*%
X48452380Y-104852380D02*
X48119047Y-104376190D01*
X47880952Y-104852380D02*
X47880952Y-103852380D01*
X48261904Y-103852380D01*
X48357142Y-103900000D01*
X48404761Y-103947619D01*
X48452380Y-104042857D01*
X48452380Y-104185714D01*
X48404761Y-104280952D01*
X48357142Y-104328571D01*
X48261904Y-104376190D01*
X47880952Y-104376190D01*
X48738095Y-103852380D02*
X49071428Y-104852380D01*
X49404761Y-103852380D01*
X49642857Y-103852380D02*
X50261904Y-103852380D01*
X49928571Y-104233333D01*
X50071428Y-104233333D01*
X50166666Y-104280952D01*
X50214285Y-104328571D01*
X50261904Y-104423809D01*
X50261904Y-104661904D01*
X50214285Y-104757142D01*
X50166666Y-104804761D01*
X50071428Y-104852380D01*
X49785714Y-104852380D01*
X49690476Y-104804761D01*
X49642857Y-104757142D01*
X50880952Y-103852380D02*
X50976190Y-103852380D01*
X51071428Y-103900000D01*
X51119047Y-103947619D01*
X51166666Y-104042857D01*
X51214285Y-104233333D01*
X51214285Y-104471428D01*
X51166666Y-104661904D01*
X51119047Y-104757142D01*
X51071428Y-104804761D01*
X50976190Y-104852380D01*
X50880952Y-104852380D01*
X50785714Y-104804761D01*
X50738095Y-104757142D01*
X50690476Y-104661904D01*
X50642857Y-104471428D01*
X50642857Y-104233333D01*
X50690476Y-104042857D01*
X50738095Y-103947619D01*
X50785714Y-103900000D01*
X50880952Y-103852380D01*
X52071428Y-104185714D02*
X52071428Y-104852380D01*
X51833333Y-103804761D02*
X51595238Y-104519047D01*
X52214285Y-104519047D01*
%TO.C,RV303*%
X38452380Y-124952380D02*
X38119047Y-124476190D01*
X37880952Y-124952380D02*
X37880952Y-123952380D01*
X38261904Y-123952380D01*
X38357142Y-124000000D01*
X38404761Y-124047619D01*
X38452380Y-124142857D01*
X38452380Y-124285714D01*
X38404761Y-124380952D01*
X38357142Y-124428571D01*
X38261904Y-124476190D01*
X37880952Y-124476190D01*
X38738095Y-123952380D02*
X39071428Y-124952380D01*
X39404761Y-123952380D01*
X39642857Y-123952380D02*
X40261904Y-123952380D01*
X39928571Y-124333333D01*
X40071428Y-124333333D01*
X40166666Y-124380952D01*
X40214285Y-124428571D01*
X40261904Y-124523809D01*
X40261904Y-124761904D01*
X40214285Y-124857142D01*
X40166666Y-124904761D01*
X40071428Y-124952380D01*
X39785714Y-124952380D01*
X39690476Y-124904761D01*
X39642857Y-124857142D01*
X40880952Y-123952380D02*
X40976190Y-123952380D01*
X41071428Y-124000000D01*
X41119047Y-124047619D01*
X41166666Y-124142857D01*
X41214285Y-124333333D01*
X41214285Y-124571428D01*
X41166666Y-124761904D01*
X41119047Y-124857142D01*
X41071428Y-124904761D01*
X40976190Y-124952380D01*
X40880952Y-124952380D01*
X40785714Y-124904761D01*
X40738095Y-124857142D01*
X40690476Y-124761904D01*
X40642857Y-124571428D01*
X40642857Y-124333333D01*
X40690476Y-124142857D01*
X40738095Y-124047619D01*
X40785714Y-124000000D01*
X40880952Y-123952380D01*
X41547619Y-123952380D02*
X42166666Y-123952380D01*
X41833333Y-124333333D01*
X41976190Y-124333333D01*
X42071428Y-124380952D01*
X42119047Y-124428571D01*
X42166666Y-124523809D01*
X42166666Y-124761904D01*
X42119047Y-124857142D01*
X42071428Y-124904761D01*
X41976190Y-124952380D01*
X41690476Y-124952380D01*
X41595238Y-124904761D01*
X41547619Y-124857142D01*
%TO.C,RV302*%
X38452380Y-84452380D02*
X38119047Y-83976190D01*
X37880952Y-84452380D02*
X37880952Y-83452380D01*
X38261904Y-83452380D01*
X38357142Y-83500000D01*
X38404761Y-83547619D01*
X38452380Y-83642857D01*
X38452380Y-83785714D01*
X38404761Y-83880952D01*
X38357142Y-83928571D01*
X38261904Y-83976190D01*
X37880952Y-83976190D01*
X38738095Y-83452380D02*
X39071428Y-84452380D01*
X39404761Y-83452380D01*
X39642857Y-83452380D02*
X40261904Y-83452380D01*
X39928571Y-83833333D01*
X40071428Y-83833333D01*
X40166666Y-83880952D01*
X40214285Y-83928571D01*
X40261904Y-84023809D01*
X40261904Y-84261904D01*
X40214285Y-84357142D01*
X40166666Y-84404761D01*
X40071428Y-84452380D01*
X39785714Y-84452380D01*
X39690476Y-84404761D01*
X39642857Y-84357142D01*
X40880952Y-83452380D02*
X40976190Y-83452380D01*
X41071428Y-83500000D01*
X41119047Y-83547619D01*
X41166666Y-83642857D01*
X41214285Y-83833333D01*
X41214285Y-84071428D01*
X41166666Y-84261904D01*
X41119047Y-84357142D01*
X41071428Y-84404761D01*
X40976190Y-84452380D01*
X40880952Y-84452380D01*
X40785714Y-84404761D01*
X40738095Y-84357142D01*
X40690476Y-84261904D01*
X40642857Y-84071428D01*
X40642857Y-83833333D01*
X40690476Y-83642857D01*
X40738095Y-83547619D01*
X40785714Y-83500000D01*
X40880952Y-83452380D01*
X41595238Y-83547619D02*
X41642857Y-83500000D01*
X41738095Y-83452380D01*
X41976190Y-83452380D01*
X42071428Y-83500000D01*
X42119047Y-83547619D01*
X42166666Y-83642857D01*
X42166666Y-83738095D01*
X42119047Y-83880952D01*
X41547619Y-84452380D01*
X42166666Y-84452380D01*
%TO.C,RV301*%
X36202380Y-60152380D02*
X35869047Y-59676190D01*
X35630952Y-60152380D02*
X35630952Y-59152380D01*
X36011904Y-59152380D01*
X36107142Y-59200000D01*
X36154761Y-59247619D01*
X36202380Y-59342857D01*
X36202380Y-59485714D01*
X36154761Y-59580952D01*
X36107142Y-59628571D01*
X36011904Y-59676190D01*
X35630952Y-59676190D01*
X36488095Y-59152380D02*
X36821428Y-60152380D01*
X37154761Y-59152380D01*
X37392857Y-59152380D02*
X38011904Y-59152380D01*
X37678571Y-59533333D01*
X37821428Y-59533333D01*
X37916666Y-59580952D01*
X37964285Y-59628571D01*
X38011904Y-59723809D01*
X38011904Y-59961904D01*
X37964285Y-60057142D01*
X37916666Y-60104761D01*
X37821428Y-60152380D01*
X37535714Y-60152380D01*
X37440476Y-60104761D01*
X37392857Y-60057142D01*
X38630952Y-59152380D02*
X38726190Y-59152380D01*
X38821428Y-59200000D01*
X38869047Y-59247619D01*
X38916666Y-59342857D01*
X38964285Y-59533333D01*
X38964285Y-59771428D01*
X38916666Y-59961904D01*
X38869047Y-60057142D01*
X38821428Y-60104761D01*
X38726190Y-60152380D01*
X38630952Y-60152380D01*
X38535714Y-60104761D01*
X38488095Y-60057142D01*
X38440476Y-59961904D01*
X38392857Y-59771428D01*
X38392857Y-59533333D01*
X38440476Y-59342857D01*
X38488095Y-59247619D01*
X38535714Y-59200000D01*
X38630952Y-59152380D01*
X39916666Y-60152380D02*
X39345238Y-60152380D01*
X39630952Y-60152380D02*
X39630952Y-59152380D01*
X39535714Y-59295238D01*
X39440476Y-59390476D01*
X39345238Y-59438095D01*
%TO.C,Q104*%
X108847619Y-63447619D02*
X108800000Y-63542857D01*
X108704761Y-63638095D01*
X108561904Y-63780952D01*
X108514285Y-63876190D01*
X108514285Y-63971428D01*
X108752380Y-63923809D02*
X108704761Y-64019047D01*
X108609523Y-64114285D01*
X108419047Y-64161904D01*
X108085714Y-64161904D01*
X107895238Y-64114285D01*
X107800000Y-64019047D01*
X107752380Y-63923809D01*
X107752380Y-63733333D01*
X107800000Y-63638095D01*
X107895238Y-63542857D01*
X108085714Y-63495238D01*
X108419047Y-63495238D01*
X108609523Y-63542857D01*
X108704761Y-63638095D01*
X108752380Y-63733333D01*
X108752380Y-63923809D01*
X108752380Y-62542857D02*
X108752380Y-63114285D01*
X108752380Y-62828571D02*
X107752380Y-62828571D01*
X107895238Y-62923809D01*
X107990476Y-63019047D01*
X108038095Y-63114285D01*
X107752380Y-61923809D02*
X107752380Y-61828571D01*
X107800000Y-61733333D01*
X107847619Y-61685714D01*
X107942857Y-61638095D01*
X108133333Y-61590476D01*
X108371428Y-61590476D01*
X108561904Y-61638095D01*
X108657142Y-61685714D01*
X108704761Y-61733333D01*
X108752380Y-61828571D01*
X108752380Y-61923809D01*
X108704761Y-62019047D01*
X108657142Y-62066666D01*
X108561904Y-62114285D01*
X108371428Y-62161904D01*
X108133333Y-62161904D01*
X107942857Y-62114285D01*
X107847619Y-62066666D01*
X107800000Y-62019047D01*
X107752380Y-61923809D01*
X108085714Y-60733333D02*
X108752380Y-60733333D01*
X107704761Y-60971428D02*
X108419047Y-61209523D01*
X108419047Y-60590476D01*
%TO.C,Q103*%
X109047619Y-59147619D02*
X109000000Y-59242857D01*
X108904761Y-59338095D01*
X108761904Y-59480952D01*
X108714285Y-59576190D01*
X108714285Y-59671428D01*
X108952380Y-59623809D02*
X108904761Y-59719047D01*
X108809523Y-59814285D01*
X108619047Y-59861904D01*
X108285714Y-59861904D01*
X108095238Y-59814285D01*
X108000000Y-59719047D01*
X107952380Y-59623809D01*
X107952380Y-59433333D01*
X108000000Y-59338095D01*
X108095238Y-59242857D01*
X108285714Y-59195238D01*
X108619047Y-59195238D01*
X108809523Y-59242857D01*
X108904761Y-59338095D01*
X108952380Y-59433333D01*
X108952380Y-59623809D01*
X108952380Y-58242857D02*
X108952380Y-58814285D01*
X108952380Y-58528571D02*
X107952380Y-58528571D01*
X108095238Y-58623809D01*
X108190476Y-58719047D01*
X108238095Y-58814285D01*
X107952380Y-57623809D02*
X107952380Y-57528571D01*
X108000000Y-57433333D01*
X108047619Y-57385714D01*
X108142857Y-57338095D01*
X108333333Y-57290476D01*
X108571428Y-57290476D01*
X108761904Y-57338095D01*
X108857142Y-57385714D01*
X108904761Y-57433333D01*
X108952380Y-57528571D01*
X108952380Y-57623809D01*
X108904761Y-57719047D01*
X108857142Y-57766666D01*
X108761904Y-57814285D01*
X108571428Y-57861904D01*
X108333333Y-57861904D01*
X108142857Y-57814285D01*
X108047619Y-57766666D01*
X108000000Y-57719047D01*
X107952380Y-57623809D01*
X107952380Y-56957142D02*
X107952380Y-56338095D01*
X108333333Y-56671428D01*
X108333333Y-56528571D01*
X108380952Y-56433333D01*
X108428571Y-56385714D01*
X108523809Y-56338095D01*
X108761904Y-56338095D01*
X108857142Y-56385714D01*
X108904761Y-56433333D01*
X108952380Y-56528571D01*
X108952380Y-56814285D01*
X108904761Y-56909523D01*
X108857142Y-56957142D01*
%TO.C,Q102*%
X100147619Y-63447619D02*
X100100000Y-63542857D01*
X100004761Y-63638095D01*
X99861904Y-63780952D01*
X99814285Y-63876190D01*
X99814285Y-63971428D01*
X100052380Y-63923809D02*
X100004761Y-64019047D01*
X99909523Y-64114285D01*
X99719047Y-64161904D01*
X99385714Y-64161904D01*
X99195238Y-64114285D01*
X99100000Y-64019047D01*
X99052380Y-63923809D01*
X99052380Y-63733333D01*
X99100000Y-63638095D01*
X99195238Y-63542857D01*
X99385714Y-63495238D01*
X99719047Y-63495238D01*
X99909523Y-63542857D01*
X100004761Y-63638095D01*
X100052380Y-63733333D01*
X100052380Y-63923809D01*
X100052380Y-62542857D02*
X100052380Y-63114285D01*
X100052380Y-62828571D02*
X99052380Y-62828571D01*
X99195238Y-62923809D01*
X99290476Y-63019047D01*
X99338095Y-63114285D01*
X99052380Y-61923809D02*
X99052380Y-61828571D01*
X99100000Y-61733333D01*
X99147619Y-61685714D01*
X99242857Y-61638095D01*
X99433333Y-61590476D01*
X99671428Y-61590476D01*
X99861904Y-61638095D01*
X99957142Y-61685714D01*
X100004761Y-61733333D01*
X100052380Y-61828571D01*
X100052380Y-61923809D01*
X100004761Y-62019047D01*
X99957142Y-62066666D01*
X99861904Y-62114285D01*
X99671428Y-62161904D01*
X99433333Y-62161904D01*
X99242857Y-62114285D01*
X99147619Y-62066666D01*
X99100000Y-62019047D01*
X99052380Y-61923809D01*
X99147619Y-61209523D02*
X99100000Y-61161904D01*
X99052380Y-61066666D01*
X99052380Y-60828571D01*
X99100000Y-60733333D01*
X99147619Y-60685714D01*
X99242857Y-60638095D01*
X99338095Y-60638095D01*
X99480952Y-60685714D01*
X100052380Y-61257142D01*
X100052380Y-60638095D01*
%TO.C,Q101*%
X100047619Y-59047619D02*
X100000000Y-59142857D01*
X99904761Y-59238095D01*
X99761904Y-59380952D01*
X99714285Y-59476190D01*
X99714285Y-59571428D01*
X99952380Y-59523809D02*
X99904761Y-59619047D01*
X99809523Y-59714285D01*
X99619047Y-59761904D01*
X99285714Y-59761904D01*
X99095238Y-59714285D01*
X99000000Y-59619047D01*
X98952380Y-59523809D01*
X98952380Y-59333333D01*
X99000000Y-59238095D01*
X99095238Y-59142857D01*
X99285714Y-59095238D01*
X99619047Y-59095238D01*
X99809523Y-59142857D01*
X99904761Y-59238095D01*
X99952380Y-59333333D01*
X99952380Y-59523809D01*
X99952380Y-58142857D02*
X99952380Y-58714285D01*
X99952380Y-58428571D02*
X98952380Y-58428571D01*
X99095238Y-58523809D01*
X99190476Y-58619047D01*
X99238095Y-58714285D01*
X98952380Y-57523809D02*
X98952380Y-57428571D01*
X99000000Y-57333333D01*
X99047619Y-57285714D01*
X99142857Y-57238095D01*
X99333333Y-57190476D01*
X99571428Y-57190476D01*
X99761904Y-57238095D01*
X99857142Y-57285714D01*
X99904761Y-57333333D01*
X99952380Y-57428571D01*
X99952380Y-57523809D01*
X99904761Y-57619047D01*
X99857142Y-57666666D01*
X99761904Y-57714285D01*
X99571428Y-57761904D01*
X99333333Y-57761904D01*
X99142857Y-57714285D01*
X99047619Y-57666666D01*
X99000000Y-57619047D01*
X98952380Y-57523809D01*
X99952380Y-56238095D02*
X99952380Y-56809523D01*
X99952380Y-56523809D02*
X98952380Y-56523809D01*
X99095238Y-56619047D01*
X99190476Y-56714285D01*
X99238095Y-56809523D01*
%TO.C,J310*%
X43814285Y-141952380D02*
X43814285Y-142666666D01*
X43766666Y-142809523D01*
X43671428Y-142904761D01*
X43528571Y-142952380D01*
X43433333Y-142952380D01*
X44195238Y-141952380D02*
X44814285Y-141952380D01*
X44480952Y-142333333D01*
X44623809Y-142333333D01*
X44719047Y-142380952D01*
X44766666Y-142428571D01*
X44814285Y-142523809D01*
X44814285Y-142761904D01*
X44766666Y-142857142D01*
X44719047Y-142904761D01*
X44623809Y-142952380D01*
X44338095Y-142952380D01*
X44242857Y-142904761D01*
X44195238Y-142857142D01*
X45766666Y-142952380D02*
X45195238Y-142952380D01*
X45480952Y-142952380D02*
X45480952Y-141952380D01*
X45385714Y-142095238D01*
X45290476Y-142190476D01*
X45195238Y-142238095D01*
X46385714Y-141952380D02*
X46480952Y-141952380D01*
X46576190Y-142000000D01*
X46623809Y-142047619D01*
X46671428Y-142142857D01*
X46719047Y-142333333D01*
X46719047Y-142571428D01*
X46671428Y-142761904D01*
X46623809Y-142857142D01*
X46576190Y-142904761D01*
X46480952Y-142952380D01*
X46385714Y-142952380D01*
X46290476Y-142904761D01*
X46242857Y-142857142D01*
X46195238Y-142761904D01*
X46147619Y-142571428D01*
X46147619Y-142333333D01*
X46195238Y-142142857D01*
X46242857Y-142047619D01*
X46290476Y-142000000D01*
X46385714Y-141952380D01*
%TO.C,J309*%
X63414285Y-141952380D02*
X63414285Y-142666666D01*
X63366666Y-142809523D01*
X63271428Y-142904761D01*
X63128571Y-142952380D01*
X63033333Y-142952380D01*
X63795238Y-141952380D02*
X64414285Y-141952380D01*
X64080952Y-142333333D01*
X64223809Y-142333333D01*
X64319047Y-142380952D01*
X64366666Y-142428571D01*
X64414285Y-142523809D01*
X64414285Y-142761904D01*
X64366666Y-142857142D01*
X64319047Y-142904761D01*
X64223809Y-142952380D01*
X63938095Y-142952380D01*
X63842857Y-142904761D01*
X63795238Y-142857142D01*
X65033333Y-141952380D02*
X65128571Y-141952380D01*
X65223809Y-142000000D01*
X65271428Y-142047619D01*
X65319047Y-142142857D01*
X65366666Y-142333333D01*
X65366666Y-142571428D01*
X65319047Y-142761904D01*
X65271428Y-142857142D01*
X65223809Y-142904761D01*
X65128571Y-142952380D01*
X65033333Y-142952380D01*
X64938095Y-142904761D01*
X64890476Y-142857142D01*
X64842857Y-142761904D01*
X64795238Y-142571428D01*
X64795238Y-142333333D01*
X64842857Y-142142857D01*
X64890476Y-142047619D01*
X64938095Y-142000000D01*
X65033333Y-141952380D01*
X65842857Y-142952380D02*
X66033333Y-142952380D01*
X66128571Y-142904761D01*
X66176190Y-142857142D01*
X66271428Y-142714285D01*
X66319047Y-142523809D01*
X66319047Y-142142857D01*
X66271428Y-142047619D01*
X66223809Y-142000000D01*
X66128571Y-141952380D01*
X65938095Y-141952380D01*
X65842857Y-142000000D01*
X65795238Y-142047619D01*
X65747619Y-142142857D01*
X65747619Y-142380952D01*
X65795238Y-142476190D01*
X65842857Y-142523809D01*
X65938095Y-142571428D01*
X66128571Y-142571428D01*
X66223809Y-142523809D01*
X66271428Y-142476190D01*
X66319047Y-142380952D01*
%TO.C,J308*%
X34014285Y-141952380D02*
X34014285Y-142666666D01*
X33966666Y-142809523D01*
X33871428Y-142904761D01*
X33728571Y-142952380D01*
X33633333Y-142952380D01*
X34395238Y-141952380D02*
X35014285Y-141952380D01*
X34680952Y-142333333D01*
X34823809Y-142333333D01*
X34919047Y-142380952D01*
X34966666Y-142428571D01*
X35014285Y-142523809D01*
X35014285Y-142761904D01*
X34966666Y-142857142D01*
X34919047Y-142904761D01*
X34823809Y-142952380D01*
X34538095Y-142952380D01*
X34442857Y-142904761D01*
X34395238Y-142857142D01*
X35633333Y-141952380D02*
X35728571Y-141952380D01*
X35823809Y-142000000D01*
X35871428Y-142047619D01*
X35919047Y-142142857D01*
X35966666Y-142333333D01*
X35966666Y-142571428D01*
X35919047Y-142761904D01*
X35871428Y-142857142D01*
X35823809Y-142904761D01*
X35728571Y-142952380D01*
X35633333Y-142952380D01*
X35538095Y-142904761D01*
X35490476Y-142857142D01*
X35442857Y-142761904D01*
X35395238Y-142571428D01*
X35395238Y-142333333D01*
X35442857Y-142142857D01*
X35490476Y-142047619D01*
X35538095Y-142000000D01*
X35633333Y-141952380D01*
X36538095Y-142380952D02*
X36442857Y-142333333D01*
X36395238Y-142285714D01*
X36347619Y-142190476D01*
X36347619Y-142142857D01*
X36395238Y-142047619D01*
X36442857Y-142000000D01*
X36538095Y-141952380D01*
X36728571Y-141952380D01*
X36823809Y-142000000D01*
X36871428Y-142047619D01*
X36919047Y-142142857D01*
X36919047Y-142190476D01*
X36871428Y-142285714D01*
X36823809Y-142333333D01*
X36728571Y-142380952D01*
X36538095Y-142380952D01*
X36442857Y-142428571D01*
X36395238Y-142476190D01*
X36347619Y-142571428D01*
X36347619Y-142761904D01*
X36395238Y-142857142D01*
X36442857Y-142904761D01*
X36538095Y-142952380D01*
X36728571Y-142952380D01*
X36823809Y-142904761D01*
X36871428Y-142857142D01*
X36919047Y-142761904D01*
X36919047Y-142571428D01*
X36871428Y-142476190D01*
X36823809Y-142428571D01*
X36728571Y-142380952D01*
%TO.C,J307*%
X63414285Y-159652380D02*
X63414285Y-160366666D01*
X63366666Y-160509523D01*
X63271428Y-160604761D01*
X63128571Y-160652380D01*
X63033333Y-160652380D01*
X63795238Y-159652380D02*
X64414285Y-159652380D01*
X64080952Y-160033333D01*
X64223809Y-160033333D01*
X64319047Y-160080952D01*
X64366666Y-160128571D01*
X64414285Y-160223809D01*
X64414285Y-160461904D01*
X64366666Y-160557142D01*
X64319047Y-160604761D01*
X64223809Y-160652380D01*
X63938095Y-160652380D01*
X63842857Y-160604761D01*
X63795238Y-160557142D01*
X65033333Y-159652380D02*
X65128571Y-159652380D01*
X65223809Y-159700000D01*
X65271428Y-159747619D01*
X65319047Y-159842857D01*
X65366666Y-160033333D01*
X65366666Y-160271428D01*
X65319047Y-160461904D01*
X65271428Y-160557142D01*
X65223809Y-160604761D01*
X65128571Y-160652380D01*
X65033333Y-160652380D01*
X64938095Y-160604761D01*
X64890476Y-160557142D01*
X64842857Y-160461904D01*
X64795238Y-160271428D01*
X64795238Y-160033333D01*
X64842857Y-159842857D01*
X64890476Y-159747619D01*
X64938095Y-159700000D01*
X65033333Y-159652380D01*
X65700000Y-159652380D02*
X66366666Y-159652380D01*
X65938095Y-160652380D01*
%TO.C,J306*%
X53614285Y-141952380D02*
X53614285Y-142666666D01*
X53566666Y-142809523D01*
X53471428Y-142904761D01*
X53328571Y-142952380D01*
X53233333Y-142952380D01*
X53995238Y-141952380D02*
X54614285Y-141952380D01*
X54280952Y-142333333D01*
X54423809Y-142333333D01*
X54519047Y-142380952D01*
X54566666Y-142428571D01*
X54614285Y-142523809D01*
X54614285Y-142761904D01*
X54566666Y-142857142D01*
X54519047Y-142904761D01*
X54423809Y-142952380D01*
X54138095Y-142952380D01*
X54042857Y-142904761D01*
X53995238Y-142857142D01*
X55233333Y-141952380D02*
X55328571Y-141952380D01*
X55423809Y-142000000D01*
X55471428Y-142047619D01*
X55519047Y-142142857D01*
X55566666Y-142333333D01*
X55566666Y-142571428D01*
X55519047Y-142761904D01*
X55471428Y-142857142D01*
X55423809Y-142904761D01*
X55328571Y-142952380D01*
X55233333Y-142952380D01*
X55138095Y-142904761D01*
X55090476Y-142857142D01*
X55042857Y-142761904D01*
X54995238Y-142571428D01*
X54995238Y-142333333D01*
X55042857Y-142142857D01*
X55090476Y-142047619D01*
X55138095Y-142000000D01*
X55233333Y-141952380D01*
X56423809Y-141952380D02*
X56233333Y-141952380D01*
X56138095Y-142000000D01*
X56090476Y-142047619D01*
X55995238Y-142190476D01*
X55947619Y-142380952D01*
X55947619Y-142761904D01*
X55995238Y-142857142D01*
X56042857Y-142904761D01*
X56138095Y-142952380D01*
X56328571Y-142952380D01*
X56423809Y-142904761D01*
X56471428Y-142857142D01*
X56519047Y-142761904D01*
X56519047Y-142523809D01*
X56471428Y-142428571D01*
X56423809Y-142380952D01*
X56328571Y-142333333D01*
X56138095Y-142333333D01*
X56042857Y-142380952D01*
X55995238Y-142428571D01*
X55947619Y-142523809D01*
%TO.C,J305*%
X53614285Y-159652380D02*
X53614285Y-160366666D01*
X53566666Y-160509523D01*
X53471428Y-160604761D01*
X53328571Y-160652380D01*
X53233333Y-160652380D01*
X53995238Y-159652380D02*
X54614285Y-159652380D01*
X54280952Y-160033333D01*
X54423809Y-160033333D01*
X54519047Y-160080952D01*
X54566666Y-160128571D01*
X54614285Y-160223809D01*
X54614285Y-160461904D01*
X54566666Y-160557142D01*
X54519047Y-160604761D01*
X54423809Y-160652380D01*
X54138095Y-160652380D01*
X54042857Y-160604761D01*
X53995238Y-160557142D01*
X55233333Y-159652380D02*
X55328571Y-159652380D01*
X55423809Y-159700000D01*
X55471428Y-159747619D01*
X55519047Y-159842857D01*
X55566666Y-160033333D01*
X55566666Y-160271428D01*
X55519047Y-160461904D01*
X55471428Y-160557142D01*
X55423809Y-160604761D01*
X55328571Y-160652380D01*
X55233333Y-160652380D01*
X55138095Y-160604761D01*
X55090476Y-160557142D01*
X55042857Y-160461904D01*
X54995238Y-160271428D01*
X54995238Y-160033333D01*
X55042857Y-159842857D01*
X55090476Y-159747619D01*
X55138095Y-159700000D01*
X55233333Y-159652380D01*
X56471428Y-159652380D02*
X55995238Y-159652380D01*
X55947619Y-160128571D01*
X55995238Y-160080952D01*
X56090476Y-160033333D01*
X56328571Y-160033333D01*
X56423809Y-160080952D01*
X56471428Y-160128571D01*
X56519047Y-160223809D01*
X56519047Y-160461904D01*
X56471428Y-160557142D01*
X56423809Y-160604761D01*
X56328571Y-160652380D01*
X56090476Y-160652380D01*
X55995238Y-160604761D01*
X55947619Y-160557142D01*
%TO.C,J304*%
X43814285Y-159652380D02*
X43814285Y-160366666D01*
X43766666Y-160509523D01*
X43671428Y-160604761D01*
X43528571Y-160652380D01*
X43433333Y-160652380D01*
X44195238Y-159652380D02*
X44814285Y-159652380D01*
X44480952Y-160033333D01*
X44623809Y-160033333D01*
X44719047Y-160080952D01*
X44766666Y-160128571D01*
X44814285Y-160223809D01*
X44814285Y-160461904D01*
X44766666Y-160557142D01*
X44719047Y-160604761D01*
X44623809Y-160652380D01*
X44338095Y-160652380D01*
X44242857Y-160604761D01*
X44195238Y-160557142D01*
X45433333Y-159652380D02*
X45528571Y-159652380D01*
X45623809Y-159700000D01*
X45671428Y-159747619D01*
X45719047Y-159842857D01*
X45766666Y-160033333D01*
X45766666Y-160271428D01*
X45719047Y-160461904D01*
X45671428Y-160557142D01*
X45623809Y-160604761D01*
X45528571Y-160652380D01*
X45433333Y-160652380D01*
X45338095Y-160604761D01*
X45290476Y-160557142D01*
X45242857Y-160461904D01*
X45195238Y-160271428D01*
X45195238Y-160033333D01*
X45242857Y-159842857D01*
X45290476Y-159747619D01*
X45338095Y-159700000D01*
X45433333Y-159652380D01*
X46623809Y-159985714D02*
X46623809Y-160652380D01*
X46385714Y-159604761D02*
X46147619Y-160319047D01*
X46766666Y-160319047D01*
%TO.C,J303*%
X34014285Y-159652380D02*
X34014285Y-160366666D01*
X33966666Y-160509523D01*
X33871428Y-160604761D01*
X33728571Y-160652380D01*
X33633333Y-160652380D01*
X34395238Y-159652380D02*
X35014285Y-159652380D01*
X34680952Y-160033333D01*
X34823809Y-160033333D01*
X34919047Y-160080952D01*
X34966666Y-160128571D01*
X35014285Y-160223809D01*
X35014285Y-160461904D01*
X34966666Y-160557142D01*
X34919047Y-160604761D01*
X34823809Y-160652380D01*
X34538095Y-160652380D01*
X34442857Y-160604761D01*
X34395238Y-160557142D01*
X35633333Y-159652380D02*
X35728571Y-159652380D01*
X35823809Y-159700000D01*
X35871428Y-159747619D01*
X35919047Y-159842857D01*
X35966666Y-160033333D01*
X35966666Y-160271428D01*
X35919047Y-160461904D01*
X35871428Y-160557142D01*
X35823809Y-160604761D01*
X35728571Y-160652380D01*
X35633333Y-160652380D01*
X35538095Y-160604761D01*
X35490476Y-160557142D01*
X35442857Y-160461904D01*
X35395238Y-160271428D01*
X35395238Y-160033333D01*
X35442857Y-159842857D01*
X35490476Y-159747619D01*
X35538095Y-159700000D01*
X35633333Y-159652380D01*
X36300000Y-159652380D02*
X36919047Y-159652380D01*
X36585714Y-160033333D01*
X36728571Y-160033333D01*
X36823809Y-160080952D01*
X36871428Y-160128571D01*
X36919047Y-160223809D01*
X36919047Y-160461904D01*
X36871428Y-160557142D01*
X36823809Y-160604761D01*
X36728571Y-160652380D01*
X36442857Y-160652380D01*
X36347619Y-160604761D01*
X36300000Y-160557142D01*
%TO.C,J203*%
X75722380Y-71285714D02*
X76436666Y-71285714D01*
X76579523Y-71333333D01*
X76674761Y-71428571D01*
X76722380Y-71571428D01*
X76722380Y-71666666D01*
X75817619Y-70857142D02*
X75770000Y-70809523D01*
X75722380Y-70714285D01*
X75722380Y-70476190D01*
X75770000Y-70380952D01*
X75817619Y-70333333D01*
X75912857Y-70285714D01*
X76008095Y-70285714D01*
X76150952Y-70333333D01*
X76722380Y-70904761D01*
X76722380Y-70285714D01*
X75722380Y-69666666D02*
X75722380Y-69571428D01*
X75770000Y-69476190D01*
X75817619Y-69428571D01*
X75912857Y-69380952D01*
X76103333Y-69333333D01*
X76341428Y-69333333D01*
X76531904Y-69380952D01*
X76627142Y-69428571D01*
X76674761Y-69476190D01*
X76722380Y-69571428D01*
X76722380Y-69666666D01*
X76674761Y-69761904D01*
X76627142Y-69809523D01*
X76531904Y-69857142D01*
X76341428Y-69904761D01*
X76103333Y-69904761D01*
X75912857Y-69857142D01*
X75817619Y-69809523D01*
X75770000Y-69761904D01*
X75722380Y-69666666D01*
X75722380Y-69000000D02*
X75722380Y-68380952D01*
X76103333Y-68714285D01*
X76103333Y-68571428D01*
X76150952Y-68476190D01*
X76198571Y-68428571D01*
X76293809Y-68380952D01*
X76531904Y-68380952D01*
X76627142Y-68428571D01*
X76674761Y-68476190D01*
X76722380Y-68571428D01*
X76722380Y-68857142D01*
X76674761Y-68952380D01*
X76627142Y-69000000D01*
%TO.C,J202*%
X76922380Y-155685714D02*
X77636666Y-155685714D01*
X77779523Y-155733333D01*
X77874761Y-155828571D01*
X77922380Y-155971428D01*
X77922380Y-156066666D01*
X77017619Y-155257142D02*
X76970000Y-155209523D01*
X76922380Y-155114285D01*
X76922380Y-154876190D01*
X76970000Y-154780952D01*
X77017619Y-154733333D01*
X77112857Y-154685714D01*
X77208095Y-154685714D01*
X77350952Y-154733333D01*
X77922380Y-155304761D01*
X77922380Y-154685714D01*
X76922380Y-154066666D02*
X76922380Y-153971428D01*
X76970000Y-153876190D01*
X77017619Y-153828571D01*
X77112857Y-153780952D01*
X77303333Y-153733333D01*
X77541428Y-153733333D01*
X77731904Y-153780952D01*
X77827142Y-153828571D01*
X77874761Y-153876190D01*
X77922380Y-153971428D01*
X77922380Y-154066666D01*
X77874761Y-154161904D01*
X77827142Y-154209523D01*
X77731904Y-154257142D01*
X77541428Y-154304761D01*
X77303333Y-154304761D01*
X77112857Y-154257142D01*
X77017619Y-154209523D01*
X76970000Y-154161904D01*
X76922380Y-154066666D01*
X77017619Y-153352380D02*
X76970000Y-153304761D01*
X76922380Y-153209523D01*
X76922380Y-152971428D01*
X76970000Y-152876190D01*
X77017619Y-152828571D01*
X77112857Y-152780952D01*
X77208095Y-152780952D01*
X77350952Y-152828571D01*
X77922380Y-153400000D01*
X77922380Y-152780952D01*
%TO.C,D304*%
X41639523Y-129792380D02*
X41639523Y-128792380D01*
X41877619Y-128792380D01*
X42020476Y-128840000D01*
X42115714Y-128935238D01*
X42163333Y-129030476D01*
X42210952Y-129220952D01*
X42210952Y-129363809D01*
X42163333Y-129554285D01*
X42115714Y-129649523D01*
X42020476Y-129744761D01*
X41877619Y-129792380D01*
X41639523Y-129792380D01*
X42544285Y-128792380D02*
X43163333Y-128792380D01*
X42830000Y-129173333D01*
X42972857Y-129173333D01*
X43068095Y-129220952D01*
X43115714Y-129268571D01*
X43163333Y-129363809D01*
X43163333Y-129601904D01*
X43115714Y-129697142D01*
X43068095Y-129744761D01*
X42972857Y-129792380D01*
X42687142Y-129792380D01*
X42591904Y-129744761D01*
X42544285Y-129697142D01*
X43782380Y-128792380D02*
X43877619Y-128792380D01*
X43972857Y-128840000D01*
X44020476Y-128887619D01*
X44068095Y-128982857D01*
X44115714Y-129173333D01*
X44115714Y-129411428D01*
X44068095Y-129601904D01*
X44020476Y-129697142D01*
X43972857Y-129744761D01*
X43877619Y-129792380D01*
X43782380Y-129792380D01*
X43687142Y-129744761D01*
X43639523Y-129697142D01*
X43591904Y-129601904D01*
X43544285Y-129411428D01*
X43544285Y-129173333D01*
X43591904Y-128982857D01*
X43639523Y-128887619D01*
X43687142Y-128840000D01*
X43782380Y-128792380D01*
X44972857Y-129125714D02*
X44972857Y-129792380D01*
X44734761Y-128744761D02*
X44496666Y-129459047D01*
X45115714Y-129459047D01*
%TO.C,D203*%
X103347619Y-65961904D02*
X103347619Y-65161904D01*
X103538095Y-65161904D01*
X103652380Y-65200000D01*
X103728571Y-65276190D01*
X103766666Y-65352380D01*
X103804761Y-65504761D01*
X103804761Y-65619047D01*
X103766666Y-65771428D01*
X103728571Y-65847619D01*
X103652380Y-65923809D01*
X103538095Y-65961904D01*
X103347619Y-65961904D01*
X104109523Y-65238095D02*
X104147619Y-65200000D01*
X104223809Y-65161904D01*
X104414285Y-65161904D01*
X104490476Y-65200000D01*
X104528571Y-65238095D01*
X104566666Y-65314285D01*
X104566666Y-65390476D01*
X104528571Y-65504761D01*
X104071428Y-65961904D01*
X104566666Y-65961904D01*
X105061904Y-65161904D02*
X105138095Y-65161904D01*
X105214285Y-65200000D01*
X105252380Y-65238095D01*
X105290476Y-65314285D01*
X105328571Y-65466666D01*
X105328571Y-65657142D01*
X105290476Y-65809523D01*
X105252380Y-65885714D01*
X105214285Y-65923809D01*
X105138095Y-65961904D01*
X105061904Y-65961904D01*
X104985714Y-65923809D01*
X104947619Y-65885714D01*
X104909523Y-65809523D01*
X104871428Y-65657142D01*
X104871428Y-65466666D01*
X104909523Y-65314285D01*
X104947619Y-65238095D01*
X104985714Y-65200000D01*
X105061904Y-65161904D01*
X105595238Y-65161904D02*
X106090476Y-65161904D01*
X105823809Y-65466666D01*
X105938095Y-65466666D01*
X106014285Y-65504761D01*
X106052380Y-65542857D01*
X106090476Y-65619047D01*
X106090476Y-65809523D01*
X106052380Y-65885714D01*
X106014285Y-65923809D01*
X105938095Y-65961904D01*
X105709523Y-65961904D01*
X105633333Y-65923809D01*
X105595238Y-65885714D01*
X98738095Y-66052380D02*
X98738095Y-65052380D01*
X99309523Y-66052380D02*
X98880952Y-65480952D01*
X99309523Y-65052380D02*
X98738095Y-65623809D01*
%TO.C,D202*%
X98159523Y-147352380D02*
X98159523Y-146352380D01*
X98397619Y-146352380D01*
X98540476Y-146400000D01*
X98635714Y-146495238D01*
X98683333Y-146590476D01*
X98730952Y-146780952D01*
X98730952Y-146923809D01*
X98683333Y-147114285D01*
X98635714Y-147209523D01*
X98540476Y-147304761D01*
X98397619Y-147352380D01*
X98159523Y-147352380D01*
X99111904Y-146447619D02*
X99159523Y-146400000D01*
X99254761Y-146352380D01*
X99492857Y-146352380D01*
X99588095Y-146400000D01*
X99635714Y-146447619D01*
X99683333Y-146542857D01*
X99683333Y-146638095D01*
X99635714Y-146780952D01*
X99064285Y-147352380D01*
X99683333Y-147352380D01*
X100302380Y-146352380D02*
X100397619Y-146352380D01*
X100492857Y-146400000D01*
X100540476Y-146447619D01*
X100588095Y-146542857D01*
X100635714Y-146733333D01*
X100635714Y-146971428D01*
X100588095Y-147161904D01*
X100540476Y-147257142D01*
X100492857Y-147304761D01*
X100397619Y-147352380D01*
X100302380Y-147352380D01*
X100207142Y-147304761D01*
X100159523Y-147257142D01*
X100111904Y-147161904D01*
X100064285Y-146971428D01*
X100064285Y-146733333D01*
X100111904Y-146542857D01*
X100159523Y-146447619D01*
X100207142Y-146400000D01*
X100302380Y-146352380D01*
X101016666Y-146447619D02*
X101064285Y-146400000D01*
X101159523Y-146352380D01*
X101397619Y-146352380D01*
X101492857Y-146400000D01*
X101540476Y-146447619D01*
X101588095Y-146542857D01*
X101588095Y-146638095D01*
X101540476Y-146780952D01*
X100969047Y-147352380D01*
X101588095Y-147352380D01*
%TO.C,D201*%
X98059523Y-133152380D02*
X98059523Y-132152380D01*
X98297619Y-132152380D01*
X98440476Y-132200000D01*
X98535714Y-132295238D01*
X98583333Y-132390476D01*
X98630952Y-132580952D01*
X98630952Y-132723809D01*
X98583333Y-132914285D01*
X98535714Y-133009523D01*
X98440476Y-133104761D01*
X98297619Y-133152380D01*
X98059523Y-133152380D01*
X99011904Y-132247619D02*
X99059523Y-132200000D01*
X99154761Y-132152380D01*
X99392857Y-132152380D01*
X99488095Y-132200000D01*
X99535714Y-132247619D01*
X99583333Y-132342857D01*
X99583333Y-132438095D01*
X99535714Y-132580952D01*
X98964285Y-133152380D01*
X99583333Y-133152380D01*
X100202380Y-132152380D02*
X100297619Y-132152380D01*
X100392857Y-132200000D01*
X100440476Y-132247619D01*
X100488095Y-132342857D01*
X100535714Y-132533333D01*
X100535714Y-132771428D01*
X100488095Y-132961904D01*
X100440476Y-133057142D01*
X100392857Y-133104761D01*
X100297619Y-133152380D01*
X100202380Y-133152380D01*
X100107142Y-133104761D01*
X100059523Y-133057142D01*
X100011904Y-132961904D01*
X99964285Y-132771428D01*
X99964285Y-132533333D01*
X100011904Y-132342857D01*
X100059523Y-132247619D01*
X100107142Y-132200000D01*
X100202380Y-132152380D01*
X101488095Y-133152380D02*
X100916666Y-133152380D01*
X101202380Y-133152380D02*
X101202380Y-132152380D01*
X101107142Y-132295238D01*
X101011904Y-132390476D01*
X100916666Y-132438095D01*
%TO.C,D110*%
X92209523Y-108302380D02*
X92209523Y-107302380D01*
X92447619Y-107302380D01*
X92590476Y-107350000D01*
X92685714Y-107445238D01*
X92733333Y-107540476D01*
X92780952Y-107730952D01*
X92780952Y-107873809D01*
X92733333Y-108064285D01*
X92685714Y-108159523D01*
X92590476Y-108254761D01*
X92447619Y-108302380D01*
X92209523Y-108302380D01*
X93733333Y-108302380D02*
X93161904Y-108302380D01*
X93447619Y-108302380D02*
X93447619Y-107302380D01*
X93352380Y-107445238D01*
X93257142Y-107540476D01*
X93161904Y-107588095D01*
X94685714Y-108302380D02*
X94114285Y-108302380D01*
X94400000Y-108302380D02*
X94400000Y-107302380D01*
X94304761Y-107445238D01*
X94209523Y-107540476D01*
X94114285Y-107588095D01*
X95304761Y-107302380D02*
X95400000Y-107302380D01*
X95495238Y-107350000D01*
X95542857Y-107397619D01*
X95590476Y-107492857D01*
X95638095Y-107683333D01*
X95638095Y-107921428D01*
X95590476Y-108111904D01*
X95542857Y-108207142D01*
X95495238Y-108254761D01*
X95400000Y-108302380D01*
X95304761Y-108302380D01*
X95209523Y-108254761D01*
X95161904Y-108207142D01*
X95114285Y-108111904D01*
X95066666Y-107921428D01*
X95066666Y-107683333D01*
X95114285Y-107492857D01*
X95161904Y-107397619D01*
X95209523Y-107350000D01*
X95304761Y-107302380D01*
%TO.C,D109*%
X85509523Y-103602380D02*
X85509523Y-102602380D01*
X85747619Y-102602380D01*
X85890476Y-102650000D01*
X85985714Y-102745238D01*
X86033333Y-102840476D01*
X86080952Y-103030952D01*
X86080952Y-103173809D01*
X86033333Y-103364285D01*
X85985714Y-103459523D01*
X85890476Y-103554761D01*
X85747619Y-103602380D01*
X85509523Y-103602380D01*
X87033333Y-103602380D02*
X86461904Y-103602380D01*
X86747619Y-103602380D02*
X86747619Y-102602380D01*
X86652380Y-102745238D01*
X86557142Y-102840476D01*
X86461904Y-102888095D01*
X87652380Y-102602380D02*
X87747619Y-102602380D01*
X87842857Y-102650000D01*
X87890476Y-102697619D01*
X87938095Y-102792857D01*
X87985714Y-102983333D01*
X87985714Y-103221428D01*
X87938095Y-103411904D01*
X87890476Y-103507142D01*
X87842857Y-103554761D01*
X87747619Y-103602380D01*
X87652380Y-103602380D01*
X87557142Y-103554761D01*
X87509523Y-103507142D01*
X87461904Y-103411904D01*
X87414285Y-103221428D01*
X87414285Y-102983333D01*
X87461904Y-102792857D01*
X87509523Y-102697619D01*
X87557142Y-102650000D01*
X87652380Y-102602380D01*
X88461904Y-103602380D02*
X88652380Y-103602380D01*
X88747619Y-103554761D01*
X88795238Y-103507142D01*
X88890476Y-103364285D01*
X88938095Y-103173809D01*
X88938095Y-102792857D01*
X88890476Y-102697619D01*
X88842857Y-102650000D01*
X88747619Y-102602380D01*
X88557142Y-102602380D01*
X88461904Y-102650000D01*
X88414285Y-102697619D01*
X88366666Y-102792857D01*
X88366666Y-103030952D01*
X88414285Y-103126190D01*
X88461904Y-103173809D01*
X88557142Y-103221428D01*
X88747619Y-103221428D01*
X88842857Y-103173809D01*
X88890476Y-103126190D01*
X88938095Y-103030952D01*
%TO.C,D108*%
X93459523Y-95252380D02*
X93459523Y-94252380D01*
X93697619Y-94252380D01*
X93840476Y-94300000D01*
X93935714Y-94395238D01*
X93983333Y-94490476D01*
X94030952Y-94680952D01*
X94030952Y-94823809D01*
X93983333Y-95014285D01*
X93935714Y-95109523D01*
X93840476Y-95204761D01*
X93697619Y-95252380D01*
X93459523Y-95252380D01*
X94983333Y-95252380D02*
X94411904Y-95252380D01*
X94697619Y-95252380D02*
X94697619Y-94252380D01*
X94602380Y-94395238D01*
X94507142Y-94490476D01*
X94411904Y-94538095D01*
X95602380Y-94252380D02*
X95697619Y-94252380D01*
X95792857Y-94300000D01*
X95840476Y-94347619D01*
X95888095Y-94442857D01*
X95935714Y-94633333D01*
X95935714Y-94871428D01*
X95888095Y-95061904D01*
X95840476Y-95157142D01*
X95792857Y-95204761D01*
X95697619Y-95252380D01*
X95602380Y-95252380D01*
X95507142Y-95204761D01*
X95459523Y-95157142D01*
X95411904Y-95061904D01*
X95364285Y-94871428D01*
X95364285Y-94633333D01*
X95411904Y-94442857D01*
X95459523Y-94347619D01*
X95507142Y-94300000D01*
X95602380Y-94252380D01*
X96507142Y-94680952D02*
X96411904Y-94633333D01*
X96364285Y-94585714D01*
X96316666Y-94490476D01*
X96316666Y-94442857D01*
X96364285Y-94347619D01*
X96411904Y-94300000D01*
X96507142Y-94252380D01*
X96697619Y-94252380D01*
X96792857Y-94300000D01*
X96840476Y-94347619D01*
X96888095Y-94442857D01*
X96888095Y-94490476D01*
X96840476Y-94585714D01*
X96792857Y-94633333D01*
X96697619Y-94680952D01*
X96507142Y-94680952D01*
X96411904Y-94728571D01*
X96364285Y-94776190D01*
X96316666Y-94871428D01*
X96316666Y-95061904D01*
X96364285Y-95157142D01*
X96411904Y-95204761D01*
X96507142Y-95252380D01*
X96697619Y-95252380D01*
X96792857Y-95204761D01*
X96840476Y-95157142D01*
X96888095Y-95061904D01*
X96888095Y-94871428D01*
X96840476Y-94776190D01*
X96792857Y-94728571D01*
X96697619Y-94680952D01*
%TO.C,D107*%
X101761904Y-98132380D02*
X100961904Y-98132380D01*
X100961904Y-97941904D01*
X101000000Y-97827619D01*
X101076190Y-97751428D01*
X101152380Y-97713333D01*
X101304761Y-97675238D01*
X101419047Y-97675238D01*
X101571428Y-97713333D01*
X101647619Y-97751428D01*
X101723809Y-97827619D01*
X101761904Y-97941904D01*
X101761904Y-98132380D01*
X101761904Y-96913333D02*
X101761904Y-97370476D01*
X101761904Y-97141904D02*
X100961904Y-97141904D01*
X101076190Y-97218095D01*
X101152380Y-97294285D01*
X101190476Y-97370476D01*
X100961904Y-96418095D02*
X100961904Y-96341904D01*
X101000000Y-96265714D01*
X101038095Y-96227619D01*
X101114285Y-96189523D01*
X101266666Y-96151428D01*
X101457142Y-96151428D01*
X101609523Y-96189523D01*
X101685714Y-96227619D01*
X101723809Y-96265714D01*
X101761904Y-96341904D01*
X101761904Y-96418095D01*
X101723809Y-96494285D01*
X101685714Y-96532380D01*
X101609523Y-96570476D01*
X101457142Y-96608571D01*
X101266666Y-96608571D01*
X101114285Y-96570476D01*
X101038095Y-96532380D01*
X101000000Y-96494285D01*
X100961904Y-96418095D01*
X100961904Y-95884761D02*
X100961904Y-95351428D01*
X101761904Y-95694285D01*
X101852380Y-91141904D02*
X100852380Y-91141904D01*
X101852380Y-90570476D02*
X101280952Y-90999047D01*
X100852380Y-90570476D02*
X101423809Y-91141904D01*
%TO.C,D106*%
X99647619Y-52461904D02*
X99647619Y-51661904D01*
X99838095Y-51661904D01*
X99952380Y-51700000D01*
X100028571Y-51776190D01*
X100066666Y-51852380D01*
X100104761Y-52004761D01*
X100104761Y-52119047D01*
X100066666Y-52271428D01*
X100028571Y-52347619D01*
X99952380Y-52423809D01*
X99838095Y-52461904D01*
X99647619Y-52461904D01*
X100866666Y-52461904D02*
X100409523Y-52461904D01*
X100638095Y-52461904D02*
X100638095Y-51661904D01*
X100561904Y-51776190D01*
X100485714Y-51852380D01*
X100409523Y-51890476D01*
X101361904Y-51661904D02*
X101438095Y-51661904D01*
X101514285Y-51700000D01*
X101552380Y-51738095D01*
X101590476Y-51814285D01*
X101628571Y-51966666D01*
X101628571Y-52157142D01*
X101590476Y-52309523D01*
X101552380Y-52385714D01*
X101514285Y-52423809D01*
X101438095Y-52461904D01*
X101361904Y-52461904D01*
X101285714Y-52423809D01*
X101247619Y-52385714D01*
X101209523Y-52309523D01*
X101171428Y-52157142D01*
X101171428Y-51966666D01*
X101209523Y-51814285D01*
X101247619Y-51738095D01*
X101285714Y-51700000D01*
X101361904Y-51661904D01*
X102314285Y-51661904D02*
X102161904Y-51661904D01*
X102085714Y-51700000D01*
X102047619Y-51738095D01*
X101971428Y-51852380D01*
X101933333Y-52004761D01*
X101933333Y-52309523D01*
X101971428Y-52385714D01*
X102009523Y-52423809D01*
X102085714Y-52461904D01*
X102238095Y-52461904D01*
X102314285Y-52423809D01*
X102352380Y-52385714D01*
X102390476Y-52309523D01*
X102390476Y-52119047D01*
X102352380Y-52042857D01*
X102314285Y-52004761D01*
X102238095Y-51966666D01*
X102085714Y-51966666D01*
X102009523Y-52004761D01*
X101971428Y-52042857D01*
X101933333Y-52119047D01*
X106738095Y-52552380D02*
X106738095Y-51552380D01*
X107309523Y-52552380D02*
X106880952Y-51980952D01*
X107309523Y-51552380D02*
X106738095Y-52123809D01*
%TO.C,D105*%
X99827619Y-55261904D02*
X99827619Y-54461904D01*
X100018095Y-54461904D01*
X100132380Y-54500000D01*
X100208571Y-54576190D01*
X100246666Y-54652380D01*
X100284761Y-54804761D01*
X100284761Y-54919047D01*
X100246666Y-55071428D01*
X100208571Y-55147619D01*
X100132380Y-55223809D01*
X100018095Y-55261904D01*
X99827619Y-55261904D01*
X101046666Y-55261904D02*
X100589523Y-55261904D01*
X100818095Y-55261904D02*
X100818095Y-54461904D01*
X100741904Y-54576190D01*
X100665714Y-54652380D01*
X100589523Y-54690476D01*
X101541904Y-54461904D02*
X101618095Y-54461904D01*
X101694285Y-54500000D01*
X101732380Y-54538095D01*
X101770476Y-54614285D01*
X101808571Y-54766666D01*
X101808571Y-54957142D01*
X101770476Y-55109523D01*
X101732380Y-55185714D01*
X101694285Y-55223809D01*
X101618095Y-55261904D01*
X101541904Y-55261904D01*
X101465714Y-55223809D01*
X101427619Y-55185714D01*
X101389523Y-55109523D01*
X101351428Y-54957142D01*
X101351428Y-54766666D01*
X101389523Y-54614285D01*
X101427619Y-54538095D01*
X101465714Y-54500000D01*
X101541904Y-54461904D01*
X102532380Y-54461904D02*
X102151428Y-54461904D01*
X102113333Y-54842857D01*
X102151428Y-54804761D01*
X102227619Y-54766666D01*
X102418095Y-54766666D01*
X102494285Y-54804761D01*
X102532380Y-54842857D01*
X102570476Y-54919047D01*
X102570476Y-55109523D01*
X102532380Y-55185714D01*
X102494285Y-55223809D01*
X102418095Y-55261904D01*
X102227619Y-55261904D01*
X102151428Y-55223809D01*
X102113333Y-55185714D01*
X106738095Y-55352380D02*
X106738095Y-54352380D01*
X107309523Y-55352380D02*
X106880952Y-54780952D01*
X107309523Y-54352380D02*
X106738095Y-54923809D01*
%TO.C,D104*%
X90809523Y-90852380D02*
X90809523Y-89852380D01*
X91047619Y-89852380D01*
X91190476Y-89900000D01*
X91285714Y-89995238D01*
X91333333Y-90090476D01*
X91380952Y-90280952D01*
X91380952Y-90423809D01*
X91333333Y-90614285D01*
X91285714Y-90709523D01*
X91190476Y-90804761D01*
X91047619Y-90852380D01*
X90809523Y-90852380D01*
X92333333Y-90852380D02*
X91761904Y-90852380D01*
X92047619Y-90852380D02*
X92047619Y-89852380D01*
X91952380Y-89995238D01*
X91857142Y-90090476D01*
X91761904Y-90138095D01*
X92952380Y-89852380D02*
X93047619Y-89852380D01*
X93142857Y-89900000D01*
X93190476Y-89947619D01*
X93238095Y-90042857D01*
X93285714Y-90233333D01*
X93285714Y-90471428D01*
X93238095Y-90661904D01*
X93190476Y-90757142D01*
X93142857Y-90804761D01*
X93047619Y-90852380D01*
X92952380Y-90852380D01*
X92857142Y-90804761D01*
X92809523Y-90757142D01*
X92761904Y-90661904D01*
X92714285Y-90471428D01*
X92714285Y-90233333D01*
X92761904Y-90042857D01*
X92809523Y-89947619D01*
X92857142Y-89900000D01*
X92952380Y-89852380D01*
X94142857Y-90185714D02*
X94142857Y-90852380D01*
X93904761Y-89804761D02*
X93666666Y-90519047D01*
X94285714Y-90519047D01*
%TO.C,D103*%
X92009523Y-62752380D02*
X92009523Y-61752380D01*
X92247619Y-61752380D01*
X92390476Y-61800000D01*
X92485714Y-61895238D01*
X92533333Y-61990476D01*
X92580952Y-62180952D01*
X92580952Y-62323809D01*
X92533333Y-62514285D01*
X92485714Y-62609523D01*
X92390476Y-62704761D01*
X92247619Y-62752380D01*
X92009523Y-62752380D01*
X93533333Y-62752380D02*
X92961904Y-62752380D01*
X93247619Y-62752380D02*
X93247619Y-61752380D01*
X93152380Y-61895238D01*
X93057142Y-61990476D01*
X92961904Y-62038095D01*
X94152380Y-61752380D02*
X94247619Y-61752380D01*
X94342857Y-61800000D01*
X94390476Y-61847619D01*
X94438095Y-61942857D01*
X94485714Y-62133333D01*
X94485714Y-62371428D01*
X94438095Y-62561904D01*
X94390476Y-62657142D01*
X94342857Y-62704761D01*
X94247619Y-62752380D01*
X94152380Y-62752380D01*
X94057142Y-62704761D01*
X94009523Y-62657142D01*
X93961904Y-62561904D01*
X93914285Y-62371428D01*
X93914285Y-62133333D01*
X93961904Y-61942857D01*
X94009523Y-61847619D01*
X94057142Y-61800000D01*
X94152380Y-61752380D01*
X94819047Y-61752380D02*
X95438095Y-61752380D01*
X95104761Y-62133333D01*
X95247619Y-62133333D01*
X95342857Y-62180952D01*
X95390476Y-62228571D01*
X95438095Y-62323809D01*
X95438095Y-62561904D01*
X95390476Y-62657142D01*
X95342857Y-62704761D01*
X95247619Y-62752380D01*
X94961904Y-62752380D01*
X94866666Y-62704761D01*
X94819047Y-62657142D01*
%TO.C,D102*%
X91809523Y-60552380D02*
X91809523Y-59552380D01*
X92047619Y-59552380D01*
X92190476Y-59600000D01*
X92285714Y-59695238D01*
X92333333Y-59790476D01*
X92380952Y-59980952D01*
X92380952Y-60123809D01*
X92333333Y-60314285D01*
X92285714Y-60409523D01*
X92190476Y-60504761D01*
X92047619Y-60552380D01*
X91809523Y-60552380D01*
X93333333Y-60552380D02*
X92761904Y-60552380D01*
X93047619Y-60552380D02*
X93047619Y-59552380D01*
X92952380Y-59695238D01*
X92857142Y-59790476D01*
X92761904Y-59838095D01*
X93952380Y-59552380D02*
X94047619Y-59552380D01*
X94142857Y-59600000D01*
X94190476Y-59647619D01*
X94238095Y-59742857D01*
X94285714Y-59933333D01*
X94285714Y-60171428D01*
X94238095Y-60361904D01*
X94190476Y-60457142D01*
X94142857Y-60504761D01*
X94047619Y-60552380D01*
X93952380Y-60552380D01*
X93857142Y-60504761D01*
X93809523Y-60457142D01*
X93761904Y-60361904D01*
X93714285Y-60171428D01*
X93714285Y-59933333D01*
X93761904Y-59742857D01*
X93809523Y-59647619D01*
X93857142Y-59600000D01*
X93952380Y-59552380D01*
X94666666Y-59647619D02*
X94714285Y-59600000D01*
X94809523Y-59552380D01*
X95047619Y-59552380D01*
X95142857Y-59600000D01*
X95190476Y-59647619D01*
X95238095Y-59742857D01*
X95238095Y-59838095D01*
X95190476Y-59980952D01*
X94619047Y-60552380D01*
X95238095Y-60552380D01*
%TO.C,C202*%
X97560952Y-141757142D02*
X97513333Y-141804761D01*
X97370476Y-141852380D01*
X97275238Y-141852380D01*
X97132380Y-141804761D01*
X97037142Y-141709523D01*
X96989523Y-141614285D01*
X96941904Y-141423809D01*
X96941904Y-141280952D01*
X96989523Y-141090476D01*
X97037142Y-140995238D01*
X97132380Y-140900000D01*
X97275238Y-140852380D01*
X97370476Y-140852380D01*
X97513333Y-140900000D01*
X97560952Y-140947619D01*
X97941904Y-140947619D02*
X97989523Y-140900000D01*
X98084761Y-140852380D01*
X98322857Y-140852380D01*
X98418095Y-140900000D01*
X98465714Y-140947619D01*
X98513333Y-141042857D01*
X98513333Y-141138095D01*
X98465714Y-141280952D01*
X97894285Y-141852380D01*
X98513333Y-141852380D01*
X99132380Y-140852380D02*
X99227619Y-140852380D01*
X99322857Y-140900000D01*
X99370476Y-140947619D01*
X99418095Y-141042857D01*
X99465714Y-141233333D01*
X99465714Y-141471428D01*
X99418095Y-141661904D01*
X99370476Y-141757142D01*
X99322857Y-141804761D01*
X99227619Y-141852380D01*
X99132380Y-141852380D01*
X99037142Y-141804761D01*
X98989523Y-141757142D01*
X98941904Y-141661904D01*
X98894285Y-141471428D01*
X98894285Y-141233333D01*
X98941904Y-141042857D01*
X98989523Y-140947619D01*
X99037142Y-140900000D01*
X99132380Y-140852380D01*
X99846666Y-140947619D02*
X99894285Y-140900000D01*
X99989523Y-140852380D01*
X100227619Y-140852380D01*
X100322857Y-140900000D01*
X100370476Y-140947619D01*
X100418095Y-141042857D01*
X100418095Y-141138095D01*
X100370476Y-141280952D01*
X99799047Y-141852380D01*
X100418095Y-141852380D01*
%TO.C,C201*%
X97480952Y-138357142D02*
X97433333Y-138404761D01*
X97290476Y-138452380D01*
X97195238Y-138452380D01*
X97052380Y-138404761D01*
X96957142Y-138309523D01*
X96909523Y-138214285D01*
X96861904Y-138023809D01*
X96861904Y-137880952D01*
X96909523Y-137690476D01*
X96957142Y-137595238D01*
X97052380Y-137500000D01*
X97195238Y-137452380D01*
X97290476Y-137452380D01*
X97433333Y-137500000D01*
X97480952Y-137547619D01*
X97861904Y-137547619D02*
X97909523Y-137500000D01*
X98004761Y-137452380D01*
X98242857Y-137452380D01*
X98338095Y-137500000D01*
X98385714Y-137547619D01*
X98433333Y-137642857D01*
X98433333Y-137738095D01*
X98385714Y-137880952D01*
X97814285Y-138452380D01*
X98433333Y-138452380D01*
X99052380Y-137452380D02*
X99147619Y-137452380D01*
X99242857Y-137500000D01*
X99290476Y-137547619D01*
X99338095Y-137642857D01*
X99385714Y-137833333D01*
X99385714Y-138071428D01*
X99338095Y-138261904D01*
X99290476Y-138357142D01*
X99242857Y-138404761D01*
X99147619Y-138452380D01*
X99052380Y-138452380D01*
X98957142Y-138404761D01*
X98909523Y-138357142D01*
X98861904Y-138261904D01*
X98814285Y-138071428D01*
X98814285Y-137833333D01*
X98861904Y-137642857D01*
X98909523Y-137547619D01*
X98957142Y-137500000D01*
X99052380Y-137452380D01*
X100338095Y-138452380D02*
X99766666Y-138452380D01*
X100052380Y-138452380D02*
X100052380Y-137452380D01*
X99957142Y-137595238D01*
X99861904Y-137690476D01*
X99766666Y-137738095D01*
%TD*%
M02*
